<?xml version="1.0" encoding="iso-8859-1"?>
<!-- Generator: Adobe Illustrator 19.0.0, SVG Export Plug-In . SVG Version: 6.00 Build 0)  -->
<svg version="1.1" id="Capa_1" xmlns="http://www.w3.org/2000/svg" xmlns:xlink="http://www.w3.org/1999/xlink" x="0px" y="0px"
	 viewBox="0 0 512.001 512.001" style="enable-background:new 0 0 512.001 512.001;" xml:space="preserve">
<g>
	<g transform="translate(0 1)">
		<g>
			<rect x="221.603" y="373.154" style="fill:#00838F;" width="68.267" height="122.103"/>
			<rect x="221.603" y="373.154" style="fill:#00BCD4;" width="42.667" height="122.103"/>
		</g>
		<path style="fill:#00838F;" d="M459.084,99.695H52.385c21.769-55.593,75.379-92.168,135.083-92.16h136.533
			C383.704,7.526,437.314,44.102,459.084,99.695z"/>
		<path style="fill:#00BCD4;" d="M424.95,99.695H52.385c21.769-55.593,75.379-92.168,135.083-92.16h102.4
			C349.571,7.526,403.181,44.102,424.95,99.695z"/>
		<g>
			<path style="fill:#9E9E9E;" d="M153.336,58.735h204.8c80.118,0,145.067,64.949,145.067,145.067v51.2
				c0,80.118-64.949,145.067-145.067,145.067h-204.8c-80.118,0-145.067-64.949-145.067-145.067v-51.2
				C8.269,123.683,73.218,58.735,153.336,58.735z"/>
			<path style="fill:#BDC3C7;" d="M153.336,58.735h179.2c80.118,0,145.067,64.949,145.067,145.067v51.2
				c0,80.118-64.949,145.067-145.067,145.067h-179.2c-80.118,0-145.067-64.949-145.067-145.067v-51.2
				C8.269,123.683,73.218,58.735,153.336,58.735z"/>
			<path style="fill:#00695C;" d="M469.07,203.801v51.2c0,61.267-49.667,110.933-110.933,110.933h-204.8
				c-61.267,0-110.933-49.667-110.933-110.933v-51.2c0-61.267,49.667-110.933,110.933-110.933h204.8
				C419.403,92.868,469.07,142.535,469.07,203.801z"/>
			<path style="fill:#009688;" d="M443.478,200.422v57.958c0,59.401-48.154,107.554-107.554,107.554H149.966
				c-59.401,0-107.554-48.154-107.554-107.554v-57.958c0-59.4,48.154-107.554,107.554-107.554h185.958
				C395.324,92.868,443.478,141.022,443.478,200.422z"/>
			<path style="fill:#BDC3C7;" d="M178.934,468.335h145.067c9.426,0,17.067,7.641,17.067,17.067v17.067h-179.2v-17.067
				C161.867,475.976,169.508,468.335,178.934,468.335z"/>
		</g>
		<polygon style="fill:#607D8B;" points="289.87,468.335 255.736,502.468 221.603,502.468 255.736,468.335 		"/>
		<path style="fill:#E91E63;" d="M426.667,289.135c0.012,9.056-3.58,17.746-9.984,24.149c-6.404,6.404-15.093,9.996-24.149,9.984
			H119.467c-1.917,0.007-3.831-0.165-5.717-0.512c-15.008-2.63-26.5-14.816-28.246-29.952c-0.085-1.195-0.171-2.475-0.171-3.669
			c-0.013-9.057,3.58-17.746,9.984-24.15c6.404-6.404,15.093-9.996,24.15-9.984h273.067c9.053-0.002,17.737,3.593,24.139,9.995
			C423.074,271.398,426.67,280.081,426.667,289.135z"/>
		<g>
			<path style="fill:#9D27B0;" d="M142.775,250.324c-0.351,0.52-0.751,1.006-1.195,1.451l-53.589,53.504
				c-3.908-4.94-6.335-10.888-6.998-17.152l37.802-37.803H142.775z"/>
			<path style="fill:#9D27B0;" d="M234.764,255.001c-0.351,0.521-0.751,1.007-1.195,1.451l-66.817,66.816h-32.511
				c0.324-0.54,0.727-1.029,1.195-1.451l66.902-66.816H234.764z"/>
			<path style="fill:#9D27B0;" d="M299.862,285.465l-37.717,37.803h-23.979c0.351-0.521,0.752-1.006,1.196-1.451l48.469-48.384
				c1.594-1.598,3.759-2.496,6.016-2.496c2.257,0,4.422,0.898,6.016,2.496c1.636,1.574,2.56,3.746,2.56,6.016
				S301.498,283.891,299.862,285.465z"/>
		</g>
		<path style="fill:#558B30;" d="M426.667,289.135c0.012,9.056-3.58,17.746-9.984,24.149s-15.093,9.996-24.149,9.984l-119.467,0
			v-68.267h119.467c9.053-0.002,17.737,3.593,24.139,9.995C423.074,271.398,426.67,280.081,426.667,289.135z"/>
		<path style="fill:#4CAF50;" d="M392.534,289.135c0.105,8.708-2.691,17.204-7.945,24.149c-4.546,6.088-11.625,9.765-19.219,9.984
			h-95.076v-68.267h95.076C380.378,255.001,392.534,270.276,392.534,289.135z"/>
	</g>
	<g>
		<path d="M466.558,95.876C443.294,37.748,386.877-0.265,324.267,0.001H187.734C125.124-0.265,68.707,37.748,45.443,95.876
			C16.348,124.653-0.018,163.879,0.001,204.801v51.2c0.098,84.79,68.81,153.502,153.6,153.6h59.733v51.2h-34.133
			c-14.132,0.015-25.585,11.468-25.6,25.6v17.067c-0.001,2.264,0.897,4.435,2.498,6.035c1.601,1.601,3.772,2.499,6.035,2.498h179.2
			c2.264,0.001,4.435-0.897,6.035-2.498c1.601-1.601,2.499-3.772,2.498-6.035v-17.067c-0.015-14.132-11.468-25.585-25.6-25.6h-25.6
			v-51.2h59.733c84.79-0.098,153.502-68.81,153.6-153.6v-51.2C512.019,163.879,495.654,124.653,466.558,95.876z M187.734,17.068
			h136.533c42.19,0.202,81.953,19.759,107.868,53.054c-22.585-12.434-47.953-18.943-73.734-18.92h-204.8
			c-25.782-0.023-51.149,6.486-73.734,18.92C105.781,36.827,145.544,17.27,187.734,17.068z M170.667,486.401
			c0.003-4.712,3.822-8.53,8.533-8.533h56.2l-17.067,17.067h-47.667V486.401z M269.534,477.868l-17.067,17.067h-10l17.067-17.067
			H269.534z M332.801,486.401v8.533h-56.2l17.067-17.067h30.6C328.979,477.871,332.798,481.69,332.801,486.401z M281.601,460.801
			h-51.2v-51.2h51.2V460.801z M494.934,256.001c-0.086,75.37-61.164,136.447-136.533,136.533h-204.8
			c-75.37-0.086-136.447-61.164-136.533-136.533v-51.2c0.086-75.37,61.164-136.447,136.533-136.533h204.8
			c75.37,0.086,136.447,61.164,136.533,136.533V256.001z"/>
		<path d="M358.401,85.335h-204.8C87.652,85.409,34.208,138.852,34.134,204.801v51.2c0.074,65.949,53.518,119.393,119.467,119.467
			h204.8c65.949-0.074,119.393-53.518,119.467-119.467v-51.2C477.793,138.852,424.35,85.409,358.401,85.335z M460.801,256.001
			c-0.062,56.528-45.872,102.338-102.4,102.4h-204.8c-56.528-0.062-102.338-45.872-102.4-102.4v-51.2
			c0.062-56.528,45.872-102.338,102.4-102.4h204.8c56.528,0.062,102.338,45.872,102.4,102.4V256.001z"/>
		<path d="M392.534,247.468H119.467c-23.553,0.028-42.639,19.114-42.667,42.667c0.029,9.159,3.032,18.062,8.558,25.366
			c0.036,0.037,0.046,0.089,0.083,0.126l0.045,0.03c7.991,10.752,20.584,17.106,33.98,17.145h273.067
			c23.564,0,42.667-19.103,42.667-42.667C435.201,266.571,416.098,247.468,392.534,247.468z M264.534,315.735h-13.533l13.533-13.533
			V315.735z M264.534,278.068l-37.667,37.667h-27.067l51.2-51.2h13.533V278.068z M148.601,315.735l51.2-51.2h27.067l-51.2,51.2
			H148.601z M119.467,264.535h5l-30.142,30.141c-1.443-7.47,0.548-15.193,5.421-21.035S111.86,264.456,119.467,264.535z
			 M103.309,309.826l45.292-45.292h27.067l-51.2,51.2h-5C113.557,315.709,107.842,313.619,103.309,309.826z M392.534,315.735
			H281.601v-51.2h110.933c14.138,0,25.6,11.462,25.6,25.6C418.134,304.273,406.673,315.735,392.534,315.735z"/>
		<path d="M130.501,210.834c1.6,1.601,3.77,2.5,6.033,2.5c2.263,0,4.433-0.899,6.033-2.5l28.1-28.1l28.1,28.1
			c3.338,3.296,8.711,3.279,12.029-0.038c3.317-3.317,3.334-8.691,0.038-12.029l-28.1-28.1l28.1-28.1
			c3.296-3.338,3.279-8.711-0.038-12.029c-3.317-3.317-8.691-3.334-12.029-0.038l-28.1,28.1l-28.1-28.1
			c-3.338-3.296-8.711-3.279-12.029,0.038c-3.317,3.317-3.334,8.691-0.038,12.029l28.1,28.1l-28.1,28.1
			c-1.6,1.6-2.5,3.77-2.499,6.033C128.001,207.064,128.9,209.235,130.501,210.834z"/>
		<path d="M301.168,210.834c1.6,1.601,3.77,2.5,6.033,2.5c2.263,0,4.433-0.899,6.033-2.5l28.1-28.1l28.1,28.1
			c3.338,3.296,8.711,3.279,12.029-0.038s3.334-8.691,0.038-12.029l-28.1-28.1l28.1-28.1c3.296-3.338,3.279-8.711-0.038-12.029
			c-3.317-3.317-8.691-3.334-12.029-0.038l-28.1,28.1l-28.1-28.1c-3.338-3.296-8.711-3.279-12.029,0.038
			c-3.317,3.317-3.334,8.691-0.038,12.029l28.1,28.1l-28.1,28.1c-1.6,1.6-2.5,3.77-2.499,6.033
			C298.668,207.064,299.567,209.235,301.168,210.834z"/>
	</g>
</g>
<g>
</g>
<g>
</g>
<g>
</g>
<g>
</g>
<g>
</g>
<g>
</g>
<g>
</g>
<g>
</g>
<g>
</g>
<g>
</g>
<g>
</g>
<g>
</g>
<g>
</g>
<g>
</g>
<g>
</g>
</svg>
