<?xml version="1.0" encoding="iso-8859-1"?>
<!-- Generator: Adobe Illustrator 19.0.0, SVG Export Plug-In . SVG Version: 6.00 Build 0)  -->
<svg version="1.1" id="Capa_1" xmlns="http://www.w3.org/2000/svg" xmlns:xlink="http://www.w3.org/1999/xlink" x="0px" y="0px"
	 viewBox="0 0 512.001 512.001" style="enable-background:new 0 0 512.001 512.001;" xml:space="preserve">
<g>
	<g transform="translate(0 1)">
		<g>
			<rect x="221.603" y="373.154" style="fill:#00838F;" width="68.267" height="122.103"/>
			<rect x="221.603" y="373.154" style="fill:#00BCD4;" width="42.667" height="122.103"/>
		</g>
		<path style="fill:#00838F;" d="M459.083,99.695H52.385c21.769-55.593,75.379-92.168,135.083-92.16H324
			C383.704,7.526,437.314,44.102,459.083,99.695z"/>
		<path style="fill:#00BCD4;" d="M424.95,99.695H52.385c21.769-55.593,75.379-92.168,135.083-92.16h102.4
			C349.571,7.526,403.18,44.102,424.95,99.695z"/>
		<g>
			<path style="fill:#9E9E9E;" d="M153.336,58.735h204.8c80.118,0,145.067,64.949,145.067,145.067v51.2
				c0,80.118-64.949,145.067-145.067,145.067h-204.8c-80.118,0-145.067-64.949-145.067-145.067v-51.2
				C8.269,123.683,73.218,58.735,153.336,58.735z"/>
			<path style="fill:#BDC3C7;" d="M153.336,58.735h179.2c80.118,0,145.067,64.949,145.067,145.067v51.2
				c0,80.118-64.949,145.067-145.067,145.067h-179.2c-80.118,0-145.067-64.949-145.067-145.067v-51.2
				C8.269,123.683,73.218,58.735,153.336,58.735z"/>
			<path style="fill:#00695C;" d="M469.069,203.801v51.2c0,61.267-49.667,110.933-110.933,110.933h-204.8
				c-61.267,0-110.933-49.667-110.933-110.933v-51.2c0-61.267,49.667-110.933,110.933-110.933h204.8
				C419.403,92.868,469.069,142.535,469.069,203.801z"/>
			<path style="fill:#009688;" d="M443.478,200.422v57.958c0,59.401-48.154,107.554-107.554,107.554H149.965
				c-59.401,0-107.554-48.154-107.554-107.554v-57.958c0-59.4,48.154-107.554,107.554-107.554h185.958
				C395.324,92.868,443.478,141.022,443.478,200.422z"/>
			<path style="fill:#BDC3C7;" d="M178.934,468.335H324c9.426,0,17.067,7.641,17.067,17.067v17.067h-179.2v-17.067
				C161.867,475.976,169.508,468.335,178.934,468.335z"/>
		</g>
		<polygon style="fill:#607D8B;" points="289.869,468.335 255.736,502.468 221.603,502.468 255.736,468.335 		"/>
		<g>
			<circle style="fill:#65DDB9;" cx="140.536" cy="199.535" r="12.8"/>
			<circle style="fill:#65DDB9;" cx="345.336" cy="199.535" r="12.8"/>
		</g>
		<path style="fill:#4CAF50;" d="M230.4,203.801c0.017,11.847-2.729,23.534-8.021,34.133H84.821
			c-10.694-21.499-10.694-46.768,0-68.267H222.38C227.671,180.267,230.418,191.955,230.4,203.801z"/>
		<path style="fill:#558B30;" d="M204.8,203.801c0.028,12.618-4.659,24.792-13.141,34.133h-76.117
			c-17.522-19.382-17.522-48.884,0-68.267h76.117C200.142,179.01,204.828,191.183,204.8,203.801z"/>
		<circle style="fill:#FFFFFF;" cx="140.8" cy="199.535" r="12.8"/>
		<path style="fill:#4CAF50;" d="M435.2,203.801c0.017,11.847-2.729,23.534-8.021,34.133H289.621
			c-10.694-21.499-10.694-46.768,0-68.267H427.18C432.471,180.267,435.218,191.955,435.2,203.801z"/>
		<path style="fill:#558B30;" d="M409.6,203.801c0.028,12.618-4.659,24.792-13.141,34.133h-76.117
			c-17.522-19.382-17.522-48.884,0-68.267h76.117C404.942,179.01,409.628,191.183,409.6,203.801z"/>
		<g>
			<path style="fill:#8BC34A;" d="M179.2,203.801c0.028,12.618-4.659,24.792-13.141,34.133h-50.517
				c-17.522-19.382-17.522-48.884,0-68.267h50.517C174.542,179.01,179.228,191.183,179.2,203.801z"/>
			<path style="fill:#8BC34A;" d="M384,203.801c0.028,12.618-4.659,24.792-13.141,34.133h-50.517
				c-17.522-19.382-17.522-48.884,0-68.267h50.517C379.342,179.01,384.028,191.183,384,203.801z"/>
		</g>
		<g>
			<circle style="fill:#FFFFFF;" cx="345.6" cy="199.535" r="12.8"/>
			<path style="fill:#67B9CC;" d="M247.459,348.868c-4.299-0.005-7.923-3.208-8.457-7.474c-0.533-4.266,2.191-8.263,6.357-9.326
				l30.775-7.834l-10.166-4.875c-5.502-2.044-9.152-7.296-9.15-13.166c0.002-5.87,3.655-11.119,9.159-13.16l10.183-4.858
				l-30.8-7.842c-4.566-1.164-7.323-5.809-6.158-10.375s5.809-7.323,10.375-6.158l35.917,9.142c6.78,1.179,12.053,6.55,13.108,13.35
				c0.398,6.262-3.263,12.073-9.083,14.417l-11.484,5.483l11.483,5.5c5.82,2.344,9.482,8.155,9.084,14.417
				c-1.056,6.803-6.333,12.175-13.117,13.35l-35.908,9.142C248.884,348.78,248.173,348.869,247.459,348.868z"/>
			<path style="fill:#AD1457;" d="M499.969,359.023c-2.184-5.259-5.372-10.042-9.387-14.08c-3.907-4.135-8.648-7.393-13.909-9.557
				c-5.38-2.363-11.191-3.583-17.067-3.584c-1.596-0.002-3.191,0.083-4.778,0.256c-0.683,0.085-1.196,0.256-1.877,0.341
				c-2.119,0.232-4.208,0.69-6.23,1.365c-1.427,0.451-2.823,0.993-4.181,1.621c-5.275,2.184-10.04,5.439-13.995,9.557
				c-4.379,4.795-7.901,10.309-10.41,16.299c-1.797-4.264-4.088-8.302-6.827-12.032c-1.092-1.506-2.289-2.931-3.583-4.267
				c-0.755-0.783-1.553-1.523-2.389-2.219c-3.408-3.108-7.337-5.592-11.605-7.339c-5.374-2.38-11.189-3.601-17.067-3.584
				c-4.342-0.001-8.658,0.661-12.8,1.963c-1.451,0.512-2.901,1.024-4.267,1.621c-5.261,2.165-10.002,5.422-13.909,9.557
				c-12.691,12.921-16.391,32.194-9.387,48.896l1.367,2.475l52.394,59.733l2.646,3.072l2.304,2.475l10.325,11.691l9.217,10.496
				c0.913,1.018,2.216,1.6,3.583,1.6s2.67-0.582,3.583-1.6l76.885-87.467l1.367-2.475c2.351-5.5,3.542-11.426,3.497-17.408
				C503.495,370.451,502.304,364.528,499.969,359.023z"/>
			<path style="fill:#E91E63;" d="M477.867,376.431c0.044,5.982-1.146,11.908-3.498,17.408l-1.367,2.475l-67.669,76.971
				l-10.325-11.691l-2.304-2.475l-2.645-3.072l-52.394-59.733l-1.367-2.475c-2.352-5.5-3.543-11.426-3.498-17.408
				c-0.015-11.783,4.614-23.096,12.885-31.488c3.907-4.135,8.648-7.393,13.909-9.557c1.365-0.597,2.816-1.109,4.267-1.621
				c4.142-1.301,8.458-1.963,12.8-1.963c5.877-0.017,11.693,1.204,17.067,3.584c4.269,1.747,8.197,4.231,11.605,7.339
				c0.837,0.695,1.634,1.436,2.389,2.219c1.294,1.335,2.492,2.761,3.583,4.267c2.739,3.73,5.03,7.768,6.827,12.032
				c2.509-5.99,6.031-11.503,10.411-16.299c3.954-4.119,8.719-7.373,13.995-9.557c1.358-0.629,2.755-1.17,4.181-1.621
				c1.478,0.465,2.93,1.006,4.352,1.621c5.261,2.165,10.002,5.422,13.909,9.557C473.252,353.334,477.882,364.648,477.867,376.431z"
				/>
		</g>
	</g>
	<g>
		<path d="M466.558,95.876C443.294,37.748,386.877-0.265,324.267,0.001H187.734C125.124-0.265,68.707,37.748,45.443,95.876
			C16.347,124.653-0.018,163.879,0,204.801v51.2c0.098,84.79,68.81,153.502,153.6,153.6h59.733v51.2H179.2
			c-14.132,0.015-25.585,11.468-25.6,25.6v17.067c-0.001,2.264,0.897,4.435,2.498,6.035c1.601,1.601,3.772,2.499,6.035,2.498h179.2
			c2.264,0.001,4.435-0.897,6.035-2.498c1.601-1.601,2.499-3.772,2.498-6.035v-17.067c-0.015-14.132-11.468-25.585-25.6-25.6h-25.6
			v-51.2h38.421l70.962,80.692c2.509,2.931,6.169,4.626,10.027,4.642c3.858,0.016,7.532-1.648,10.065-4.558l76.9-87.442
			c0.437-0.496,0.815-1.041,1.125-1.625l1.633-3.125c2.802-6.557,4.231-13.619,4.2-20.75c0.015-7.09-1.4-14.11-4.158-20.642
			c-2.555-6.238-6.313-11.912-11.058-16.7c-1.994-2.04-4.163-3.901-6.481-5.564c14.221-23.724,21.722-50.869,21.698-78.528v-51.2
			C512.019,163.879,495.654,124.653,466.558,95.876z M187.734,17.068h136.533c42.19,0.202,81.953,19.759,107.868,53.054
			c-22.585-12.434-47.953-18.943-73.734-18.92H153.6c-25.782-0.023-51.149,6.486-73.734,18.92
			C105.78,36.827,145.543,17.27,187.734,17.068z M170.667,486.401c0.003-4.712,3.822-8.53,8.533-8.533h56.2l-17.067,17.067h-47.667
			V486.401z M269.534,477.868l-17.067,17.067h-10l17.067-17.067H269.534z M332.8,486.401v8.533h-56.2l17.067-17.067h30.6
			C328.979,477.871,332.797,481.69,332.8,486.401z M281.6,460.801h-51.2v-51.2h51.2V460.801z M414.853,341.128
			c-0.337-0.367-0.694-0.783-1.01-1.102c-4.712-4.912-10.37-8.818-16.633-11.483c-13.032-5.621-27.8-5.645-40.85-0.067
			c-6.292,2.587-11.968,6.472-16.658,11.4c-4.826,4.821-8.65,10.551-11.25,16.858c-0.231,0.547-0.396,1.114-0.608,1.667H153.6
			c-56.528-0.062-102.338-45.872-102.4-102.4v-51.2c0.062-56.528,45.872-102.338,102.4-102.4h204.8
			c56.528,0.062,102.338,45.872,102.4,102.4v51.2C460.65,290.267,443.414,322.198,414.853,341.128z M494.934,377.435
			c0.041,4.576-0.811,9.117-2.508,13.367l-74.292,85.117l-71.023-80.761l-0.146-0.166l-2.306-2.622l-0.508-0.933
			c-1.887-4.425-2.845-9.19-2.817-14c-0.011-4.848,0.962-9.647,2.859-14.108c1.771-4.317,4.393-8.233,7.708-11.517
			c3.137-3.318,6.947-5.926,11.175-7.65c8.733-3.784,18.647-3.766,27.366,0.05c4.222,1.793,8.034,4.431,11.2,7.75
			c0.997,1.03,1.93,2.121,2.792,3.267c2.313,3.186,4.256,6.625,5.792,10.25c1.307,3.219,4.434,5.325,7.908,5.325
			c3.474,0,6.602-2.106,7.908-5.325c2.083-4.999,5.015-9.6,8.667-13.6c3.19-3.321,7.028-5.953,11.275-7.733
			c2.581-1.164,5.318-1.944,8.125-2.317l1.783-0.267c5.956-0.69,11.988,0.231,17.467,2.667c4.254,1.771,8.081,4.43,11.225,7.8
			c3.235,3.249,5.79,7.111,7.517,11.358C493.983,367.829,494.947,372.608,494.934,377.435z M494.934,256.001
			c0.015,24.953-6.858,49.426-19.863,70.722c-6.121-1.956-12.562-2.709-18.969-2.218c14.122-20.056,21.721-43.975,21.765-68.504
			v-51.2C477.793,138.852,424.349,85.409,358.4,85.335H153.6C87.652,85.409,34.208,138.852,34.134,204.801v51.2
			C34.208,321.95,87.652,375.394,153.6,375.468h170.764c-0.024,0.657-0.097,1.306-0.097,1.967c0.001,5.116,0.757,10.204,2.244,15.1
			H153.6c-75.37-0.086-136.447-61.164-136.533-136.533v-51.2C17.153,129.432,78.231,68.354,153.6,68.268h204.8
			c75.37,0.086,136.447,61.164,136.533,136.533V256.001z"/>
		<path d="M238.934,204.801c0.03-12.962-2.941-25.756-8.679-37.379l-0.065-0.152c-0.069-0.137-0.112-0.282-0.181-0.42
			c-0.223-0.333-0.47-0.649-0.74-0.946c-0.328-0.531-0.713-1.024-1.15-1.469c-0.875-0.64-1.799-1.209-2.765-1.702
			c-0.553-0.172-1.122-0.286-1.698-0.341c-0.419-0.121-0.848-0.207-1.281-0.259H84.825c-0.434,0.051-0.863,0.138-1.283,0.258
			c-0.576,0.056-1.144,0.17-1.696,0.342c-0.516,0.224-1.007,0.501-1.467,0.827c-0.462,0.25-0.898,0.544-1.303,0.878
			c-0.431,0.441-0.813,0.929-1.136,1.455c-0.273,0.3-0.523,0.619-0.748,0.957c-0.069,0.138-0.114,0.284-0.181,0.422l-0.064,0.147
			c-11.574,23.577-11.574,51.185,0,74.762l0.062,0.145c0.069,0.139,0.114,0.285,0.182,0.423c0.398,0.779,0.913,1.491,1.527,2.113
			c0.125,0.13,0.28,0.216,0.415,0.337c0.598,0.542,1.271,0.995,1.998,1.346c0.247,0.122,0.501,0.232,0.759,0.329
			c0.93,0.366,1.917,0.565,2.917,0.588l0.017,0.004h137.55l0.018-0.004c0.999-0.023,1.987-0.222,2.917-0.588
			c0.259-0.097,0.513-0.206,0.761-0.329c0.727-0.35,1.4-0.804,1.998-1.347c0.133-0.121,0.287-0.206,0.413-0.335
			c0.615-0.622,1.13-1.335,1.527-2.114c0.069-0.138,0.112-0.283,0.181-0.421l0.065-0.15
			C235.993,230.557,238.963,217.764,238.934,204.801z M207.518,230.401c7.754-16.186,7.754-35.014,0-51.2h9.253
			c6.794,16.39,6.794,34.81,0,51.2H207.518z M119.765,230.401c-11.775-15.036-11.775-36.164,0-51.2h67.671
			c11.775,15.036,11.775,36.164,0,51.2H119.765z M90.43,230.401c-6.794-16.39-6.794-34.81,0-51.2h9.253
			c-7.754,16.186-7.754,35.014,0,51.2H90.43z"/>
		<circle cx="140.8" cy="200.535" r="12.8"/>
		<path d="M443.734,204.801c0.03-12.962-2.941-25.756-8.679-37.379l-0.065-0.152c-0.069-0.137-0.112-0.282-0.181-0.42
			c-0.223-0.333-0.47-0.649-0.74-0.946c-0.328-0.531-0.713-1.024-1.15-1.469c-0.875-0.64-1.799-1.209-2.765-1.702
			c-0.553-0.172-1.122-0.286-1.698-0.341c-0.419-0.121-0.848-0.207-1.281-0.259h-137.55c-0.437,0.051-0.87,0.138-1.293,0.26
			c-0.569,0.056-1.131,0.169-1.677,0.338c-0.967,0.492-1.894,1.06-2.77,1.701c-0.44,0.447-0.828,0.942-1.156,1.476
			c-0.269,0.295-0.516,0.609-0.738,0.941c-0.069,0.138-0.114,0.284-0.181,0.422l-0.064,0.147c-11.574,23.577-11.574,51.185,0,74.762
			l0.062,0.145c0.069,0.139,0.114,0.285,0.182,0.423c0.398,0.779,0.913,1.491,1.527,2.113c0.125,0.13,0.28,0.216,0.415,0.337
			c0.598,0.542,1.271,0.995,1.998,1.346c0.247,0.122,0.501,0.232,0.759,0.329c0.93,0.366,1.917,0.565,2.917,0.588l0.017,0.004
			h137.55l0.018-0.004c0.999-0.023,1.987-0.222,2.917-0.588c0.259-0.097,0.513-0.206,0.761-0.329c0.727-0.35,1.4-0.804,1.998-1.347
			c0.133-0.121,0.288-0.206,0.413-0.335c0.615-0.622,1.13-1.335,1.527-2.114c0.069-0.138,0.112-0.283,0.181-0.421l0.065-0.15
			C440.793,230.557,443.763,217.764,443.734,204.801z M412.318,230.401c7.754-16.186,7.754-35.014,0-51.2h9.253
			c6.794,16.39,6.794,34.81,0,51.2H412.318z M324.565,230.401c-11.775-15.036-11.775-36.164,0-51.2h67.671
			c11.775,15.036,11.775,36.164,0,51.2H324.565z M295.23,230.401c-6.794-16.39-6.794-34.81,0-51.2h9.253
			c-7.754,16.186-7.754,35.014,0,51.2H295.23z"/>
		<circle cx="345.6" cy="200.535" r="12.8"/>
		<path d="M298.6,287.293c-1.055-6.8-6.328-12.171-13.108-13.35l-35.917-9.142c-4.566-1.164-9.211,1.593-10.375,6.158
			c-1.164,4.566,1.593,9.211,6.158,10.375l30.8,7.842l-10.183,4.858c-5.504,2.041-9.157,7.29-9.159,13.16
			c-0.002,5.87,3.648,11.121,9.15,13.166l10.167,4.875l-30.775,7.834c-4.164,1.064-6.887,5.06-6.354,9.325
			c0.533,4.265,4.156,7.468,8.454,7.474c0.714,0.001,1.425-0.088,2.116-0.267l35.908-9.142c6.784-1.175,12.062-6.547,13.117-13.35
			c0.398-6.262-3.263-12.073-9.083-14.417l-11.484-5.5l11.483-5.483C295.337,299.366,298.998,293.555,298.6,287.293z"/>
	</g>
</g>
<g>
</g>
<g>
</g>
<g>
</g>
<g>
</g>
<g>
</g>
<g>
</g>
<g>
</g>
<g>
</g>
<g>
</g>
<g>
</g>
<g>
</g>
<g>
</g>
<g>
</g>
<g>
</g>
<g>
</g>
</svg>
