<?xml version="1.0" encoding="iso-8859-1"?>
<!-- Generator: Adobe Illustrator 19.0.0, SVG Export Plug-In . SVG Version: 6.00 Build 0)  -->
<svg version="1.1" id="Capa_1" xmlns="http://www.w3.org/2000/svg" xmlns:xlink="http://www.w3.org/1999/xlink" x="0px" y="0px"
	 viewBox="0 0 512.001 512.001" style="enable-background:new 0 0 512.001 512.001;" xml:space="preserve">
<g>
	<g transform="translate(0 1)">
		<g>
			<rect x="221.603" y="373.154" style="fill:#00838F;" width="68.267" height="122.103"/>
			<rect x="221.603" y="373.154" style="fill:#00BCD4;" width="42.667" height="122.103"/>
		</g>
		<path style="fill:#00838F;" d="M459.084,99.695H52.385c21.769-55.593,75.379-92.168,135.083-92.16h136.533
			C383.704,7.526,437.314,44.102,459.084,99.695z"/>
		<path style="fill:#00BCD4;" d="M424.95,99.695H52.385c21.769-55.593,75.379-92.168,135.083-92.16h102.4
			C349.571,7.526,403.181,44.102,424.95,99.695z"/>
		<g>
			<path style="fill:#9E9E9E;" d="M153.336,58.735h204.8c80.118,0,145.067,64.949,145.067,145.067v51.2
				c0,80.118-64.949,145.067-145.067,145.067h-204.8c-80.118,0-145.067-64.949-145.067-145.067v-51.2
				C8.269,123.683,73.218,58.735,153.336,58.735z"/>
			<path style="fill:#BDC3C7;" d="M153.336,58.735h179.2c80.118,0,145.067,64.949,145.067,145.067v51.2
				c0,80.118-64.949,145.067-145.067,145.067h-179.2c-80.118,0-145.067-64.949-145.067-145.067v-51.2
				C8.269,123.683,73.218,58.735,153.336,58.735z"/>
			<path style="fill:#00695C;" d="M469.07,203.801v51.2c0,61.267-49.667,110.933-110.933,110.933h-204.8
				c-61.267,0-110.933-49.667-110.933-110.933v-51.2c0-61.267,49.667-110.933,110.933-110.933h204.8
				C419.403,92.868,469.07,142.535,469.07,203.801z"/>
			<path style="fill:#009688;" d="M443.478,200.422v57.958c0,59.401-48.154,107.554-107.554,107.554H149.966
				c-59.401,0-107.554-48.154-107.554-107.554v-57.958c0-59.4,48.154-107.554,107.554-107.554h185.958
				C395.324,92.868,443.478,141.022,443.478,200.422z"/>
			<path style="fill:#BDC3C7;" d="M178.934,468.335h145.067c9.426,0,17.067,7.641,17.067,17.067v17.067h-179.2v-17.067
				C161.867,475.976,169.508,468.335,178.934,468.335z"/>
		</g>
		<polygon style="fill:#607D8B;" points="289.87,468.335 255.736,502.468 221.603,502.468 255.736,468.335 		"/>
		<g>
			<circle style="fill:#65DDB9;" cx="140.536" cy="199.535" r="12.8"/>
			<circle style="fill:#65DDB9;" cx="345.336" cy="199.535" r="12.8"/>
		</g>
		<g>
			<path style="fill:#FEC108;" d="M234.667,203.801c0.017,11.847-2.729,23.534-8.021,34.133H89.089
				c-5.292-10.599-8.039-22.287-8.021-34.133c0.019-4.403,0.39-8.797,1.109-13.141l31.488-12.629l58.368-23.381l31.403-12.629
				C223.085,156.47,234.682,179.411,234.667,203.801z"/>
			<path style="fill:#FEC108;" d="M430.934,203.801c0.017,11.847-2.729,23.534-8.021,34.133H285.355
				c-16.591-33.365-6.799-73.827,23.211-95.915l31.403,12.629l58.368,23.381l31.488,12.629
				C430.544,195.004,430.915,199.398,430.934,203.801z"/>
		</g>
		<path style="fill:#C52828;" d="M209.067,203.801c0.028,12.618-4.659,24.792-13.141,34.133h-76.117
			c-14.9-16.488-17.387-40.735-6.144-59.904l45.056-18.005l13.312-5.376C193.963,160.934,209.074,180.989,209.067,203.801z"/>
		<path style="fill:#F44335;" d="M183.467,203.801c0.028,12.618-4.659,24.792-13.141,34.133h-50.517
			c-14.9-16.488-17.387-40.735-6.144-59.904l45.056-18.005C174.078,169.265,183.47,185.878,183.467,203.801z"/>
		<path style="fill:#C52828;" d="M405.334,203.801c0.028,12.618-4.659,24.792-13.141,34.133h-76.117
			c-11.802-13.086-16.021-31.333-11.162-48.272s18.111-30.174,35.055-35.013l13.312,5.376l45.056,18.005
			C402.921,185.845,405.337,194.742,405.334,203.801z"/>
		<path style="fill:#F44335;" d="M405.334,203.801c0.028,12.618-4.659,24.792-13.141,34.133h-50.517
			c-10.215-11.319-14.831-26.613-12.585-41.694c2.246-15.08,11.12-28.365,24.19-36.216l45.056,18.005
			C402.921,185.845,405.337,194.742,405.334,203.801z"/>
	</g>
	<g>
		<path d="M466.558,95.876C443.294,37.748,386.877-0.265,324.267,0.001H187.734C125.124-0.265,68.707,37.748,45.443,95.876
			C16.348,124.653-0.018,163.879,0.001,204.801v51.2c0.098,84.79,68.81,153.502,153.6,153.6h59.733v51.2h-34.133
			c-14.132,0.015-25.585,11.468-25.6,25.6v17.067c-0.001,2.264,0.897,4.435,2.498,6.035c1.601,1.601,3.772,2.499,6.035,2.498h179.2
			c2.264,0.001,4.435-0.897,6.035-2.498c1.601-1.601,2.499-3.772,2.498-6.035v-17.067c-0.015-14.132-11.468-25.585-25.6-25.6h-25.6
			v-51.2h59.733c84.79-0.098,153.502-68.81,153.6-153.6v-51.2C512.019,163.879,495.654,124.653,466.558,95.876z M187.734,17.068
			h136.533c42.19,0.202,81.953,19.759,107.868,53.054c-22.585-12.434-47.953-18.943-73.734-18.92h-204.8
			c-25.782-0.023-51.149,6.486-73.734,18.92C105.781,36.827,145.544,17.27,187.734,17.068z M170.667,486.401
			c0.003-4.712,3.822-8.53,8.533-8.533h56.2l-17.067,17.067h-47.667V486.401z M269.534,477.868l-17.067,17.067h-10l17.067-17.067
			H269.534z M332.801,486.401v8.533h-56.2l17.067-17.067h30.6C328.979,477.871,332.798,481.69,332.801,486.401z M281.601,460.801
			h-51.2v-51.2h51.2V460.801z M494.934,256.001c-0.086,75.37-61.164,136.447-136.533,136.533h-204.8
			c-75.37-0.086-136.447-61.164-136.533-136.533v-51.2c0.086-75.37,61.164-136.447,136.533-136.533h204.8
			c75.37,0.086,136.447,61.164,136.533,136.533V256.001z"/>
		<path d="M358.401,85.335h-204.8C87.652,85.409,34.208,138.852,34.134,204.801v51.2c0.053,42.346,22.527,81.498,59.068,102.898
			c0.073,0.058,0.106,0.146,0.182,0.202c0.21,0.157,0.462,0.188,0.681,0.322c18.083,10.504,38.623,16.04,59.536,16.044h204.8
			c20.773-0.002,41.182-5.461,59.182-15.829c0.357-0.154,0.703-0.334,1.034-0.538c0.076-0.056,0.108-0.144,0.182-0.202
			c36.541-21.4,59.016-60.552,59.068-102.898v-51.2C477.793,138.852,424.35,85.409,358.401,85.335z M153.601,358.401
			c-14.463-0.009-28.757-3.103-41.929-9.076c35.652-42.905,88.545-67.724,144.329-67.724s108.677,24.819,144.329,67.724
			c-13.172,5.973-27.466,9.067-41.929,9.076H153.601z M460.801,256.001c-0.01,34.109-17.008,65.973-45.332,84.978
			c-38.825-48.33-97.474-76.445-159.468-76.445s-120.642,28.115-159.468,76.445c-28.324-19.005-45.322-50.869-45.332-84.978v-51.2
			c0.062-56.528,45.872-102.338,102.4-102.4h204.8c56.528,0.062,102.338,45.872,102.4,102.4V256.001z"/>
		<path d="M243.201,204.801c-0.073-27.076-12.935-52.525-34.692-68.642c-0.293-0.161-0.596-0.303-0.907-0.426
			c-0.476-0.285-0.98-0.521-1.504-0.705c-1.032-0.316-2.109-0.458-3.188-0.418c-0.585,0.045-1.164,0.151-1.727,0.318
			c-0.314,0.039-0.626,0.096-0.933,0.172l-121.25,48.642c-0.264,0.152-0.518,0.318-0.763,0.499
			c-2.063,1.026-3.575,2.902-4.139,5.136c-0.135,0.303-0.251,0.614-0.348,0.931c-0.791,4.791-1.198,9.637-1.217,14.492
			c-0.03,12.963,2.941,25.758,8.68,37.381l0.062,0.145c0.069,0.139,0.113,0.285,0.182,0.423c0.397,0.779,0.912,1.491,1.527,2.113
			c0.126,0.13,0.281,0.216,0.415,0.337c0.598,0.542,1.27,0.995,1.997,1.346c0.248,0.122,0.501,0.232,0.76,0.329
			c0.93,0.366,1.917,0.565,2.917,0.588l0.018,0.004h137.55l0.018-0.004c0.999-0.023,1.987-0.222,2.917-0.588
			c0.259-0.097,0.513-0.206,0.761-0.329c0.728-0.35,1.401-0.804,1.998-1.347c0.133-0.121,0.287-0.206,0.413-0.335
			c0.615-0.622,1.13-1.335,1.527-2.114c0.069-0.138,0.113-0.283,0.181-0.421l0.065-0.15
			C240.26,230.557,243.23,217.764,243.201,204.801z M226.134,204.801c-0.009,8.784-1.74,17.482-5.096,25.6h-9.253
			c12.432-25.986,4.425-57.147-18.995-73.92l9.113-3.655C217.3,165.691,226.18,184.737,226.134,204.801z M124.032,230.401
			c-10.013-12.784-11.653-30.231-4.197-44.657l52.287-20.973c16.977,6,28.351,22.024,28.413,40.03
			c-0.043,9.273-3.147,18.273-8.831,25.6H124.032z M94.697,230.401c-3.356-8.118-5.088-16.816-5.096-25.6
			c0.019-2.371,0.158-4.74,0.418-7.097l9.234-3.703c-2.475,12.32-0.824,25.112,4.697,36.401H94.697z"/>
		<circle cx="157.867" cy="200.535" r="12.8"/>
		<circle cx="354.134" cy="200.535" r="12.8"/>
		<path d="M311.751,135.101c-0.302-0.074-0.608-0.13-0.917-0.168c-1.053-0.329-2.166-0.417-3.257-0.257
			c-0.571,0.06-1.135,0.18-1.681,0.358c-0.515,0.182-1.01,0.414-1.48,0.693c-0.317,0.124-0.626,0.269-0.924,0.433
			c-21.756,16.117-34.618,41.566-34.692,68.642c-0.03,12.963,2.941,25.758,8.68,37.381l0.062,0.145
			c0.069,0.139,0.113,0.285,0.182,0.423c0.397,0.779,0.912,1.491,1.527,2.113c0.126,0.13,0.281,0.216,0.415,0.337
			c0.598,0.542,1.27,0.995,1.997,1.346c0.248,0.122,0.501,0.232,0.76,0.329c0.93,0.366,1.917,0.565,2.917,0.588l0.018,0.004h137.55
			l0.018-0.004c0.999-0.023,1.987-0.222,2.917-0.588c0.259-0.097,0.513-0.206,0.761-0.329c0.728-0.35,1.401-0.804,1.998-1.347
			c0.133-0.121,0.287-0.206,0.412-0.335c0.615-0.622,1.13-1.335,1.527-2.114c0.069-0.138,0.113-0.283,0.181-0.421l0.065-0.15
			c5.738-11.623,8.708-24.417,8.679-37.379c-0.019-4.855-0.425-9.701-1.217-14.492c-0.097-0.317-0.213-0.628-0.348-0.931
			c-0.263-1.103-0.787-2.126-1.528-2.984c-0.316-0.411-0.671-0.791-1.059-1.135c-0.479-0.397-1.001-0.739-1.556-1.019
			c-0.243-0.18-0.496-0.346-0.758-0.496L311.751,135.101z M408.052,230.401c5.521-11.288,7.172-24.081,4.697-36.401l9.234,3.703
			c0.26,2.357,0.399,4.726,0.418,7.098c-0.009,8.784-1.74,17.482-5.096,25.6H408.052z M320.299,230.401
			c-5.684-7.327-8.789-16.327-8.831-25.6c0.062-18.006,11.435-34.03,28.413-40.03l52.287,20.973
			c7.455,14.425,5.815,31.873-4.197,44.657H320.299z M310.099,152.826l9.113,3.655c-23.42,16.773-31.427,47.934-18.995,73.92h-9.253
			C279.728,203.138,287.473,171.737,310.099,152.826z"/>
	</g>
</g>
<g>
</g>
<g>
</g>
<g>
</g>
<g>
</g>
<g>
</g>
<g>
</g>
<g>
</g>
<g>
</g>
<g>
</g>
<g>
</g>
<g>
</g>
<g>
</g>
<g>
</g>
<g>
</g>
<g>
</g>
</svg>
