<?xml version="1.0" encoding="iso-8859-1"?>
<!-- Generator: Adobe Illustrator 19.0.0, SVG Export Plug-In . SVG Version: 6.00 Build 0)  -->
<svg version="1.1" id="Capa_1" xmlns="http://www.w3.org/2000/svg" xmlns:xlink="http://www.w3.org/1999/xlink" x="0px" y="0px"
	 viewBox="0 0 512.001 512.001" style="enable-background:new 0 0 512.001 512.001;" xml:space="preserve">
<g>
	<g transform="translate(1 1)">
		<g>
			<rect x="220.867" y="373.154" style="fill:#00838F;" width="68.267" height="122.103"/>
			<rect x="220.867" y="373.154" style="fill:#00BCD4;" width="42.667" height="122.103"/>
		</g>
		<path style="fill:#00838F;" d="M458.35,99.695H51.651c21.77-55.593,75.379-92.168,135.083-92.16h136.533
			C382.971,7.527,436.581,44.102,458.35,99.695z"/>
		<path style="fill:#00BCD4;" d="M424.217,99.695H51.651c21.77-55.593,75.379-92.168,135.083-92.16h102.4
			C348.837,7.527,402.447,44.102,424.217,99.695z"/>
		<g>
			<path style="fill:#9E9E9E;" d="M152.601,58.735h204.8c80.118,0,145.067,64.949,145.067,145.067v51.2
				c0,80.118-64.949,145.067-145.067,145.067h-204.8c-80.118,0-145.067-64.949-145.067-145.067v-51.2
				C7.534,123.683,72.483,58.735,152.601,58.735z"/>
			<path style="fill:#BDC3C7;" d="M152.601,58.735h179.2c80.118,0,145.067,64.949,145.067,145.067v51.2
				c0,80.118-64.949,145.067-145.067,145.067h-179.2c-80.118,0-145.067-64.949-145.067-145.067v-51.2
				C7.534,123.683,72.483,58.735,152.601,58.735z"/>
			<path style="fill:#00695C;" d="M468.334,203.801v51.2c0,61.267-49.667,110.933-110.933,110.933h-204.8
				c-61.267,0-110.933-49.667-110.933-110.933v-51.2c0-61.267,49.667-110.933,110.933-110.933h204.8
				C418.668,92.868,468.334,142.535,468.334,203.801z"/>
			<path style="fill:#009688;" d="M442.734,200.422v57.958c0,59.401-48.154,107.554-107.554,107.554H149.222
				c-59.401,0-107.554-48.154-107.554-107.554v-57.958c0-59.401,48.154-107.554,107.554-107.554H335.18
				C394.58,92.868,442.734,141.022,442.734,200.422z"/>
			<path style="fill:#BDC3C7;" d="M178.201,468.335h145.067c9.426,0,17.067,7.641,17.067,17.067v17.067h-179.2v-17.067
				C161.134,475.976,168.775,468.335,178.201,468.335z"/>
		</g>
		<polygon style="fill:#607D8B;" points="289.134,468.335 255.001,502.468 220.867,502.468 255.001,468.335 		"/>
		<g>
			<path style="fill:#4CAF50;" d="M229.401,203.801c0.017,11.847-2.729,23.534-8.021,34.133H83.822
				c-14.091-28.391-9.292-62.522,12.082-85.926s54.931-31.272,84.48-19.808C209.933,143.665,229.404,172.106,229.401,203.801z"/>
			<path style="fill:#4CAF50;" d="M434.201,203.801c0.017,11.847-2.729,23.534-8.021,34.133H288.622
				c-14.091-28.391-9.292-62.522,12.082-85.926c21.374-23.404,54.931-31.272,84.48-19.808
				C414.733,143.665,434.204,172.106,434.201,203.801z"/>
		</g>
		<g>
			<path style="fill:#8BC34A;" d="M190.659,237.935c8.483-9.342,13.169-21.515,13.141-34.133c0-28.277-22.923-51.2-51.2-51.2
				s-51.2,22.923-51.2,51.2c-0.028,12.618,4.659,24.792,13.141,34.133"/>
			<path style="fill:#8BC34A;" d="M395.459,237.935c8.483-9.342,13.169-21.515,13.141-34.133c0-28.277-22.923-51.2-51.2-51.2
				c-28.277,0-51.2,22.923-51.2,51.2c-0.028,12.618,4.659,24.792,13.141,34.133"/>
		</g>
		<g>
			<g>
				<circle style="fill:#65DDB9;" cx="139.801" cy="199.535" r="12.8"/>
				<circle style="fill:#65DDB9;" cx="344.601" cy="199.535" r="12.8"/>
			</g>
			<path style="fill:#E91E63;" d="M343.757,272.068c3.818-0.33,7.56,1.209,10.041,4.13c2.481,2.921,3.394,6.863,2.45,10.578
				c-10.214,30.633-51.665,53.559-101.247,53.559s-91.034-22.926-101.247-53.559c-0.944-3.715-0.031-7.656,2.45-10.578
				s6.223-4.46,10.041-4.13H343.757z"/>
		</g>
	</g>
	<g>
		<path d="M466.558,95.876C443.294,37.748,386.877-0.265,324.267,0.001H187.734C125.124-0.265,68.707,37.748,45.443,95.876
			C16.348,124.653-0.018,163.879,0.001,204.801v51.2c0.098,84.79,68.81,153.502,153.6,153.6h59.733v51.2h-34.133
			c-14.132,0.015-25.585,11.468-25.6,25.6v17.067c-0.001,2.264,0.897,4.435,2.498,6.035c1.601,1.601,3.772,2.499,6.035,2.498h179.2
			c2.264,0.001,4.435-0.897,6.035-2.498c1.601-1.601,2.499-3.772,2.498-6.035v-17.067c-0.015-14.132-11.468-25.585-25.6-25.6h-25.6
			v-51.2h59.733c84.79-0.098,153.502-68.81,153.6-153.6v-51.2C512.019,163.879,495.654,124.653,466.558,95.876z M187.734,17.068
			h136.533c42.19,0.202,81.953,19.759,107.868,53.054c-22.585-12.434-47.953-18.943-73.734-18.92h-204.8
			c-25.782-0.023-51.149,6.486-73.734,18.92C105.781,36.827,145.544,17.27,187.734,17.068z M170.667,486.401
			c0.003-4.712,3.822-8.53,8.533-8.533h56.2l-17.067,17.067h-47.667V486.401z M269.534,477.868l-17.067,17.067h-10l17.067-17.067
			H269.534z M332.801,486.401v8.533h-56.2l17.067-17.067h30.6C328.979,477.871,332.798,481.69,332.801,486.401z M281.601,460.801
			h-51.2v-51.2h51.2V460.801z M494.934,256.001c-0.086,75.37-61.164,136.447-136.533,136.533h-204.8
			c-75.37-0.086-136.447-61.164-136.533-136.533v-51.2c0.086-75.37,61.164-136.447,136.533-136.533h204.8
			c75.37,0.086,136.447,61.164,136.533,136.533V256.001z"/>
		<path d="M358.401,85.335h-204.8C87.652,85.409,34.208,138.852,34.134,204.801v51.2c0.074,65.949,53.518,119.393,119.467,119.467
			h204.8c65.949-0.074,119.393-53.518,119.467-119.467v-51.2C477.793,138.852,424.35,85.409,358.401,85.335z M460.801,256.001
			c-0.062,56.528-45.872,102.338-102.4,102.4h-204.8c-56.528-0.062-102.338-45.872-102.4-102.4v-51.2
			c0.062-56.528,45.872-102.338,102.4-102.4h204.8c56.528,0.062,102.338,45.872,102.4,102.4V256.001z"/>
		<circle cx="140.801" cy="200.535" r="12.8"/>
		<path d="M84.826,247.468h137.55l0.018-0.004c0.999-0.023,1.987-0.222,2.917-0.588c0.259-0.097,0.513-0.206,0.761-0.329
			c0.728-0.35,1.401-0.804,1.998-1.347c0.133-0.121,0.287-0.206,0.413-0.335c0.615-0.622,1.13-1.335,1.527-2.114
			c0.069-0.138,0.113-0.283,0.181-0.421l0.065-0.15c5.738-11.623,8.708-24.417,8.679-37.379c0-47.128-38.205-85.333-85.333-85.333
			s-85.333,38.205-85.333,85.333c-0.03,12.963,2.941,25.758,8.68,37.381l0.062,0.145c0.069,0.139,0.113,0.285,0.182,0.423
			c0.223,0.333,0.471,0.649,0.741,0.946c0.328,0.531,0.714,1.024,1.151,1.47c0.875,0.64,1.801,1.208,2.767,1.701
			c0.551,0.172,1.118,0.286,1.692,0.341C83.962,247.33,84.391,247.417,84.826,247.468z M110.934,204.801
			c0-23.564,19.103-42.667,42.667-42.667s42.667,19.103,42.667,42.667c-0.043,9.273-3.147,18.273-8.831,25.6h-67.671
			C114.081,223.074,110.977,214.075,110.934,204.801z M153.601,136.535c37.685,0.043,68.224,30.582,68.267,68.267
			c-0.009,8.784-1.74,17.482-5.096,25.6h-9.253c11.97-25.103,5.031-55.146-16.735-72.458s-52.6-17.312-74.366,0
			c-21.766,17.312-28.705,47.355-16.735,72.458H90.43c-3.356-8.118-5.088-16.816-5.096-25.6
			C85.377,167.117,115.916,136.578,153.601,136.535z"/>
		<path d="M443.734,204.801c0-47.128-38.205-85.333-85.333-85.333s-85.333,38.205-85.333,85.333
			c-0.03,12.963,2.941,25.758,8.68,37.381l0.062,0.145c0.069,0.139,0.113,0.285,0.182,0.423c0.222,0.332,0.469,0.647,0.738,0.943
			c0.329,0.533,0.716,1.028,1.155,1.475c0.876,0.64,1.802,1.208,2.769,1.699c0.547,0.17,1.111,0.283,1.681,0.339
			c0.422,0.122,0.853,0.209,1.29,0.261h137.55l0.018-0.004c0.999-0.023,1.987-0.222,2.917-0.588
			c0.259-0.097,0.513-0.206,0.761-0.329c0.728-0.35,1.401-0.804,1.998-1.347c0.133-0.121,0.287-0.206,0.413-0.335
			c0.615-0.622,1.13-1.335,1.527-2.114c0.069-0.138,0.113-0.283,0.181-0.421l0.065-0.15
			C440.793,230.557,443.764,217.764,443.734,204.801z M358.401,136.535c37.685,0.043,68.224,30.582,68.267,68.267
			c-0.009,8.784-1.74,17.482-5.096,25.6h-9.253c11.97-25.103,5.031-55.146-16.735-72.458c-21.766-17.312-52.6-17.312-74.366,0
			c-21.766,17.312-28.705,47.355-16.735,72.458h-9.252c-3.356-8.118-5.087-16.816-5.096-25.6
			C290.177,167.117,320.716,136.578,358.401,136.535z M324.565,230.401c-5.684-7.327-8.789-16.327-8.831-25.6
			c0-23.564,19.103-42.667,42.667-42.667c23.564,0,42.667,19.103,42.667,42.667c-0.043,9.273-3.147,18.273-8.831,25.6H324.565z"/>
		<circle cx="345.601" cy="200.535" r="12.8"/>
		<path d="M344.759,264.535H167.242c-7.047-0.083-13.706,3.217-17.908,8.875c-3.614,4.915-4.612,11.281-2.675,17.067
			c11.658,34.967,56.625,59.392,109.342,59.392s97.683-24.425,109.35-59.4c1.929-5.785,0.928-12.146-2.683-17.059
			C358.465,267.752,351.806,264.452,344.759,264.535z M349.159,285.076c-9.225,27.65-48.4,47.725-93.158,47.725
			s-83.933-20.075-93.15-47.717c-0.211-0.581-0.086-1.23,0.325-1.692c0.997-1.205,2.504-1.87,4.067-1.792h177.517
			c1.562-0.078,3.07,0.587,4.067,1.792C349.233,283.853,349.36,284.496,349.159,285.076z"/>
	</g>
</g>
<g>
</g>
<g>
</g>
<g>
</g>
<g>
</g>
<g>
</g>
<g>
</g>
<g>
</g>
<g>
</g>
<g>
</g>
<g>
</g>
<g>
</g>
<g>
</g>
<g>
</g>
<g>
</g>
<g>
</g>
</svg>
