<?xml version="1.0" encoding="iso-8859-1"?>
<!-- Generator: Adobe Illustrator 19.0.0, SVG Export Plug-In . SVG Version: 6.00 Build 0)  -->
<svg version="1.1" id="Capa_1" xmlns="http://www.w3.org/2000/svg" xmlns:xlink="http://www.w3.org/1999/xlink" x="0px" y="0px"
	 viewBox="0 0 512.002 512.002" style="enable-background:new 0 0 512.002 512.002;" xml:space="preserve">
<g>
	<g transform="translate(1 1)">
		<g>
			<rect x="220.868" y="373.154" style="fill:#00838F;" width="68.267" height="122.103"/>
			<rect x="220.868" y="373.154" style="fill:#00BCD4;" width="42.667" height="122.103"/>
		</g>
		<path style="fill:#00838F;" d="M458.35,99.695H51.652c21.77-55.593,75.379-92.168,135.083-92.16h136.533
			C382.971,7.527,436.581,44.102,458.35,99.695z"/>
		<path style="fill:#00BCD4;" d="M424.217,99.695H51.652c21.77-55.593,75.379-92.168,135.083-92.16h102.4
			C348.838,7.527,402.447,44.102,424.217,99.695z"/>
		<g>
			<path style="fill:#9E9E9E;" d="M152.601,58.735h204.8c80.118,0,145.067,64.949,145.067,145.067v51.2
				c0,80.118-64.949,145.067-145.067,145.067h-204.8c-80.118,0-145.067-64.949-145.067-145.067v-51.2
				C7.534,123.683,72.483,58.735,152.601,58.735z"/>
			<path style="fill:#BDC3C7;" d="M152.601,58.735h179.2c80.118,0,145.067,64.949,145.067,145.067v51.2
				c0,80.118-64.949,145.067-145.067,145.067h-179.2c-80.118,0-145.067-64.949-145.067-145.067v-51.2
				C7.534,123.683,72.483,58.735,152.601,58.735z"/>
			<path style="fill:#00695C;" d="M468.334,203.801v51.2c0,61.267-49.667,110.933-110.933,110.933h-204.8
				c-61.267,0-110.933-49.667-110.933-110.933v-51.2c0-61.267,49.667-110.933,110.933-110.933h204.8
				C418.668,92.868,468.334,142.535,468.334,203.801z"/>
			<path style="fill:#009688;" d="M442.734,200.422v57.958c0,59.401-48.154,107.554-107.554,107.554H149.222
				c-59.401,0-107.554-48.154-107.554-107.554v-57.958c0-59.401,48.154-107.554,107.554-107.554H335.18
				C394.581,92.868,442.734,141.022,442.734,200.422z"/>
			<path style="fill:#BDC3C7;" d="M178.201,468.335h145.067c9.426,0,17.067,7.641,17.067,17.067v17.067h-179.2v-17.067
				C161.134,475.976,168.775,468.335,178.201,468.335z"/>
		</g>
		<polygon style="fill:#607D8B;" points="289.134,468.335 255.001,502.468 220.868,502.468 255.001,468.335 		"/>
		<g>
			<path style="fill:#4CAF50;" d="M222.83,264.644c-8.193-3.041-16.69-5.187-25.344-6.4c-12.906-1.815-26.023-1.498-38.827,0.939
				c-13.404,2.502-26.26,7.356-37.973,14.336c-7.562,4.36-14.58,9.602-20.907,15.616c-5.171-4.745-9.601-10.239-13.141-16.299
				c-18.668-31.265-12.828-71.34,13.987-95.976c26.815-24.636,67.24-27.068,96.815-5.823S237.616,231.367,222.83,264.644z"/>
			<path style="fill:#4CAF50;" d="M423.449,272.836c-3.596,6.022-8.019,11.508-13.141,16.299
				c-6.326-6.014-13.344-11.256-20.907-15.616c-11.713-6.98-24.569-11.834-37.973-14.336c-12.804-2.435-25.92-2.752-38.827-0.939
				c-8.682,1.213-17.207,3.359-25.429,6.4c-14.727-33.269-4.1-72.305,25.458-93.518c29.558-21.213,69.943-18.785,96.747,5.816
				C436.181,201.542,442.055,241.571,423.449,272.836z"/>
		</g>
		<path style="fill:#558B30;" d="M197.486,258.244c-8.337-1.183-16.776-1.469-25.173-0.853c-1.536,0.085-2.987,0.256-4.523,0.427
			c-2.987,0.341-6.059,0.768-9.131,1.365c-13.404,2.502-26.26,7.356-37.973,14.336c-3.112-2.415-5.894-5.226-8.277-8.363
			c-1.396-1.717-2.652-3.543-3.755-5.461c-12.683-21.317-8.261-48.661,10.496-64.893s46.451-16.685,65.728-1.073
			C204.154,209.34,209.467,236.524,197.486,258.244z"/>
		<path style="fill:#8BC34A;" d="M172.313,257.391c-0.108,0.301-0.251,0.587-0.427,0.853c-1.365-0.171-2.731-0.341-4.096-0.427
			c-11.58-1.287-23.288-0.827-34.731,1.365c-7.061,1.316-13.977,3.317-20.651,5.973c-1.396-1.717-2.652-3.543-3.755-5.461
			c-8.239-13.859-9.472-30.789-3.328-45.696c6.144-14.907,18.948-26.051,34.56-30.08c15.149,3.93,27.669,14.573,33.989,28.891
			C180.194,227.128,179.619,243.55,172.313,257.391z"/>
		<path style="fill:#558B30;" d="M401.433,259.695c-3.142,5.297-7.219,9.981-12.032,13.824c-5.514-3.297-11.312-6.095-17.323-8.363
			c-6.673-2.657-13.589-4.657-20.651-5.973c-11.443-2.189-23.151-2.65-34.731-1.365c-1.365,0.085-2.731,0.256-4.096,0.427
			c-0.176-0.266-0.319-0.553-0.427-0.853c-7.295-13.831-7.875-30.236-1.575-44.547c6.3-14.312,18.79-24.963,33.916-28.925h0.085
			c20.086-5.152,41.298,2.306,53.74,18.895C410.783,219.403,412.003,241.855,401.433,259.695z"/>
		<path style="fill:#8BC34A;" d="M375.833,259.695c-1.103,1.918-2.358,3.745-3.755,5.461c-6.673-2.657-13.589-4.657-20.651-5.973
			c-11.443-2.189-23.151-2.65-34.731-1.365c-1.536-0.171-2.987-0.341-4.523-0.427c-7.295-13.831-7.875-30.236-1.575-44.547
			c6.3-14.312,18.79-24.963,33.916-28.925h0.085c15.579,4.077,28.343,15.225,34.479,30.113S384.014,245.825,375.833,259.695z"/>
		<g>
			<circle style="fill:#F44335;" cx="135.534" cy="220.868" r="8.533"/>
			<circle style="fill:#F44335;" cx="374.553" cy="220.868" r="8.533"/>
			<path style="fill:#F44335;" d="M314.734,340.335c-2.264,0.001-4.435-0.897-6.035-2.498c-1.601-1.601-2.499-3.772-2.498-6.035
				c0-12.108-21.025-25.6-51.2-25.6s-51.2,13.492-51.2,25.6c0,4.713-3.821,8.533-8.533,8.533c-4.713,0-8.533-3.821-8.533-8.533
				c0-23.925,29.983-42.667,68.267-42.667s68.267,18.742,68.267,42.667c0.001,2.264-0.897,4.435-2.498,6.035
				C319.169,339.437,316.998,340.336,314.734,340.335z"/>
		</g>
		<g>
			<path style="fill:#00838F;" d="M138.265,417.391c0,23.423-18.988,42.411-42.411,42.411s-42.411-18.988-42.411-42.411
				c0-17.92,17.152-51.115,29.611-72.875c7.168-12.544,12.8-21.248,12.8-21.248S138.265,389.145,138.265,417.391z"/>
			<path style="fill:#00838F;" d="M456.558,417.391c0,23.423-18.988,42.411-42.411,42.411c-23.423,0-42.411-18.988-42.411-42.411
				c0-17.92,17.152-51.115,29.611-72.875c7.168-12.544,12.8-21.248,12.8-21.248S456.558,389.145,456.558,417.391z"/>
		</g>
		<g>
			<path style="fill:#2FA8CC;" d="M112.665,417.391c-0.022,18.488-11.993,34.841-29.611,40.448
				c-17.617-5.607-29.589-21.96-29.611-40.448c0-17.92,17.152-51.115,29.611-72.875C95.513,366.276,112.665,399.471,112.665,417.391
				z"/>
			<path style="fill:#2FA8CC;" d="M430.958,417.391c-0.022,18.488-11.993,34.841-29.611,40.448
				c-17.617-5.607-29.589-21.96-29.611-40.448c0-17.92,17.152-51.115,29.611-72.875
				C413.806,366.276,430.958,399.471,430.958,417.391z"/>
		</g>
	</g>
	<g>
		<path d="M466.558,95.876C443.294,37.748,386.877-0.265,324.268,0.001H187.734C125.124-0.265,68.708,37.748,45.444,95.876
			C16.348,124.653-0.017,163.879,0.001,204.801v51.2c0.067,46.913,21.556,91.227,58.35,120.33
			c-6.784,13.094-11.012,27.361-12.459,42.037c0,28.15,22.82,50.971,50.971,50.971s50.971-22.82,50.971-50.971
			c-0.07-3.018-0.411-6.023-1.019-8.98c2.224,0.096,4.415,0.213,6.786,0.213h59.733v51.2h-34.133
			c-14.132,0.015-25.585,11.468-25.6,25.6v17.067c-0.001,2.264,0.897,4.435,2.498,6.035c1.601,1.601,3.772,2.499,6.035,2.498h179.2
			c2.264,0.001,4.435-0.897,6.035-2.498c1.601-1.601,2.499-3.772,2.498-6.035v-17.067c-0.015-14.132-11.468-25.585-25.6-25.6h-25.6
			v-51.2h59.733c2.371,0,4.562-0.117,6.786-0.213c-0.609,2.957-0.95,5.962-1.019,8.98c0,28.15,22.82,50.971,50.971,50.971
			c28.15,0,50.971-22.82,50.971-50.971c-1.447-14.676-5.675-28.943-12.459-42.037c36.794-29.103,58.283-73.417,58.35-120.329v-51.2
			C512.019,163.879,495.654,124.653,466.558,95.876z M187.734,17.068h136.533c42.19,0.202,81.953,19.759,107.868,53.054
			c-22.585-12.434-47.953-18.943-73.734-18.92h-204.8c-25.782-0.023-51.149,6.486-73.734,18.92
			C105.781,36.827,145.544,17.27,187.734,17.068z M51.201,256.001v-51.2c0.062-56.528,45.872-102.338,102.4-102.4h204.8
			c56.528,0.062,102.338,45.872,102.4,102.4v51.2c0.024,28.06-11.547,54.883-31.974,74.121c-3.19-5.263-5.602-9.058-6.517-10.479
			c-1.671-2.293-4.337-3.65-7.175-3.65s-5.504,1.357-7.175,3.65c-1.997,3.099-10.902,17.113-20.166,34.322
			c-9.526,2.917-19.43,4.412-29.393,4.436h-204.8c-9.962-0.025-19.867-1.519-29.393-4.436c-9.264-17.21-18.169-31.223-20.166-34.322
			c-1.573-2.437-4.275-3.908-7.175-3.908s-5.602,1.472-7.175,3.908c-0.916,1.421-3.328,5.216-6.517,10.479
			C62.748,310.884,51.177,284.061,51.201,256.001z M96.868,452.268c-18.716-0.018-33.886-15.184-33.908-33.9
			c0-17.5,20.425-55.367,33.908-77.884c11.999,19.389,22.163,39.854,30.36,61.131c0.087,0.364,0.199,0.721,0.335,1.07
			c1.838,5.04,2.918,10.325,3.205,15.682C130.746,437.081,115.581,452.246,96.868,452.268z M170.668,486.401
			c0.003-4.712,3.822-8.53,8.533-8.533h56.2l-17.067,17.067h-47.667V486.401z M269.534,477.868l-17.067,17.067h-10l17.067-17.067
			H269.534z M332.801,486.401v8.533h-56.2l17.067-17.067h30.6C328.979,477.871,332.798,481.69,332.801,486.401z M281.601,460.801
			h-51.2v-51.2h51.2V460.801z M358.401,392.535h-204.8c-4.228,0-8.062-0.233-11.758-0.577c-2.162-5.895-4.777-12.003-7.612-18.086
			c6.402,1.062,12.881,1.596,19.37,1.596h204.8c6.492-0.004,12.973-0.543,19.377-1.61c-2.838,6.087-5.456,12.2-7.619,18.099
			C366.463,392.301,362.628,392.535,358.401,392.535z M415.134,452.268c-18.713-0.022-33.878-15.187-33.9-33.9
			c0.287-5.357,1.368-10.642,3.205-15.682c0.136-0.349,0.248-0.706,0.335-1.07c8.197-21.277,18.361-41.743,30.36-61.131
			c13.483,22.517,33.908,60.383,33.908,77.884C449.02,437.085,433.85,452.25,415.134,452.268z M494.934,256.001
			c-0.059,40.384-17.98,78.673-48.953,104.588c-2.818-5.452-5.666-10.662-8.386-15.481c25.607-22.534,40.279-54.997,40.272-89.107
			v-51.2c-0.074-65.949-53.518-119.393-119.467-119.467h-204.8C87.652,85.409,34.208,138.852,34.134,204.801v51.2
			c-0.007,34.11,14.665,66.573,40.272,89.107c-2.72,4.818-5.568,10.029-8.386,15.481c-30.973-25.914-48.894-64.203-48.953-104.588
			v-51.2c0.086-75.37,61.164-136.447,136.533-136.533h204.8c75.37,0.086,136.447,61.164,136.533,136.533V256.001z"/>
		<path d="M94.534,295.993l0.078,0.054c0.114,0.107,0.208,0.241,0.322,0.346c0.521,0.422,1.092,0.779,1.699,1.061
			c0.292,0.208,0.596,0.398,0.91,0.568c2.049,0.864,4.361,0.86,6.408-0.011c0.348-0.189,0.683-0.402,1.003-0.637
			c0.585-0.281,1.135-0.63,1.638-1.04c5.89-5.564,12.403-10.429,19.408-14.5c10.893-6.432,22.825-10.913,35.258-13.242
			c19.956-3.826,40.58-2.066,59.6,5.083c0.453,0.111,0.914,0.183,1.379,0.216c0.577,0.154,1.169,0.246,1.766,0.276
			c0.464-0.044,0.923-0.127,1.372-0.247c1.134-0.059,2.216-0.493,3.078-1.233c0.499-0.281,0.968-0.612,1.398-0.99
			c0.378-0.434,0.711-0.906,0.993-1.407c0.308-0.363,0.583-0.753,0.822-1.165c0.053-0.119,0.083-0.246,0.135-0.366l0.048-0.076
			l0.015-0.092c16.117-37.008,4.104-80.246-28.793-103.637c-32.897-23.39-77.683-20.536-107.344,6.842
			s-36.088,71.791-15.402,106.453c3.879,6.51,8.642,12.451,14.153,17.653L94.534,295.993z M158.059,251.826
			c-12.22,2.338-24.027,6.469-35.038,12.26c-2.321-2.323-4.354-4.917-6.054-7.727c-12.063-20.248-5.427-46.441,14.821-58.504
			c20.248-12.063,46.441-5.427,58.504,14.821c6.699,11.37,7.813,25.185,3.02,37.481
			C181.541,249.072,169.676,249.634,158.059,251.826L158.059,251.826z M87.434,217.776c6.081-24.129,24.81-43.038,48.879-49.349
			c24.07-6.312,49.667,0.973,66.806,19.013c17.139,18.04,23.104,43.977,15.569,67.691c-2.783-0.837-5.558-1.623-8.37-2.265
			c5.282-16.322,3.332-34.124-5.359-48.916c-16.892-28.31-53.524-37.587-81.854-20.729s-37.652,53.478-20.829,81.829
			c1.721,2.884,3.687,5.615,5.877,8.161c-2.309,1.64-4.515,3.395-6.707,5.193C87.092,261.728,81.854,239.061,87.434,217.776
			L87.434,217.776z"/>
		<circle cx="136.534" cy="221.868" r="8.533"/>
		<path d="M280.201,268.676l0.041,0.065c0.055,0.126,0.087,0.259,0.143,0.385c0.244,0.421,0.525,0.819,0.84,1.19
			c0.278,0.49,0.603,0.951,0.972,1.377c0.419,0.367,0.873,0.69,1.356,0.966c0.828,0.728,1.873,1.162,2.973,1.234
			c0.504,0.141,1.02,0.235,1.542,0.279c0.57-0.033,1.135-0.123,1.687-0.268c0.482-0.033,0.961-0.109,1.43-0.227
			c19.024-7.143,39.649-8.901,59.608-5.083c12.463,2.334,24.422,6.832,35.333,13.292c6.978,4.055,13.462,8.904,19.325,14.45
			c0.532,0.439,1.117,0.81,1.741,1.104c0.286,0.207,0.584,0.396,0.893,0.566c2.046,0.876,4.359,0.884,6.411,0.023
			c0.337-0.18,0.661-0.382,0.971-0.605c0.586-0.275,1.137-0.618,1.642-1.022c0.109-0.101,0.199-0.229,0.308-0.33l0.101-0.07
			l0.072-0.116c5.504-5.202,10.263-11.139,14.144-17.642c20.689-34.667,14.261-79.087-15.407-106.467
			c-29.667-27.38-74.46-30.231-107.359-6.833c-32.899,23.398-44.907,66.645-28.78,103.655L280.201,268.676z M318.749,250.158
			c-4.797-12.292-3.687-26.105,3.01-37.473c12.103-20.174,38.249-26.75,58.455-14.7c20.206,12.05,26.85,38.179,14.853,58.416
			c-1.695,2.798-3.721,5.38-6.036,7.691C367.455,252.718,343.033,247.875,318.749,250.158L318.749,250.158z M299.776,199.543
			c19.359-32.293,61.204-42.825,93.544-23.545s42.974,61.099,23.772,93.486c-1.912,3.146-4.077,6.13-6.476,8.922
			c-2.196-1.801-4.402-3.555-6.71-5.194c2.181-2.533,4.139-5.25,5.853-8.12c14.19-23.633,10.37-53.906-9.247-73.272
			c-19.617-19.366-49.937-22.797-73.385-8.304c-23.448,14.493-33.937,43.147-25.387,69.353c-2.814,0.641-5.591,1.428-8.374,2.265
			C287.478,236.538,289.81,216.312,299.776,199.543L299.776,199.543z"/>
		<circle cx="375.553" cy="221.868" r="8.533"/>
		<path d="M187.734,332.801c0,4.713,3.821,8.533,8.533,8.533c4.713,0,8.533-3.821,8.533-8.533c0-12.108,21.025-25.6,51.2-25.6
			c30.175,0,51.2,13.492,51.2,25.6c0,4.713,3.821,8.533,8.533,8.533c4.713,0,8.533-3.821,8.533-8.533
			c0-23.925-29.983-42.667-68.267-42.667C217.718,290.135,187.734,308.876,187.734,332.801z"/>
	</g>
</g>
<g>
</g>
<g>
</g>
<g>
</g>
<g>
</g>
<g>
</g>
<g>
</g>
<g>
</g>
<g>
</g>
<g>
</g>
<g>
</g>
<g>
</g>
<g>
</g>
<g>
</g>
<g>
</g>
<g>
</g>
</svg>
