<?xml version="1.0" encoding="iso-8859-1"?>
<!-- Generator: Adobe Illustrator 19.0.0, SVG Export Plug-In . SVG Version: 6.00 Build 0)  -->
<svg version="1.1" id="Capa_1" xmlns="http://www.w3.org/2000/svg" xmlns:xlink="http://www.w3.org/1999/xlink" x="0px" y="0px"
	 viewBox="0 0 512.001 512.001" style="enable-background:new 0 0 512.001 512.001;" xml:space="preserve">
<g>
	<g transform="translate(1 1)">
		<g>
			<rect x="220.867" y="373.154" style="fill:#00838F;" width="68.267" height="122.103"/>
			<rect x="220.867" y="373.154" style="fill:#00BCD4;" width="42.667" height="122.103"/>
		</g>
		<path style="fill:#00838F;" d="M458.35,99.695H51.651c21.77-55.593,75.379-92.168,135.083-92.16h136.533
			C382.971,7.527,436.581,44.102,458.35,99.695z"/>
		<path style="fill:#00BCD4;" d="M424.217,99.695H51.651c21.77-55.593,75.379-92.168,135.083-92.16h102.4
			C348.837,7.527,402.447,44.102,424.217,99.695z"/>
		<g>
			<path style="fill:#9E9E9E;" d="M152.601,58.735h204.8c80.118,0,145.067,64.949,145.067,145.067v51.2
				c0,80.118-64.949,145.067-145.067,145.067h-204.8c-80.118,0-145.067-64.949-145.067-145.067v-51.2
				C7.534,123.683,72.483,58.735,152.601,58.735z"/>
			<path style="fill:#BDC3C7;" d="M152.601,58.735h179.2c80.118,0,145.067,64.949,145.067,145.067v51.2
				c0,80.118-64.949,145.067-145.067,145.067h-179.2c-80.118,0-145.067-64.949-145.067-145.067v-51.2
				C7.534,123.683,72.483,58.735,152.601,58.735z"/>
			<path style="fill:#00695C;" d="M468.334,203.801v51.2c0,61.267-49.667,110.933-110.933,110.933h-204.8
				c-61.267,0-110.933-49.667-110.933-110.933v-51.2c0-61.267,49.667-110.933,110.933-110.933h204.8
				C418.668,92.868,468.334,142.535,468.334,203.801z"/>
			<path style="fill:#009688;" d="M442.734,200.422v57.958c0,59.401-48.154,107.554-107.554,107.554H149.222
				c-59.401,0-107.554-48.154-107.554-107.554v-57.958c0-59.401,48.154-107.554,107.554-107.554H335.18
				C394.58,92.868,442.734,141.022,442.734,200.422z"/>
			<path style="fill:#BDC3C7;" d="M178.201,468.335h145.067c9.426,0,17.067,7.641,17.067,17.067v17.067h-179.2v-17.067
				C161.134,475.976,168.775,468.335,178.201,468.335z"/>
		</g>
		<polygon style="fill:#607D8B;" points="289.134,468.335 255.001,502.468 220.867,502.468 255.001,468.335 		"/>
		<path style="fill:#AD1457;" d="M203.801,229.401c-0.022,28.268-22.932,51.178-51.2,51.2c-4.317-0.013-8.616-0.558-12.8-1.621
			c-22.602-5.818-38.4-26.197-38.4-49.536c0-23.339,15.798-43.718,38.4-49.536c4.172-1.134,8.477-1.708,12.8-1.707
			C180.868,178.224,203.778,201.134,203.801,229.401z"/>
		<path style="fill:#E91E63;" d="M178.201,229.401c-0.054,23.33-15.825,43.692-38.4,49.579c-22.602-5.818-38.4-26.197-38.4-49.536
			c0-23.339,15.798-43.718,38.4-49.536C162.381,185.732,178.17,206.082,178.201,229.401z"/>
		<path style="fill:#AD1457;" d="M408.601,229.401c-0.022,28.268-22.932,51.178-51.2,51.2c-4.317-0.013-8.616-0.558-12.8-1.621
			c-22.602-5.818-38.4-26.197-38.4-49.536c0-23.339,15.798-43.718,38.4-49.536c4.172-1.134,8.477-1.708,12.8-1.707
			C385.668,178.224,408.578,201.134,408.601,229.401z"/>
		<path style="fill:#E91E63;" d="M383.001,229.401c-0.054,23.33-15.825,43.692-38.4,49.579c-22.602-5.818-38.4-26.197-38.4-49.536
			c0-23.339,15.798-43.718,38.4-49.536C367.181,185.732,382.97,206.082,383.001,229.401z"/>
	</g>
	<g>
		<path d="M466.558,95.876c-23.263-58.129-79.68-96.143-142.291-95.875H187.734C125.129-0.264,68.716,37.745,45.452,95.868
			C16.351,124.644-0.018,163.875,0.001,204.801v51.2c0.097,84.791,68.809,153.503,153.6,153.6h59.733v51.2h-34.133
			c-14.132,0.015-25.585,11.468-25.6,25.6v17.067c-0.001,2.263,0.898,4.434,2.499,6.035c1.6,1.6,3.771,2.499,6.035,2.499h179.2
			c2.263,0.001,4.434-0.898,6.035-2.499c1.6-1.6,2.499-3.771,2.499-6.035v-17.067c-0.015-14.132-11.468-25.585-25.6-25.6h-25.6
			v-51.2h59.733c84.79-0.098,153.502-68.81,153.6-153.6v-51.2C512.019,163.879,495.654,124.653,466.558,95.876z M187.734,17.068
			h136.533c42.191,0.201,81.955,19.759,107.869,53.054c-22.586-12.434-47.953-18.944-73.735-18.921h-204.8
			c-25.946-0.017-51.468,6.582-74.153,19.174C105.206,36.632,145.283,16.903,187.734,17.068z M170.667,486.401
			c0.005-4.711,3.822-8.529,8.533-8.533h56.2l-17.067,17.067h-47.667V486.401z M269.534,477.868l-17.067,17.067h-10l17.067-17.067
			H269.534z M332.801,486.401v8.533h-56.2l17.067-17.067h30.6C328.978,477.873,332.796,481.691,332.801,486.401z M281.601,460.801
			h-51.2v-51.2h51.2V460.801z M494.934,256.001c-0.086,75.37-61.164,136.447-136.533,136.533h-204.8
			c-75.37-0.086-136.447-61.164-136.533-136.533v-51.2c0.086-75.37,61.164-136.447,136.533-136.533h204.8
			c75.37,0.086,136.447,61.164,136.533,136.533V256.001z"/>
		<path d="M358.401,85.335h-204.8C87.652,85.409,34.208,138.852,34.134,204.801v51.2c0.074,65.949,53.518,119.393,119.467,119.467
			h204.8c65.949-0.074,119.393-53.518,119.467-119.467v-51.2C477.793,138.852,424.35,85.409,358.401,85.335z M460.801,256.001
			c-0.062,56.528-45.872,102.338-102.4,102.4h-204.8c-56.528-0.063-102.337-45.872-102.4-102.4v-51.2
			c0.063-56.528,45.872-102.337,102.4-102.4h204.8c56.528,0.062,102.338,45.872,102.4,102.4V256.001z"/>
		<path d="M219.942,296.743c-17.581,17.622-41.45,27.525-66.342,27.525s-48.761-9.903-66.342-27.525
			c-2.156-2.155-5.297-2.997-8.242-2.208c-2.944,0.789-5.244,3.089-6.033,6.033c-0.789,2.944,0.053,6.086,2.208,8.242
			c20.78,20.823,48.99,32.525,78.409,32.525s57.628-11.702,78.409-32.525c3.332-3.332,3.332-8.735,0-12.067
			C228.677,293.411,223.275,293.411,219.942,296.743L219.942,296.743z"/>
		<path d="M153.601,119.468c-29.431-0.065-57.665,11.647-78.408,32.525c-2.155,2.156-2.997,5.297-2.208,8.242
			c0.789,2.944,3.089,5.244,6.033,6.033c2.944,0.789,6.086-0.053,8.242-2.208c17.581-17.622,41.45-27.525,66.342-27.525
			s48.761,9.903,66.342,27.525c3.332,3.332,8.735,3.332,12.067,0c3.332-3.332,3.332-8.735,0-12.067
			C211.266,131.115,183.032,119.403,153.601,119.468z"/>
		<path d="M213.334,230.401c0-32.99-26.744-59.733-59.733-59.733s-59.733,26.744-59.733,59.733s26.744,59.733,59.733,59.733
			C186.575,290.096,213.296,263.375,213.334,230.401z M110.934,230.401c0-23.564,19.103-42.667,42.667-42.667
			s42.667,19.103,42.667,42.667s-19.103,42.667-42.667,42.667C130.048,273.04,110.962,253.954,110.934,230.401z"/>
		<circle cx="140.801" cy="217.601" r="12.8"/>
		<path d="M424.742,296.743c-17.581,17.622-41.45,27.525-66.342,27.525c-24.892,0-48.761-9.903-66.342-27.525
			c-3.332-3.332-8.734-3.332-12.067,0c-3.332,3.332-3.332,8.735,0,12.067c20.78,20.823,48.99,32.525,78.409,32.525
			c29.418,0,57.628-11.702,78.409-32.525c2.155-2.156,2.997-5.297,2.208-8.242s-3.089-5.244-6.033-6.033
			C430.04,293.746,426.898,294.588,424.742,296.743L424.742,296.743z"/>
		<path d="M279.992,151.993c-3.332,3.332-3.332,8.735,0,12.067c3.332,3.332,8.735,3.332,12.067,0
			c17.581-17.622,41.45-27.525,66.342-27.525c24.892,0,48.761,9.903,66.342,27.525c3.332,3.332,8.735,3.332,12.067,0
			c3.332-3.332,3.332-8.735,0-12.067c-20.78-20.823-48.99-32.525-78.409-32.525C328.982,119.468,300.772,131.17,279.992,151.993
			L279.992,151.993z"/>
		<path d="M418.134,230.401c0-32.99-26.744-59.733-59.733-59.733s-59.733,26.744-59.733,59.733s26.744,59.733,59.733,59.733
			C391.375,290.096,418.096,263.375,418.134,230.401z M315.734,230.401c0-23.564,19.103-42.667,42.667-42.667
			c23.564,0,42.667,19.103,42.667,42.667s-19.103,42.667-42.667,42.667C334.848,273.04,315.762,253.954,315.734,230.401z"/>
		<circle cx="345.601" cy="217.601" r="12.8"/>
	</g>
</g>
<g>
</g>
<g>
</g>
<g>
</g>
<g>
</g>
<g>
</g>
<g>
</g>
<g>
</g>
<g>
</g>
<g>
</g>
<g>
</g>
<g>
</g>
<g>
</g>
<g>
</g>
<g>
</g>
<g>
</g>
</svg>
