<?xml version="1.0" encoding="iso-8859-1"?>
<!-- Generator: Adobe Illustrator 19.0.0, SVG Export Plug-In . SVG Version: 6.00 Build 0)  -->
<svg version="1.1" id="Capa_1" xmlns="http://www.w3.org/2000/svg" xmlns:xlink="http://www.w3.org/1999/xlink" x="0px" y="0px"
	 viewBox="0 0 512 512" style="enable-background:new 0 0 512 512;" xml:space="preserve">
<g>
	<g transform="translate(1 1)">
		<path style="fill:#4527A0;" d="M397.759,186.733l-8.107,162.048l-0.427,8.619c0,0,0,25.6-42.667,42.667
			c-42.667,17.067-102.4,17.067-102.4,17.067s-6.656,0-17.067-0.597c-29.098-1.278-57.85-6.828-85.333-16.469
			C99.092,383,99.092,357.4,99.092,357.4l-0.427-8.619l-8.107-162.048c-3.24-42.619,8.866-84.992,34.133-119.467
			c30.123-42.155,77.312-54.613,102.4-58.197c5.649-0.888,11.35-1.401,17.067-1.536c0,0,76.8,0,119.467,59.733
			C388.892,101.741,400.999,144.114,397.759,186.733z"/>
		<g>
			<path style="fill:#673AB7;" d="M363.626,186.733l-8.107,162.048l-0.427,8.619c0,0,0,25.6-42.667,42.667
				c-27.484,9.642-56.236,15.191-85.333,16.469c-29.098-1.278-57.85-6.828-85.333-16.469C99.092,383,99.092,357.4,99.092,357.4
				l-0.427-8.619l-8.107-162.048c-3.24-42.619,8.866-84.992,34.133-119.467c30.123-42.155,77.312-54.613,102.4-58.197
				c25.088,3.584,72.277,16.043,102.4,58.197C354.759,101.741,366.866,144.114,363.626,186.733z"/>
			<path style="fill:#673AB7;" d="M470.804,247.235l-26.88,127.744c-2.112,10.039-9.997,17.857-20.053,19.883l-22.869,4.523
				l-1.536,17.408c-1.095,11.671-6.225,22.595-14.507,30.891c-17.408,17.493-49.664,46.336-77.824,53.248h-0.085
				c-3.818,0.997-7.745,1.513-11.691,1.536h-102.4c-3.946-0.023-7.873-0.539-11.691-1.536h-0.085
				c-28.16-6.912-60.416-35.755-77.824-53.248c-8.281-8.296-13.411-19.22-14.507-30.891l-1.536-17.408l-22.869-4.523
				c-10.056-2.026-17.941-9.844-20.053-19.883l-26.88-127.744c-2.208-10.67,2.543-21.574,11.861-27.221L56.425,203.8h0.085
				c-0.085-5.547-0.085-11.264-0.085-17.067c0-93.867,68.267-119.467,68.267-119.467c-25.267,34.474-37.373,76.847-34.133,119.467
				l8.107,162.048l0.427,8.619c0,0,0,25.6,42.667,42.667c42.667,17.067,102.4,17.067,102.4,17.067s59.733,0,102.4-17.067
				C389.225,383,389.225,357.4,389.225,357.4l0.427-8.619l8.107-162.048c3.24-42.619-8.866-84.992-34.133-119.467
				c0,0,68.267,25.6,68.267,119.467c0,5.803,0,11.52-0.085,17.067h0.085l27.051,16.213
				C468.261,225.661,473.012,236.565,470.804,247.235z"/>
		</g>
		<g>
			<path style="fill:#FFEB3A;" d="M90.559,186.733l8.107,162.048l-16.213-4.096l-0.341-0.085
				c-10.452-2.553-18.172-11.4-19.285-22.101c-2.219-22.101-5.717-63.573-6.315-118.699c-0.085-5.547-0.085-11.264-0.085-17.067
				c0-93.867,68.267-119.467,68.267-119.467C99.425,101.741,87.319,144.114,90.559,186.733z"/>
			<path style="fill:#F57C00;" d="M87.316,399.384l-22.869-4.523c-10.056-2.026-17.941-9.844-20.053-19.883l-26.88-127.744
				c-2.208-10.67,2.543-21.574,11.861-27.221L56.425,203.8h0.085c0.597,55.125,4.096,96.597,6.315,118.699
				c1.113,10.702,8.833,19.549,19.285,22.101l0.341,0.085L87.316,399.384z"/>
			<path style="fill:#FEC108;" d="M389.652,348.781l-0.427,8.619c-1.043,9.105-5.384,17.514-12.203,23.637
				c-8.738,8.371-19.109,14.849-30.464,19.029c-42.667,17.067-102.4,17.067-102.4,17.067s-4.693,0-12.459-0.341
				c-0.22-0.085-0.463-0.085-0.683,0h-0.171c-30.362-1.119-60.388-6.756-89.088-16.725C99.092,383,99.092,357.4,99.092,357.4
				l-0.427-8.619l-16.213-4.096l3.243,36.352l1.621,18.347l1.536,17.408c1.095,11.671,6.225,22.595,14.507,30.891
				c17.408,17.493,49.664,46.336,77.824,53.248h0.085c3.66,0.912,7.408,1.427,11.179,1.536h102.912
				c3.946-0.023,7.873-0.539,11.691-1.536h0.085c28.16-6.912,60.416-35.755,77.824-53.248c8.281-8.296,13.411-19.22,14.507-30.891
				l1.536-17.408l4.864-54.699L389.652,348.781z"/>
			<g>
				<path style="fill:#FFEB3A;" d="M377.023,381.037l-1.621,18.347l-1.536,17.408c-1.095,11.671-6.225,22.595-14.507,30.891
					c-17.408,17.493-49.664,46.336-77.824,53.248h-0.085c-3.818,0.997-7.745,1.513-11.691,1.536h-77.312
					c-3.771-0.109-7.518-0.624-11.179-1.536h-0.085c-28.16-6.912-60.416-35.755-77.824-53.248
					c-8.281-8.296-13.411-19.22-14.507-30.891l-1.536-17.408l-1.621-18.347l-3.243-36.352l16.213,4.096l0.427,8.619
					c0,0,0,25.6,42.667,42.667c28.7,9.969,58.726,15.606,89.088,16.725h0.171c0.22-0.085,0.463-0.085,0.683,0
					c7.765,0.341,12.459,0.341,12.459,0.341s59.733,0,102.4-17.067C357.914,395.886,368.285,389.408,377.023,381.037z"/>
				<path style="fill:#FFEB3A;" d="M431.892,186.733c0,5.803,0,11.52-0.085,17.067c-0.597,55.125-4.096,96.597-6.315,118.699
					c-1.113,10.702-8.833,19.549-19.285,22.101l-0.341,0.085l-16.213,4.096l8.107-162.048c3.24-42.619-8.866-84.992-34.133-119.467
					C363.626,67.267,431.892,92.867,431.892,186.733z"/>
			</g>
			<path style="fill:#F57C00;" d="M470.804,247.235l-26.88,127.744c-2.112,10.039-9.997,17.857-20.053,19.883l-22.869,4.523
				l4.864-54.699l0.341-0.085c10.452-2.553,18.172-11.4,19.285-22.101c2.219-22.101,5.717-63.573,6.315-118.699h0.085l27.051,16.213
				C468.261,225.661,473.012,236.565,470.804,247.235z"/>
			<path style="fill:#AD1457;" d="M488.823,350.488c-2.183-5.259-5.372-10.042-9.387-14.08c-3.907-4.135-8.648-7.393-13.909-9.557
				c-5.38-2.363-11.191-3.583-17.067-3.584c-1.596-0.002-3.192,0.084-4.779,0.256c-0.683,0.085-1.195,0.256-1.877,0.341
				c-2.119,0.232-4.207,0.69-6.229,1.365c-1.427,0.451-2.823,0.993-4.181,1.621c-5.275,2.184-10.04,5.439-13.995,9.557
				c-4.38,4.795-7.901,10.309-10.411,16.299c-1.797-4.264-4.088-8.302-6.827-12.032c-1.092-1.505-2.29-2.931-3.584-4.267
				c-0.755-0.783-1.553-1.524-2.389-2.219c-3.408-3.108-7.337-5.592-11.605-7.339c-5.374-2.38-11.189-3.601-17.067-3.584
				c-4.342-0.001-8.658,0.661-12.8,1.963c-1.451,0.512-2.901,1.024-4.267,1.621c-5.261,2.165-10.002,5.422-13.909,9.557
				c-12.691,12.921-16.391,32.194-9.387,48.896l1.365,2.475l52.395,59.733l2.645,3.072l2.304,2.475l10.325,11.691l9.216,10.496
				c0.913,1.018,2.216,1.6,3.584,1.6c1.368,0,2.671-0.582,3.584-1.6l76.885-87.467l1.365-2.475c2.352-5.5,3.543-11.426,3.499-17.408
				C492.349,361.916,491.159,355.993,488.823,350.488z"/>
			<path style="fill:#E91E63;" d="M466.722,367.896c0.044,5.982-1.147,11.908-3.499,17.408l-1.365,2.475l-67.669,76.971
				l-10.325-11.691l-2.304-2.475l-2.645-3.072l-52.395-59.733l-1.365-2.475c-2.352-5.5-3.543-11.426-3.499-17.408
				c-0.015-11.782,4.615-23.096,12.885-31.488c3.907-4.135,8.648-7.393,13.909-9.557c1.365-0.597,2.816-1.109,4.267-1.621
				c4.142-1.301,8.458-1.963,12.8-1.963c5.877-0.017,11.693,1.204,17.067,3.584c4.269,1.747,8.197,4.231,11.605,7.339
				c0.837,0.695,1.634,1.436,2.389,2.219c1.294,1.335,2.492,2.761,3.584,4.267c2.738,3.73,5.03,7.768,6.827,12.032
				c2.509-5.99,6.031-11.503,10.411-16.299c3.954-4.119,8.719-7.373,13.995-9.557c1.358-0.628,2.755-1.17,4.181-1.621
				c1.478,0.465,2.93,1.006,4.352,1.621c5.261,2.165,10.002,5.422,13.909,9.557C462.107,344.8,466.737,356.114,466.722,367.896z"/>
		</g>
	</g>
	<g>
		<path d="M131.039,189.575c4.198,2.142,9.337,0.479,11.483-3.717c0.092-0.183,9.858-18.425,37.142-14.358
			c3.017,0.466,6.052-0.715,7.961-3.097c1.908-2.382,2.398-5.603,1.285-8.445s-3.661-4.873-6.679-5.325
			c-39.429-6.025-54.292,22.25-54.908,23.458C125.179,182.289,126.842,187.429,131.039,189.575z"/>
		<path d="M138.28,221.867c0,4.713,3.821,8.533,8.533,8.533s8.533-3.821,8.533-8.533c0-9.426,7.641-17.067,17.067-17.067
			s17.067,7.641,17.067,17.067c0,4.713,3.82,8.533,8.533,8.533c4.713,0,8.533-3.821,8.533-8.533
			c0-18.851-15.282-34.133-34.133-34.133S138.28,203.015,138.28,221.867z"/>
		<path d="M312.047,171.283c26.708-4.042,36.667,13.483,37.175,14.425c2.169,4.177,7.31,5.81,11.492,3.65
			c4.182-2.16,5.826-7.297,3.675-11.484c-0.621-1.208-15.558-29.517-54.908-23.458c-3.019,0.452-5.566,2.483-6.679,5.325
			c-1.113,2.842-0.623,6.063,1.285,8.445C305.995,170.569,309.031,171.75,312.047,171.283L312.047,171.283z"/>
		<path d="M293.697,230.183c2.263,0.001,4.434-0.898,6.035-2.499s2.499-3.771,2.499-6.035c0-9.426,7.641-17.067,17.067-17.067
			s17.067,7.641,17.067,17.067c0,4.713,3.82,8.533,8.533,8.533s8.533-3.82,8.533-8.533c0-18.851-15.282-34.133-34.133-34.133
			c-18.851,0-34.133,15.282-34.133,34.133c-0.001,2.263,0.898,4.434,2.499,6.035C289.263,229.285,291.434,230.184,293.697,230.183z"
			/>
		<path d="M229.051,360.508c0.965,3.778,4.367,6.423,8.267,6.425c0.711,0.001,1.42-0.088,2.108-0.267l35.917-9.142
			c6.786-1.176,12.065-6.552,13.117-13.359c0.388-6.258-3.273-12.062-9.087-14.408l-11.479-5.5l11.475-5.483
			c5.817-2.344,9.48-8.149,9.092-14.408c-1.052-6.805-6.328-12.181-13.112-13.358l-35.921-9.142
			c-2.955-0.756-6.089,0.123-8.22,2.305c-2.131,2.183-2.934,5.337-2.106,8.273c0.828,2.936,3.16,5.206,6.117,5.955l30.796,7.842
			l-10.183,4.858c-5.506,2.039-9.161,7.289-9.163,13.16c-0.002,5.871,3.65,11.123,9.155,13.166l10.167,4.875l-30.771,7.834
			c-2.194,0.557-4.076,1.963-5.233,3.909C228.828,355.989,228.492,358.315,229.051,360.508z"/>
		<path d="M486.635,331.567c-4.688-4.989-10.379-8.928-16.7-11.558c-1.149-0.505-2.352-0.867-3.533-1.286l14.454-68.755
			c2.937-14.221-3.404-28.751-15.829-36.267l-22.963-13.767c0.03-4.033,0.059-8.055,0.059-12.2
			c0-90.214-59.052-120.99-71.481-126.474C325.693,0.807,249.134,0,245.855,0c-3.278,0-79.838,0.807-124.786,61.259
			c-12.429,5.484-71.481,36.26-71.481,126.474c0,4.154,0.029,8.173,0.06,12.2l-22.993,13.783
			c-12.415,7.527-18.743,22.059-15.796,36.275l26.879,127.75c2.831,13.378,13.346,23.791,26.75,26.492l16.579,3.28l0.984,11.086
			c1.295,13.638,7.29,26.402,16.958,36.108c21.307,21.39,62.065,57.286,95.639,57.291l0.003,0H297.06l0.002,0
			c28.063-0.004,60.962-24.591,85.601-47.572l15.255,17.347c2.512,2.924,6.171,4.612,10.026,4.625
			c3.855,0.013,7.525-1.651,10.057-4.558l76.892-87.442c0.436-0.493,0.812-1.035,1.121-1.617l1.637-3.133
			c2.807-6.556,4.238-13.618,4.204-20.75c0.015-7.087-1.398-14.104-4.154-20.634C495.148,342.025,491.387,336.35,486.635,331.567z
			 M464.151,246.475l-14.566,69.286c-2.03-0.011-4.059,0.105-6.075,0.347l-1.833,0.275c-1.819,0.26-3.62,0.631-5.393,1.11
			c2.932-31.091,4.743-63.919,5.444-97.867l14.495,8.69C462.441,232.083,465.616,239.354,464.151,246.475z M425.055,187.733
			c0,5.758,0,11.433-0.083,16.975c-0.45,41.225-2.558,80.9-6.263,117.85c-0.189,1.558-0.607,3.079-1.24,4.515
			c-1.775,1.309-3.462,2.735-5.048,4.268c-1.607,1.612-3.087,3.345-4.429,5.183l-0.021-0.025c-1.313-1.762-2.742-3.435-4.275-5.008
			c-0.856-0.887-1.869-1.543-2.776-2.358l6.98-140.192c2.779-31.387-2.748-62.953-16.026-91.529
			C408.142,114.144,425.055,142.346,425.055,187.733z M245.855,17.067c0.725,0,72.867,0.642,112.521,56.158
			c23.988,32.988,35.523,73.404,32.559,114.083l-6.589,131.678c-12.371-4.546-26.009-4.204-38.136,0.955
			c-6.293,2.584-11.968,6.469-16.654,11.4c-4.827,4.821-8.651,10.551-11.25,16.858c-5.69,13.478-5.571,28.705,0.329,42.092
			l1.329,2.492c0.311,0.579,0.686,1.121,1.117,1.617l4.443,5.053c-26.097,6.328-52.818,9.731-79.668,10.148
			c-0.579,0-58.629-0.217-99.229-16.458c-35.992-14.392-37.271-34.092-37.316-35.167l-8.609-171.45
			c-2.87-40.438,8.693-80.584,32.634-113.3C172.843,17.917,245.143,17.067,245.855,17.067z M100.108,96.847
			c-13.376,28.473-19.023,59.964-16.373,91.311l7.534,150.528l-4.397-1.11c-0.1-0.033-0.202-0.047-0.303-0.076l-0.725-0.183
			c-6.936-1.703-12.064-7.566-12.829-14.667c-3.717-37.042-5.825-76.717-6.275-117.975c-0.084-5.509-0.084-11.184-0.084-16.942
			C66.655,141.662,83.751,113.429,100.108,96.847z M67.839,387.492c-6.715-1.356-11.981-6.573-13.4-13.275L27.564,246.5
			c-1.474-7.116,1.687-14.39,7.896-18.167l14.525-8.707c0.753,36.437,2.732,71.654,6.05,104.749
			c1.3,12.098,8.961,22.58,20.094,27.491l3.367,37.932L67.839,387.492z M308.954,492.876l13.372-46.801
			c0.837-2.931,0.046-6.086-2.074-8.276c-2.12-2.19-5.247-3.083-8.204-2.342c-2.957,0.741-5.293,3.003-6.13,5.934l-15.297,53.542
			h-89.53l-15.297-53.542c-0.837-2.931-3.173-5.193-6.13-5.934c-2.957-0.741-6.084,0.152-8.204,2.342
			c-2.12,2.19-2.911,5.345-2.074,8.276l13.435,47.023c-26.665-7.542-58.148-36.811-71.731-50.448
			c-6.859-6.883-11.116-15.935-12.042-25.609l-4.199-47.315c4.259,10.862,15.533,27.3,45.436,39.265
			c43.692,17.475,103.067,17.675,105.571,17.675c31.147-0.333,62.119-4.715,92.136-13.036l33.344,37.917
			C347.734,473.584,325.93,487.975,308.954,492.876z M482.285,382.258l-74.3,85.133l-60.805-69.153l-0.185-0.21l-12.482-14.195
			l-0.513-0.933c-1.885-4.425-2.842-9.19-2.812-14c-0.009-4.851,0.965-9.653,2.862-14.117c1.773-4.316,4.395-8.232,7.708-11.517
			c3.139-3.313,6.949-5.919,11.175-7.642c8.731-3.784,18.642-3.766,27.358,0.05c4.22,1.793,8.031,4.427,11.2,7.742
			c1,1.032,1.933,2.126,2.796,3.275c1.06,1.476,2.041,3.007,2.94,4.586l0.054,0.084c1.055,1.796,1.99,3.659,2.798,5.579
			c1.307,3.219,4.434,5.325,7.908,5.325c3.474,0,6.602-2.106,7.908-5.325c2.079-5,5.008-9.601,8.658-13.6
			c3.196-3.318,7.036-5.949,11.283-7.733c2.576-1.162,5.307-1.942,8.108-2.317l1.8-0.267c2.83-0.342,5.692-0.302,8.511,0.12
			c0.131,0.034,0.227,0.127,0.36,0.155c0.316,0.052,0.635,0.085,0.955,0.1c2.626,0.466,5.188,1.235,7.636,2.292
			c4.254,1.769,8.08,4.429,11.221,7.8c3.239,3.247,5.798,7.109,7.525,11.358c1.88,4.445,2.844,9.224,2.833,14.05
			C484.832,373.473,483.981,378.011,482.285,382.258L482.285,382.258z"/>
	</g>
</g>
<g>
</g>
<g>
</g>
<g>
</g>
<g>
</g>
<g>
</g>
<g>
</g>
<g>
</g>
<g>
</g>
<g>
</g>
<g>
</g>
<g>
</g>
<g>
</g>
<g>
</g>
<g>
</g>
<g>
</g>
</svg>
