<?xml version="1.0" encoding="iso-8859-1"?>
<!-- Generator: Adobe Illustrator 19.0.0, SVG Export Plug-In . SVG Version: 6.00 Build 0)  -->
<svg version="1.1" id="Capa_1" xmlns="http://www.w3.org/2000/svg" xmlns:xlink="http://www.w3.org/1999/xlink" x="0px" y="0px"
	 viewBox="0 0 512 512" style="enable-background:new 0 0 512 512;" xml:space="preserve">
<g>
	<g transform="translate(1 1)">
		<path style="fill:#4527A0;" d="M408.601,191l-8.107,162.048l-0.427,8.619c0,0,0,25.6-42.667,42.667
			c-42.667,17.067-102.4,17.067-102.4,17.067s-6.656,0-17.067-0.597c-29.098-1.279-57.85-6.828-85.333-16.469
			c-42.667-17.067-42.667-42.667-42.667-42.667l-0.427-8.619L101.401,191c-3.24-42.619,8.866-84.992,34.133-119.467
			c30.123-42.155,77.312-54.613,102.4-58.197c5.649-0.888,11.35-1.401,17.067-1.536c0,0,76.8,0,119.467,59.733
			C399.734,106.008,411.841,148.381,408.601,191z"/>
		<g>
			<path style="fill:#673AB7;" d="M374.467,191l-8.107,162.048l-0.427,8.619c0,0,0,25.6-42.667,42.667
				c-27.484,9.642-56.236,15.191-85.333,16.469c-29.098-1.279-57.85-6.828-85.333-16.469
				c-42.667-17.067-42.667-42.667-42.667-42.667l-0.427-8.619L101.401,191c-3.24-42.619,8.866-84.992,34.133-119.467
				c30.123-42.155,77.312-54.613,102.4-58.197c25.088,3.584,72.277,16.043,102.4,58.197
				C365.601,106.008,377.707,148.381,374.467,191z"/>
			<path style="fill:#673AB7;" d="M481.646,251.501l-26.88,127.744c-2.112,10.039-9.997,17.857-20.053,19.883l-22.869,4.523
				l-1.536,17.408c-1.095,11.671-6.225,22.595-14.507,30.891c-17.408,17.493-49.664,46.336-77.824,53.248h-0.085
				c-3.818,0.997-7.745,1.513-11.691,1.536h-102.4c-3.946-0.023-7.873-0.539-11.691-1.536h-0.085
				c-28.16-6.912-60.416-35.755-77.824-53.248c-8.281-8.296-13.411-19.22-14.507-30.891l-1.536-17.408l-22.869-4.523
				c-10.056-2.026-17.941-9.844-20.053-19.883l-26.88-127.744c-2.208-10.67,2.543-21.574,11.861-27.221l27.051-16.213h0.085
				c-0.085-5.547-0.085-11.264-0.085-17.067c0-93.867,68.267-119.467,68.267-119.467C110.267,106.008,98.16,148.381,101.401,191
				l8.107,162.048l0.427,8.619c0,0,0,25.6,42.667,42.667c42.667,17.067,102.4,17.067,102.4,17.067s59.733,0,102.4-17.067
				c42.667-17.067,42.667-42.667,42.667-42.667l0.427-8.619L408.601,191c3.24-42.619-8.866-84.992-34.133-119.467
				c0,0,68.267,25.6,68.267,119.467c0,5.803,0,11.52-0.085,17.067h0.085l27.051,16.213
				C479.102,229.928,483.854,240.832,481.646,251.501z"/>
		</g>
		<g>
			<path style="fill:#E91E63;" d="M101.401,191l8.107,162.048l-16.213-4.096l-0.341-0.085c-10.452-2.553-18.172-11.4-19.285-22.101
				c-2.219-22.101-5.717-63.573-6.315-118.699c-0.085-5.547-0.085-11.264-0.085-17.067c0-93.867,68.267-119.467,68.267-119.467
				C110.267,106.008,98.16,148.381,101.401,191z"/>
			<g>
				<path style="fill:#AD1457;" d="M98.158,403.651l-22.869-4.523c-10.056-2.026-17.941-9.844-20.053-19.883l-26.88-127.744
					c-2.208-10.67,2.543-21.574,11.861-27.221l27.051-16.213h0.085c0.597,55.125,4.096,96.597,6.315,118.699
					c1.113,10.702,8.833,19.549,19.285,22.101l0.341,0.085L98.158,403.651z"/>
				<path style="fill:#AD1457;" d="M400.494,353.048l-0.427,8.619c-1.043,9.105-5.384,17.514-12.203,23.637
					c-8.738,8.371-19.109,14.849-30.464,19.029c-42.667,17.067-102.4,17.067-102.4,17.067s-4.693,0-12.459-0.341
					c-0.22-0.085-0.463-0.085-0.683,0h-0.171c-30.362-1.119-60.388-6.756-89.088-16.725c-42.667-17.067-42.667-42.667-42.667-42.667
					l-0.427-8.619l-16.213-4.096l3.243,36.352l1.621,18.347l1.536,17.408c1.095,11.671,6.225,22.595,14.507,30.891
					c17.408,17.493,49.664,46.336,77.824,53.248h0.085c3.66,0.912,7.408,1.427,11.179,1.536h102.912
					c3.946-0.023,7.873-0.539,11.691-1.536h0.085c28.16-6.912,60.416-35.755,77.824-53.248c8.281-8.296,13.411-19.22,14.507-30.891
					l1.536-17.408l4.864-54.699L400.494,353.048z"/>
			</g>
			<g>
				<path style="fill:#E91E63;" d="M387.865,385.304l-1.621,18.347l-1.536,17.408c-1.095,11.671-6.225,22.595-14.507,30.891
					c-17.408,17.493-49.664,46.336-77.824,53.248h-0.085c-3.818,0.997-7.745,1.513-11.691,1.536h-77.312
					c-3.771-0.109-7.518-0.624-11.179-1.536h-0.085c-28.16-6.912-60.416-35.755-77.824-53.248
					c-8.281-8.296-13.411-19.22-14.507-30.891l-1.536-17.408l-1.621-18.347l-3.243-36.352l16.213,4.096l0.427,8.619
					c0,0,0,25.6,42.667,42.667c28.7,9.969,58.726,15.606,89.088,16.725h0.171c0.22-0.085,0.463-0.085,0.683,0
					c7.765,0.341,12.459,0.341,12.459,0.341s59.733,0,102.4-17.067C368.756,400.153,379.127,393.675,387.865,385.304z"/>
				<path style="fill:#E91E63;" d="M442.734,191c0,5.803,0,11.52-0.085,17.067c-0.597,55.125-4.096,96.597-6.315,118.699
					c-1.113,10.702-8.833,19.549-19.285,22.101l-0.341,0.085l-16.213,4.096L408.601,191c3.24-42.619-8.866-84.992-34.133-119.467
					C374.467,71.533,442.734,97.133,442.734,191z"/>
			</g>
			<path style="fill:#AD1457;" d="M481.646,251.501l-26.88,127.744c-2.112,10.039-9.997,17.857-20.053,19.883l-22.869,4.523
				l4.864-54.699l0.341-0.085c10.452-2.553,18.172-11.4,19.285-22.101c2.219-22.101,5.717-63.573,6.315-118.699h0.085l27.051,16.213
				C479.102,229.928,483.854,240.832,481.646,251.501z"/>
			<path style="fill:#46B29D;" d="M229.396,212.333c-1.193,0.001-2.372-0.249-3.462-0.733l-76.8-34.133
				c-4.308-1.915-6.248-6.959-4.333-11.267c1.915-4.308,6.959-6.248,11.267-4.333l76.8,34.133c3.683,1.638,5.717,5.63,4.879,9.572
				S233.427,212.334,229.396,212.333z"/>
			<path style="fill:#E91E63;" d="M161.134,220.867h34.133c4.713,0,8.533,3.82,8.533,8.533v34.133c0,4.713-3.821,8.533-8.533,8.533
				h-34.133c-4.713,0-8.533-3.82-8.533-8.533V229.4C152.601,224.687,156.421,220.867,161.134,220.867z"/>
			<path style="fill:#46B29D;" d="M280.605,212.333c-4.031,0.001-7.512-2.818-8.35-6.761c-0.838-3.943,1.197-7.934,4.879-9.572
				l76.8-34.133c2.787-1.238,6.022-0.896,8.488,0.898c2.466,1.794,3.787,4.767,3.467,7.8c-0.321,3.033-2.235,5.664-5.022,6.902
				l-76.8,34.133C282.977,212.084,281.797,212.334,280.605,212.333z"/>
			<path style="fill:#E91E63;" d="M348.867,272.067h-34.133c-4.713,0-8.533-3.82-8.533-8.533V229.4c0-4.713,3.82-8.533,8.533-8.533
				h34.133c4.713,0,8.533,3.82,8.533,8.533v34.133C357.401,268.246,353.58,272.067,348.867,272.067z"/>
		</g>
	</g>
	<g>
		<path d="M475.171,213.7l-22.963-13.767c0.029-4.033,0.059-8.055,0.059-12.2c0-90.214-59.052-120.99-71.481-126.474
			C335.838,0.807,259.279,0,256.001,0c-3.278,0-79.838,0.807-124.786,61.259c-12.429,5.484-71.481,36.26-71.481,126.474
			c0,4.154,0.029,8.173,0.06,12.2L36.8,213.717c-12.415,7.527-18.743,22.059-15.796,36.275l26.879,127.75
			c2.831,13.378,13.346,23.791,26.75,26.492l16.579,3.28l0.984,11.086c1.295,13.638,7.29,26.402,16.958,36.108
			c21.307,21.39,62.065,57.286,95.639,57.291l0.003,0h102.409l0.003,0c33.574-0.005,74.332-35.901,95.627-57.283
			c9.687-9.722,15.688-22.512,16.975-36.175l0.979-11.028l16.621-3.289c13.39-2.712,23.887-13.124,26.708-26.492L491,249.967
			C493.938,235.746,487.596,221.216,475.171,213.7z M435.201,187.733c0,5.758,0,11.433-0.083,16.975
			c-0.45,41.225-2.558,80.9-6.271,117.917c-0.813,7.242-6.122,13.175-13.229,14.783l-0.352,0.089
			c-0.096,0.028-0.193,0.041-0.289,0.073l-4.385,1.109l7.455-149.737c2.779-31.387-2.748-62.953-16.026-91.529
			C418.287,114.144,435.201,142.346,435.201,187.733z M256.001,17.067c0.725,0,72.867,0.642,112.521,56.158
			c23.988,32.988,35.523,73.404,32.559,114.083L392.534,358.4c0,0.2-1.017,20.225-37.304,34.742
			c-40.6,16.242-98.65,16.458-99.229,16.458c-0.579,0-58.629-0.217-99.229-16.458c-35.992-14.392-37.271-34.092-37.316-35.167
			l-8.609-171.45c-2.87-40.438,8.693-80.584,32.634-113.3C182.988,17.917,255.288,17.067,256.001,17.067z M110.253,96.847
			C96.877,125.32,91.23,156.812,93.88,188.158l7.534,150.528l-4.44-1.12l-0.246-0.062l-0.74-0.186
			c-6.936-1.703-12.064-7.566-12.829-14.667c-3.717-37.042-5.825-76.717-6.275-117.975c-0.083-5.509-0.083-11.184-0.083-16.942
			C76.801,141.662,93.896,113.429,110.253,96.847z M77.984,387.492c-6.715-1.356-11.981-6.573-13.4-13.275L37.709,246.5
			c-1.474-7.116,1.687-14.39,7.896-18.167l14.525-8.707c0.753,36.437,2.732,71.654,6.05,104.749
			c1.3,12.098,8.961,22.58,20.094,27.491l3.367,37.932L77.984,387.492z M402.813,416.983c-0.917,9.699-5.18,18.776-12.058,25.675
			c-13.572,13.63-45.054,42.897-71.718,50.44l13.435-47.023c1.293-4.531-1.331-9.253-5.862-10.546
			c-4.531-1.293-9.253,1.331-10.546,5.862l-15.297,53.542h-89.53l-15.297-53.542c-0.837-2.931-3.173-5.193-6.13-5.934
			c-2.957-0.741-6.084,0.152-8.204,2.342c-2.12,2.19-2.911,5.345-2.074,8.276l13.435,47.023
			c-26.665-7.542-58.148-36.811-71.731-50.448c-6.859-6.883-11.116-15.935-12.042-25.609l-4.199-47.315
			c4.259,10.862,15.533,27.3,45.436,39.265c43.692,17.475,103.067,17.675,105.571,17.675c2.504,0,61.879-0.2,105.571-17.675
			c29.88-11.956,41.16-28.379,45.424-39.134L402.813,416.983z M474.297,246.475l-26.879,127.733
			c-1.409,6.692-6.658,11.908-13.358,13.275l-11.698,2.315l3.362-37.884c11.151-4.928,18.817-15.441,20.103-27.564
			c3.316-33.08,5.294-68.301,6.047-104.723l14.495,8.69C472.585,232.083,475.761,239.354,474.297,246.475L474.297,246.475z"/>
		<path d="M252.755,340.65c3.176,1.362,6.861,0.653,9.304-1.791c0.751-0.832,1.357-1.784,1.792-2.817
			c0.478-1.012,0.712-2.123,0.683-3.242c-0.033-2.259-0.917-4.422-2.475-6.059c-0.83-0.753-1.783-1.359-2.817-1.792
			c-3.178-1.333-6.845-0.626-9.3,1.792c-1.574,1.626-2.461,3.796-2.475,6.059c-0.023,2.27,0.869,4.454,2.475,6.059
			C250.771,339.612,251.722,340.218,252.755,340.65z"/>
		<path d="M224.342,326.741l-1.025,1.275c-0.324,0.477-0.583,0.996-0.771,1.542c-0.245,0.483-0.417,1-0.508,1.533
			c-0.096,0.565-0.153,1.136-0.171,1.709c-0.023,2.27,0.869,4.454,2.475,6.059c0.829,0.753,1.78,1.359,2.813,1.792
			c2.067,0.911,4.421,0.911,6.487,0c1.034-0.433,1.987-1.039,2.817-1.792c1.604-1.606,2.496-3.789,2.475-6.059
			c0.02-3.467-2.059-6.601-5.261-7.931C230.471,323.54,226.783,324.28,224.342,326.741z"/>
		<path d="M208.042,324.95c-2.077-0.858-4.41-0.858-6.487,0c-1.033,0.433-1.984,1.039-2.813,1.792
			c-1.559,1.635-2.443,3.799-2.475,6.058c0.012,1.115,0.243,2.216,0.679,3.242c0.435,1.034,1.042,1.986,1.796,2.817
			c3.365,3.3,8.752,3.3,12.117,0c0.751-0.832,1.357-1.784,1.792-2.817c0.438-1.026,0.67-2.127,0.683-3.242
			c-0.033-2.259-0.917-4.422-2.475-6.059C210.043,325.97,209.087,325.362,208.042,324.95z"/>
		<path d="M195.584,346.625c-0.413-1.044-1.021-2-1.792-2.817c-0.407-0.366-0.834-0.708-1.279-1.025
			c-0.475-0.325-0.992-0.582-1.538-0.767c-0.485-0.246-1.003-0.42-1.538-0.517c-2.81-0.571-5.72,0.295-7.762,2.308
			c-0.773,0.815-1.383,1.772-1.796,2.817c-0.906,2.066-0.906,4.417,0,6.483c0.78,2.141,2.467,3.828,4.608,4.608
			c3.175,1.363,6.86,0.655,9.304-1.788C196.235,353.485,196.945,349.8,195.584,346.625L195.584,346.625z"/>
		<path d="M275.542,338.859c2.441,2.462,6.129,3.201,9.331,1.872c3.202-1.329,5.281-4.464,5.261-7.931
			c-0.033-2.259-0.917-4.422-2.475-6.059c-0.429-0.341-0.854-0.683-1.367-1.025c-0.434-0.34-0.925-0.6-1.45-0.767
			c-0.485-0.246-1.003-0.42-1.538-0.517c-1.664-0.348-3.394-0.167-4.95,0.517c-1.033,0.433-1.984,1.039-2.813,1.792
			c-1.559,1.635-2.444,3.799-2.475,6.058c0.012,1.115,0.243,2.216,0.679,3.242C274.181,337.075,274.788,338.028,275.542,338.859z"/>
		<path d="M303.955,340.65c2.067,0.911,4.421,0.911,6.487,0c1.034-0.433,1.987-1.039,2.817-1.792
			c1.604-1.606,2.496-3.788,2.475-6.058c-0.016-0.573-0.073-1.144-0.171-1.708c-0.095-0.533-0.268-1.05-0.512-1.533
			c-0.187-0.546-0.447-1.064-0.771-1.542c-0.338-0.425-0.679-0.85-1.021-1.275c-2.044-2.014-4.955-2.879-7.767-2.308
			c-0.535,0.096-1.053,0.27-1.538,0.517c-0.524,0.169-1.015,0.428-1.45,0.767c-0.513,0.341-0.937,0.683-1.363,1.025
			c-1.574,1.626-2.461,3.796-2.475,6.059c-0.023,2.27,0.869,4.454,2.475,6.059C301.971,339.612,302.922,340.218,303.955,340.65z"/>
		<path d="M249.942,372.992c2.441,2.444,6.125,3.154,9.3,1.792c1.034-0.433,1.987-1.039,2.817-1.792
			c0.751-0.832,1.357-1.784,1.792-2.817c0.911-2.065,0.911-4.418,0-6.483c-0.413-1.044-1.021-2-1.792-2.817
			c-2.457-2.418-6.125-3.125-9.304-1.792c-2.141,0.78-3.828,2.467-4.608,4.608c-0.906,2.066-0.906,4.417,0,6.483
			C248.581,371.209,249.188,372.161,249.942,372.992z"/>
		<path d="M236.459,360.875c-2.473-2.388-6.122-3.09-9.304-1.792c-1.033,0.433-1.984,1.039-2.813,1.792
			c-0.773,0.815-1.383,1.772-1.796,2.817c-0.906,2.066-0.906,4.417,0,6.483c0.78,2.141,2.467,3.828,4.608,4.608
			c2.067,0.911,4.421,0.911,6.487,0c1.034-0.433,1.987-1.039,2.817-1.792c0.751-0.832,1.357-1.784,1.792-2.817
			c0.911-2.065,0.911-4.418,0-6.483C237.838,362.647,237.23,361.691,236.459,360.875z"/>
		<path d="M210.859,360.875c-0.83-0.753-1.783-1.359-2.817-1.792c-3.177-1.341-6.849-0.634-9.3,1.792
			c-0.773,0.815-1.383,1.772-1.796,2.817c-0.906,2.066-0.906,4.417,0,6.483c0.78,2.141,2.467,3.828,4.608,4.608
			c3.176,1.362,6.861,0.653,9.304-1.791c0.751-0.832,1.357-1.784,1.792-2.817c0.911-2.065,0.911-4.418,0-6.483
			C212.238,362.648,211.63,361.692,210.859,360.875z"/>
		<path d="M275.542,372.992c2.441,2.444,6.125,3.154,9.3,1.792c1.034-0.433,1.987-1.039,2.817-1.792
			c0.751-0.832,1.357-1.784,1.792-2.817c0.911-2.065,0.911-4.418,0-6.483c-0.413-1.044-1.021-2-1.792-2.817
			c-0.419-0.387-0.877-0.731-1.367-1.025c-0.434-0.34-0.925-0.6-1.45-0.767c-0.485-0.246-1.003-0.42-1.538-0.517
			c-1.664-0.348-3.394-0.167-4.95,0.517c-1.033,0.433-1.984,1.039-2.813,1.792c-0.773,0.815-1.383,1.772-1.796,2.817
			c-0.906,2.066-0.906,4.417,0,6.483C274.181,371.209,274.788,372.161,275.542,372.992z"/>
		<path d="M313.259,360.875c-0.407-0.366-0.834-0.708-1.279-1.025c-0.475-0.325-0.992-0.582-1.538-0.767
			c-0.485-0.246-1.003-0.42-1.538-0.517c-1.664-0.348-3.394-0.167-4.95,0.517c-2.141,0.78-3.828,2.467-4.608,4.608
			c-0.906,2.066-0.906,4.417,0,6.483c0.435,1.034,1.042,1.987,1.795,2.818c3.365,3.3,8.752,3.3,12.117,0
			c0.751-0.832,1.357-1.784,1.792-2.817c0.478-1.012,0.713-2.123,0.683-3.242c-0.014-1.115-0.246-2.216-0.683-3.242
			C314.637,362.648,314.03,361.692,313.259,360.875z"/>
		<path d="M330.326,343.808c-0.83-0.753-1.783-1.359-2.817-1.792c-1.556-0.684-3.286-0.865-4.95-0.517
			c-0.535,0.096-1.053,0.27-1.538,0.517c-0.524,0.169-1.015,0.428-1.45,0.767c-0.489,0.293-0.946,0.637-1.363,1.025
			c-0.773,0.815-1.383,1.772-1.796,2.817c-1.357,3.176-0.646,6.858,1.796,9.301c0.829,0.753,1.78,1.359,2.813,1.792
			c2.625,1.125,5.64,0.848,8.016-0.735c2.376-1.584,3.792-4.26,3.764-7.115c0.029-1.119-0.205-2.229-0.683-3.242
			C331.684,345.591,331.078,344.639,330.326,343.808z"/>
		<path d="M150.134,178.467l76.8,34.133c4.308,1.915,9.352-0.025,11.267-4.333c1.915-4.308-0.026-9.352-4.333-11.267l-76.8-34.133
			c-4.308-1.915-9.352,0.026-11.267,4.333C143.886,171.508,145.826,176.552,150.134,178.467L150.134,178.467z"/>
		<path d="M162.134,281.6h34.133c9.421-0.011,17.056-7.645,17.067-17.067V230.4c-0.011-9.421-7.645-17.056-17.067-17.067h-34.133
			c-9.421,0.011-17.056,7.645-17.067,17.067v34.133C145.078,273.955,152.713,281.589,162.134,281.6z M162.134,230.4h34.133
			l0.012,34.133h-34.146V230.4z"/>
		<path d="M281.605,213.333c1.193,0.001,2.372-0.249,3.462-0.733l76.8-34.133c4.308-1.915,6.248-6.959,4.333-11.267
			c-1.915-4.308-6.959-6.248-11.267-4.333L278.134,197c-3.683,1.638-5.717,5.63-4.879,9.572
			C274.092,210.515,277.574,213.334,281.605,213.333z"/>
		<path d="M349.867,213.333h-34.133c-9.421,0.011-17.056,7.645-17.067,17.067v34.133c0.011,9.421,7.645,17.056,17.067,17.067h34.133
			c9.421-0.011,17.056-7.645,17.067-17.067V230.4C366.923,220.979,359.288,213.344,349.867,213.333z M349.867,264.533h-34.133V230.4
			h34.133V264.533z"/>
	</g>
</g>
<g>
</g>
<g>
</g>
<g>
</g>
<g>
</g>
<g>
</g>
<g>
</g>
<g>
</g>
<g>
</g>
<g>
</g>
<g>
</g>
<g>
</g>
<g>
</g>
<g>
</g>
<g>
</g>
<g>
</g>
</svg>
