<?xml version="1.0" encoding="iso-8859-1"?>
<!-- Generator: Adobe Illustrator 19.0.0, SVG Export Plug-In . SVG Version: 6.00 Build 0)  -->
<svg version="1.1" id="Capa_1" xmlns="http://www.w3.org/2000/svg" xmlns:xlink="http://www.w3.org/1999/xlink" x="0px" y="0px"
	 viewBox="0 0 512 512" style="enable-background:new 0 0 512 512;" xml:space="preserve">
<g>
	<g transform="translate(1 1)">
		<path style="fill:#4527A0;" d="M408.601,186.733l-8.107,162.048l-0.427,8.619c0,0,0,25.6-42.667,42.667
			c-42.667,17.067-102.4,17.067-102.4,17.067s-6.656,0-17.067-0.597c-29.098-1.278-57.85-6.828-85.333-16.469
			C109.934,383,109.934,357.4,109.934,357.4l-0.427-8.619l-8.107-162.048c-3.24-42.619,8.866-84.992,34.133-119.467
			c30.123-42.155,77.312-54.613,102.4-58.197c5.649-0.888,11.35-1.401,17.067-1.536c0,0,76.8,0,119.467,59.733
			C399.734,101.741,411.841,144.114,408.601,186.733z"/>
		<g>
			<path style="fill:#673AB7;" d="M374.467,186.733l-8.107,162.048l-0.427,8.619c0,0,0,25.6-42.667,42.667
				c-27.484,9.642-56.236,15.191-85.333,16.469c-29.098-1.278-57.85-6.828-85.333-16.469C109.934,383,109.934,357.4,109.934,357.4
				l-0.427-8.619l-8.107-162.048c-3.24-42.619,8.866-84.992,34.133-119.467c30.123-42.155,77.312-54.613,102.4-58.197
				c25.088,3.584,72.277,16.043,102.4,58.197C365.601,101.741,377.707,144.114,374.467,186.733z"/>
			<path style="fill:#673AB7;" d="M481.646,247.235l-26.88,127.744c-2.112,10.039-9.997,17.857-20.053,19.883l-22.869,4.523
				l-1.536,17.408c-1.095,11.671-6.225,22.595-14.507,30.891c-17.408,17.493-49.664,46.336-77.824,53.248h-0.085
				c-3.818,0.997-7.745,1.513-11.691,1.536h-102.4c-3.946-0.023-7.873-0.539-11.691-1.536h-0.085
				c-28.16-6.912-60.416-35.755-77.824-53.248c-8.281-8.296-13.411-19.22-14.507-30.891l-1.536-17.408l-22.869-4.523
				c-10.056-2.026-17.941-9.844-20.053-19.883l-26.88-127.744c-2.208-10.67,2.543-21.574,11.861-27.221L67.267,203.8h0.085
				c-0.085-5.547-0.085-11.264-0.085-17.067c0-93.867,68.267-119.467,68.267-119.467c-25.267,34.474-37.373,76.847-34.133,119.467
				l8.107,162.048l0.427,8.619c0,0,0,25.6,42.667,42.667c42.667,17.067,102.4,17.067,102.4,17.067s59.733,0,102.4-17.067
				C400.067,383,400.067,357.4,400.067,357.4l0.427-8.619l8.107-162.048c3.24-42.619-8.866-84.992-34.133-119.467
				c0,0,68.267,25.6,68.267,119.467c0,5.803,0,11.52-0.085,17.067h0.085l27.051,16.213
				C479.102,225.661,483.854,236.565,481.646,247.235z"/>
		</g>
		<g>
			<path style="fill:#FFEB3A;" d="M101.401,186.733l8.107,162.048l-16.213-4.096l-0.341-0.085
				c-10.452-2.553-18.172-11.4-19.285-22.101c-2.219-22.101-5.717-63.573-6.315-118.699c-0.085-5.547-0.085-11.264-0.085-17.067
				c0-93.867,68.267-119.467,68.267-119.467C110.267,101.741,98.16,144.114,101.401,186.733z"/>
			<path style="fill:#F57C00;" d="M98.158,399.384l-22.869-4.523c-10.056-2.026-17.941-9.844-20.053-19.883l-26.88-127.744
				c-2.208-10.67,2.543-21.574,11.861-27.221L67.267,203.8h0.085c0.597,55.125,4.096,96.597,6.315,118.699
				C74.781,333.2,82.5,342.047,92.953,344.6l0.341,0.085L98.158,399.384z"/>
			<path style="fill:#FEC108;" d="M400.494,348.781l-0.427,8.619c-1.043,9.105-5.384,17.514-12.203,23.637
				c-8.738,8.371-19.109,14.849-30.464,19.029c-42.667,17.067-102.4,17.067-102.4,17.067s-4.693,0-12.459-0.341
				c-0.22-0.085-0.463-0.085-0.683,0h-0.171c-30.362-1.119-60.388-6.756-89.088-16.725C109.934,383,109.934,357.4,109.934,357.4
				l-0.427-8.619l-16.213-4.096l3.243,36.352l1.621,18.347l1.536,17.408c1.095,11.671,6.225,22.595,14.507,30.891
				c17.408,17.493,49.664,46.336,77.824,53.248h0.085c3.66,0.912,7.408,1.427,11.179,1.536h102.912
				c3.946-0.023,7.873-0.539,11.691-1.536h0.085c28.16-6.912,60.416-35.755,77.824-53.248c8.281-8.296,13.411-19.22,14.507-30.891
				l1.536-17.408l4.864-54.699L400.494,348.781z"/>
			<g>
				<path style="fill:#FFEB3A;" d="M387.865,381.037l-1.621,18.347l-1.536,17.408c-1.095,11.671-6.225,22.595-14.507,30.891
					c-17.408,17.493-49.664,46.336-77.824,53.248h-0.085c-3.818,0.997-7.745,1.513-11.691,1.536h-77.312
					c-3.771-0.109-7.518-0.624-11.179-1.536h-0.085c-28.16-6.912-60.416-35.755-77.824-53.248
					c-8.281-8.296-13.411-19.22-14.507-30.891l-1.536-17.408l-1.621-18.347l-3.243-36.352l16.213,4.096l0.427,8.619
					c0,0,0,25.6,42.667,42.667c28.7,9.969,58.726,15.606,89.088,16.725h0.171c0.22-0.085,0.463-0.085,0.683,0
					c7.765,0.341,12.459,0.341,12.459,0.341s59.733,0,102.4-17.067C368.756,395.886,379.127,389.408,387.865,381.037z"/>
				<path style="fill:#FFEB3A;" d="M442.734,186.733c0,5.803,0,11.52-0.085,17.067c-0.597,55.125-4.096,96.597-6.315,118.699
					c-1.113,10.702-8.833,19.549-19.285,22.101l-0.341,0.085l-16.213,4.096l8.107-162.048c3.24-42.619-8.866-84.992-34.133-119.467
					C374.467,67.267,442.734,92.867,442.734,186.733z"/>
			</g>
			<path style="fill:#F57C00;" d="M481.646,247.235l-26.88,127.744c-2.112,10.039-9.997,17.857-20.053,19.883l-22.869,4.523
				l4.864-54.699l0.341-0.085c10.452-2.553,18.172-11.4,19.285-22.101c2.219-22.101,5.717-63.573,6.315-118.699h0.085l27.051,16.213
				C479.102,225.661,483.854,236.565,481.646,247.235z"/>
			<g>
				<path style="fill:#FFEB3A;" d="M195.267,127L195.267,127c9.426,0,17.067,7.641,17.067,17.067v76.8
					c0,9.426-7.641,17.067-17.067,17.067l0,0c-9.426,0-17.067-7.641-17.067-17.067v-76.8C178.201,134.641,185.842,127,195.267,127z"
					/>
				<circle style="fill:#FFEB3A;" cx="195.267" cy="280.6" r="17.067"/>
				<path style="fill:#FFEB3A;" d="M314.734,127L314.734,127c9.426,0,17.067,7.641,17.067,17.067v76.8
					c0,9.426-7.641,17.067-17.067,17.067l0,0c-9.426,0-17.067-7.641-17.067-17.067v-76.8C297.667,134.641,305.308,127,314.734,127z"
					/>
				<circle style="fill:#FFEB3A;" cx="314.734" cy="280.6" r="17.067"/>
			</g>
		</g>
	</g>
	<g>
		<path d="M475.171,213.7l-22.963-13.767c0.029-4.033,0.059-8.055,0.059-12.2c0-90.214-59.052-120.99-71.481-126.474
			C335.838,0.807,259.279,0,256.001,0c-3.278,0-79.838,0.807-124.786,61.259c-12.429,5.484-71.481,36.26-71.481,126.474
			c0,4.154,0.029,8.173,0.06,12.2L36.8,213.717c-12.415,7.527-18.743,22.059-15.796,36.275l26.879,127.75
			c2.831,13.378,13.346,23.791,26.75,26.492l16.579,3.28l0.984,11.086c1.295,13.638,7.29,26.402,16.958,36.108
			c21.307,21.39,62.065,57.286,95.639,57.291l0.003,0h102.409l0.003,0c33.574-0.005,74.332-35.901,95.627-57.283
			c9.687-9.722,15.688-22.512,16.975-36.175l0.979-11.028l16.621-3.289c13.39-2.712,23.887-13.124,26.708-26.492L491,249.967
			C493.938,235.746,487.596,221.216,475.171,213.7z M435.201,187.733c0,5.758,0,11.433-0.083,16.975
			c-0.45,41.225-2.558,80.9-6.271,117.917c-0.813,7.242-6.122,13.175-13.229,14.783l-0.357,0.09c-0.09,0.027-0.18,0.039-0.268,0.068
			l-4.401,1.112l7.455-149.737c2.779-31.387-2.748-62.953-16.026-91.529C418.287,114.144,435.201,142.346,435.201,187.733z
			 M256.001,17.067c0.725,0,72.867,0.642,112.521,56.158c23.988,32.988,35.523,73.404,32.559,114.083L392.534,358.4
			c0,0.2-1.017,20.225-37.304,34.742c-40.6,16.242-98.65,16.458-99.229,16.458c-0.579,0-58.629-0.217-99.229-16.458
			c-35.992-14.392-37.271-34.092-37.316-35.167l-8.609-171.45c-2.87-40.438,8.693-80.584,32.634-113.3
			C182.988,17.917,255.288,17.067,256.001,17.067z M110.253,96.847C96.877,125.32,91.23,156.812,93.88,188.158l7.534,150.528
			l-4.422-1.116c-0.089-0.03-0.179-0.041-0.269-0.068l-0.734-0.185c-6.936-1.703-12.064-7.566-12.829-14.667
			c-3.717-37.042-5.825-76.717-6.275-117.975c-0.083-5.509-0.083-11.184-0.083-16.942C76.801,141.662,93.896,113.429,110.253,96.847
			z M77.984,387.492c-6.715-1.356-11.981-6.573-13.4-13.275L37.709,246.5c-1.474-7.116,1.687-14.39,7.896-18.167l14.525-8.707
			c0.753,36.437,2.732,71.654,6.05,104.749c1.3,12.098,8.961,22.58,20.094,27.491l3.367,37.932L77.984,387.492z M402.813,416.983
			c-0.917,9.699-5.18,18.776-12.058,25.675c-13.572,13.63-45.054,42.897-71.718,50.44l13.435-47.023
			c1.293-4.531-1.331-9.253-5.862-10.546c-4.531-1.293-9.253,1.331-10.546,5.862l-15.297,53.542h-89.53l-15.297-53.542
			c-0.837-2.931-3.173-5.193-6.13-5.934c-2.957-0.741-6.084,0.152-8.204,2.342c-2.12,2.19-2.911,5.345-2.074,8.276l13.435,47.023
			c-26.665-7.542-58.148-36.811-71.731-50.448c-6.859-6.883-11.116-15.935-12.042-25.609l-4.199-47.315
			c4.259,10.862,15.533,27.3,45.436,39.265c43.692,17.475,103.067,17.675,105.571,17.675c2.504,0,61.879-0.2,105.571-17.675
			c29.88-11.956,41.16-28.379,45.424-39.134L402.813,416.983z M474.297,246.475l-26.879,127.733
			c-1.409,6.692-6.658,11.908-13.358,13.275l-11.698,2.315l3.362-37.884c11.151-4.928,18.817-15.441,20.103-27.564
			c3.316-33.08,5.294-68.301,6.047-104.723l14.495,8.69C472.585,232.083,475.761,239.354,474.297,246.475L474.297,246.475z"/>
		<path d="M252.755,366.25c3.175,1.363,6.86,0.655,9.304-1.788c2.444-2.443,3.153-6.128,1.792-9.304
			c-0.413-1.044-1.021-2-1.792-2.817c-0.83-0.753-1.783-1.359-2.817-1.792c-1.556-0.684-3.286-0.865-4.95-0.517
			c-0.535,0.096-1.053,0.27-1.538,0.517c-0.524,0.169-1.015,0.428-1.45,0.767c-0.489,0.293-0.945,0.637-1.362,1.025
			c-0.773,0.815-1.383,1.772-1.796,2.817c-1.357,3.176-0.646,6.858,1.796,9.301C250.771,365.212,251.722,365.818,252.755,366.25z"/>
		<path d="M232.875,390.059c3.365,3.3,8.752,3.3,12.117,0c0.751-0.832,1.357-1.784,1.792-2.817c0.911-2.065,0.911-4.418,0-6.483
			c-0.413-1.044-1.021-2-1.792-2.817c-2.453-2.425-6.126-3.133-9.304-1.792c-2.141,0.78-3.828,2.467-4.608,4.608
			c-0.906,2.066-0.906,4.417,0,6.483C231.515,388.275,232.122,389.228,232.875,390.059z"/>
		<path d="M265.213,387.242c0.78,2.141,2.467,3.828,4.608,4.608c3.176,1.362,6.862,0.653,9.305-1.791
			c0.751-0.832,1.357-1.784,1.792-2.817c0.911-2.065,0.911-4.418,0-6.483c-0.413-1.044-1.021-2-1.792-2.817
			c-0.83-0.753-1.783-1.359-2.817-1.792c-3.181-1.299-6.829-0.596-9.3,1.792c-0.773,0.815-1.383,1.772-1.796,2.817
			C264.308,382.825,264.308,385.176,265.213,387.242L265.213,387.242z"/>
		<path d="M196.267,247.467c14.132-0.015,25.585-11.468,25.6-25.6v-76.8c0-14.139-11.462-25.6-25.6-25.6
			c-14.139,0-25.6,11.462-25.6,25.6v76.8C170.683,235.999,182.135,247.451,196.267,247.467z M187.734,145.067
			c0-4.713,3.821-8.533,8.533-8.533c4.713,0,8.533,3.821,8.533,8.533v76.8c0,4.713-3.821,8.533-8.533,8.533
			c-4.713,0-8.533-3.821-8.533-8.533V145.067z"/>
		<path d="M196.267,307.2c14.138,0,25.6-11.462,25.6-25.6s-11.462-25.6-25.6-25.6c-14.139,0-25.6,11.462-25.6,25.6
			C170.683,295.732,182.135,307.185,196.267,307.2z M196.267,273.067c4.713,0,8.533,3.82,8.533,8.533s-3.821,8.533-8.533,8.533
			c-4.713,0-8.533-3.821-8.533-8.533C187.739,276.889,191.556,273.071,196.267,273.067z"/>
		<path d="M315.734,247.467c14.132-0.015,25.585-11.468,25.6-25.6v-76.8c0-14.139-11.462-25.6-25.6-25.6
			c-14.138,0-25.6,11.462-25.6,25.6v76.8C290.149,235.999,301.602,247.451,315.734,247.467z M307.201,145.067
			c0-4.713,3.82-8.533,8.533-8.533s8.533,3.821,8.533,8.533v76.8c0,4.713-3.82,8.533-8.533,8.533s-8.533-3.821-8.533-8.533V145.067z
			"/>
		<path d="M315.734,307.2c14.138,0,25.6-11.462,25.6-25.6s-11.462-25.6-25.6-25.6c-14.138,0-25.6,11.462-25.6,25.6
			C290.149,295.732,301.602,307.185,315.734,307.2z M315.734,273.067c4.713,0,8.533,3.82,8.533,8.533s-3.82,8.533-8.533,8.533
			s-8.533-3.821-8.533-8.533C307.205,276.889,311.023,273.071,315.734,273.067z"/>
	</g>
</g>
<g>
</g>
<g>
</g>
<g>
</g>
<g>
</g>
<g>
</g>
<g>
</g>
<g>
</g>
<g>
</g>
<g>
</g>
<g>
</g>
<g>
</g>
<g>
</g>
<g>
</g>
<g>
</g>
<g>
</g>
</svg>
