<?xml version="1.0" encoding="iso-8859-1"?>
<!-- Generator: Adobe Illustrator 19.0.0, SVG Export Plug-In . SVG Version: 6.00 Build 0)  -->
<svg version="1.1" id="Capa_1" xmlns="http://www.w3.org/2000/svg" xmlns:xlink="http://www.w3.org/1999/xlink" x="0px" y="0px"
	 viewBox="0 0 512 512" style="enable-background:new 0 0 512 512;" xml:space="preserve">
<g>
	<g transform="translate(1 1)">
		<path style="fill:#4527A0;" d="M408.6,186.733l-8.107,162.048l-0.427,8.619c0,0,0,25.6-42.667,42.667
			C314.734,417.133,255,417.133,255,417.133s-6.656,0-17.067-0.597c-29.098-1.278-57.85-6.828-85.333-16.469
			C109.934,383,109.934,357.4,109.934,357.4l-0.427-8.619L101.4,186.733c-3.24-42.619,8.866-84.992,34.133-119.467
			c30.123-42.155,77.312-54.613,102.4-58.197c5.649-0.888,11.35-1.401,17.067-1.536c0,0,76.8,0,119.467,59.733
			C399.734,101.741,411.841,144.114,408.6,186.733z"/>
		<g>
			<path style="fill:#673AB7;" d="M374.467,186.733l-8.107,162.048l-0.427,8.619c0,0,0,25.6-42.667,42.667
				c-27.484,9.642-56.236,15.191-85.333,16.469c-29.098-1.278-57.85-6.828-85.333-16.469C109.934,383,109.934,357.4,109.934,357.4
				l-0.427-8.619L101.4,186.733c-3.24-42.619,8.866-84.992,34.133-119.467c30.123-42.155,77.312-54.613,102.4-58.197
				c25.088,3.584,72.277,16.043,102.4,58.197C365.601,101.741,377.707,144.114,374.467,186.733z"/>
			<path style="fill:#673AB7;" d="M481.646,247.235l-26.88,127.744c-2.112,10.039-9.997,17.857-20.053,19.883l-22.869,4.523
				l-1.536,17.408c-1.095,11.671-6.225,22.595-14.507,30.891c-17.408,17.493-49.664,46.336-77.824,53.248h-0.085
				c-3.818,0.997-7.745,1.513-11.691,1.536H203.8c-3.946-0.023-7.873-0.539-11.691-1.536h-0.085
				c-28.16-6.912-60.416-35.755-77.824-53.248c-8.281-8.296-13.411-19.22-14.507-30.891l-1.536-17.408l-22.869-4.523
				c-10.056-2.026-17.941-9.844-20.053-19.883l-26.88-127.744c-2.208-10.67,2.543-21.574,11.861-27.221L67.267,203.8h0.085
				c-0.085-5.547-0.085-11.264-0.085-17.067c0-93.867,68.267-119.467,68.267-119.467c-25.267,34.474-37.373,76.847-34.133,119.467
				l8.107,162.048l0.427,8.619c0,0,0,25.6,42.667,42.667c42.667,17.067,102.4,17.067,102.4,17.067s59.733,0,102.4-17.067
				C400.067,383,400.067,357.4,400.067,357.4l0.427-8.619l8.107-162.048c3.24-42.619-8.866-84.992-34.133-119.467
				c0,0,68.267,25.6,68.267,119.467c0,5.803,0,11.52-0.085,17.067h0.085l27.051,16.213
				C479.102,225.661,483.854,236.565,481.646,247.235z"/>
		</g>
		<g>
			<path style="fill:#E91E63;" d="M101.4,186.733l8.107,162.048l-16.213-4.096l-0.341-0.085
				c-10.452-2.553-18.172-11.4-19.285-22.101c-2.219-22.101-5.717-63.573-6.315-118.699c-0.085-5.547-0.085-11.264-0.085-17.067
				c0-93.867,68.267-119.467,68.267-119.467C110.267,101.741,98.16,144.114,101.4,186.733z"/>
			<g>
				<path style="fill:#AD1457;" d="M98.158,399.384l-22.869-4.523c-10.056-2.026-17.941-9.844-20.053-19.883l-26.88-127.744
					c-2.208-10.67,2.543-21.574,11.861-27.221L67.267,203.8h0.085c0.597,55.125,4.096,96.597,6.315,118.699
					C74.781,333.2,82.5,342.047,92.952,344.6l0.341,0.085L98.158,399.384z"/>
				<path style="fill:#AD1457;" d="M400.494,348.781l-0.427,8.619c-1.043,9.105-5.384,17.514-12.203,23.637
					c-8.738,8.371-19.109,14.849-30.464,19.029C314.734,417.133,255,417.133,255,417.133s-4.693,0-12.459-0.341
					c-0.22-0.085-0.463-0.085-0.683,0h-0.171c-30.362-1.119-60.388-6.756-89.088-16.725C109.934,383,109.934,357.4,109.934,357.4
					l-0.427-8.619l-16.213-4.096l3.243,36.352l1.621,18.347l1.536,17.408c1.095,11.671,6.225,22.595,14.507,30.891
					c17.408,17.493,49.664,46.336,77.824,53.248h0.085c3.66,0.912,7.408,1.427,11.179,1.536H306.2
					c3.946-0.023,7.873-0.539,11.691-1.536h0.085c28.16-6.912,60.416-35.755,77.824-53.248c8.281-8.296,13.411-19.22,14.507-30.891
					l1.536-17.408l4.864-54.699L400.494,348.781z"/>
			</g>
			<g>
				<path style="fill:#E91E63;" d="M387.864,381.037l-1.621,18.347l-1.536,17.408c-1.095,11.671-6.225,22.595-14.507,30.891
					c-17.408,17.493-49.664,46.336-77.824,53.248h-0.085c-3.818,0.997-7.745,1.513-11.691,1.536h-77.312
					c-3.771-0.109-7.518-0.624-11.179-1.536h-0.085c-28.16-6.912-60.416-35.755-77.824-53.248
					c-8.281-8.296-13.411-19.22-14.507-30.891l-1.536-17.408l-1.621-18.347l-3.243-36.352l16.213,4.096l0.427,8.619
					c0,0,0,25.6,42.667,42.667c28.7,9.969,58.726,15.606,89.088,16.725h0.171c0.22-0.085,0.463-0.085,0.683,0
					c7.765,0.341,12.459,0.341,12.459,0.341s59.733,0,102.4-17.067C368.756,395.886,379.127,389.408,387.864,381.037z"/>
				<path style="fill:#E91E63;" d="M442.734,186.733c0,5.803,0,11.52-0.085,17.067c-0.597,55.125-4.096,96.597-6.315,118.699
					c-1.113,10.702-8.833,19.549-19.285,22.101l-0.341,0.085l-16.213,4.096l8.107-162.048c3.24-42.619-8.866-84.992-34.133-119.467
					C374.467,67.267,442.734,92.867,442.734,186.733z"/>
			</g>
			<path style="fill:#AD1457;" d="M481.646,247.235l-26.88,127.744c-2.112,10.039-9.997,17.857-20.053,19.883l-22.869,4.523
				l4.864-54.699l0.341-0.085c10.452-2.553,18.172-11.4,19.285-22.101c2.219-22.101,5.717-63.573,6.315-118.699h0.085l27.051,16.213
				C479.102,225.661,483.854,236.565,481.646,247.235z"/>
			<g>
				<path style="fill:#E91E63;" d="M255,365.933c-2.854,0.027-5.529-1.388-7.113-3.763c-1.584-2.374-1.863-5.388-0.742-8.012
					c0.78-2.141,2.467-3.828,4.608-4.608c1.556-0.684,3.286-0.864,4.95-0.517c0.535,0.096,1.053,0.27,1.538,0.517
					c0.525,0.167,1.016,0.427,1.45,0.767c0.49,0.294,0.948,0.637,1.367,1.024c0.771,0.817,1.379,1.773,1.792,2.817
					c1.362,3.175,0.652,6.859-1.792,9.301c-0.83,0.753-1.783,1.359-2.817,1.792C257.217,365.688,256.115,365.92,255,365.933z"/>
				<path style="fill:#E91E63;" d="M237.934,391.533c-2.27,0.021-4.453-0.871-6.059-2.475c-0.754-0.831-1.361-1.783-1.796-2.817
					c-0.475-1.013-0.708-2.123-0.679-3.242c0.012-1.115,0.243-2.216,0.679-3.242c0.413-1.045,1.022-2.001,1.796-2.817
					c2.451-2.426,6.123-3.133,9.3-1.792c2.143,0.777,3.831,2.465,4.608,4.608c0.911,2.065,0.911,4.418,0,6.483
					c-0.435,1.033-1.041,1.985-1.792,2.817C242.386,390.661,240.203,391.554,237.934,391.533z"/>
				<path style="fill:#E91E63;" d="M272.067,391.533c-1.116-0.013-2.219-0.245-3.246-0.683c-2.141-0.78-3.828-2.467-4.608-4.608
					c-0.906-2.066-0.906-4.417,0-6.483c0.413-1.045,1.022-2.002,1.795-2.817c2.455-2.418,6.122-3.125,9.3-1.792
					c2.143,0.777,3.831,2.465,4.608,4.608c0.911,2.065,0.911,4.418,0,6.483c-0.435,1.033-1.041,1.985-1.792,2.817
					c-0.83,0.753-1.783,1.359-2.817,1.792C274.283,391.287,273.182,391.519,272.067,391.533z"/>
			</g>
		</g>
		<path style="fill:#AD1457;" d="M230.51,252.952c-6.912,13.056-24.661,26.112-39.509,34.816c-4.181-2.475-8.533-5.205-12.8-8.277
			c10.735-6.788,19.852-15.847,26.709-26.539c9.899-17.408,9.899-34.731,0-43.435c-0.98-0.863-2.037-1.634-3.157-2.304
			c9.133-5.282,20.581-4.365,28.757,2.304C240.408,218.221,240.408,235.544,230.51,252.952z"/>
		<path style="fill:#E91E63;" d="M204.91,252.952c-6.857,10.692-15.974,19.75-26.709,26.539
			c-10.735-6.788-19.852-15.847-26.709-26.539c-9.899-17.408-9.899-34.731,0-43.435c0.98-0.863,2.037-1.634,3.157-2.304
			c7.218-4.147,16.001-4.529,23.552-1.024c5.458,2.517,9.95,6.74,12.8,12.032c2.503-4.589,6.224-8.398,10.752-11.008
			c1.12,0.67,2.177,1.441,3.157,2.304C214.808,218.221,214.808,235.544,204.91,252.952z"/>
		<path style="fill:#AD1457;" d="M358.51,252.952c-6.912,13.056-24.661,26.112-39.509,34.816c-4.181-2.475-8.533-5.205-12.8-8.277
			c10.735-6.788,19.852-15.847,26.709-26.539c9.899-17.408,9.899-34.731,0-43.435c-0.98-0.863-2.037-1.634-3.157-2.304
			c9.133-5.282,20.581-4.365,28.757,2.304C368.408,218.221,368.408,235.544,358.51,252.952z"/>
		<path style="fill:#E91E63;" d="M332.91,252.952c-6.857,10.692-15.974,19.75-26.709,26.539
			c-10.735-6.788-19.852-15.847-26.709-26.539c-9.899-17.408-9.899-34.731,0-43.435c0.98-0.863,2.037-1.634,3.157-2.304
			c7.218-4.147,16.001-4.529,23.552-1.024c5.458,2.517,9.95,6.74,12.8,12.032c2.503-4.589,6.224-8.398,10.752-11.008
			c1.12,0.67,2.177,1.441,3.157,2.304C342.809,218.221,342.809,235.544,332.91,252.952z"/>
	</g>
	<g>
		<path d="M475.171,213.7l-22.963-13.767c0.029-4.033,0.059-8.055,0.059-12.2c0-90.214-59.052-120.99-71.481-126.474
			C335.838,0.807,259.279,0,256,0c-3.278,0-79.838,0.807-124.786,61.259c-12.429,5.484-71.481,36.26-71.481,126.474
			c0,4.154,0.029,8.173,0.06,12.2L36.8,213.717c-12.415,7.527-18.743,22.059-15.796,36.275l26.879,127.75
			c2.831,13.378,13.346,23.791,26.75,26.492l16.579,3.28l0.984,11.086c1.295,13.638,7.29,26.402,16.958,36.108
			c21.307,21.39,62.065,57.286,95.639,57.291l0.003,0h102.409l0.003,0c33.574-0.005,74.332-35.901,95.627-57.283
			c9.687-9.722,15.688-22.512,16.975-36.175l0.979-11.028l16.621-3.289c13.39-2.712,23.887-13.124,26.708-26.492L491,249.967
			C493.938,235.746,487.596,221.216,475.171,213.7z M435.2,187.733c0,5.758,0,11.433-0.083,16.975
			c-0.45,41.225-2.558,80.9-6.271,117.917c-0.813,7.242-6.122,13.175-13.229,14.783l-0.364,0.092
			c-0.081,0.024-0.163,0.035-0.243,0.061l-4.419,1.118l7.455-149.737c2.779-31.387-2.748-62.953-16.026-91.529
			C418.287,114.144,435.2,142.346,435.2,187.733z M256,17.067c0.725,0,72.867,0.642,112.521,56.158
			c23.988,32.988,35.523,73.404,32.559,114.083L392.534,358.4c0,0.2-1.017,20.225-37.304,34.742
			C314.63,409.383,256.58,409.6,256,409.6c-0.579,0-58.629-0.217-99.229-16.458c-35.992-14.392-37.271-34.092-37.316-35.167
			l-8.609-171.45c-2.87-40.438,8.693-80.584,32.634-113.3C182.988,17.917,255.288,17.067,256,17.067z M110.253,96.847
			C96.877,125.32,91.23,156.812,93.88,188.158l7.534,150.528l-4.404-1.111c-0.096-0.032-0.195-0.045-0.293-0.074l-0.728-0.184
			c-6.936-1.703-12.064-7.566-12.829-14.667c-3.717-37.042-5.825-76.717-6.275-117.975c-0.083-5.509-0.083-11.184-0.083-16.942
			C76.8,141.662,93.896,113.429,110.253,96.847z M77.984,387.492c-6.715-1.356-11.981-6.573-13.4-13.275L37.709,246.5
			c-1.474-7.116,1.687-14.39,7.896-18.167l14.525-8.707c0.753,36.437,2.732,71.654,6.05,104.749
			c1.3,12.098,8.961,22.58,20.094,27.491l3.367,37.932L77.984,387.492z M402.813,416.983c-0.917,9.699-5.18,18.776-12.058,25.675
			c-13.572,13.63-45.054,42.897-71.718,50.44l13.435-47.023c1.293-4.531-1.331-9.253-5.862-10.546
			c-4.531-1.293-9.253,1.331-10.546,5.862l-15.297,53.542h-89.53l-15.297-53.542c-0.837-2.931-3.173-5.193-6.13-5.934
			c-2.957-0.741-6.084,0.152-8.204,2.342c-2.12,2.19-2.911,5.345-2.074,8.276l13.435,47.023
			c-26.665-7.542-58.148-36.811-71.731-50.448c-6.859-6.883-11.116-15.935-12.042-25.609l-4.199-47.315
			c4.259,10.862,15.533,27.3,45.436,39.265c43.692,17.475,103.067,17.675,105.571,17.675c2.504,0,61.879-0.2,105.571-17.675
			c29.88-11.956,41.16-28.379,45.424-39.134L402.813,416.983z M474.297,246.475l-26.879,127.733
			c-1.409,6.692-6.658,11.908-13.358,13.275l-11.698,2.315l3.362-37.884c11.151-4.928,18.817-15.441,20.103-27.564
			c3.316-33.08,5.294-68.301,6.047-104.723l14.495,8.69C472.585,232.083,475.761,239.354,474.297,246.475L474.297,246.475z"/>
		<path d="M256,366.933c1.115-0.014,2.216-0.246,3.242-0.683c1.034-0.433,1.987-1.039,2.817-1.792
			c2.444-2.441,3.154-6.125,1.792-9.3c-0.413-1.044-1.021-2-1.792-2.817c-0.419-0.387-0.877-0.731-1.367-1.025
			c-0.434-0.34-0.925-0.6-1.45-0.767c-0.485-0.246-1.003-0.42-1.538-0.517c-1.664-0.348-3.394-0.167-4.95,0.517
			c-2.141,0.78-3.828,2.467-4.608,4.608c-1.122,2.625-0.844,5.639,0.74,8.013C250.47,365.546,253.146,366.961,256,366.933z"/>
		<path d="M244.992,377.941c-0.816-0.771-1.772-1.379-2.817-1.792c-3.177-1.341-6.849-0.634-9.3,1.792
			c-0.773,0.815-1.383,1.772-1.796,2.817c-0.436,1.026-0.667,2.127-0.68,3.242c-0.029,1.119,0.204,2.229,0.679,3.242
			c0.435,1.034,1.042,1.986,1.796,2.817c3.365,3.3,8.752,3.3,12.117,0c0.751-0.832,1.357-1.784,1.792-2.817
			c0.911-2.065,0.911-4.418,0-6.483C246.371,379.714,245.763,378.758,244.992,377.941z"/>
		<path d="M279.126,377.941c-0.816-0.771-1.772-1.379-2.817-1.792c-3.178-1.333-6.845-0.626-9.3,1.792
			c-0.773,0.815-1.383,1.772-1.796,2.817c-0.906,2.066-0.906,4.417,0,6.483c0.78,2.141,2.467,3.828,4.608,4.608
			c2.067,0.911,4.421,0.911,6.487,0c1.034-0.433,1.987-1.039,2.817-1.792c0.751-0.832,1.357-1.784,1.792-2.817
			c0.911-2.065,0.911-4.418,0-6.483C280.504,379.714,279.896,378.758,279.126,377.941z"/>
		<path d="M144.942,257.975c8.754,16.5,30.537,30.967,42.742,38.125c2.665,1.567,5.969,1.567,8.633,0
			c12.204-7.158,33.988-21.625,42.625-37.908c11.9-20.95,11.183-42.684-1.783-54.092c-7.576-6.377-17.588-9.071-27.342-7.358
			c-6.674,1.116-12.871,4.174-17.817,8.792c-4.946-4.618-11.143-7.676-17.817-8.792c-9.754-1.742-19.776,0.956-27.337,7.358
			C133.876,215.508,133.159,237.242,144.942,257.975z M158.117,216.917c2.893-2.387,6.546-3.659,10.296-3.583
			c0.987-0.002,1.972,0.078,2.946,0.242c5.705,1.029,10.598,4.672,13.221,9.842c1.643,2.497,4.432,4,7.421,4s5.778-1.503,7.421-4
			c2.622-5.17,7.516-8.813,13.221-9.842c4.692-0.878,9.532,0.343,13.246,3.342c6.625,5.825,5.892,19.333-1.904,33.058
			c-8.276,11.957-19.227,21.818-31.983,28.8c-12.825-7.024-23.821-16.963-32.1-29.017
			C152.221,236.25,151.488,222.742,158.117,216.917L158.117,216.917z"/>
		<path d="M315.684,296.1c2.665,1.567,5.969,1.567,8.633,0c12.204-7.158,33.988-21.625,42.625-37.908
			c11.9-20.95,11.183-42.684-1.783-54.092c-7.575-6.379-17.588-9.074-27.342-7.358c-6.674,1.116-12.871,4.174-17.817,8.792
			c-4.946-4.618-11.143-7.676-17.817-8.792c-9.754-1.742-19.776,0.956-27.337,7.358c-12.971,11.408-13.687,33.142-1.904,53.875
			C281.696,274.475,303.48,288.942,315.684,296.1z M286.117,216.917c2.893-2.387,6.546-3.658,10.296-3.583
			c0.987-0.002,1.972,0.078,2.946,0.242c5.705,1.029,10.598,4.672,13.221,9.842c1.643,2.497,4.432,4,7.421,4
			c2.989,0,5.778-1.503,7.421-4c2.622-5.17,7.516-8.813,13.221-9.842c4.691-0.877,9.532,0.344,13.246,3.342
			c6.625,5.825,5.892,19.333-1.904,33.058c-8.276,11.957-19.227,21.818-31.983,28.8c-12.825-7.024-23.821-16.963-32.1-29.017
			C280.221,236.25,279.488,222.742,286.117,216.917z"/>
	</g>
</g>
<g>
</g>
<g>
</g>
<g>
</g>
<g>
</g>
<g>
</g>
<g>
</g>
<g>
</g>
<g>
</g>
<g>
</g>
<g>
</g>
<g>
</g>
<g>
</g>
<g>
</g>
<g>
</g>
<g>
</g>
</svg>
