<?xml version="1.0" encoding="iso-8859-1"?>
<!-- Generator: Adobe Illustrator 19.0.0, SVG Export Plug-In . SVG Version: 6.00 Build 0)  -->
<svg version="1.1" id="Capa_1" xmlns="http://www.w3.org/2000/svg" xmlns:xlink="http://www.w3.org/1999/xlink" x="0px" y="0px"
	 viewBox="0 0 512.011 512.011" style="enable-background:new 0 0 512.011 512.011;" xml:space="preserve">
<g transform="translate(0 -1)">
	<g transform="translate(1 2)">
		<polygon style="fill:#AD1457;" points="255.006,391.544 195.273,391.544 195.273,464.615 255.006,464.615 314.739,464.615 
			314.739,391.544 		"/>
		<polygon style="fill:#E91E63;" points="242.206,391.544 195.273,391.544 195.273,464.615 242.206,464.615 289.139,464.615 
			289.139,391.544 		"/>
		<g>
			<path style="fill:#CFD8DC;" d="M53.619,423.975c-3.673-0.002-6.934-2.353-8.096-5.838c-4.795-12.221-1.891-26.121,7.396-35.4
				c4.28-4.221,9.419-7.471,15.067-9.529c2.889-0.973,6.078-0.33,8.365,1.686c2.287,2.016,3.325,5.099,2.723,8.088
				c-0.602,2.989-2.753,5.429-5.643,6.402c-4.844,1.26-8.908,4.548-11.153,9.021c-2.244,4.473-2.45,9.697-0.564,14.333
				c0.865,2.603,0.427,5.463-1.176,7.688C58.936,422.651,56.362,423.971,53.619,423.975z"/>
			<path style="fill:#CFD8DC;" d="M115.059,423.975c-2.743-0.004-5.317-1.324-6.92-3.549c-1.603-2.225-2.041-5.085-1.176-7.688
				c1.797-4.633,1.555-9.809-0.668-14.253c-2.223-4.444-6.218-7.743-11.003-9.084c-2.892-0.965-5.05-3.399-5.661-6.386
				c-0.611-2.987,0.418-6.073,2.7-8.096c2.282-2.023,5.469-2.674,8.361-1.71c5.648,2.058,10.786,5.308,15.066,9.529
				c9.287,9.279,12.191,23.179,7.396,35.4C121.993,421.622,118.733,423.973,115.059,423.975z"/>
			<path style="fill:#CFD8DC;" d="M456.393,423.975c-2.743-0.004-5.317-1.324-6.92-3.549c-1.603-2.225-2.041-5.085-1.176-7.688
				c1.797-4.633,1.555-9.809-0.668-14.253c-2.223-4.444-6.218-7.743-11.003-9.084c-4.471-1.491-6.887-6.325-5.396-10.796
				c1.491-4.471,6.325-6.887,10.796-5.396c5.648,2.058,10.786,5.308,15.066,9.529c9.287,9.279,12.191,23.179,7.396,35.4
				C463.326,421.622,460.066,423.973,456.393,423.975z"/>
			<path style="fill:#CFD8DC;" d="M394.953,423.975c-3.673-0.002-6.934-2.353-8.096-5.838c-4.795-12.221-1.891-26.121,7.396-35.4
				c4.28-4.221,9.419-7.471,15.067-9.529c4.467-1.504,9.307,0.898,10.81,5.365c1.504,4.467-0.898,9.307-5.365,10.81
				c-4.844,1.26-8.908,4.548-11.153,9.021c-2.244,4.473-2.45,9.697-0.564,14.333c0.865,2.603,0.427,5.463-1.176,7.688
				C400.27,422.651,397.695,423.971,394.953,423.975z"/>
		</g>
		<path style="fill:#E91E63;" d="M425.673,374.477c-4.713,0-8.533-3.821-8.533-8.533v-51.2c-0.015-14.132-11.468-25.585-25.6-25.6
			H118.473c-14.132,0.015-25.585,11.468-25.6,25.6v51.2c0,4.713-3.821,8.533-8.533,8.533s-8.533-3.821-8.533-8.533v-51.2
			c0.028-23.553,19.114-42.639,42.667-42.667h273.067c23.553,0.028,42.639,19.114,42.667,42.667v51.2
			C434.206,370.657,430.385,374.477,425.673,374.477z"/>
		<path style="fill:#607D8B;" d="M331.806,220.877v170.667c-0.028,9.414-7.653,17.039-17.067,17.067H195.273
			c-9.414-0.028-17.039-7.653-17.067-17.067V220.877H331.806z"/>
		<g>
			<path style="fill:#9E9E9E;" d="M306.206,220.877v170.667c-0.028,9.414-7.652,17.039-17.067,17.067h-93.867
				c-9.414-0.028-17.039-7.653-17.067-17.067V220.877H306.206z"/>
			<rect x="178.206" y="340.344" style="fill:#9E9E9E;" width="153.6" height="34.133"/>
		</g>
		<rect x="178.206" y="340.344" style="fill:#CFD8DC;" width="128" height="34.133"/>
		<rect x="289.139" y="459.811" style="fill:#607D8B;" width="25.6" height="42.667"/>
		<path style="fill:#9E9E9E;" d="M289.139,459.811v42.667c-18.833-0.044-34.09-15.3-34.133-34.134
			c-0.012,8.297-3.045,16.305-8.533,22.528c-1.295,1.466-2.724,2.808-4.267,4.011c-6.009,4.94-13.555,7.626-21.333,7.595l-25.6,0
			v-42.667H289.139z"/>
		<circle style="fill:#E91E63;" cx="284.873" cy="293.411" r="12.8"/>
		<g>
			<circle style="fill:#9E9E9E;" cx="84.339" cy="374.477" r="17.067"/>
			<circle style="fill:#9E9E9E;" cx="425.673" cy="374.477" r="17.067"/>
		</g>
		<path style="fill:#E91E63;" d="M391.539,135.544c23.564,0,42.667,19.103,42.667,42.667s-19.103,42.667-42.667,42.667H118.473
			c-23.564,0-42.667-19.103-42.667-42.667s19.103-42.667,42.667-42.667H391.539z"/>
		<path style="fill:#9E9E9E;" d="M391.539,144.077v68.267c0.002,9.053-3.593,17.737-9.995,24.139
			c-6.402,6.402-15.085,9.997-24.139,9.995h-204.8c-9.053,0.002-17.737-3.593-24.139-9.995c-6.402-6.402-9.997-15.085-9.995-24.139
			v-64.427C117.812,76.412,171.388,16.014,242.462,8.141c1.963-0.171,3.925-0.341,5.973-0.427
			c37.303-1.786,73.71,11.781,100.746,37.544C376.218,71.021,391.525,106.732,391.539,144.077z"/>
		<g>
			<path style="fill:#CFD8DC;" d="M365.939,144.077v68.267c0.002,9.053-3.593,17.737-9.995,24.139
				c-6.402,6.402-15.085,9.997-24.139,9.995h-179.2c-9.053,0.002-17.737-3.593-24.139-9.995c-6.402-6.402-9.997-15.085-9.995-24.139
				v-64.427C117.812,76.412,171.388,16.014,242.462,8.141C312.477,14.912,365.91,73.735,365.939,144.077z"/>
			<path style="fill:#CFD8DC;" d="M348.873,127.011c0.025,19.27-5.906,38.076-16.981,53.845c-3.401,4.902-7.29,9.448-11.605,13.568
				c-36.374,35.271-94.187,35.271-130.56,0c-4.316-4.12-8.204-8.666-11.605-13.568c-23.213-33.145-22.572-77.435,1.591-109.895
				s66.407-45.781,104.818-33.054S348.873,86.545,348.873,127.011z"/>
		</g>
		<path style="fill:#E6E7E8;" d="M323.273,127.011c0.112,18.95-4.959,37.57-14.666,53.845c-2.891,4.839-6.247,9.383-10.023,13.568
			c-13.927,16.759-34.588,26.454-56.378,26.454s-42.452-9.694-56.378-26.454c-3.775-4.185-7.132-8.729-10.023-13.568
			c-9.706-16.276-14.778-34.896-14.666-53.845c0-51.883,36.259-93.867,81.067-93.867S323.273,75.128,323.273,127.011z"/>
		<path style="fill:#0377BC;" d="M255.006,186.744c-27.966,0.014-52.202-19.368-58.337-46.652s7.471-55.176,32.751-67.134
			s55.473-4.787,72.675,17.262c17.202,22.049,16.814,53.08-0.935,74.691C289.861,178.783,272.898,186.808,255.006,186.744z"/>
		<path style="fill:#02A9F4;" d="M243.464,186.744c-14.749-0.588-28.118-8.843-35.251-21.767
			c-6.98-11.422-10.593-24.582-10.425-37.967c0-32.937,20.49-59.733,45.676-59.733s45.676,26.796,45.676,59.733
			c0.171,13.358-3.427,26.494-10.383,37.9C271.626,177.866,258.239,186.147,243.464,186.744z"/>
		<path style="fill:#607D8B;" d="M255.006,144.077c-5.058,0.074-9.872-2.174-13.062-6.1c-2.611-3.054-4.033-6.948-4.004-10.967
			c0-9.426,7.641-17.067,17.067-17.067c9.426,0,17.067,7.641,17.067,17.067c0.051,3.958-1.329,7.801-3.888,10.821
			C264.979,141.82,260.123,144.121,255.006,144.077z"/>
	</g>
	<g>
		<path d="M285.873,316.744c11.782,0,21.333-9.551,21.333-21.333s-9.551-21.333-21.333-21.333s-21.333,9.551-21.333,21.333
			C264.553,307.187,274.096,316.73,285.873,316.744z M285.873,291.144c2.356,0,4.267,1.91,4.267,4.267s-1.91,4.267-4.267,4.267
			s-4.267-1.91-4.267-4.267C281.608,293.055,283.517,291.145,285.873,291.144z"/>
		<path d="M458.106,427.24c2.146,0.72,4.491,0.555,6.516-0.457c2.025-1.012,3.563-2.789,4.276-4.938
			c4.799-12.22,1.896-26.122-7.392-35.4c-2.823-2.79-6.032-5.16-9.529-7.038c0.156-0.97,0.255-1.948,0.296-2.929
			c-0.033-10.813-6.868-20.435-17.067-24.028v-35.706c-0.028-23.553-19.114-42.639-42.667-42.667h-51.2v-17.067h17.067
			c17.053-0.023,32.458-10.187,39.189-25.856c25.707-2.534,45.493-23.834,46.128-49.658c0.635-25.824-18.08-48.071-43.632-51.865
			C391.464,53.68,325.356-2.528,249.006,1.173c-70.604,4.074-128.139,58.16-136.565,128.378
			c-25.688,3.548-44.661,25.752-44.156,51.68s20.325,47.378,46.132,49.924c6.731,15.669,22.136,25.833,39.189,25.856h17.067v17.067
			h-51.2c-23.553,0.028-42.639,19.114-42.667,42.667v35.706c-10.199,3.592-17.033,13.215-17.067,24.028
			c0.041,0.981,0.14,1.959,0.296,2.929c-3.497,1.878-6.706,4.248-9.529,7.038c-9.287,9.279-12.191,23.179-7.396,35.4
			c1.491,4.471,6.325,6.887,10.796,5.396c4.471-1.491,6.887-6.325,5.396-10.796c-3.659-8.246-0.045-17.903,8.129-21.72
			c9.93,9.808,25.903,9.805,35.828-0.009c8.071,3.916,11.644,13.48,8.118,21.729c-1.491,4.471,0.925,9.305,5.396,10.796
			c4.471,1.491,9.305-0.925,10.796-5.396c4.795-12.221,1.891-26.122-7.396-35.4c-2.823-2.79-6.032-5.16-9.529-7.038
			c0.156-0.97,0.255-1.948,0.296-2.929c-0.033-10.813-6.868-20.435-17.067-24.028v-35.706c0.015-14.132,11.468-25.585,25.6-25.6
			h51.2v102.4c0.033,10.813,6.868,20.435,17.067,24.027v86.906c0,4.713,3.821,8.533,8.533,8.533h25.6
			c13.482-0.037,26.148-6.468,34.133-17.331c7.986,10.863,20.651,17.294,34.133,17.331h25.6c4.713,0,8.533-3.82,8.533-8.533v-86.906
			c10.199-3.592,17.033-13.215,17.067-24.028v-102.4h51.2c14.132,0.015,25.585,11.468,25.6,25.6v35.706
			c-10.199,3.592-17.033,13.215-17.067,24.028c0.041,0.981,0.14,1.959,0.296,2.929c-3.497,1.878-6.706,4.248-9.529,7.037
			c-9.287,9.279-12.191,23.179-7.396,35.4c1.491,4.471,6.325,6.887,10.796,5.396c4.471-1.491,6.887-6.325,5.396-10.796
			c-3.66-8.246-0.046-17.904,8.129-21.72c9.93,9.808,25.903,9.805,35.828-0.009c8.071,3.916,11.646,13.479,8.122,21.729
			C451.224,420.914,453.637,425.746,458.106,427.24z M85.339,385.011c-4.713,0-8.533-3.821-8.533-8.533
			c0-4.713,3.821-8.533,8.533-8.533s8.533,3.821,8.533,8.533C93.867,381.188,90.05,385.004,85.339,385.011z M426.673,180.211
			c-0.046,15.521-10.569,29.053-25.6,32.922v-65.843C416.104,151.158,426.626,164.689,426.673,180.211z M85.339,180.211
			c0.046-15.572,10.633-29.135,25.727-32.961c-0.016,0.901-0.127,1.777-0.127,2.682v63.201
			C95.908,209.263,85.386,195.732,85.339,180.211z M128.006,214.344v-64.412c-1.148-69.408,52.514-127.435,121.8-131.708
			c2.092-0.1,4.176-0.15,6.254-0.15c70.672,0.032,127.946,57.332,127.946,128.004v68.267c-0.015,14.132-11.468,25.585-25.6,25.6
			h-204.8C139.474,239.928,128.021,228.476,128.006,214.344z M324.273,257.011v76.8H187.739v-76.8H324.273z M324.273,367.944
			H187.739v-17.067h136.533V367.944z M307.206,419.144v34.133h-42.667v-34.133H307.206z M247.473,453.277h-42.667v-34.133h42.667
			V453.277z M221.873,495.944h-17.067v-25.6h42.667C247.457,484.476,236.005,495.928,221.873,495.944z M290.139,495.944
			c-14.132-0.015-25.585-11.468-25.6-25.6h42.667v25.6H290.139z M315.739,402.077H196.273c-4.71-0.006-8.527-3.823-8.533-8.533
			v-8.533h136.533v8.533C324.267,398.254,320.45,402.071,315.739,402.077z M426.673,385.011c-4.713,0-8.533-3.821-8.533-8.533
			c0-4.713,3.82-8.533,8.533-8.533s8.533,3.821,8.533,8.533C435.201,381.188,431.384,385.006,426.673,385.011z"/>
		<path d="M256.006,231.411c47.926,0.013,89.453-33.209,99.961-79.969s-12.812-94.554-56.135-115.048s-95.065-8.207-124.549,29.576
			c-29.484,37.783-28.827,90.96,1.581,128.003C196.253,217.743,225.331,231.498,256.006,231.411z M170.673,129.011
			c-0.016-41.516,29.838-77.023,70.74-84.136s80.99,16.232,94.991,55.316s-2.147,82.573-38.262,103.049s-81.725,12-108.073-20.082
			C177.539,167.892,170.685,148.758,170.673,129.011z"/>
		<path d="M256.006,197.277c31.963,0.013,59.659-22.145,66.662-53.332c7.002-31.187-8.563-63.058-37.463-76.711
			c-28.9-13.653-63.405-5.435-83.047,19.78s-19.169,60.681,1.14,85.363C216.223,188.188,235.584,197.334,256.006,197.277z
			 M256.006,77.811c28.264,0.031,51.169,22.936,51.2,51.2c0,28.277-22.923,51.2-51.2,51.2c-28.277,0-51.2-22.923-51.2-51.2
			C204.837,100.746,227.742,77.841,256.006,77.811z"/>
		<path d="M256.006,146.077c5.117,0.043,9.973-2.258,13.179-6.246c2.558-3.02,3.939-6.863,3.888-10.821
			c0-9.426-7.641-17.067-17.067-17.067c-9.426,0-17.067,7.641-17.067,17.067c-0.029,4.018,1.393,7.912,4.004,10.967
			C246.134,143.903,250.948,146.151,256.006,146.077z"/>
	</g>
</g>
<g>
</g>
<g>
</g>
<g>
</g>
<g>
</g>
<g>
</g>
<g>
</g>
<g>
</g>
<g>
</g>
<g>
</g>
<g>
</g>
<g>
</g>
<g>
</g>
<g>
</g>
<g>
</g>
<g>
</g>
</svg>
