<?xml version="1.0" encoding="iso-8859-1"?>
<!-- Generator: Adobe Illustrator 19.0.0, SVG Export Plug-In . SVG Version: 6.00 Build 0)  -->
<svg version="1.1" id="Capa_1" xmlns="http://www.w3.org/2000/svg" xmlns:xlink="http://www.w3.org/1999/xlink" x="0px" y="0px"
	 viewBox="0 0 512 512" style="enable-background:new 0 0 512 512;" xml:space="preserve">
<g>
	<g transform="translate(1 1)">
		<path style="fill:#9E9E9E;" d="M412.865,333.507c-12.713,14.8-32.75,21.06-51.627,16.128c-7.584-2.017-14.614-5.722-20.565-10.837
			l-21.675-18.688v19.712c0.014,0.627-0.014,1.254-0.085,1.877c-0.278,5.285-1.798,10.431-4.437,15.019l-24.661,43.264
			c-2.997,5.334-8.644,8.631-14.763,8.619h1.28v17.067c0.026,13.386-10.289,24.52-23.637,25.515l-0.171,0.171
			c1.792,1.792,25.259,26.453-27.392,51.115c-4.379-2.059-8.651-4.337-12.8-6.827c-37.12-23.125-14.507-44.373-14.507-44.373v-0.085
			c-13.455-0.857-23.921-12.033-23.893-25.515V408.6c-5.649-0.449-10.703-3.681-13.483-8.619l-24.661-43.264
			c-2.971-5.135-4.531-10.964-4.523-16.896v-19.712l-21.675,18.688c-1.184,1.087-2.47,2.059-3.84,2.901
			c-21.474,15.357-51.115,11.804-68.352-8.192l38.741-33.451l12.885-11.179c2.85-2.483,6.114-4.447,9.643-5.803
			c2.243-0.94,4.593-1.599,6.997-1.963c8.978-1.548,18.201,0.573,25.6,5.888v-6.4c-21.983-0.366-42.76-10.118-57.088-26.795
			l-2.731-3.157c-16.03-18.708-22.123-43.966-16.384-67.925l9.045-37.632v-0.085l18.859-78.592
			c8.31-34.547,39.22-58.893,74.752-58.88h134.827c35.532-0.013,66.442,24.333,74.752,58.88l18.859,78.677l9.045,37.632
			c5.739,23.959-0.354,49.217-16.384,67.925l-2.731,3.157c-14.328,16.677-35.105,26.428-57.088,26.795v6.4
			c2.177-1.568,4.524-2.885,6.997-3.925c11.907-4.816,25.508-2.577,35.243,5.803l12.885,11.179L412.865,333.507z"/>
		<g>
			<path style="fill:#D1D4D1;" d="M387.265,333.507c-17.237,19.996-46.878,23.549-68.352,8.192c-1.37-0.842-2.656-1.814-3.84-2.901
				l-21.675-18.688v19.712c0.008,5.932-1.552,11.761-4.523,16.896l-24.661,43.264c-2.997,5.334-8.644,8.631-14.763,8.619h1.28
				v17.067c0.026,13.386-10.289,24.52-23.637,25.515l-0.171,0.171c1.621,1.621,21.077,22.101-14.592,44.288
				c-37.12-23.125-14.507-44.373-14.507-44.373v-0.085c-13.455-0.857-23.921-12.033-23.893-25.515V408.6
				c-5.649-0.449-10.703-3.681-13.483-8.619l-24.661-43.264c-2.971-5.135-4.531-10.964-4.523-16.896v-19.712l-21.675,18.688
				c-1.184,1.087-2.47,2.059-3.84,2.901c-0.071-0.623-0.1-1.25-0.085-1.877v-19.712l-21.675,18.688
				c-5.951,5.115-12.981,8.82-20.565,10.837c-10.128-2.57-19.217-8.203-26.027-16.128l38.741-33.451l12.885-11.179
				c2.85-2.483,6.114-4.447,9.643-5.803c2.473,1.041,4.82,2.357,6.997,3.925v-5.888c8.978-1.548,18.201,0.573,25.6,5.888v-6.4
				c-21.983-0.366-42.76-10.118-57.088-26.795l-2.731-3.157c-16.03-18.708-22.123-43.966-16.384-67.925l9.045-37.632v-0.085
				l18.859-78.592c8.31-34.547,39.22-58.893,74.752-58.88h109.227c35.532-0.013,66.442,24.333,74.752,58.88l18.859,78.677
				l9.045,37.632c5.739,23.959-0.354,49.217-16.384,67.925l-2.731,3.157c-14.328,16.677-35.105,26.428-57.088,26.795v6.4
				c7.395-5.324,16.622-7.446,25.6-5.888c2.407,0.352,4.758,1.012,6.997,1.963c3.513,1.388,6.771,3.349,9.643,5.803l12.885,11.179
				L387.265,333.507z"/>
			<path style="fill:#D1D4D1;" d="M131.265,287v33.109l-21.675,18.688c-10.268,8.886-23.65,13.322-37.193,12.33
				s-26.135-7.332-34.999-17.62l38.741-33.451l12.885-11.179C100.98,278.567,118.443,277.791,131.265,287z"/>
			<path style="fill:#D1D4D1;" d="M412.865,333.507c-8.862,10.29-21.455,16.63-34.998,17.623
				c-13.544,0.993-26.926-3.444-37.194-12.332l-21.675-18.688V287c12.823-9.207,30.284-8.431,42.24,1.877l12.885,11.179
				L412.865,333.507z"/>
		</g>
		<path style="fill:#00695C;" d="M386.156,145.091c-2.987,31.403-15.019,92.843-61.952,92.843c-6.912,0-12.8-0.171-17.92-0.597
			c-42.069-2.901-33.024-16.469-81.152-16.469c-4.779,0-9.045,0.171-12.8,0.427c-38.656,2.475-28.843,16.64-86.272,16.64
			c-2.572,0.02-5.142-0.18-7.68-0.597c-40.619-6.315-51.456-62.635-54.272-92.245v-0.085l18.859-78.592
			c8.31-34.547,39.22-58.893,74.752-58.88h134.827c35.532-0.013,66.442,24.333,74.752,58.88L386.156,145.091z"/>
		<path style="fill:#009688;" d="M360.556,145.091c-2.816,29.611-13.653,85.931-54.272,92.245c-2.538,0.417-5.108,0.617-7.68,0.597
			c-57.429,0-47.616-14.165-86.272-16.64c-3.755-0.256-8.021-0.427-12.8-0.427c-48.128,0-39.083,13.568-81.152,16.469
			c-40.619-6.315-51.456-62.635-54.272-92.245v-0.085l18.859-78.592c8.31-34.547,39.22-58.893,74.752-58.88h109.227
			c35.532-0.013,66.442,24.333,74.752,58.88L360.556,145.091z"/>
		<path style="fill:#CFD8DC;" d="M318.999,280.6l0,59.221c0.008,5.932-1.552,11.761-4.523,16.896l-24.661,43.264
			c-2.997,5.334-8.644,8.631-14.763,8.619h-99.755c-6.141,0.015-11.815-3.279-14.848-8.619l-24.661-43.264
			c-2.971-5.135-4.531-10.964-4.523-16.896l0-59.221H318.999z"/>
		<path style="fill:#D1D4D1;" d="M276.332,408.6l0,17.067c0.026,13.386-10.289,24.52-23.637,25.515h-0.256
			c-0.566,0.071-1.136,0.1-1.707,0.085h-51.2c-0.57,0.014-1.141-0.014-1.707-0.085c-13.455-0.857-23.921-12.033-23.893-25.515
			l0-17.067H276.332z"/>
		<path style="fill:#C52828;" d="M225.132,502.467c-4.379-2.059-8.651-4.337-12.8-6.827c-37.12-23.125-14.507-44.373-14.507-44.373
			v-0.085c0.279,0.067,0.566,0.095,0.853,0.085h52.053c0.57,0.014,1.141-0.014,1.707-0.085h0.256l-0.171,0.171
			C254.316,453.144,277.783,477.805,225.132,502.467z"/>
		<path style="fill:#F44335;" d="M212.332,495.64c-37.12-23.125-14.507-44.373-14.507-44.373h27.307
			c0.57,0.014,1.141-0.014,1.707-0.085h0.256l-0.085,0.085l-0.085,0.085C228.545,452.973,248.001,473.453,212.332,495.64z"/>
		<path style="fill:#A5A5A4;" d="M131.265,287v33.109l-21.675,18.688L76.14,300.056l12.885-11.179
			C100.98,278.567,118.443,277.791,131.265,287z"/>
		<g>
			<path style="fill:#7F8C8D;" d="M233.665,280.6v34.133c0,4.713-3.821,8.533-8.533,8.533c-4.713,0-8.533-3.821-8.533-8.533V280.6
				H233.665z"/>
			<path style="fill:#7F8C8D;" d="M233.665,365.933V408.6h-17.067v-42.667c0-4.713,3.821-8.533,8.533-8.533
				C229.845,357.4,233.665,361.221,233.665,365.933z"/>
			<path style="fill:#7F8C8D;" d="M293.399,280.6l0,51.2c0.014,15.564-10.524,29.158-25.6,33.024
				c-2.78,0.762-5.651,1.135-8.533,1.109h-15.104c-4.713,0-8.533-3.82-8.533-8.533s3.821-8.533,8.533-8.533h15.104
				c9.414-0.028,17.039-7.652,17.067-17.067v-51.2H293.399z"/>
			<path style="fill:#7F8C8D;" d="M214.636,357.4c-0.014,4.707-3.826,8.519-8.533,8.533h-15.104
				c-2.882,0.026-5.754-0.347-8.533-1.109c-15.076-3.866-25.614-17.46-25.6-33.024l0-51.2h17.067v51.2
				c0.028,9.414,7.653,17.039,17.067,17.067h15.104C210.81,348.881,214.622,352.693,214.636,357.4z"/>
			<path style="fill:#7F8C8D;" d="M267.799,357.4v51.2h-17.067v-42.667h-6.571c-4.713,0-8.533-3.82-8.533-8.533
				s3.821-8.533,8.533-8.533h15.104C263.972,348.881,267.785,352.693,267.799,357.4z"/>
			<path style="fill:#7F8C8D;" d="M214.636,357.4c-0.014,4.707-3.826,8.519-8.533,8.533h-6.571V408.6h-17.067v-51.2
				c0.014-4.707,3.826-8.519,8.533-8.533h15.104C210.81,348.881,214.622,352.693,214.636,357.4z"/>
		</g>
		<path style="fill:#2296F3;" d="M225.132,374.467c-18.851,0-34.133-15.282-34.133-34.133c0-18.851,15.282-34.133,34.133-34.133
			s34.133,15.282,34.133,34.133C259.244,359.176,243.974,374.445,225.132,374.467z"/>
		<path style="fill:#A5A5A4;" d="M374.124,300.056l-33.451,38.741l-21.675-18.688V287c12.823-9.207,30.284-8.431,42.24,1.877
			L374.124,300.056z"/>
		<path style="fill:#00695C;" d="M378.817,250.648l-2.731,3.157c-14.328,16.677-35.104,26.428-57.087,26.795H131.265
			c-21.983-0.366-42.76-10.118-57.087-26.795l-2.731-3.157c-16.031-18.708-22.123-43.966-16.383-67.925l9.045-37.632v-0.085
			l18.859-78.592c8.31-34.547,39.219-58.893,74.751-58.88h134.827c35.532-0.013,66.441,24.333,74.751,58.88l18.86,78.677
			l9.045,37.632C400.94,206.682,394.848,231.94,378.817,250.648z"/>
		<path style="fill:#009688;" d="M353.217,250.648l-2.731,3.157c-14.328,16.677-35.104,26.428-57.087,26.795H131.265
			c-21.983-0.366-42.76-10.118-57.087-26.795l-2.731-3.157c-16.031-18.708-22.123-43.966-16.383-67.925l9.045-37.632v-0.085
			l18.859-78.592c8.31-34.547,39.219-58.893,74.751-58.88h109.227c35.532-0.013,66.441,24.333,74.751,58.88l18.86,78.677
			l9.045,37.632C375.34,206.682,369.248,231.94,353.217,250.648z"/>
		<path style="fill:#FFEB3A;" d="M182.465,114.2c0,11.782-9.551,21.333-21.333,21.333c-11.782,0-21.333-9.551-21.333-21.333
			s9.551-12.8,21.333-12.8C172.914,101.4,182.465,102.418,182.465,114.2z"/>
		<path style="fill:#65DDB9;" d="M129.715,87.4c-2.933-0.007-5.657-1.522-7.21-4.011c-1.553-2.489-1.716-5.601-0.432-8.239
			c0.6-1.217,15.125-29.705,54.542-24.287c3.024,0.407,5.601,2.397,6.758,5.221c1.157,2.823,0.718,6.05-1.151,8.462
			c-1.869,2.412-4.884,3.642-7.907,3.226c-26.9-3.667-36.567,14.229-36.966,14.992C135.869,85.612,132.926,87.4,129.715,87.4z"/>
		<path style="fill:#FFEB3A;" d="M267.799,114.2c0,11.782,9.551,21.333,21.333,21.333s21.333-9.551,21.333-21.333
			s-9.551-12.8-21.333-12.8S267.799,102.418,267.799,114.2z"/>
		<path style="fill:#65DDB9;" d="M320.54,87.45c-3.227,0.002-6.18-1.814-7.633-4.696c-0.45-0.867-10.117-18.65-36.958-14.983
			c-3.023,0.416-6.038-0.814-7.907-3.226c-1.869-2.412-2.308-5.638-1.151-8.462c1.157-2.823,3.734-4.814,6.758-5.221
			c39.375-5.425,53.942,23.067,54.542,24.287c2.079,4.228,0.337,9.342-3.892,11.421C323.131,87.151,321.844,87.452,320.54,87.45z"/>
		<path style="fill:#B49ACA;" d="M216.59,246.467c-4.3-0.006-7.923-3.21-8.457-7.477c-0.533-4.266,2.191-8.263,6.357-9.328
			l30.775-7.829l-10.167-4.871c-5.501-2.044-9.15-7.294-9.15-13.163c0-5.869,3.649-11.118,9.15-13.163l10.192-4.862l-30.8-7.838
			c-4.568-1.164-7.327-5.811-6.163-10.379c1.164-4.568,5.811-7.327,10.379-6.163l35.917,9.142
			c6.779,1.186,12.05,6.558,13.108,13.358c0.391,6.259-3.268,12.065-9.083,14.413l-11.484,5.483l11.483,5.5
			c5.815,2.348,9.474,8.154,9.083,14.413c-1.058,6.8-6.329,12.172-13.108,13.358l-35.917,9.142
			C218.015,246.379,217.304,246.467,216.59,246.467z"/>
		<path style="fill:#AD1457;" d="M469.441,168.301c-1.953-4.702-4.825-8.966-8.448-12.544c-3.536-3.694-7.81-6.602-12.545-8.533
			c-4.847-2.1-10.077-3.175-15.359-3.157c-1.426-0.002-2.851,0.083-4.267,0.256c-0.597,0.085-1.109,0.171-1.707,0.256
			c-2.335,0.296-4.627,0.869-6.826,1.707c-0.853,0.256-1.707,0.597-2.559,0.939c-4.712,1.974-8.978,4.876-12.545,8.533
			c-3.968,4.238-7.146,9.151-9.387,14.507c-1.622-3.811-3.684-7.42-6.144-10.752c-1.924-2.546-4.16-4.839-6.656-6.827
			c-2.761-2.257-5.837-4.097-9.131-5.461c-4.847-2.1-10.077-3.175-15.359-3.157c-4.363-0.014-8.696,0.737-12.8,2.219
			c-0.853,0.256-1.707,0.597-2.559,0.939c-4.735,1.932-9.009,4.839-12.545,8.533c-3.623,3.578-6.495,7.842-8.448,12.544
			c-2.091,4.88-3.166,10.136-3.157,15.445c-0.026,5.311,1.049,10.57,3.157,15.445l1.195,2.219l47.189,53.077l2.389,2.731
			l2.048,2.218l8.021,8.96l9.557,10.752c0.818,0.936,2,1.472,3.243,1.472c1.243,0,2.425-0.537,3.243-1.472l69.205-77.739
			l1.195-2.219c2.108-4.875,3.183-10.134,3.157-15.445C472.607,178.437,471.533,173.182,469.441,168.301z"/>
		<path style="fill:#E91E63;" d="M446.999,183.747c0.026,5.311-1.049,10.57-3.157,15.445l-1.195,2.219l-59.648,66.987l-8.021-8.96
			l-2.048-2.218l-2.389-2.731l-47.189-53.077l-1.195-2.219c-2.108-4.875-3.184-10.134-3.158-15.446
			c-0.008-5.31,1.066-10.565,3.157-15.445c1.953-4.702,4.825-8.966,8.448-12.544c3.536-3.694,7.81-6.602,12.545-8.533
			c0.852-0.341,1.707-0.683,2.559-0.939c4.104-1.482,8.436-2.232,12.8-2.219c5.283-0.017,10.512,1.058,15.359,3.157
			c3.294,1.365,6.37,3.205,9.131,5.461c2.496,1.987,4.732,4.281,6.656,6.827c2.46,3.332,4.522,6.941,6.144,10.752
			c2.24-5.356,5.419-10.268,9.387-14.507c3.567-3.657,7.833-6.559,12.545-8.533c0.852-0.341,1.707-0.683,2.559-0.939
			c0.853,0.256,1.707,0.597,2.559,0.939c4.735,1.932,9.009,4.839,12.545,8.533c3.623,3.578,6.495,7.842,8.448,12.544
			C445.933,173.182,447.007,178.437,446.999,183.747z"/>
	</g>
	<g>
		<path d="M162.132,93.867c-8.933,0-29.867,0-29.867,21.333c0,16.495,13.372,29.867,29.867,29.867s29.867-13.372,29.867-29.867
			C191.999,93.867,171.065,93.867,162.132,93.867z M162.132,128c-7.066-0.008-12.792-5.734-12.8-12.8c0-2.75,0-4.267,12.8-4.267
			c12.8,0,12.8,1.517,12.8,4.267C174.924,122.266,169.198,127.992,162.132,128z"/>
		<path d="M138.349,83.763c0.4-0.763,10.067-18.658,36.966-14.992c3.023,0.416,6.038-0.814,7.907-3.226
			c1.869-2.412,2.308-5.638,1.151-8.462c-1.157-2.823-3.734-4.814-6.758-5.221c-39.417-5.417-53.942,23.071-54.542,24.287
			c-1.284,2.638-1.121,5.75,0.432,8.239c1.553,2.489,4.276,4.004,7.21,4.011C133.926,88.4,136.869,86.612,138.349,83.763z"/>
		<path d="M290.132,93.867c-8.933,0-29.867,0-29.867,21.333c0,16.495,13.372,29.867,29.867,29.867s29.867-13.372,29.867-29.867
			C319.999,93.867,299.065,93.867,290.132,93.867z M290.132,128c-7.066-0.008-12.792-5.734-12.8-12.8c0-2.75,0-4.267,12.8-4.267
			s12.8,1.517,12.8,4.267C302.924,122.266,297.198,127.992,290.132,128z"/>
		<path d="M276.949,68.771c26.842-3.667,36.508,14.117,36.958,14.983c1.453,2.882,4.406,4.698,7.633,4.696
			c1.304,0.002,2.591-0.299,3.758-0.879c4.228-2.079,5.971-7.192,3.892-11.421c-0.6-1.221-15.167-29.712-54.542-24.287
			c-3.024,0.407-5.601,2.397-6.758,5.221c-1.157,2.823-0.718,6.05,1.151,8.462S273.926,69.187,276.949,68.771L276.949,68.771z"/>
		<path d="M268.732,184.896c-1.058-6.8-6.329-12.172-13.108-13.358l-35.917-9.142c-4.568-1.164-9.215,1.595-10.379,6.163
			c-1.164,4.568,1.595,9.215,6.163,10.379l30.8,7.838l-10.192,4.862c-5.501,2.044-9.15,7.294-9.15,13.163
			c0,5.869,3.649,11.118,9.15,13.163l10.167,4.871l-30.775,7.829c-4.568,1.164-7.327,5.811-6.163,10.379
			c1.164,4.568,5.811,7.327,10.379,6.163l35.917-9.142c6.779-1.186,12.05-6.558,13.108-13.358
			c0.391-6.259-3.268-12.065-9.083-14.413l-11.484-5.5l11.483-5.483C265.463,196.961,269.123,191.155,268.732,184.896z"/>
		<path d="M468.174,150.879c-4.306-4.533-9.523-8.103-15.308-10.475c-7.615-3.38-16.013-4.601-24.275-3.529l-1.558,0.242
			c-3.999,0.515-7.903,1.604-11.592,3.233c-5.713,2.375-10.889,5.878-15.217,10.3c-0.852,0.834-1.669,1.825-2.484,2.802
			L376.59,65.404C367.401,27,333.037-0.065,293.549,0H158.715c-39.495-0.062-73.862,27.01-83.05,65.421l-27.9,116.321
			c-6.332,26.633,0.444,54.689,18.233,75.496l2.708,3.125c6.355,7.372,13.923,13.604,22.378,18.427
			c-2.358,1.337-4.585,2.892-6.653,4.644L32.824,328.05c-3.566,3.081-3.961,8.469-0.883,12.037
			c10.326,12.025,25.031,19.424,40.842,20.55c1.492,0.112,2.975,0.167,4.458,0.167c14.243,0.006,28.012-5.121,38.781-14.443
			c0.052-0.043,0.118-0.055,0.169-0.099l0.06-0.078l7.481-6.451v1.07c0.001,7.425,1.94,14.721,5.625,21.167l24.717,43.267
			c2.829,4.807,7.16,8.552,12.325,10.658v10.771c0.04,13.046,7.526,24.924,19.278,30.588c-2.013,4.922-2.653,10.297-1.853,15.554
			c2.3,14.517,15.317,27.433,38.683,38.383c0.133,0.062,0.275,0.036,0.41,0.092c1.003,0.44,2.082,0.681,3.177,0.71l0.029,0.007
			l0.009-0.001l0.009,0.001l0.029-0.006c1.095-0.03,2.174-0.271,3.177-0.71c0.135-0.055,0.277-0.029,0.41-0.092
			c23.367-10.95,36.383-23.867,38.683-38.383c0.8-5.257,0.16-10.632-1.853-15.554c11.752-5.664,19.238-17.542,19.278-30.589v-10.771
			c5.166-2.107,9.497-5.853,12.325-10.662l24.717-43.258c3.685-6.449,5.624-13.748,5.625-21.175v-1.066l7.558,6.516l0.016,0.011
			l0.001,0.001l0.004,0.002c10.798,9.39,24.628,14.554,38.938,14.54c1.483,0,2.983-0.054,4.475-0.167
			c15.807-1.116,30.506-8.523,40.808-20.563c1.476-1.713,2.212-3.942,2.045-6.197c-0.167-2.255-1.223-4.352-2.936-5.828
			l-51.633-44.642c-2.076-1.762-4.313-3.325-6.682-4.667c4.319-2.45,8.418-5.271,12.249-8.431l13.75,15.444
			c2.428,2.783,5.936,4.386,9.63,4.4c3.693,0.014,7.214-1.564,9.662-4.329l69.208-77.742c0.442-0.499,0.825-1.047,1.142-1.633
			l1.492-2.842c2.588-5.95,3.908-12.374,3.875-18.863c0.016-6.439-1.282-12.814-3.817-18.733
			C475.975,160.344,472.527,155.199,468.174,150.879z M74.032,343.617c-8.353-0.594-16.342-3.65-22.958-8.783l25.175-21.764
			l21.764,25.199C90.729,342.398,82.38,344.26,74.032,343.617z M111.486,327.755l-22.324-25.848l6.428-5.557
			c7.8-6.763,18.905-8.165,28.142-3.554v24.401L111.486,327.755z M144.174,353.5c-2.21-3.866-3.373-8.243-3.375-12.696v-50.671
			h17.067V332.8c0.046,15.521,10.569,29.053,25.6,32.922v35.345h-7.158c-3.063-0.004-5.891-1.644-7.417-4.3L144.174,353.5z
			 M217.599,290.133v18.278c-15.031,3.869-25.554,17.4-25.6,32.922c0.037,2.885,0.445,5.752,1.213,8.533h-1.213
			c-9.421-0.011-17.056-7.645-17.067-17.067v-42.667H217.599z M277.332,290.133V332.8c-0.011,9.421-7.645,17.056-17.067,17.067
			h-1.212c0.768-2.781,1.175-5.649,1.212-8.533c-0.046-15.521-10.569-29.053-25.6-32.922v-18.278H277.332z M200.532,401.067v-34.133
			h3.261c3.969,3.482,8.696,5.989,13.805,7.322v26.812H200.532z M226.132,324.267c9.426,0,17.067,7.641,17.067,17.067
			s-7.641,17.067-17.067,17.067c-9.426,0-17.067-7.641-17.067-17.067C209.076,331.912,216.711,324.278,226.132,324.267z
			 M234.665,374.255c5.109-1.332,9.836-3.839,13.805-7.322h3.261v34.133h-17.067V374.255z M251.582,470.133
			c-1.228,7.736-10.271,16.103-25.452,23.794c-15.071-7.634-24.102-15.951-25.423-23.64c-0.491-3.324,0.287-6.71,2.177-9.487h46.484
			C251.226,463.534,252.014,466.856,251.582,470.133L251.582,470.133z M268.799,426.667c-0.011,9.421-7.645,17.056-17.067,17.067
			h-51.2c-9.421-0.011-17.056-7.645-17.067-17.067v-8.533h85.333V426.667z M311.465,340.8c-0.002,4.456-1.165,8.835-3.375,12.704
			l-24.717,43.258c-1.524,2.659-4.352,4.3-7.417,4.304h-7.158v-35.345c15.031-3.869,25.554-17.4,25.6-32.922v-42.667h17.067V340.8z
			 M328.532,292.796c9.241-4.514,20.278-3.129,28.117,3.529l6.473,5.597l-22.324,25.849l-12.266-10.575V292.796z M378.274,343.617
			c-8.349,0.621-16.694-1.24-23.989-5.348l21.749-25.182l25.165,21.759C394.593,339.973,386.615,343.026,378.274,343.617z
			 M362.007,257.613c-12.158,10.03-27.439,15.496-43.2,15.454h-185.35c-19.929-0.002-38.861-8.715-51.825-23.85l-2.708-3.125
			c-14.218-16.646-19.628-39.083-14.558-60.379L92.257,69.421c7.353-30.737,34.854-52.401,66.458-52.354h134.833
			c31.598-0.05,59.095,21.607,66.45,52.337l16.917,70.429c-0.223-0.089-0.471-0.111-0.696-0.197
			c-2.532-0.965-5.145-1.705-7.808-2.211c-0.39-0.072-0.777-0.112-1.17-0.175c-2.719-0.45-5.472-0.669-8.228-0.656
			c-0.282,0.003-0.556,0.034-0.839,0.041c-2.854,0.062-5.697,0.376-8.496,0.94c-0.137,0.028-0.266,0.073-0.402,0.102
			c-8.96,1.948-17.164,6.451-23.62,12.964c-4.435,4.356-7.952,9.557-10.342,15.296c-5.244,12.251-5.126,26.136,0.325,38.296
			l1.192,2.217c0.317,0.585,0.7,1.132,1.142,1.629L362.007,257.613z M462.924,196.15l-66.125,74.813l-65.458-73.529l-0.367-0.658
			c-1.636-3.798-2.467-7.894-2.441-12.029c-0.005-4.181,0.846-8.319,2.5-12.158c1.555-3.74,3.854-7.126,6.758-9.95
			c2.751-2.869,6.084-5.116,9.775-6.592c7.669-3.287,16.354-3.267,24.008,0.054c3.68,1.535,7.009,3.803,9.783,6.667
			c0.889,0.912,1.72,1.879,2.487,2.895c2.018,2.747,3.717,5.715,5.062,8.846c1.316,3.199,4.433,5.287,7.892,5.287
			s6.576-2.088,7.892-5.287c1.828-4.341,4.4-8.331,7.6-11.788c2.807-2.882,6.173-5.159,9.892-6.692
			c2.278-1.014,4.693-1.689,7.167-2.004l1.533-0.237c5.225-0.585,10.511,0.22,15.325,2.333c3.724,1.521,7.077,3.824,9.833,6.754
			c2.822,2.788,5.053,6.117,6.558,9.788c1.635,3.818,2.474,7.93,2.466,12.083C465.104,188.651,464.376,192.525,462.924,196.15z"/>
	</g>
</g>
<g>
</g>
<g>
</g>
<g>
</g>
<g>
</g>
<g>
</g>
<g>
</g>
<g>
</g>
<g>
</g>
<g>
</g>
<g>
</g>
<g>
</g>
<g>
</g>
<g>
</g>
<g>
</g>
<g>
</g>
</svg>
