<?xml version="1.0" encoding="iso-8859-1"?>
<!-- Generator: Adobe Illustrator 19.0.0, SVG Export Plug-In . SVG Version: 6.00 Build 0)  -->
<svg version="1.1" id="Capa_1" xmlns="http://www.w3.org/2000/svg" xmlns:xlink="http://www.w3.org/1999/xlink" x="0px" y="0px"
	 viewBox="0 0 512 512" style="enable-background:new 0 0 512 512;" xml:space="preserve">
<g>
	<g transform="translate(1 1)">
		<g>
			<path style="fill:#D1D4D1;" d="M365.933,280.6H331.8v51.2h17.067c0.022,28.268,22.932,51.178,51.2,51.2v-68.267
				c0.003-9.053-3.593-17.737-9.995-24.139S374.987,280.598,365.933,280.6z"/>
			<path style="fill:#D1D4D1;" d="M144.067,280.6c-9.054-0.003-17.737,3.593-24.139,9.995c-6.402,6.402-9.997,15.085-9.995,24.139
				V383c28.268-0.022,51.178-22.932,51.2-51.2H178.2v-51.2H144.067z"/>
		</g>
		<path style="fill:#9E9E9E;" d="M408.685,250.648l-2.731,3.157c-14.328,16.677-35.105,26.428-57.088,26.795v59.221
			c0.008,5.932-1.552,11.761-4.523,16.896l-24.661,43.264c-2.997,5.334-8.644,8.631-14.763,8.619h1.28v17.067
			c0.026,13.386-10.289,24.52-23.637,25.515l-0.171,0.171c1.792,1.792,25.259,26.453-27.392,51.115
			c-4.379-2.059-8.651-4.337-12.8-6.827c-37.12-23.125-14.507-44.373-14.507-44.373v-0.085
			c-13.455-0.857-23.921-12.033-23.893-25.515V408.6h0.768c-5.928-0.191-11.329-3.457-14.251-8.619l-24.661-43.264
			c-2.971-5.135-4.531-10.964-4.523-16.896V280.6c-21.983-0.366-42.76-10.118-57.088-26.795l-2.731-3.157
			c-16.03-18.708-22.123-43.966-16.384-67.925l9.045-37.632v-0.085l18.859-78.592c8.31-34.547,39.22-58.893,74.752-58.88h134.827
			c35.532-0.013,66.442,24.333,74.752,58.88l18.859,78.677l9.045,37.632C430.808,206.682,424.716,231.94,408.685,250.648z"/>
		<path style="fill:#D1D4D1;" d="M383.085,250.648l-2.731,3.157c-14.328,16.677-35.105,26.428-57.088,26.795v59.221
			c0.008,5.932-1.552,11.761-4.523,16.896l-24.661,43.264c-2.997,5.334-8.644,8.631-14.763,8.619h1.28v17.067
			c0.026,13.386-10.289,24.52-23.637,25.515l-0.171,0.171c1.621,1.621,21.077,22.101-14.592,44.288
			c-37.12-23.125-14.507-44.373-14.507-44.373v-0.085c-13.455-0.857-23.921-12.033-23.893-25.515V408.6h0.768
			c-5.928-0.191-11.329-3.457-14.251-8.619l-24.661-43.264c-2.971-5.135-4.531-10.964-4.523-16.896V280.6
			c-21.983-0.366-42.76-10.118-57.088-26.795l-2.731-3.157c-16.03-18.708-22.123-43.966-16.384-67.925l9.045-37.632v-0.085
			l18.859-78.592c8.31-34.547,39.22-58.893,74.752-58.88h109.227c35.532-0.013,66.442,24.333,74.752,58.88l18.859,78.677
			l9.045,37.632C405.208,206.682,399.116,231.94,383.085,250.648z"/>
		<path style="fill:#CFD8DC;" d="M348.867,280.6l0,59.221c0.008,5.932-1.552,11.761-4.523,16.896l-24.661,43.264
			c-2.997,5.334-8.644,8.631-14.763,8.619h-99.755c-6.141,0.015-11.815-3.279-14.848-8.619l-24.661-43.264
			c-2.971-5.135-4.531-10.964-4.523-16.896l0-59.221H348.867z"/>
		<path style="fill:#D1D4D1;" d="M306.2,408.6l0,17.067c0.026,13.386-10.289,24.52-23.637,25.515h-0.256
			c-0.566,0.071-1.136,0.1-1.707,0.085h-51.2c-0.57,0.014-1.141-0.014-1.707-0.085c-13.455-0.857-23.921-12.033-23.893-25.515
			l0-17.067H306.2z"/>
		<path style="fill:#F44335;" d="M255,502.467c-54.613-25.6-27.307-51.2-27.307-51.2v-0.085c0.566,0.071,1.136,0.1,1.707,0.085h51.2
			c0.57,0.014,1.141-0.014,1.707-0.085h0.256l-0.171,0.171C284.184,453.144,307.651,477.806,255,502.467z"/>
		<g>
			<path style="fill:#A5A5A4;" d="M161.133,280.6v51.2h-51.2v-17.067c-0.003-9.053,3.593-17.737,9.995-24.139
				c6.402-6.402,15.085-9.997,24.139-9.995H161.133z"/>
			<path style="fill:#A5A5A4;" d="M400.067,314.734V331.8h-51.2v-51.2h17.067c9.053-0.003,17.737,3.593,24.139,9.995
				S400.069,305.68,400.067,314.734z"/>
		</g>
		<g>
			<path style="fill:#7F8C8D;" d="M263.533,280.6v34.133c0,4.713-3.82,8.533-8.533,8.533s-8.533-3.821-8.533-8.533V280.6H263.533z"
				/>
			<path style="fill:#7F8C8D;" d="M263.533,365.934V408.6h-17.067v-42.667c0-4.713,3.82-8.533,8.533-8.533
				S263.533,361.221,263.533,365.934z"/>
			<path style="fill:#7F8C8D;" d="M323.267,280.6l0,51.2c0.014,15.564-10.524,29.158-25.6,33.024
				c-2.78,0.762-5.651,1.135-8.533,1.109h-15.104c-4.713,0-8.533-3.82-8.533-8.533s3.82-8.533,8.533-8.533h15.104
				c9.414-0.028,17.039-7.652,17.067-17.067v-51.2H323.267z"/>
			<path style="fill:#7F8C8D;" d="M244.504,357.4c-0.014,4.707-3.826,8.519-8.533,8.533h-15.104
				c-2.882,0.026-5.754-0.347-8.533-1.109c-15.076-3.866-25.614-17.46-25.6-33.024l0-51.2H203.8v51.2
				c0.028,9.414,7.652,17.039,17.067,17.067h15.104C240.678,348.881,244.49,352.693,244.504,357.4z"/>
			<path style="fill:#7F8C8D;" d="M297.667,357.4v51.2H280.6v-42.667h-6.571c-4.713,0-8.533-3.82-8.533-8.533
				s3.82-8.533,8.533-8.533h15.104C293.84,348.881,297.653,352.693,297.667,357.4z"/>
			<path style="fill:#7F8C8D;" d="M244.504,357.4c-0.014,4.707-3.826,8.519-8.533,8.533H229.4V408.6h-17.067v-51.2
				c0.014-4.707,3.826-8.519,8.533-8.533h15.104C240.678,348.881,244.49,352.693,244.504,357.4z"/>
		</g>
		<path style="fill:#D1D4D1;" d="M255,374.467c-18.851,0-34.133-15.282-34.133-34.133c0-18.851,15.282-34.133,34.133-34.133
			s34.133,15.282,34.133,34.133C289.112,359.176,273.842,374.445,255,374.467z M255,323.267c-9.426,0-17.067,7.641-17.067,17.067
			S245.574,357.4,255,357.4s17.067-7.641,17.067-17.067C272.057,330.912,264.422,323.276,255,323.267z"/>
		<path style="fill:#C52828;" d="M255,502.467c-4.379-2.059-8.651-4.337-12.8-6.827c-37.12-23.125-14.507-44.373-14.507-44.373
			v-0.085c0.279,0.067,0.566,0.095,0.853,0.085H280.6c0.57,0.014,1.141-0.014,1.707-0.085h0.256l-0.171,0.171
			C284.184,453.144,307.651,477.806,255,502.467z"/>
		<path style="fill:#F44335;" d="M242.2,495.64c-37.12-23.125-14.507-44.373-14.507-44.373H255c0.57,0.014,1.141-0.014,1.707-0.085
			h0.256l-0.085,0.085l-0.085,0.085C258.413,452.974,277.869,473.454,242.2,495.64z"/>
		<path style="fill:#2296F3;" d="M255,374.467c-18.851,0-34.133-15.282-34.133-34.133c0-18.851,15.282-34.133,34.133-34.133
			s34.133,15.282,34.133,34.133C289.112,359.176,273.842,374.445,255,374.467z"/>
		<path style="fill:#00695C;" d="M408.685,250.648l-2.731,3.157c-14.328,16.677-35.105,26.428-57.088,26.795H161.133
			c-21.983-0.366-42.76-10.118-57.088-26.795l-2.731-3.157c-16.03-18.708-22.123-43.966-16.384-67.925l9.045-37.632v-0.085
			l18.859-78.592c8.31-34.547,39.22-58.893,74.752-58.88h134.827c35.532-0.013,66.442,24.333,74.752,58.88l18.859,78.677
			l9.045,37.632C430.808,206.682,424.716,231.94,408.685,250.648z"/>
		<path style="fill:#009688;" d="M383.085,250.648l-2.731,3.157c-14.328,16.677-35.105,26.428-57.088,26.795H161.133
			c-21.983-0.366-42.76-10.118-57.088-26.795l-2.731-3.157c-16.03-18.708-22.123-43.966-16.384-67.925l9.045-37.632v-0.085
			l18.859-78.592c8.31-34.547,39.22-58.893,74.752-58.88h109.227c35.532-0.013,66.442,24.333,74.752,58.88l18.859,78.677
			l9.045,37.632C405.208,206.682,399.116,231.94,383.085,250.648z"/>
		<circle style="fill:#0377BC;" cx="255" cy="144.067" r="102.4"/>
		<ellipse style="fill:#02A9F4;" cx="242.2" cy="144.067" rx="89.6" ry="102.4"/>
		<g>
			<circle style="fill:#FFEB3A;" cx="195.267" cy="144.067" r="17.067"/>
			<circle style="fill:#FFEB3A;" cx="255" cy="144.067" r="17.067"/>
			<circle style="fill:#FFEB3A;" cx="314.733" cy="144.067" r="17.067"/>
		</g>
	</g>
	<g>
		<path d="M413.467,260.338l2.7-3.146c17.77-20.798,24.527-48.836,18.183-75.446L406.433,65.417
			C397.305,26.996,362.94-0.094,323.45,0h-134.9c-39.49-0.094-73.854,26.996-82.983,65.417L77.65,181.746
			c-6.345,26.612,0.416,54.654,18.192,75.45l2.683,3.138c6.767,7.845,14.908,14.39,24.024,19.312
			c-12.498,7.742-20.116,21.386-20.149,36.087V384c-0.001,2.263,0.898,4.434,2.499,6.035c1.6,1.6,3.771,2.499,6.035,2.499
			c20.268-0.019,39.143-10.32,50.123-27.356l22.885,40.06c2.829,4.807,7.16,8.552,12.325,10.658v10.771
			c0.04,13.046,7.526,24.924,19.278,30.588c-2.013,4.922-2.653,10.297-1.853,15.554c2.3,14.517,15.317,27.433,38.683,38.383
			c0.133,0.062,0.276,0.036,0.41,0.092c1.004,0.44,2.083,0.681,3.178,0.71l0.029,0.007l0.009-0.001l0.009,0.001l0.029-0.006
			c1.095-0.03,2.175-0.271,3.178-0.71c0.134-0.055,0.277-0.029,0.41-0.092c23.367-10.95,36.383-23.867,38.683-38.383
			c0.8-5.257,0.16-10.632-1.853-15.554c11.753-5.664,19.239-17.542,19.278-30.589v-10.771c5.166-2.107,9.497-5.853,12.325-10.662
			l22.886-40.055c10.981,17.036,29.855,27.336,50.122,27.355c2.263,0.001,4.434-0.898,6.035-2.499c1.6-1.6,2.499-3.771,2.499-6.035
			v-68.267c-0.033-14.702-7.651-28.345-20.149-36.087C398.564,274.724,406.702,268.181,413.467,260.338z M145.067,290.134h8.533
			v34.133h-34.133v-8.533C119.482,301.602,130.935,290.149,145.067,290.134z M119.467,374.609v-33.275h33.198
			C149.238,358.06,136.185,371.143,119.467,374.609z M174.042,353.5c-2.21-3.866-3.373-8.242-3.375-12.696v-50.671h17.067V332.8
			c0.046,15.521,10.569,29.053,25.6,32.922v35.345h-7.158c-3.063-0.004-5.891-1.644-7.417-4.3L174.042,353.5z M247.467,290.134
			v18.278c-15.031,3.869-25.554,17.4-25.6,32.922c0.037,2.885,0.445,5.752,1.212,8.533h-1.212
			c-9.421-0.011-17.056-7.645-17.067-17.067v-42.667H247.467z M307.2,290.134V332.8c-0.011,9.421-7.645,17.056-17.067,17.067h-1.212
			c0.767-2.781,1.174-5.649,1.212-8.533c-0.046-15.521-10.569-29.053-25.6-32.922v-18.278H307.2z M230.4,401.067v-34.133h3.261
			c3.969,3.482,8.696,5.99,13.805,7.322v26.812H230.4z M256,324.267c9.426,0,17.067,7.641,17.067,17.067S265.426,358.4,256,358.4
			s-17.067-7.641-17.067-17.067C238.944,331.912,246.579,324.278,256,324.267z M264.533,374.255
			c5.109-1.332,9.836-3.839,13.805-7.322h3.261v34.133h-17.067V374.255z M281.45,470.133c-1.228,7.736-10.271,16.103-25.452,23.794
			c-15.071-7.634-24.103-15.951-25.423-23.64c-0.49-3.324,0.287-6.71,2.178-9.487h46.484
			C281.094,463.535,281.882,466.856,281.45,470.133L281.45,470.133z M298.667,426.667c-0.011,9.421-7.645,17.056-17.067,17.067
			h-51.2c-9.421-0.011-17.056-7.645-17.067-17.067v-8.533h85.333V426.667z M341.333,340.8c-0.002,4.456-1.165,8.835-3.375,12.704
			l-24.717,43.258c-1.524,2.659-4.352,4.3-7.417,4.304h-7.158v-35.345c15.031-3.869,25.554-17.4,25.6-32.922v-42.667h17.067V340.8z
			 M359.335,341.334h33.198v33.275C375.815,371.143,362.762,358.06,359.335,341.334z M392.533,324.267H358.4v-34.133h8.533
			c14.132,0.015,25.585,11.468,25.6,25.6V324.267z M400.508,249.225c-12.961,15.143-31.901,23.855-51.833,23.842h-185.35
			c-19.935,0.012-38.878-8.701-51.842-23.846l-2.683-3.129c-14.223-16.637-19.631-39.073-14.55-60.362L122.167,69.4
			c7.301-30.737,34.792-52.409,66.383-52.333h134.9c31.592-0.076,59.083,21.597,66.383,52.333l27.917,116.329
			c5.081,21.286-0.324,43.718-14.542,60.354L400.508,249.225z"/>
		<path d="M256,34.134c-61.267,0-110.933,49.667-110.933,110.933S194.733,256,256,256s110.933-49.667,110.933-110.933
			C366.864,83.829,317.238,34.203,256,34.134z M256,238.934c-51.841,0-93.867-42.026-93.867-93.867S204.159,51.2,256,51.2
			s93.867,42.026,93.867,93.867C349.808,196.884,307.817,238.875,256,238.934z"/>
		<path d="M196.267,119.467c-14.138,0-25.6,11.462-25.6,25.6c0,14.139,11.462,25.6,25.6,25.6s25.6-11.462,25.6-25.6
			C221.851,130.935,210.399,119.482,196.267,119.467z M196.267,153.6c-4.713,0-8.533-3.821-8.533-8.533
			c0-4.713,3.82-8.533,8.533-8.533s8.533,3.821,8.533,8.533C204.795,149.778,200.978,153.596,196.267,153.6z"/>
		<path d="M256,119.467c-14.138,0-25.6,11.462-25.6,25.6c0,14.139,11.462,25.6,25.6,25.6s25.6-11.462,25.6-25.6
			C281.585,130.935,270.132,119.482,256,119.467z M256,153.6c-4.713,0-8.533-3.821-8.533-8.533c0-4.713,3.82-8.533,8.533-8.533
			s8.533,3.821,8.533,8.533C264.529,149.778,260.711,153.596,256,153.6z"/>
		<path d="M290.133,145.067c0,14.139,11.462,25.6,25.6,25.6s25.6-11.462,25.6-25.6c0-14.138-11.462-25.6-25.6-25.6
			C301.601,119.482,290.149,130.935,290.133,145.067z M324.267,145.067c0,4.713-3.82,8.533-8.533,8.533s-8.533-3.821-8.533-8.533
			c0-4.713,3.82-8.533,8.533-8.533C320.444,136.538,324.262,140.356,324.267,145.067z"/>
	</g>
</g>
<g>
</g>
<g>
</g>
<g>
</g>
<g>
</g>
<g>
</g>
<g>
</g>
<g>
</g>
<g>
</g>
<g>
</g>
<g>
</g>
<g>
</g>
<g>
</g>
<g>
</g>
<g>
</g>
<g>
</g>
</svg>
