<?xml version="1.0" encoding="iso-8859-1"?>
<!-- Generator: Adobe Illustrator 19.0.0, SVG Export Plug-In . SVG Version: 6.00 Build 0)  -->
<svg version="1.1" id="Capa_1" xmlns="http://www.w3.org/2000/svg" xmlns:xlink="http://www.w3.org/1999/xlink" x="0px" y="0px"
	 viewBox="0 0 512 512" style="enable-background:new 0 0 512 512;" xml:space="preserve">
<g>
	<g transform="translate(1 1)">
		<g>
			<path style="fill:#D1D4D1;" d="M365.932,280.6h-34.133v51.2h17.067c0.022,28.268,22.932,51.178,51.2,51.2v-68.267
				c0.003-9.054-3.593-17.737-9.995-24.139C383.669,284.193,374.985,280.598,365.932,280.6z"/>
			<path style="fill:#D1D4D1;" d="M144.065,280.6c-9.054-0.003-17.737,3.593-24.139,9.995s-9.997,15.085-9.995,24.139V383
				c28.268-0.022,51.178-22.932,51.2-51.2h17.067v-51.2H144.065z"/>
		</g>
		<path style="fill:#9E9E9E;" d="M408.684,250.648l-2.731,3.157c-14.328,16.676-35.105,26.428-57.088,26.795v59.221
			c0.008,5.932-1.552,11.761-4.523,16.896l-24.661,43.264c-2.997,5.334-8.644,8.631-14.763,8.619h1.28v17.067
			c0.026,13.386-10.289,24.52-23.637,25.515l-0.171,0.171c1.792,1.792,25.259,26.453-27.392,51.115
			c-4.379-2.059-8.651-4.337-12.8-6.827c-37.12-23.125-14.507-44.373-14.507-44.373v-0.085
			c-13.455-0.857-23.921-12.033-23.893-25.515V408.6h0.768c-5.928-0.191-11.329-3.457-14.251-8.619l-24.661-43.264
			c-2.971-5.135-4.531-10.964-4.523-16.896V280.6c-21.983-0.366-42.76-10.118-57.088-26.795l-2.731-3.157
			c-16.03-18.708-22.123-43.966-16.384-67.925l9.045-37.632v-0.085l18.859-78.592c8.31-34.547,39.22-58.893,74.752-58.88h134.827
			c35.532-0.013,66.442,24.333,74.752,58.88l18.859,78.677l9.045,37.632C430.807,206.682,424.714,231.94,408.684,250.648z"/>
		<path style="fill:#D1D4D1;" d="M383.084,250.648l-2.731,3.157c-14.328,16.676-35.105,26.428-57.088,26.795v59.221
			c0.008,5.932-1.552,11.761-4.523,16.896l-24.661,43.264c-2.997,5.334-8.644,8.631-14.763,8.619h1.28v17.067
			c0.026,13.386-10.289,24.52-23.637,25.515l-0.171,0.171c1.621,1.621,21.077,22.101-14.592,44.288
			c-37.12-23.125-14.507-44.373-14.507-44.373v-0.085c-13.455-0.857-23.921-12.033-23.893-25.515V408.6h0.768
			c-5.928-0.191-11.329-3.457-14.251-8.619l-24.661-43.264c-2.971-5.135-4.531-10.964-4.523-16.896V280.6
			c-21.983-0.366-42.76-10.118-57.088-26.795l-2.731-3.157c-16.03-18.708-22.123-43.966-16.384-67.925l9.045-37.632v-0.085
			l18.859-78.592c8.31-34.547,39.22-58.893,74.752-58.88h109.227c35.532-0.013,66.442,24.333,74.752,58.88l18.859,78.677
			l9.045,37.632C405.207,206.682,399.114,231.94,383.084,250.648z"/>
		<path style="fill:#CFD8DC;" d="M348.865,280.6l0,59.221c0.008,5.932-1.552,11.761-4.523,16.896l-24.661,43.264
			c-2.997,5.334-8.644,8.631-14.763,8.619h-99.755c-6.141,0.015-11.815-3.279-14.848-8.619l-24.661-43.264
			c-2.971-5.135-4.531-10.964-4.523-16.896l0-59.221H348.865z"/>
		<path style="fill:#D1D4D1;" d="M306.199,408.6l0,17.067c0.026,13.386-10.289,24.52-23.637,25.515h-0.256
			c-0.566,0.071-1.136,0.1-1.707,0.085h-51.2c-0.57,0.014-1.141-0.014-1.707-0.085c-13.455-0.857-23.921-12.033-23.893-25.515
			l0-17.067H306.199z"/>
		<path style="fill:#F44335;" d="M254.998,502.467c-54.613-25.6-27.307-51.2-27.307-51.2v-0.085c0.566,0.071,1.136,0.1,1.707,0.085
			h51.2c0.57,0.014,1.141-0.014,1.707-0.085h0.256l-0.171,0.171C284.182,453.144,307.649,477.806,254.998,502.467z"/>
		<g>
			<path style="fill:#A5A5A4;" d="M161.132,280.6v51.2h-51.2v-17.067c-0.003-9.054,3.593-17.737,9.995-24.139
				s15.085-9.997,24.139-9.995H161.132z"/>
			<path style="fill:#A5A5A4;" d="M400.065,314.734V331.8h-51.2v-51.2h17.067c9.054-0.003,17.737,3.593,24.139,9.995
				C396.472,296.997,400.068,305.68,400.065,314.734z"/>
		</g>
		<g>
			<path style="fill:#7F8C8D;" d="M263.532,280.6v34.133c0,4.713-3.821,8.533-8.533,8.533c-4.713,0-8.533-3.82-8.533-8.533V280.6
				H263.532z"/>
			<path style="fill:#7F8C8D;" d="M263.532,365.934V408.6h-17.067v-42.667c0-4.713,3.82-8.533,8.533-8.533
				C259.711,357.4,263.532,361.221,263.532,365.934z"/>
			<path style="fill:#7F8C8D;" d="M323.265,280.6v51.2c0.014,15.564-10.524,29.158-25.6,33.024c-2.78,0.762-5.651,1.135-8.533,1.109
				h-15.104c-4.713,0-8.533-3.821-8.533-8.533s3.821-8.533,8.533-8.533h15.104c9.414-0.028,17.039-7.652,17.067-17.067v-51.2
				H323.265z"/>
			<path style="fill:#7F8C8D;" d="M244.502,357.4c-0.014,4.707-3.826,8.519-8.533,8.533h-15.104
				c-2.882,0.026-5.754-0.347-8.533-1.109c-15.076-3.866-25.614-17.46-25.6-33.024l0-51.2h17.067v51.2
				c0.028,9.414,7.653,17.039,17.067,17.067h15.104C240.676,348.881,244.488,352.693,244.502,357.4z"/>
			<path style="fill:#7F8C8D;" d="M297.665,357.4v51.2h-17.067v-42.667h-6.571c-4.713,0-8.533-3.821-8.533-8.533
				s3.821-8.533,8.533-8.533h15.104C293.839,348.881,297.651,352.693,297.665,357.4z"/>
			<path style="fill:#7F8C8D;" d="M244.502,357.4c-0.014,4.707-3.826,8.519-8.533,8.533h-6.571V408.6h-17.067v-51.2
				c0.014-4.707,3.826-8.519,8.533-8.533h15.104C240.676,348.881,244.488,352.693,244.502,357.4z"/>
		</g>
		<path style="fill:#D1D4D1;" d="M254.998,374.467c-18.851,0-34.133-15.282-34.133-34.133c0-18.851,15.282-34.133,34.133-34.133
			s34.133,15.282,34.133,34.133C289.11,359.176,273.841,374.445,254.998,374.467z M254.998,323.267
			c-9.426,0-17.067,7.641-17.067,17.067s7.641,17.067,17.067,17.067c9.426,0,17.067-7.641,17.067-17.067
			C272.056,330.912,264.42,323.276,254.998,323.267z"/>
		<path style="fill:#C52828;" d="M254.998,502.467c-4.379-2.059-8.651-4.337-12.8-6.827c-37.12-23.125-14.507-44.373-14.507-44.373
			v-0.085c0.279,0.067,0.566,0.095,0.853,0.085h52.053c0.57,0.014,1.141-0.014,1.707-0.085h0.256l-0.171,0.171
			C284.182,453.144,307.649,477.806,254.998,502.467z"/>
		<path style="fill:#F44335;" d="M242.198,495.64c-37.12-23.125-14.507-44.373-14.507-44.373h27.307
			c0.57,0.014,1.141-0.014,1.707-0.085h0.256l-0.085,0.085l-0.085,0.085C258.412,452.974,277.868,473.454,242.198,495.64z"/>
		<path style="fill:#2296F3;" d="M254.998,374.467c-18.851,0-34.133-15.282-34.133-34.133c0-18.851,15.282-34.133,34.133-34.133
			s34.133,15.282,34.133,34.133C289.11,359.176,273.841,374.445,254.998,374.467z"/>
		<path style="fill:#00695C;" d="M408.684,250.648l-2.731,3.157c-14.328,16.676-35.105,26.428-57.088,26.795H161.132
			c-21.983-0.366-42.76-10.118-57.088-26.795l-2.731-3.157c-16.03-18.708-22.123-43.966-16.384-67.925l9.045-37.632v-0.085
			l18.859-78.592c8.31-34.547,39.22-58.893,74.752-58.88h134.827c35.532-0.013,66.442,24.333,74.752,58.88l18.859,78.677
			l9.045,37.632C430.807,206.682,424.714,231.94,408.684,250.648z"/>
		<path style="fill:#009688;" d="M383.084,250.648l-2.731,3.157c-14.328,16.676-35.105,26.428-57.088,26.795H161.132
			c-21.983-0.366-42.76-10.118-57.088-26.795l-2.731-3.157c-16.03-18.708-22.123-43.966-16.384-67.925l9.045-37.632v-0.085
			l18.859-78.592c8.31-34.547,39.22-58.893,74.752-58.88h109.227c35.532-0.013,66.442,24.333,74.752,58.88l18.859,78.677
			l9.045,37.632C405.207,206.682,399.114,231.94,383.084,250.648z"/>
		<circle style="fill:#AD1457;" cx="254.998" cy="144.067" r="102.4"/>
		<ellipse style="fill:#E91E63;" cx="242.198" cy="144.067" rx="89.6" ry="102.4"/>
		<path style="fill:#E6E7E8;" d="M280.598,109.934v59.733h-51.2v-59.733c0.014-4.707,3.826-8.519,8.533-8.533h34.133
			C276.772,101.414,280.584,105.227,280.598,109.934z"/>
		<path style="fill:#F44335;" d="M280.598,169.667v25.6c-0.014,4.707-3.826,8.519-8.533,8.533h-34.133
			c-4.707-0.014-8.519-3.826-8.533-8.533v-25.6H280.598z"/>
		<path style="fill:#ECF0F1;" d="M263.532,88.6v12.8h-17.067V88.6c-0.011-1.135,0.435-2.227,1.237-3.029s1.894-1.249,3.029-1.237
			h8.533c1.135-0.011,2.227,0.435,3.029,1.237C263.097,86.373,263.543,87.465,263.532,88.6z"/>
	</g>
	<g>
		<path d="M413.465,260.338l2.7-3.146c17.77-20.798,24.527-48.836,18.183-75.446L406.423,65.417
			C397.302,26.995,362.938-0.097,323.448,0h-134.9c-39.49-0.097-73.853,26.995-82.975,65.417L77.653,181.746
			c-6.347,26.612,0.414,54.655,18.192,75.45l2.687,3.138c6.766,7.844,14.905,14.388,24.019,19.311
			c-12.499,7.742-20.118,21.386-20.152,36.089V384c0,4.713,3.821,8.533,8.533,8.533c20.267-0.017,39.142-10.317,50.122-27.352
			l22.89,40.052c2.826,4.81,7.155,8.557,12.321,10.664v10.77c0.041,13.046,7.527,24.923,19.279,30.587
			c-2.014,4.922-2.654,10.297-1.854,15.554c2.304,14.517,15.321,27.433,38.687,38.383c0.128,0.06,0.266,0.035,0.396,0.089
			c1.012,0.446,2.101,0.689,3.207,0.717l0.014,0.003l0.004-0.001l0.004,0.001l0.014-0.003c1.104-0.028,2.193-0.271,3.204-0.716
			c0.131-0.054,0.27-0.029,0.399-0.089c23.367-10.95,36.383-23.867,38.688-38.383c0.8-5.257,0.159-10.633-1.854-15.554
			c11.752-5.664,19.239-17.542,19.279-30.588v-10.77c5.166-2.107,9.495-5.854,12.321-10.664l22.89-40.052
			c10.981,17.035,29.855,27.335,50.122,27.352c2.263,0.001,4.434-0.898,6.035-2.499c1.6-1.6,2.499-3.771,2.499-6.035v-68.267
			c-0.034-14.703-7.653-28.347-20.152-36.089C398.56,274.723,406.699,268.18,413.465,260.338z M145.065,290.134h8.533v34.133
			h-34.133v-8.533C119.481,301.602,130.933,290.149,145.065,290.134z M119.465,374.609v-33.275h33.198
			C149.236,358.06,136.184,371.143,119.465,374.609z M174.036,353.504c-2.206-3.869-3.368-8.246-3.371-12.7v-50.671h17.067V332.8
			c0.047,15.521,10.569,29.052,25.6,32.922v35.345h-7.163c-3.061-0.004-5.887-1.644-7.408-4.3L174.036,353.504z M247.465,290.134
			v18.278c-15.031,3.869-25.553,17.401-25.6,32.922c0.037,2.885,0.445,5.752,1.212,8.533h-1.212
			c-9.422-0.009-17.057-7.645-17.067-17.067v-42.667H247.465z M307.198,290.134V332.8c-0.009,9.422-7.645,17.057-17.067,17.067
			h-1.212c0.767-2.781,1.174-5.649,1.212-8.533c-0.047-15.521-10.569-29.052-25.6-32.922v-18.278H307.198z M230.398,401.067v-34.133
			h3.263c3.969,3.482,8.695,5.989,13.804,7.322v26.812H230.398z M255.998,324.267c9.426,0,17.067,7.641,17.067,17.067
			s-7.641,17.067-17.067,17.067c-9.426,0-17.067-7.641-17.067-17.067C238.941,331.912,246.577,324.276,255.998,324.267z
			 M264.532,374.255c5.108-1.333,9.835-3.84,13.804-7.322h3.263v34.133h-17.067V374.255z M281.448,470.134
			c-1.224,7.736-10.272,16.105-25.452,23.795c-15.07-7.634-24.103-15.952-25.423-23.641c-0.489-3.324,0.289-6.711,2.18-9.488h46.48
			C281.091,463.534,281.88,466.856,281.448,470.134L281.448,470.134z M298.665,426.667c-0.009,9.422-7.645,17.057-17.067,17.067
			h-51.2c-9.422-0.009-17.057-7.645-17.067-17.067v-8.533h85.333V426.667z M341.332,340.8c-0.002,4.455-1.164,8.834-3.371,12.704
			l-24.725,43.262c-1.521,2.656-4.347,4.297-7.408,4.3h-7.163v-35.345c15.031-3.869,25.553-17.401,25.6-32.922v-42.667h17.067V340.8
			z M359.334,341.334h33.198v33.275C375.813,371.143,362.761,358.06,359.334,341.334z M392.532,324.267h-34.133v-34.133h8.533
			c14.132,0.015,25.585,11.468,25.6,25.6V324.267z M400.511,249.225c-12.965,15.14-31.905,23.851-51.837,23.842h-185.35
			c-19.934,0.011-38.875-8.702-51.838-23.846l-2.687-3.133c-14.218-16.638-19.627-39.069-14.554-60.358L122.165,69.4
			c7.3-30.737,34.791-52.409,66.383-52.333h134.9c31.592-0.076,59.083,21.597,66.383,52.333l27.917,116.329
			c5.081,21.286-0.324,43.718-14.542,60.354L400.511,249.225z"/>
		<path d="M255.998,34.134c-61.267,0-110.933,49.667-110.933,110.933S194.732,256,255.998,256s110.933-49.667,110.933-110.933
			C366.864,83.828,317.237,34.201,255.998,34.134z M255.998,238.934c-51.841,0-93.867-42.026-93.867-93.867
			S204.157,51.2,255.998,51.2s93.867,42.026,93.867,93.867C349.807,196.884,307.815,238.875,255.998,238.934z"/>
		<path d="M273.065,93.867V89.6c-0.008-7.066-5.734-12.792-12.8-12.8h-8.533c-7.066,0.008-12.792,5.734-12.8,12.8v4.267
			c-9.422,0.009-17.057,7.645-17.067,17.067v85.333c0.009,9.422,7.645,17.057,17.067,17.067h34.133
			c9.422-0.009,17.057-7.645,17.067-17.067v-85.333C290.122,101.512,282.487,93.876,273.065,93.867z M247.465,110.934h25.6
			l0.007,51.2h-34.141v-51.2H247.465z M238.932,196.267V179.2h34.143l0.003,17.067H238.932z"/>
	</g>
</g>
<g>
</g>
<g>
</g>
<g>
</g>
<g>
</g>
<g>
</g>
<g>
</g>
<g>
</g>
<g>
</g>
<g>
</g>
<g>
</g>
<g>
</g>
<g>
</g>
<g>
</g>
<g>
</g>
<g>
</g>
</svg>
