<?xml version="1.0" encoding="iso-8859-1"?>
<!-- Generator: Adobe Illustrator 19.0.0, SVG Export Plug-In . SVG Version: 6.00 Build 0)  -->
<svg version="1.1" id="Capa_1" xmlns="http://www.w3.org/2000/svg" xmlns:xlink="http://www.w3.org/1999/xlink" x="0px" y="0px"
	 viewBox="0 0 512 512" style="enable-background:new 0 0 512 512;" xml:space="preserve">
<g>
	<g transform="translate(1 1)">
		<g>
			<path style="fill:#D1D4D1;" d="M365.933,280.6H331.8v51.2h17.067c0.022,28.268,22.932,51.178,51.2,51.2v-68.267
				c0.003-9.054-3.593-17.737-9.995-24.139C383.67,284.193,374.987,280.598,365.933,280.6z"/>
			<path style="fill:#D1D4D1;" d="M144.067,280.6c-9.053-0.003-17.737,3.593-24.139,9.995c-6.402,6.402-9.997,15.085-9.995,24.139
				V383c28.268-0.022,51.178-22.932,51.2-51.2H178.2v-51.2H144.067z"/>
		</g>
		<path style="fill:#9E9E9E;" d="M408.685,250.648l-2.731,3.157c-14.328,16.676-35.105,26.428-57.088,26.795v59.221
			c0.008,5.932-1.552,11.761-4.523,16.896l-24.661,43.264c-2.997,5.334-8.644,8.631-14.763,8.619h1.28v17.067
			c0.026,13.386-10.289,24.52-23.637,25.515l-0.171,0.171c1.792,1.792,25.259,26.453-27.392,51.115
			c-4.379-2.059-8.651-4.337-12.8-6.827c-37.12-23.125-14.507-44.373-14.507-44.373v-0.085
			c-13.454-0.857-23.921-12.033-23.893-25.515V408.6h0.768c-5.928-0.191-11.329-3.457-14.251-8.619l-24.661-43.264
			c-2.971-5.135-4.531-10.964-4.523-16.896V280.6c-21.983-0.366-42.76-10.118-57.088-26.795l-2.731-3.157
			c-16.03-18.708-22.123-43.966-16.384-67.925l9.045-37.632v-0.085l18.859-78.592c8.31-34.547,39.22-58.893,74.752-58.88h134.827
			c35.532-0.013,66.442,24.333,74.752,58.88l18.859,78.677l9.045,37.632C430.808,206.682,424.716,231.94,408.685,250.648z"/>
		<path style="fill:#D1D4D1;" d="M383.085,250.648l-2.731,3.157c-14.328,16.676-35.105,26.428-57.088,26.795v59.221
			c0.008,5.932-1.552,11.761-4.523,16.896l-24.661,43.264c-2.997,5.334-8.644,8.631-14.763,8.619h1.28v17.067
			c0.026,13.386-10.289,24.52-23.637,25.515l-0.171,0.171c1.621,1.621,21.077,22.101-14.592,44.288
			c-37.12-23.125-14.507-44.373-14.507-44.373v-0.085c-13.454-0.857-23.921-12.033-23.893-25.515V408.6h0.768
			c-5.928-0.191-11.329-3.457-14.251-8.619l-24.661-43.264c-2.971-5.135-4.531-10.964-4.523-16.896V280.6
			c-21.983-0.366-42.76-10.118-57.088-26.795l-2.731-3.157c-16.03-18.708-22.123-43.966-16.384-67.925l9.045-37.632v-0.085
			l18.859-78.592c8.31-34.547,39.22-58.893,74.752-58.88h109.227c35.532-0.013,66.442,24.333,74.752,58.88l18.859,78.677
			l9.045,37.632C405.208,206.682,399.116,231.94,383.085,250.648z"/>
		<path style="fill:#CFD8DC;" d="M348.867,280.6l0,59.221c0.008,5.932-1.552,11.761-4.523,16.896l-24.661,43.264
			c-2.997,5.334-8.644,8.631-14.763,8.619h-99.755c-6.141,0.015-11.815-3.279-14.848-8.619l-24.661-43.264
			c-2.971-5.135-4.531-10.964-4.523-16.896l0-59.221H348.867z"/>
		<path style="fill:#D1D4D1;" d="M306.2,408.6l0,17.067c0.026,13.386-10.289,24.52-23.637,25.515h-0.256
			c-0.566,0.071-1.136,0.1-1.707,0.085h-51.2c-0.57,0.014-1.141-0.014-1.707-0.085c-13.454-0.857-23.921-12.033-23.893-25.515
			l0-17.067H306.2z"/>
		<path style="fill:#F44335;" d="M255,502.467c-54.613-25.6-27.307-51.2-27.307-51.2v-0.085c0.566,0.071,1.136,0.1,1.707,0.085h51.2
			c0.57,0.014,1.141-0.014,1.707-0.085h0.256l-0.171,0.171C284.184,453.144,307.651,477.806,255,502.467z"/>
		<path style="fill:#00695C;" d="M416.024,145.091c-2.987,31.403-15.019,92.843-61.952,92.843c-6.912,0-12.8-0.171-17.92-0.597
			c-42.069-2.901-33.024-16.469-81.152-16.469c-4.779,0-9.045,0.171-12.8,0.427c-38.656,2.475-28.843,16.64-86.272,16.64
			c-2.572,0.02-5.142-0.18-7.68-0.597c-40.619-6.315-51.456-62.635-54.272-92.245v-0.085l18.859-78.592
			c8.31-34.547,39.22-58.893,74.752-58.88h134.827c35.532-0.013,66.442,24.333,74.752,58.88L416.024,145.091z"/>
		<path style="fill:#009688;" d="M390.424,145.091c-2.816,29.611-13.653,85.931-54.272,92.245c-2.538,0.417-5.108,0.617-7.68,0.597
			c-57.429,0-47.616-14.165-86.272-16.64c-3.755-0.256-8.021-0.427-12.8-0.427c-48.128,0-39.083,13.568-81.152,16.469
			c-40.619-6.315-51.456-62.635-54.272-92.245v-0.085l18.859-78.592c8.31-34.547,39.22-58.893,74.752-58.88h109.227
			c35.532-0.013,66.442,24.333,74.752,58.88L390.424,145.091z"/>
		<g>
			<path style="fill:#A5A5A4;" d="M161.133,280.6v51.2h-51.2v-17.067c-0.003-9.054,3.593-17.737,9.995-24.139
				c6.402-6.402,15.085-9.997,24.139-9.995H161.133z"/>
			<path style="fill:#A5A5A4;" d="M400.067,314.734V331.8h-51.2v-51.2h17.067c9.054-0.003,17.737,3.593,24.139,9.995
				C396.474,296.997,400.069,305.68,400.067,314.734z"/>
		</g>
		<g>
			<path style="fill:#7F8C8D;" d="M263.533,280.6v34.133c0,4.713-3.82,8.533-8.533,8.533s-8.533-3.82-8.533-8.533V280.6H263.533z"/>
			<path style="fill:#7F8C8D;" d="M263.533,365.934V408.6h-17.067v-42.667c0-4.713,3.821-8.533,8.533-8.533
				S263.533,361.221,263.533,365.934z"/>
			<path style="fill:#7F8C8D;" d="M323.267,280.6l0,51.2c0.014,15.564-10.524,29.158-25.6,33.024
				c-2.78,0.762-5.651,1.135-8.533,1.109h-15.104c-4.713,0-8.533-3.821-8.533-8.533s3.82-8.533,8.533-8.533h15.104
				c9.414-0.028,17.039-7.652,17.067-17.067v-51.2H323.267z"/>
			<path style="fill:#7F8C8D;" d="M244.504,357.4c-0.014,4.707-3.826,8.519-8.533,8.533h-15.104
				c-2.882,0.026-5.754-0.347-8.533-1.109c-15.076-3.866-25.614-17.46-25.6-33.024l0-51.2H203.8v51.2
				c0.028,9.414,7.653,17.039,17.067,17.067h15.104C240.678,348.881,244.49,352.693,244.504,357.4z"/>
			<path style="fill:#7F8C8D;" d="M297.667,357.4v51.2H280.6v-42.667h-6.571c-4.713,0-8.533-3.821-8.533-8.533
				s3.82-8.533,8.533-8.533h15.104C293.84,348.881,297.653,352.693,297.667,357.4z"/>
			<path style="fill:#7F8C8D;" d="M244.504,357.4c-0.014,4.707-3.826,8.519-8.533,8.533H229.4V408.6h-17.067v-51.2
				c0.014-4.707,3.826-8.519,8.533-8.533h15.104C240.678,348.881,244.49,352.693,244.504,357.4z"/>
		</g>
		<path style="fill:#D1D4D1;" d="M255,374.467c-18.851,0-34.133-15.282-34.133-34.133c0-18.851,15.282-34.133,34.133-34.133
			s34.133,15.282,34.133,34.133C289.112,359.176,273.843,374.445,255,374.467z M255,323.267c-9.426,0-17.067,7.641-17.067,17.067
			S245.574,357.4,255,357.4c9.426,0,17.067-7.641,17.067-17.067C272.057,330.912,264.422,323.276,255,323.267z"/>
		<path style="fill:#C52828;" d="M255,502.467c-4.379-2.059-8.651-4.337-12.8-6.827c-37.12-23.125-14.507-44.373-14.507-44.373
			v-0.085c0.279,0.067,0.566,0.095,0.853,0.085H280.6c0.57,0.014,1.141-0.014,1.707-0.085h0.256l-0.171,0.171
			C284.184,453.144,307.651,477.806,255,502.467z"/>
		<path style="fill:#F44335;" d="M242.2,495.64c-37.12-23.125-14.507-44.373-14.507-44.373H255c0.57,0.014,1.141-0.014,1.707-0.085
			h0.256l-0.085,0.085l-0.085,0.085C258.413,452.974,277.869,473.454,242.2,495.64z"/>
		<path style="fill:#2296F3;" d="M255,374.467c-18.851,0-34.133-15.282-34.133-34.133c0-18.851,15.282-34.133,34.133-34.133
			s34.133,15.282,34.133,34.133C289.112,359.176,273.843,374.445,255,374.467z"/>
		<path style="fill:#2E7D32;" d="M297.667,195.267c0-23.564-19.103-42.667-42.667-42.667s-42.667,19.103-42.667,42.667H297.667z"/>
	</g>
	<g>
		<path d="M413.463,260.338l2.696-3.142c17.774-20.797,24.534-48.839,18.188-75.45L406.425,65.417
			C397.303,26.995,362.94-0.097,323.45,0h-134.9c-39.49-0.097-73.853,26.995-82.975,65.417L77.654,181.746
			c-6.347,26.612,0.414,54.655,18.192,75.45l2.687,3.138c6.766,7.844,14.905,14.388,24.019,19.311
			c-12.499,7.742-20.118,21.386-20.152,36.089V384c0,4.713,3.821,8.533,8.533,8.533c20.267-0.017,39.142-10.317,50.122-27.352
			l22.89,40.052c2.826,4.81,7.155,8.557,12.321,10.664v10.77c0.041,13.046,7.527,24.923,19.279,30.587
			c-2.014,4.922-2.654,10.297-1.854,15.554c2.304,14.517,15.321,27.433,38.687,38.383c0.128,0.06,0.266,0.035,0.396,0.089
			c1.012,0.446,2.101,0.689,3.207,0.717l0.014,0.003L256,512l0.004,0.001l0.014-0.003c1.104-0.028,2.193-0.271,3.204-0.716
			c0.131-0.054,0.27-0.029,0.399-0.089c23.367-10.95,36.383-23.867,38.688-38.383c0.8-5.257,0.159-10.633-1.854-15.554
			c11.752-5.664,19.239-17.542,19.279-30.588v-10.77c5.166-2.107,9.495-5.854,12.321-10.664l22.89-40.052
			c10.981,17.035,29.855,27.335,50.122,27.352c4.713,0,8.533-3.82,8.533-8.533v-68.267c-0.034-14.703-7.653-28.347-20.152-36.089
			C398.56,274.722,406.698,268.18,413.463,260.338z M122.167,69.4c7.301-30.737,34.792-52.409,66.383-52.333h134.9
			c31.592-0.076,59.083,21.597,66.383,52.333l18.547,77.276c-2.652,26.257-13.057,83.724-53.31,83.724
			c-31.017,0-41.062-4.246-50.775-8.354c-15.174-6.714-31.733-9.701-48.296-8.713c-16.563-0.989-33.122,1.999-48.296,8.713
			c-9.712,4.108-19.758,8.354-50.775,8.354c-40.545,0-50.814-58.328-53.336-83.614L122.167,69.4z M145.067,290.134h8.533v34.133
			h-34.133v-8.533C119.482,301.602,130.935,290.149,145.067,290.134z M119.467,374.609v-33.275h33.198
			C149.238,358.06,136.185,371.143,119.467,374.609z M174.037,353.504c-2.206-3.869-3.368-8.246-3.371-12.7v-50.671h17.067V332.8
			c0.047,15.521,10.569,29.052,25.6,32.922v35.345h-7.163c-3.061-0.004-5.887-1.644-7.408-4.3L174.037,353.504z M247.467,290.134
			v18.278c-15.031,3.869-25.553,17.401-25.6,32.922c0.037,2.885,0.445,5.752,1.212,8.533h-1.212
			c-9.422-0.009-17.057-7.645-17.067-17.067v-42.667H247.467z M307.2,290.134V332.8c-0.009,9.422-7.645,17.057-17.067,17.067h-1.212
			c0.767-2.781,1.174-5.649,1.212-8.533c-0.047-15.521-10.569-29.052-25.6-32.922v-18.278H307.2z M230.4,401.067v-34.133h3.263
			c3.969,3.482,8.695,5.989,13.804,7.322v26.812H230.4z M256,324.267c9.426,0,17.067,7.641,17.067,17.067S265.426,358.4,256,358.4
			c-9.426,0-17.067-7.641-17.067-17.067C238.943,331.912,246.578,324.276,256,324.267z M264.533,374.255
			c5.108-1.333,9.835-3.84,13.804-7.322h3.263v34.133h-17.067V374.255z M281.45,470.134c-1.224,7.736-10.272,16.105-25.452,23.795
			c-15.07-7.634-24.103-15.952-25.423-23.641c-0.489-3.324,0.289-6.711,2.18-9.488h46.48
			C281.093,463.534,281.881,466.856,281.45,470.134L281.45,470.134z M298.667,426.667c-0.009,9.422-7.645,17.057-17.067,17.067
			h-51.2c-9.422-0.009-17.057-7.645-17.067-17.067v-8.533h85.333V426.667z M341.333,340.8c-0.002,4.455-1.164,8.834-3.371,12.704
			l-24.725,43.262c-1.521,2.656-4.347,4.297-7.408,4.3h-7.163v-35.345c15.031-3.869,25.553-17.401,25.6-32.922v-42.667h17.067V340.8
			z M359.336,341.334h33.198v33.275C375.815,371.143,362.762,358.06,359.336,341.334z M392.533,324.267H358.4v-34.133h8.533
			c14.132,0.015,25.585,11.468,25.6,25.6V324.267z M400.508,249.225c-12.962,15.142-31.901,23.853-51.833,23.842h-185.35
			c-19.934,0.011-38.875-8.702-51.838-23.846l-2.687-3.133c-13.835-16.223-19.318-37.969-14.828-58.813
			c11.422,38.684,33.363,60.192,62.957,60.192c34.479,0,46.667-5.154,57.421-9.7c13.074-5.818,27.374-8.347,41.65-7.367
			c14.276-0.981,28.576,1.548,41.65,7.367c10.754,4.546,22.942,9.7,57.421,9.7c29.595,0,51.535-21.507,62.957-60.192
			c4.49,20.842-0.991,42.585-14.824,58.808L400.508,249.225z"/>
		<path d="M213.333,204.8h85.333c4.713,0,8.533-3.821,8.533-8.533c0-28.277-22.923-51.2-51.2-51.2s-51.2,22.923-51.2,51.2
			C204.8,200.98,208.621,204.8,213.333,204.8z M256,162.134c15.559,0.021,29.142,10.541,33.054,25.6h-66.108
			C226.858,172.675,240.441,162.154,256,162.134z"/>
		<circle cx="187.733" cy="85.334" r="8.533"/>
		<circle cx="187.733" cy="119.467" r="8.533"/>
		<circle cx="153.6" cy="85.334" r="8.533"/>
		<circle cx="221.867" cy="85.334" r="8.533"/>
		<circle cx="324.267" cy="85.334" r="8.533"/>
		<circle cx="324.267" cy="119.467" r="8.533"/>
		<circle cx="290.133" cy="85.334" r="8.533"/>
		<circle cx="358.4" cy="85.334" r="8.533"/>
	</g>
</g>
<g>
</g>
<g>
</g>
<g>
</g>
<g>
</g>
<g>
</g>
<g>
</g>
<g>
</g>
<g>
</g>
<g>
</g>
<g>
</g>
<g>
</g>
<g>
</g>
<g>
</g>
<g>
</g>
<g>
</g>
</svg>
