<?xml version="1.0" encoding="iso-8859-1"?>
<!-- Generator: Adobe Illustrator 19.0.0, SVG Export Plug-In . SVG Version: 6.00 Build 0)  -->
<svg version="1.1" id="Capa_1" xmlns="http://www.w3.org/2000/svg" xmlns:xlink="http://www.w3.org/1999/xlink" x="0px" y="0px"
	 viewBox="0 0 512 512" style="enable-background:new 0 0 512 512;" xml:space="preserve">
<g>
	<g transform="translate(1 1)">
		<path style="fill:#9E9E9E;" d="M442.734,333.507c-12.713,14.8-32.75,21.06-51.627,16.128c-7.584-2.017-14.614-5.722-20.565-10.837
			l-21.675-18.688v19.712c0.014,0.627-0.014,1.254-0.085,1.877c-0.278,5.285-1.798,10.431-4.437,15.019l-24.661,43.264
			c-2.997,5.334-8.644,8.631-14.763,8.619h1.28v17.067c0.026,13.386-10.289,24.52-23.637,25.515l-0.171,0.171
			c1.792,1.792,25.259,26.453-27.392,51.115c-4.379-2.059-8.651-4.337-12.8-6.827c-37.12-23.125-14.507-44.373-14.507-44.373v-0.085
			c-13.455-0.857-23.921-12.033-23.893-25.515V408.6c-5.649-0.45-10.703-3.681-13.483-8.619l-24.661-43.264
			c-2.971-5.135-4.531-10.964-4.523-16.896V320.11l-21.675,18.688c-1.184,1.087-2.47,2.059-3.84,2.901
			c-21.474,15.357-51.115,11.804-68.352-8.192l38.741-33.451l12.885-11.179c2.85-2.483,6.114-4.447,9.643-5.803
			c2.243-0.94,4.593-1.599,6.997-1.963c8.978-1.548,18.201,0.573,25.6,5.888v-6.4c-21.983-0.366-42.76-10.118-57.088-26.795
			l-2.731-3.157c-16.03-18.708-22.123-43.966-16.384-67.925l9.045-37.632v-0.085l18.859-78.592
			c8.31-34.547,39.22-58.893,74.752-58.88h134.827c35.532-0.013,66.442,24.333,74.752,58.88l18.859,78.677l9.045,37.632
			c5.739,23.959-0.354,49.217-16.384,67.925l-2.731,3.157c-14.328,16.676-35.105,26.428-57.088,26.795v6.4
			c2.177-1.568,4.524-2.885,6.997-3.925c11.907-4.816,25.508-2.577,35.243,5.803l12.885,11.179L442.734,333.507z"/>
		<g>
			<path style="fill:#D1D4D1;" d="M417.134,333.507c-17.237,19.996-46.878,23.549-68.352,8.192c-1.37-0.842-2.656-1.814-3.84-2.901
				l-21.675-18.688v19.712c0.008,5.932-1.552,11.761-4.523,16.896l-24.661,43.264c-2.997,5.334-8.644,8.631-14.763,8.619h1.28
				v17.067c0.026,13.386-10.289,24.52-23.637,25.515l-0.171,0.171c1.621,1.621,21.077,22.101-14.592,44.288
				c-37.12-23.125-14.507-44.373-14.507-44.373v-0.085c-13.455-0.857-23.921-12.033-23.893-25.515V408.6
				c-5.649-0.45-10.703-3.681-13.483-8.619l-24.661-43.264c-2.971-5.135-4.531-10.964-4.523-16.896V320.11l-21.675,18.688
				c-1.184,1.087-2.47,2.059-3.84,2.901c-0.071-0.623-0.1-1.25-0.085-1.877V320.11l-21.675,18.688
				c-5.951,5.115-12.981,8.82-20.565,10.837c-10.128-2.57-19.217-8.203-26.027-16.128l38.741-33.451l12.885-11.179
				c2.85-2.483,6.114-4.447,9.643-5.803c2.473,1.041,4.82,2.357,6.997,3.925v-5.888c8.978-1.548,18.201,0.573,25.6,5.888v-6.4
				c-21.983-0.366-42.76-10.118-57.088-26.795l-2.731-3.157c-16.03-18.708-22.123-43.966-16.384-67.925l9.045-37.632v-0.085
				l18.859-78.592c8.31-34.547,39.22-58.893,74.752-58.88h109.227c35.532-0.013,66.442,24.333,74.752,58.88l18.859,78.677
				l9.045,37.632c5.739,23.959-0.354,49.217-16.384,67.925l-2.731,3.157c-14.328,16.676-35.105,26.428-57.088,26.795v6.4
				c7.395-5.324,16.622-7.446,25.6-5.888c2.407,0.352,4.758,1.012,6.997,1.963c3.513,1.388,6.771,3.349,9.643,5.803l12.885,11.179
				L417.134,333.507z"/>
			<path style="fill:#D1D4D1;" d="M161.134,287v33.109l-21.675,18.688c-10.268,8.886-23.65,13.322-37.193,12.33
				c-13.543-0.992-26.135-7.332-34.999-17.62l38.741-33.451l12.885-11.179C130.849,278.567,148.312,277.791,161.134,287z"/>
			<path style="fill:#D1D4D1;" d="M442.734,333.507c-8.862,10.29-21.455,16.63-34.998,17.623
				c-13.544,0.993-26.926-3.444-37.194-12.332l-21.675-18.688V287c12.823-9.207,30.284-8.431,42.24,1.877l12.885,11.179
				L442.734,333.507z"/>
		</g>
		<path style="fill:#00695C;" d="M416.025,145.091c-2.987,31.403-15.019,92.843-61.952,92.843c-6.912,0-12.8-0.171-17.92-0.597
			c-42.069-2.901-33.024-16.469-81.152-16.469c-4.779,0-9.045,0.171-12.8,0.427c-38.656,2.475-28.843,16.64-86.272,16.64
			c-2.572,0.02-5.142-0.18-7.68-0.597c-40.619-6.315-51.456-62.635-54.272-92.245v-0.085l18.859-78.592
			c8.31-34.547,39.22-58.893,74.752-58.88h134.827c35.532-0.013,66.442,24.333,74.752,58.88L416.025,145.091z"/>
		<path style="fill:#009688;" d="M390.425,145.091c-2.816,29.611-13.653,85.931-54.272,92.245c-2.538,0.417-5.108,0.617-7.68,0.597
			c-57.429,0-47.616-14.165-86.272-16.64c-3.755-0.256-8.021-0.427-12.8-0.427c-48.128,0-39.083,13.568-81.152,16.469
			c-40.619-6.315-51.456-62.635-54.272-92.245v-0.085l18.859-78.592c8.31-34.547,39.22-58.893,74.752-58.88h109.227
			c35.532-0.013,66.442,24.333,74.752,58.88L390.425,145.091z"/>
		<path style="fill:#CFD8DC;" d="M348.867,280.6l0,59.221c0.008,5.932-1.552,11.761-4.523,16.896l-24.661,43.264
			c-2.997,5.334-8.644,8.631-14.763,8.619h-99.755c-6.141,0.015-11.815-3.279-14.848-8.619l-24.661-43.264
			c-2.971-5.135-4.531-10.964-4.523-16.896l0-59.221H348.867z"/>
		<path style="fill:#D1D4D1;" d="M306.201,408.6l0,17.067c0.026,13.386-10.289,24.52-23.637,25.515h-0.256
			c-0.566,0.071-1.136,0.1-1.707,0.085h-51.2c-0.57,0.014-1.141-0.014-1.707-0.085c-13.455-0.857-23.921-12.033-23.893-25.515
			l0-17.067H306.201z"/>
		<path style="fill:#C52828;" d="M255.001,502.467c-4.379-2.059-8.651-4.337-12.8-6.827c-37.12-23.125-14.507-44.373-14.507-44.373
			v-0.085c0.279,0.067,0.566,0.095,0.853,0.085h52.053c0.57,0.014,1.141-0.014,1.707-0.085h0.256l-0.171,0.171
			C284.185,453.144,307.651,477.806,255.001,502.467z"/>
		<path style="fill:#F44335;" d="M242.201,495.64c-37.12-23.125-14.507-44.373-14.507-44.373h27.307
			c0.57,0.014,1.141-0.014,1.707-0.085h0.256l-0.085,0.085l-0.085,0.085C258.414,452.974,277.87,473.454,242.201,495.64z"/>
		<path style="fill:#A5A5A4;" d="M161.134,287v33.109l-21.675,18.688l-33.451-38.741l12.885-11.179
			C130.849,278.567,148.312,277.791,161.134,287z"/>
		<g>
			<path style="fill:#7F8C8D;" d="M263.534,280.6v34.133c0,4.713-3.82,8.533-8.533,8.533s-8.533-3.82-8.533-8.533V280.6H263.534z"/>
			<path style="fill:#7F8C8D;" d="M263.534,365.934V408.6h-17.067v-42.667c0-4.713,3.82-8.533,8.533-8.533
				S263.534,361.221,263.534,365.934z"/>
			<path style="fill:#7F8C8D;" d="M323.268,280.6l0,51.2c0.014,15.564-10.524,29.158-25.6,33.024
				c-2.78,0.762-5.651,1.135-8.533,1.109H274.03c-4.713,0-8.533-3.821-8.533-8.533s3.82-8.533,8.533-8.533h15.104
				c9.414-0.028,17.039-7.652,17.067-17.067v-51.2H323.268z"/>
			<path style="fill:#7F8C8D;" d="M244.505,357.4c-0.014,4.707-3.826,8.519-8.533,8.533h-15.104
				c-2.882,0.026-5.754-0.347-8.533-1.109c-15.076-3.866-25.614-17.46-25.6-33.024l0-51.2h17.067v51.2
				c0.028,9.414,7.653,17.039,17.067,17.067h15.104C240.678,348.881,244.491,352.693,244.505,357.4z"/>
			<path style="fill:#7F8C8D;" d="M297.668,357.4v51.2h-17.067v-42.667h-6.571c-4.713,0-8.533-3.821-8.533-8.533
				s3.82-8.533,8.533-8.533h15.104C293.841,348.881,297.653,352.693,297.668,357.4z"/>
			<path style="fill:#7F8C8D;" d="M244.505,357.4c-0.014,4.707-3.826,8.519-8.533,8.533h-6.571V408.6h-17.067v-51.2
				c0.014-4.707,3.826-8.519,8.533-8.533h15.104C240.678,348.881,244.491,352.693,244.505,357.4z"/>
		</g>
		<path style="fill:#2E7D32;" d="M297.668,152.6c0,23.564-19.103,42.667-42.667,42.667s-42.667-19.103-42.667-42.667H297.668z"/>
		<path style="fill:#2296F3;" d="M255.001,374.467c-18.851,0-34.133-15.282-34.133-34.133c0-18.851,15.282-34.133,34.133-34.133
			s34.133,15.282,34.133,34.133C289.113,359.176,273.843,374.445,255.001,374.467z"/>
		<path style="fill:#A5A5A4;" d="M403.993,300.056l-33.451,38.741l-21.675-18.688V287c12.823-9.207,30.284-8.431,42.24,1.877
			L403.993,300.056z"/>
	</g>
	<g>
		<path d="M62.688,328.05c-1.714,1.479-2.769,3.579-2.933,5.837c-0.164,2.258,0.576,4.489,2.058,6.2
			c10.325,12.025,25.028,19.424,40.837,20.55c1.492,0.113,2.976,0.168,4.454,0.167c14.228,0.006,27.983-5.112,38.746-14.417
			c0.066-0.053,0.147-0.069,0.212-0.125l0.077-0.099l7.461-6.432v1.073c0.003,7.424,1.94,14.719,5.621,21.167l24.725,43.262
			c2.826,4.81,7.155,8.557,12.321,10.664v10.77c0.041,13.046,7.527,24.923,19.279,30.587c-2.014,4.922-2.654,10.297-1.854,15.554
			c2.304,14.517,15.321,27.433,38.687,38.383c0.128,0.06,0.266,0.035,0.396,0.089c1.012,0.446,2.101,0.689,3.207,0.717l0.014,0.003
			l0.004-0.001l0.004,0.001l0.014-0.003c1.104-0.028,2.193-0.271,3.204-0.716c0.131-0.054,0.27-0.029,0.399-0.089
			c23.367-10.95,36.383-23.867,38.687-38.383c0.8-5.257,0.159-10.633-1.854-15.554c11.752-5.664,19.239-17.542,19.279-30.588v-10.77
			c5.166-2.107,9.495-5.854,12.321-10.664l24.725-43.262c3.681-6.449,5.618-13.745,5.621-21.171v-1.067l7.558,6.517l0.006,0.005
			l0.006,0.008l0.026,0.016c10.795,9.381,24.618,14.54,38.92,14.526c1.488,0,2.983-0.054,4.479-0.167
			c15.805-1.119,30.501-8.525,40.804-20.563c3.071-3.567,2.674-8.948-0.887-12.025l-51.642-44.642
			c-2.049-1.742-4.255-3.29-6.591-4.623c8.46-4.825,16.031-11.065,22.383-18.448l2.696-3.142
			c17.774-20.797,24.534-48.839,18.188-75.45L406.426,65.417C397.304,26.995,362.94-0.097,323.451,0h-134.9
			c-39.49-0.097-73.853,26.995-82.975,65.417L77.655,181.746c-6.347,26.612,0.414,54.655,18.192,75.45l2.687,3.138
			c6.357,7.388,13.935,13.632,22.402,18.459c-2.352,1.336-4.573,2.89-6.635,4.641L62.688,328.05z M103.901,343.617
			c-8.352-0.593-16.34-3.65-22.954-8.783l25.171-21.764l21.755,25.189C120.584,342.366,112.245,344.23,103.901,343.617z
			 M141.355,327.756l-22.326-25.85l6.426-5.556c7.801-6.765,18.909-8.166,28.146-3.551V317.2L141.355,327.756z M174.038,353.505
			c-2.206-3.869-3.368-8.246-3.371-12.7v-50.671h17.067V332.8c0.047,15.521,10.569,29.052,25.6,32.922v35.345h-7.163
			c-3.061-0.004-5.887-1.644-7.408-4.3L174.038,353.505z M247.467,290.134v18.278c-15.031,3.869-25.553,17.401-25.6,32.922
			c0.037,2.885,0.445,5.752,1.212,8.533h-1.212c-9.422-0.009-17.057-7.645-17.067-17.067v-42.667H247.467z M307.201,290.134V332.8
			c-0.009,9.422-7.645,17.057-17.067,17.067h-1.212c0.767-2.781,1.174-5.649,1.212-8.533c-0.047-15.521-10.569-29.052-25.6-32.922
			v-18.278H307.201z M230.401,401.067v-34.133h3.263c3.969,3.482,8.695,5.989,13.804,7.322v26.812H230.401z M256.001,324.267
			c9.426,0,17.067,7.641,17.067,17.067s-7.641,17.067-17.067,17.067s-17.067-7.641-17.067-17.067
			C238.944,331.912,246.579,324.276,256.001,324.267z M264.534,374.255c5.108-1.333,9.835-3.84,13.804-7.322h3.263v34.133h-17.067
			V374.255z M281.451,470.134c-1.224,7.736-10.272,16.105-25.452,23.795c-15.07-7.634-24.103-15.952-25.423-23.641
			c-0.489-3.324,0.289-6.711,2.18-9.488h46.48C281.093,463.534,281.882,466.856,281.451,470.134L281.451,470.134z M298.668,426.667
			c-0.009,9.422-7.645,17.057-17.067,17.067h-51.2c-9.422-0.009-17.057-7.645-17.067-17.067v-8.533h85.333V426.667z M341.334,340.8
			c-0.002,4.455-1.164,8.834-3.371,12.704l-24.725,43.262c-1.521,2.656-4.347,4.297-7.408,4.3h-7.163v-35.345
			c15.031-3.869,25.553-17.401,25.6-32.922v-42.667h17.067V340.8z M358.401,292.798c9.24-4.518,20.279-3.133,28.117,3.527
			l6.473,5.597l-22.327,25.851L358.401,317.2V292.798z M408.142,343.617c-8.348,0.613-16.692-1.247-23.989-5.347l21.749-25.183
			l25.165,21.759C424.461,339.973,416.483,343.025,408.142,343.617z M122.168,69.4c7.301-30.737,34.792-52.409,66.383-52.333h134.9
			c31.592-0.076,59.083,21.597,66.383,52.333l18.547,77.276c-2.652,26.257-13.057,83.724-53.31,83.724
			c-31.017,0-41.062-4.246-50.775-8.354c-15.174-6.714-31.733-9.701-48.296-8.713c-16.563-0.989-33.122,1.999-48.296,8.713
			c-9.712,4.108-19.758,8.354-50.775,8.354c-40.545,0-50.814-58.328-53.336-83.614L122.168,69.4z M111.488,249.221l-2.687-3.133
			c-13.835-16.223-19.318-37.969-14.828-58.813c11.422,38.684,33.363,60.192,62.957,60.192c34.479,0,46.667-5.154,57.421-9.7
			c13.074-5.818,27.374-8.347,41.65-7.367c14.276-0.981,28.576,1.548,41.65,7.367c10.754,4.546,22.942,9.7,57.421,9.7
			c29.595,0,51.535-21.507,62.957-60.192c4.49,20.842-0.991,42.585-14.824,58.808l-2.696,3.142
			c-12.962,15.142-31.901,23.853-51.833,23.842h-185.35C143.392,273.078,124.451,264.365,111.488,249.221z"/>
		<circle cx="204.801" cy="110.934" r="8.533"/>
		<circle cx="204.801" cy="59.734" r="8.533"/>
		<circle cx="307.201" cy="59.734" r="8.533"/>
		<circle cx="179.201" cy="85.334" r="8.533"/>
		<circle cx="230.401" cy="85.334" r="8.533"/>
		<circle cx="307.201" cy="110.934" r="8.533"/>
		<circle cx="281.601" cy="85.334" r="8.533"/>
		<circle cx="332.801" cy="85.334" r="8.533"/>
		<path d="M204.801,153.6c0,28.277,22.923,51.2,51.2,51.2s51.2-22.923,51.2-51.2c0-4.713-3.821-8.533-8.533-8.533h-85.333
			C208.621,145.067,204.801,148.887,204.801,153.6z M289.055,162.134c-3.894,15.071-17.488,25.6-33.054,25.6
			c-15.566,0-29.161-10.529-33.054-25.6H289.055z"/>
	</g>
</g>
<g>
</g>
<g>
</g>
<g>
</g>
<g>
</g>
<g>
</g>
<g>
</g>
<g>
</g>
<g>
</g>
<g>
</g>
<g>
</g>
<g>
</g>
<g>
</g>
<g>
</g>
<g>
</g>
<g>
</g>
</svg>
