<?xml version="1.0" encoding="iso-8859-1"?>
<!-- Generator: Adobe Illustrator 19.0.0, SVG Export Plug-In . SVG Version: 6.00 Build 0)  -->
<svg version="1.1" id="Capa_1" xmlns="http://www.w3.org/2000/svg" xmlns:xlink="http://www.w3.org/1999/xlink" x="0px" y="0px"
	 viewBox="0 0 512.902 512.902" style="enable-background:new 0 0 512.902 512.902;" xml:space="preserve">
<g transform="translate(-1 -1)">
	<g transform="translate(1 2)">
		<path style="fill:#607D8B;" d="M503.829,338.346c-0.427,8.875-1.109,18.859-2.304,29.525c-2.208,21.45-6.291,42.665-12.203,63.403
			c-12.922,42.422-51.995,71.459-96.341,71.595c-0.451,0.071-0.909,0.099-1.365,0.085H121.28c-0.457,0.014-0.914-0.014-1.365-0.085
			c-44.346-0.136-83.42-29.173-96.341-71.595c-5.911-20.737-9.994-41.953-12.203-63.403c-1.195-10.667-1.877-20.651-2.304-29.525
			c-1.109-24.064-0.085-40.277-0.085-40.277c0-34.048,25.6-34.048,25.6-34.048h443.733c0,0,25.6,0,25.6,34.048
			C503.914,298.068,504.938,314.282,503.829,338.346z"/>
		<path style="fill:#9E9E9E;" d="M478.229,338.346c-0.427,8.875-1.109,18.859-2.304,29.525c-2.208,21.45-6.291,42.665-12.203,63.403
			c-12.922,42.422-51.995,71.459-96.341,71.595c-0.451,0.071-0.909,0.099-1.365,0.085H121.28c-0.457,0.014-0.914-0.014-1.365-0.085
			c-44.346-0.136-83.42-29.173-96.341-71.595c-5.911-20.737-9.994-41.953-12.203-63.403c-1.195-10.667-1.877-20.651-2.304-29.525
			c-1.109-24.064-0.085-40.277-0.085-40.277c0-34.048,25.6-34.048,25.6-34.048h418.133c0,0,25.6,0,25.6,34.048
			C478.314,298.068,479.338,314.282,478.229,338.346z"/>
		<path style="fill:#00838F;" d="M453.994,313.258c-12.731,11.277-26.535,21.28-41.216,29.867
			c-22.248,13.014-46.161,22.947-71.083,29.525H171.2c-41.567-10.732-80.032-31.076-112.299-59.392
			c-16.48-14.732-24.918-36.46-22.699-58.453c7.895-81.753,51.252-155.929,118.613-202.923
			c17.111-12.539,35.301-23.533,54.357-32.853c29.808-14.677,64.742-14.677,94.549,0c60.501,29.696,159.232,98.645,172.971,235.776
			C478.912,276.798,470.475,298.525,453.994,313.258z"/>
		<path style="fill:#00BCD4;" d="M428.394,330.324c-4.523,4.011-9.728,8.363-15.616,12.8
			c-22.248,13.014-46.161,22.947-71.083,29.525H171.2c-41.567-10.732-80.032-31.076-112.299-59.392
			c-16.48-14.732-24.918-36.46-22.699-58.453c7.895-81.753,51.252-155.929,118.613-202.923
			c10.155-6.229,19.883-11.435,28.757-15.787c29.808-14.677,64.742-14.677,94.549,0c60.501,29.696,159.232,98.645,172.971,235.776
			C453.312,293.864,444.875,315.592,428.394,330.324z"/>
		<path style="fill:#607D8B;" d="M418.581,187.22c0,37.973-38.827,70.571-94.72,85.419c-22.021,5.67-44.674,8.508-67.413,8.448
			c-89.515,0-162.133-41.984-162.133-93.867c0-37.205,37.376-82.517,91.563-105.216c0.094,0.012,0.188-0.02,0.256-0.085
			c22.287-9.273,46.176-14.086,70.315-14.165C345.962,67.754,418.581,135.338,418.581,187.22z"/>
		<path style="fill:#9E9E9E;" d="M392.981,195.754c0,31.829-27.307,59.904-69.12,76.885c-22.021,5.67-44.674,8.508-67.413,8.448
			c-89.515,0-162.133-41.984-162.133-93.867c0-37.205,37.376-82.517,91.563-105.216c0.094,0.012,0.188-0.02,0.256-0.085
			c14.616-3.714,29.635-5.605,44.715-5.632C320.362,76.287,392.981,143.871,392.981,195.754z"/>
		<g>
			<path style="fill:#E91E63;" d="M222.314,306.687h68.267c28.277,0,51.2,22.923,51.2,51.2v8.533c0,28.277-22.923,51.2-51.2,51.2
				h-68.267c-28.277,0-51.2-22.923-51.2-51.2v-8.533C171.114,329.61,194.037,306.687,222.314,306.687z"/>
			<path style="fill:#DF4D60;" d="M307.648,357.887v8.533c0,9.426-7.641,17.067-17.067,17.067h-68.267
				c-9.426,0-17.067-7.641-17.067-17.067v-8.533c0-9.426,7.641-17.067,17.067-17.067h68.267
				C300.007,340.82,307.648,348.461,307.648,357.887z"/>
		</g>
		<g>
			<path style="fill:#ECF0F1;" d="M85.781,238.42c0,0-17.067,17.067-17.067,34.133c18.429,27.727,45.389,48.696,76.8,59.733
				c5.879-10.829,14.771-19.721,25.6-25.6C171.114,306.687,111.381,289.62,85.781,238.42z"/>
			<path style="fill:#ECF0F1;" d="M427.114,238.42c0,0,17.067,17.067,17.067,34.133c-18.429,27.727-45.389,48.696-76.8,59.733
				c-5.879-10.829-14.771-19.721-25.6-25.6C341.781,306.687,401.514,289.62,427.114,238.42z"/>
		</g>
		<g>
			<g>
				<path style="fill:#41767F;" d="M136.981,452.863v50.091H121.28c-0.457,0.014-0.914-0.014-1.365-0.085v-50.005
					c-0.154-15.432-10.539-28.883-25.429-32.939c-31.87-9.587-60.577-27.566-83.115-52.053c-1.195-10.667-1.877-20.651-2.304-29.525
					c22.309,30.774,53.889,53.592,90.112,65.109C121.373,409.673,136.783,429.815,136.981,452.863z"/>
				<path style="fill:#41767F;" d="M503.829,338.346c-0.427,8.875-1.109,18.859-2.304,29.525
					c-22.538,24.488-51.245,42.466-83.115,52.053c-14.89,4.055-25.275,17.507-25.429,32.939v50.005
					c-0.451,0.071-0.909,0.099-1.365,0.085h-15.701v-50.091c0.198-23.048,15.608-43.19,37.803-49.408
					C449.94,391.938,481.52,369.12,503.829,338.346z"/>
			</g>
			<path style="fill:#607D8B;" d="M205.248,468.82h102.4c14.138,0,25.6,11.462,25.6,25.6v8.533h-153.6v-8.533
				C179.648,480.282,191.109,468.82,205.248,468.82z"/>
		</g>
	</g>
	<g>
		<path d="M225.789,237.946c3.346,3.346,8.771,3.346,12.117,0c3.346-3.346,3.346-8.771,0-12.117c-3.398-3.219-8.719-3.219-12.117,0
			C222.49,229.193,222.49,234.58,225.789,237.946L225.789,237.946z"/>
		<path d="M211.539,241.099c-2.141,0.78-3.828,2.467-4.608,4.608c-0.438,1.027-0.67,2.13-0.684,3.246
			c-0.022,2.27,0.87,4.453,2.475,6.058c1.605,1.605,3.788,2.497,6.058,2.475c0.542-0.016,1.083-0.073,1.617-0.171
			c0.566-0.082,1.115-0.255,1.625-0.513c0.524-0.171,1.015-0.432,1.45-0.771c0.49-0.291,0.949-0.633,1.367-1.021
			c3.3-3.365,3.3-8.752,0-12.117C218.364,240.517,214.723,239.813,211.539,241.099z"/>
		<path d="M294.056,242.895c-1.561,1.634-2.445,3.799-2.475,6.059c-0.027,0.573,0.029,1.147,0.167,1.704
			c0.096,0.535,0.27,1.053,0.517,1.538c0.184,0.545,0.442,1.062,0.767,1.538c0.317,0.446,0.659,0.873,1.025,1.279
			c3.365,3.3,8.752,3.3,12.117,0c0.341-0.429,0.683-0.854,1.025-1.279c0.321-0.477,0.579-0.994,0.767-1.538
			c0.247-0.483,0.419-1.002,0.508-1.538c0.104-0.563,0.162-1.133,0.175-1.704c0.02-3.467-2.059-6.601-5.261-7.931
			C300.185,239.694,296.497,240.433,294.056,242.895z"/>
		<path d="M257.448,231.887c1.115-0.014,2.216-0.246,3.242-0.683c1.033-0.435,1.985-1.041,2.817-1.792c3.3-3.365,3.3-8.752,0-12.117
			c-0.831-0.754-1.783-1.361-2.817-1.796c-3.182-1.294-6.828-0.59-9.3,1.796c-3.3,3.365-3.3,8.752,0,12.117
			C253.016,230.984,255.185,231.871,257.448,231.887z"/>
		<path d="M283.048,240.42c2.237-0.02,4.379-0.907,5.975-2.475c1.627-1.597,2.548-3.779,2.558-6.059
			c-0.026-2.277-0.945-4.452-2.558-6.059c-3.389-3.158-8.644-3.158-12.033,0c-1.561,1.634-2.445,3.799-2.475,6.059
			c-0.022,2.27,0.87,4.453,2.475,6.058C278.595,239.55,280.778,240.442,283.048,240.42z"/>
		<path d="M257.448,291.62c95.7,0,170.667-44.979,170.667-102.4c0-57.617-78.75-128-170.667-128s-170.667,70.383-170.667,128
			C86.781,246.641,161.748,291.62,257.448,291.62z M257.448,78.287c87.642,0,153.6,67.296,153.6,110.933
			c0,47.054-68.908,85.333-153.6,85.333s-153.6-38.279-153.6-85.333C103.848,145.583,169.806,78.287,257.448,78.287z"/>
		<path d="M223.314,394.02h68.267c14.132-0.015,25.585-11.468,25.6-25.6v-8.533c-0.015-14.132-11.468-25.585-25.6-25.6h-68.267
			c-14.132,0.015-25.585,11.468-25.6,25.6v8.533C197.73,382.552,209.182,394.005,223.314,394.02z M214.781,359.887
			c0.005-4.711,3.822-8.529,8.533-8.533h68.267c4.711,0.005,8.529,3.822,8.533,8.533v8.533c-0.005,4.711-3.822,8.529-8.533,8.533
			h-68.267c-4.711-0.005-8.529-3.822-8.533-8.533V359.887z"/>
		<path d="M143.814,342.383c4.029,1.342,8.432-0.481,10.333-4.279c5.072-9.162,12.621-16.711,21.783-21.783
			c3.142-1.575,4.997-4.915,4.675-8.414c-0.322-3.5-2.757-6.444-6.133-7.419c-0.567-0.162-56.508-16.775-80.058-63.883
			c-1.226-2.454-3.558-4.169-6.266-4.608s-5.462,0.451-7.401,2.391c-2,2-19.567,20.141-19.567,40.166
			c-0.001,1.547,0.419,3.066,1.217,4.392C81.825,308.466,110.44,330.762,143.814,342.383z M85.564,255.487
			c17.012,24.703,40.783,43.981,68.467,55.525c-4.178,3.868-7.915,8.188-11.142,12.879c-25.977-10.726-48.352-28.646-64.492-51.654
			C79.504,266.188,81.953,260.464,85.564,255.487z"/>
		<path d="M420.481,236.604c-23.55,47.108-79.492,63.721-80.058,63.883c-3.377,0.975-5.811,3.919-6.133,7.419
			c-0.322,3.5,1.533,6.839,4.675,8.414c9.171,5.061,16.722,12.613,21.783,21.783c1.901,3.798,6.304,5.621,10.333,4.279
			c33.374-11.621,61.989-33.917,81.417-63.437c0.797-1.326,1.218-2.844,1.217-4.392c0-20.025-17.567-38.167-19.567-40.166
			c-1.939-1.941-4.693-2.831-7.401-2.391C424.038,232.435,421.707,234.15,420.481,236.604L420.481,236.604z M436.498,272.237
			c-16.14,23.008-38.514,40.928-64.492,51.654c-3.227-4.692-6.963-9.011-11.142-12.879c27.684-11.544,51.454-30.822,68.467-55.525
			C432.943,260.464,435.392,266.188,436.498,272.237L436.498,272.237z"/>
		<path d="M2.398,355.059c1.872,27.288,6.555,54.31,13.975,80.636c14.284,46.435,57.293,78.036,105.875,77.792h270.4
			c48.582,0.245,91.591-31.357,105.875-77.792c7.422-26.333,12.108-53.362,13.982-80.657c0.977-1.986,1.129-4.277,0.423-6.374
			c1.093-16.189,1.267-32.427,0.52-48.635c0-27.787-15.212-38.669-27.167-41.626c-0.056-0.818-0.017-1.631-0.1-2.449
			C471.939,113.787,368.739,42.941,308.489,13.37c-32.158-15.942-69.917-15.942-102.075,0
			c-60.258,29.571-163.458,100.417-177.7,242.575c-0.083,0.821-0.044,1.635-0.1,2.455c-11.954,2.944-27.163,13.749-27.15,41.095
			c-0.758,16.383-0.589,32.795,0.508,49.158C1.259,350.761,1.412,353.065,2.398,355.059z M32.756,430.895
			c-4.796-16.756-8.317-33.85-10.534-51.136c20.452,20.05,45.677,34.555,73.293,42.145c14.868,4.097,25.228,17.541,25.4,32.963v41.5
			C80.401,496.084,44.736,469.598,32.756,430.895L32.756,430.895z M189.181,496.42c0.011-9.421,7.645-17.056,17.067-17.067h102.4
			c9.421,0.011,17.056,7.645,17.067,17.067H189.181z M393.981,496.366v-41.5c0.172-15.421,10.532-28.866,25.4-32.962
			c27.617-7.591,52.843-22.096,73.295-42.147c-2.219,17.287-5.741,34.382-10.536,51.139
			C470.159,469.598,434.494,496.084,393.981,496.366z M45.698,257.654C59.114,123.699,156.864,56.704,213.939,28.687
			c27.416-13.592,59.609-13.592,87.025,0c57.067,28.017,154.817,95.013,168.233,228.975c1.979,19.274-5.413,38.326-19.875,51.221
			c-28.44,24.847-61.853,43.341-98.008,54.247v-3.243c-0.038-32.974-26.759-59.695-59.733-59.733h-68.267
			c-32.974,0.038-59.695,26.759-59.733,59.733v3.243c-36.162-10.91-69.581-29.408-98.025-54.26
			C51.102,295.973,43.716,276.923,45.698,257.654z M180.648,368.42v-8.533c0.028-23.553,19.114-42.639,42.667-42.667h68.267
			c23.553,0.028,42.639,19.114,42.667,42.667v8.533c-0.028,23.553-19.114,42.639-42.667,42.667h-68.267
			C199.762,411.059,180.675,391.973,180.648,368.42z M18.514,300.029c0-15.309,5.931-21.41,10.894-23.851
			c2.786,17.558,11.552,33.615,24.815,45.455c31.992,27.976,69.866,48.399,110.818,59.758c6.102,27.295,30.304,46.717,58.273,46.763
			h68.267c27.969-0.045,52.171-19.468,58.273-46.763c40.946-11.356,78.814-31.775,110.802-59.746
			c13.252-11.826,22.018-27.862,24.819-45.401c4.896,2.498,10.912,8.716,10.923,24.314c0.689,16.464,0.445,32.954-0.731,49.391
			c-19.797,27.252-48.37,46.86-80.919,55.53c-22.21,6.189-37.641,26.332-37.833,49.387v41.554h-34.133
			c-0.02-18.843-15.29-34.113-34.133-34.133h-102.4c-18.843,0.02-34.113,15.29-34.133,34.133h-34.133v-41.554
			c-0.193-23.055-15.623-43.199-37.833-49.388c-32.515-8.756-61.063-28.357-80.917-55.555
			C18.053,333.319,17.814,316.66,18.514,300.029z"/>
		<path d="M174.589,152.612c2.896,2.953,7.476,3.444,10.932,1.171s4.82-6.672,3.256-10.501c-1.564-3.829-5.618-6.015-9.677-5.219
			c-4.058,0.797-6.985,4.354-6.986,8.49C172.148,148.813,173.031,150.976,174.589,152.612z"/>
		<path d="M157.522,135.546c0.403,0.367,0.829,0.708,1.275,1.021c0.477,0.324,0.996,0.583,1.542,0.771
			c0.483,0.245,1,0.418,1.533,0.513c0.565,0.098,1.136,0.155,1.709,0.17c3.45-0.014,6.556-2.096,7.879-5.282
			c1.323-3.187,0.606-6.856-1.82-9.31c-0.831-0.754-1.783-1.361-2.817-1.796c-3.182-1.296-6.83-0.592-9.301,1.796
			c-1.561,1.634-2.445,3.799-2.475,6.059c0.014,1.115,0.246,2.216,0.683,3.242C156.144,133.773,156.751,134.729,157.522,135.546z"/>
		<path d="M186.706,174.628c-2.896-2.953-7.476-3.444-10.932-1.171s-4.82,6.672-3.256,10.501c1.564,3.829,5.618,6.015,9.677,5.219
			c4.058-0.797,6.985-4.354,6.986-8.49C189.152,178.427,188.268,176.262,186.706,174.628z"/>
		<path d="M208.722,186.746c0.817,0.771,1.773,1.379,2.817,1.792c1.026,0.437,2.127,0.669,3.242,0.683
			c2.27,0.022,4.453-0.87,6.058-2.475c1.605-1.605,2.497-3.788,2.475-6.058c-0.013-1.116-0.245-2.219-0.683-3.246
			c-0.433-1.033-1.039-1.984-1.792-2.813c-0.425-0.341-0.858-0.683-1.367-1.025c-0.435-0.339-0.926-0.6-1.45-0.771
			c-0.51-0.258-1.059-0.43-1.625-0.508c-2.782-0.548-5.655,0.315-7.675,2.304c-0.753,0.829-1.359,1.78-1.792,2.813
			c-0.438,1.027-0.67,2.13-0.683,3.246C206.262,182.95,207.148,185.12,208.722,186.746z"/>
		<path d="M203.689,191.695c-3.389-3.158-8.644-3.158-12.033,0c-2.461,2.441-3.201,6.129-1.872,9.331
			c1.329,3.202,4.464,5.281,7.93,5.261c0.542-0.016,1.083-0.073,1.617-0.171c0.566-0.082,1.115-0.255,1.625-0.512
			c0.524-0.171,1.015-0.432,1.45-0.771c0.46-0.297,0.89-0.639,1.283-1.021c1.636-1.591,2.558-3.776,2.558-6.058
			S205.325,193.287,203.689,191.695L203.689,191.695z"/>
		<path d="M191.656,169.679c1.636,1.558,3.8,2.441,6.059,2.475c4.699-0.033,8.501-3.834,8.533-8.533
			c-0.043-2.273-0.959-4.443-2.558-6.059c-0.394-0.382-0.824-0.725-1.283-1.025c-0.435-0.339-0.926-0.6-1.45-0.771
			c-0.51-0.258-1.059-0.43-1.625-0.508c-2.782-0.548-5.655,0.315-7.675,2.304c-0.753,0.829-1.359,1.78-1.792,2.813
			c-0.481,1.013-0.715,2.125-0.683,3.246C189.211,165.88,190.095,168.044,191.656,169.679z"/>
		<path d="M328.189,152.612c0.403,0.367,0.829,0.708,1.275,1.021c0.477,0.324,0.996,0.583,1.542,0.771
			c0.508,0.257,1.054,0.431,1.617,0.513c0.537,0.098,1.08,0.155,1.625,0.17c0.573-0.016,1.144-0.073,1.708-0.171
			c0.533-0.096,1.05-0.269,1.533-0.512c0.543-0.188,1.059-0.447,1.533-0.771c0.449-0.313,0.877-0.654,1.284-1.021
			c0.753-0.83,1.359-1.783,1.792-2.817c0.437-1.026,0.669-2.127,0.683-3.242c-0.013-0.573-0.071-1.144-0.175-1.708
			c-0.089-0.536-0.261-1.054-0.508-1.538c-0.172-0.523-0.431-1.013-0.767-1.45c-0.341-0.512-0.683-0.937-1.025-1.363
			c-3.421-3.158-8.695-3.158-12.117,0c-1.574,1.625-2.461,3.796-2.475,6.058c0.014,1.115,0.246,2.216,0.683,3.242
			C326.81,150.84,327.418,151.796,328.189,152.612z"/>
		<path d="M351.314,138.02c2.262-0.019,4.43-0.905,6.059-2.475c0.341-0.429,0.683-0.854,1.025-1.279
			c0.321-0.477,0.579-0.994,0.767-1.538c0.247-0.483,0.419-1.002,0.508-1.538c0.104-0.563,0.162-1.133,0.175-1.704
			c-0.013-1.116-0.245-2.219-0.683-3.246c-0.433-1.033-1.039-1.984-1.792-2.813c-3.421-3.158-8.695-3.158-12.117,0
			c-0.753,0.829-1.359,1.78-1.792,2.813c-0.481,1.013-0.715,2.125-0.683,3.246c0.03,2.26,0.914,4.424,2.475,6.059
			C346.882,137.118,349.052,138.004,351.314,138.02z"/>
		<path d="M342.098,177.441c-0.189-0.542-0.446-1.057-0.767-1.533c-0.341-0.429-0.683-0.854-1.025-1.279
			c-3.421-3.158-8.695-3.158-12.117,0c-1.574,1.625-2.461,3.796-2.475,6.058c0.03,2.26,0.914,4.424,2.475,6.059
			c0.425,0.341,0.85,0.683,1.275,1.021c0.477,0.324,0.996,0.583,1.542,0.771c0.508,0.257,1.054,0.431,1.617,0.513
			c0.537,0.098,1.08,0.155,1.625,0.17c0.573-0.016,1.144-0.073,1.708-0.171c0.533-0.096,1.05-0.269,1.533-0.512
			c0.543-0.188,1.059-0.447,1.533-0.771c0.425-0.338,0.858-0.679,1.283-1.021c1.557-1.637,2.441-3.8,2.475-6.058
			c-0.013-0.573-0.071-1.145-0.175-1.708C342.517,178.443,342.345,177.924,342.098,177.441z"/>
		<path d="M300.114,189.22c2.27,0.022,4.453-0.87,6.058-2.475s2.497-3.788,2.475-6.058c-0.013-0.573-0.071-1.145-0.175-1.708
			c-0.089-0.536-0.261-1.054-0.508-1.538c-0.172-0.523-0.431-1.013-0.767-1.45c-0.341-0.512-0.683-0.937-1.025-1.363
			c-3.421-3.158-8.695-3.158-12.117,0c-0.388,0.417-0.732,0.874-1.025,1.363c-0.338,0.435-0.598,0.926-0.767,1.45
			c-0.246,0.485-0.42,1.003-0.517,1.538c-0.138,0.558-0.194,1.134-0.167,1.708c-0.022,2.27,0.87,4.453,2.475,6.058
			C295.661,188.35,297.845,189.242,300.114,189.22z"/>
		<path d="M323.24,191.695c-0.831-0.754-1.783-1.361-2.817-1.796c-3.178-1.339-6.849-0.63-9.301,1.796
			c-0.753,0.829-1.359,1.78-1.792,2.813c-0.438,1.027-0.67,2.13-0.683,3.246c-0.022,2.27,0.87,4.453,2.475,6.058
			c1.605,1.605,3.788,2.497,6.058,2.475c1.115-0.014,2.216-0.246,3.242-0.683c1.033-0.435,1.985-1.041,2.817-1.792
			c1.557-1.637,2.441-3.799,2.475-6.058c-0.013-1.116-0.245-2.219-0.683-3.246C324.599,193.475,323.993,192.524,323.24,191.695z"/>
		<path d="M311.122,169.679c0.425,0.341,0.85,0.683,1.275,1.021c0.477,0.324,0.996,0.583,1.542,0.771
			c0.483,0.245,1,0.418,1.533,0.513c0.565,0.098,1.136,0.155,1.709,0.17c1.115-0.014,2.216-0.246,3.242-0.683
			c1.033-0.435,1.985-1.041,2.817-1.792c0.753-0.83,1.359-1.783,1.792-2.817c0.437-1.025,0.669-2.127,0.683-3.241
			c-0.013-0.573-0.071-1.145-0.175-1.708c-0.089-0.536-0.261-1.054-0.508-1.538c-0.172-0.523-0.431-1.013-0.767-1.45
			c-0.341-0.512-0.683-0.937-1.025-1.363c-0.831-0.754-1.783-1.361-2.817-1.796c-3.183-1.288-6.825-0.585-9.3,1.796
			c-1.561,1.634-2.445,3.799-2.475,6.059c0.014,1.115,0.246,2.216,0.683,3.242C309.763,167.896,310.369,168.849,311.122,169.679z"/>
	</g>
</g>
<g>
</g>
<g>
</g>
<g>
</g>
<g>
</g>
<g>
</g>
<g>
</g>
<g>
</g>
<g>
</g>
<g>
</g>
<g>
</g>
<g>
</g>
<g>
</g>
<g>
</g>
<g>
</g>
<g>
</g>
</svg>
