<?xml version="1.0" encoding="iso-8859-1"?>
<!-- Generator: Adobe Illustrator 19.0.0, SVG Export Plug-In . SVG Version: 6.00 Build 0)  -->
<svg version="1.1" id="Capa_1" xmlns="http://www.w3.org/2000/svg" xmlns:xlink="http://www.w3.org/1999/xlink" x="0px" y="0px"
	 viewBox="0 0 512.902 512.902" style="enable-background:new 0 0 512.902 512.902;" xml:space="preserve">
<g transform="translate(-1 -1)">
	<g transform="translate(1 2)">
		<path style="fill:#607D8B;" d="M503.829,338.346c-0.427,8.875-1.109,18.859-2.304,29.525c-2.208,21.45-6.291,42.665-12.203,63.403
			c-12.922,42.422-51.995,71.459-96.341,71.595c-0.451,0.071-0.909,0.099-1.365,0.085H121.28c-0.457,0.014-0.914-0.014-1.365-0.085
			c-44.346-0.136-83.42-29.173-96.341-71.595c-5.911-20.737-9.994-41.953-12.203-63.403c-1.195-10.667-1.877-20.651-2.304-29.525
			c-1.109-24.064-0.085-40.277-0.085-40.277c0-34.048,25.6-34.048,25.6-34.048h443.733c0,0,25.6,0,25.6,34.048
			C503.914,298.068,504.938,314.282,503.829,338.346z"/>
		<path style="fill:#9E9E9E;" d="M478.229,338.346c-0.427,8.875-1.109,18.859-2.304,29.525c-2.208,21.45-6.291,42.665-12.203,63.403
			c-12.922,42.422-51.995,71.459-96.341,71.595c-0.451,0.071-0.909,0.099-1.365,0.085H121.28c-0.457,0.014-0.914-0.014-1.365-0.085
			c-44.346-0.136-83.42-29.173-96.341-71.595c-5.911-20.737-9.994-41.953-12.203-63.403c-1.195-10.667-1.877-20.651-2.304-29.525
			c-1.109-24.064-0.085-40.277-0.085-40.277c0-34.048,25.6-34.048,25.6-34.048h418.133c0,0,25.6,0,25.6,34.048
			C478.314,298.068,479.338,314.282,478.229,338.346z"/>
		<path style="fill:#00838F;" d="M453.994,313.258c-12.731,11.277-26.535,21.28-41.216,29.867
			c-22.248,13.014-46.161,22.947-71.083,29.525H171.2c-41.567-10.732-80.032-31.076-112.299-59.392
			c-16.48-14.732-24.918-36.46-22.699-58.453c7.895-81.753,51.252-155.929,118.613-202.923
			c17.111-12.539,35.301-23.533,54.357-32.853c29.808-14.677,64.742-14.677,94.549,0c60.501,29.696,159.232,98.645,172.971,235.776
			C478.912,276.798,470.475,298.525,453.994,313.258z"/>
		<path style="fill:#00BCD4;" d="M428.394,330.324c-4.523,4.011-9.728,8.363-15.616,12.8
			c-22.248,13.014-46.161,22.947-71.083,29.525H171.2c-41.567-10.732-80.032-31.076-112.299-59.392
			c-16.48-14.732-24.918-36.46-22.699-58.453c7.895-81.753,51.252-155.929,118.613-202.923
			c10.155-6.229,19.883-11.435,28.757-15.787c29.808-14.677,64.742-14.677,94.549,0c60.501,29.696,159.232,98.645,172.971,235.776
			C453.312,293.864,444.875,315.592,428.394,330.324z"/>
		<path style="fill:#607D8B;" d="M418.581,187.22c0,37.973-38.827,70.571-94.72,85.419c-22.021,5.67-44.674,8.508-67.413,8.448
			c-89.515,0-162.133-41.984-162.133-93.867c0-37.205,37.376-82.517,91.563-105.216c0.094,0.012,0.188-0.02,0.256-0.085
			c22.287-9.273,46.176-14.086,70.315-14.165C345.962,67.754,418.581,135.338,418.581,187.22z"/>
		<path style="fill:#9E9E9E;" d="M392.981,195.754c0,31.829-27.307,59.904-69.12,76.885c-22.021,5.67-44.674,8.508-67.413,8.448
			c-89.515,0-162.133-41.984-162.133-93.867c0-37.205,37.376-82.517,91.563-105.216c0.094,0.012,0.188-0.02,0.256-0.085
			c14.616-3.714,29.635-5.605,44.715-5.632C320.362,76.287,392.981,143.871,392.981,195.754z"/>
		<g>
			<path style="fill:#E91E63;" d="M222.314,306.687h68.267c28.277,0,51.2,22.923,51.2,51.2v8.533c0,28.277-22.923,51.2-51.2,51.2
				h-68.267c-28.277,0-51.2-22.923-51.2-51.2v-8.533C171.114,329.61,194.037,306.687,222.314,306.687z"/>
			<path style="fill:#DF4D60;" d="M307.648,357.887v8.533c0,9.426-7.641,17.067-17.067,17.067h-68.267
				c-9.426,0-17.067-7.641-17.067-17.067v-8.533c0-9.426,7.641-17.067,17.067-17.067h68.267
				C300.007,340.82,307.648,348.461,307.648,357.887z"/>
		</g>
		<g>
			<path style="fill:#ECF0F1;" d="M85.781,238.42c0,0-17.067,17.067-17.067,34.133c18.429,27.727,45.389,48.696,76.8,59.733
				c5.879-10.829,14.771-19.721,25.6-25.6C171.114,306.687,111.381,289.62,85.781,238.42z"/>
			<path style="fill:#ECF0F1;" d="M427.114,238.42c0,0,17.067,17.067,17.067,34.133c-18.429,27.727-45.389,48.696-76.8,59.733
				c-5.879-10.829-14.771-19.721-25.6-25.6C341.781,306.687,401.514,289.62,427.114,238.42z"/>
		</g>
		<g>
			<g>
				<path style="fill:#41767F;" d="M136.981,452.863v50.091H121.28c-0.457,0.014-0.914-0.014-1.365-0.085v-50.005
					c-0.154-15.432-10.539-28.883-25.429-32.939c-31.87-9.587-60.577-27.566-83.115-52.053c-1.195-10.667-1.877-20.651-2.304-29.525
					c22.309,30.774,53.889,53.592,90.112,65.109C121.373,409.673,136.783,429.815,136.981,452.863z"/>
				<path style="fill:#41767F;" d="M503.829,338.346c-0.427,8.875-1.109,18.859-2.304,29.525
					c-22.538,24.488-51.245,42.466-83.115,52.053c-14.89,4.055-25.275,17.507-25.429,32.939v50.005
					c-0.451,0.071-0.909,0.099-1.365,0.085h-15.701v-50.091c0.198-23.048,15.608-43.19,37.803-49.408
					C449.94,391.938,481.52,369.12,503.829,338.346z"/>
			</g>
			<path style="fill:#607D8B;" d="M205.248,468.82h102.4c14.138,0,25.6,11.462,25.6,25.6v8.533h-153.6v-8.533
				C179.648,480.282,191.109,468.82,205.248,468.82z"/>
		</g>
	</g>
	<g>
		<path d="M486.281,258.403c-0.056-0.818-0.017-1.631-0.1-2.449C471.939,113.787,368.739,42.941,308.489,13.37
			c-32.158-15.942-69.917-15.942-102.075,0c-60.258,29.571-163.458,100.417-177.7,242.575c-0.083,0.821-0.044,1.635-0.1,2.455
			c-11.954,2.944-27.163,13.749-27.15,41.095c-0.758,16.383-0.589,32.795,0.508,49.158c-0.714,2.107-0.561,4.411,0.425,6.406
			c1.871,27.288,6.554,54.31,13.974,80.636c14.284,46.435,57.293,78.036,105.875,77.792h270.4
			c48.582,0.245,91.591-31.357,105.875-77.792c7.422-26.333,12.108-53.362,13.982-80.657c0.977-1.986,1.129-4.277,0.423-6.374
			c1.093-16.189,1.267-32.427,0.52-48.635C513.448,272.242,498.235,261.36,486.281,258.403z M45.698,257.654
			C59.114,123.699,156.864,56.704,213.939,28.687c27.416-13.592,59.609-13.592,87.025,0
			c57.067,28.017,154.817,95.013,168.233,228.975c1.979,19.274-5.413,38.326-19.875,51.221
			c-28.44,24.847-61.853,43.341-98.008,54.247v-3.243c-0.038-32.974-26.759-59.695-59.733-59.733h-68.267
			c-32.974,0.038-59.695,26.759-59.733,59.733v3.243c-36.162-10.91-69.581-29.408-98.025-54.26
			C51.102,295.973,43.716,276.923,45.698,257.654z M180.648,368.42v-8.533c0.028-23.553,19.114-42.639,42.667-42.667h68.267
			c23.553,0.028,42.639,19.114,42.667,42.667v8.533c-0.028,23.553-19.114,42.639-42.667,42.667h-68.267
			C199.762,411.059,180.675,391.973,180.648,368.42z M32.756,430.895c-4.796-16.755-8.317-33.85-10.534-51.136
			c20.452,20.05,45.677,34.555,73.293,42.145c14.868,4.097,25.228,17.541,25.4,32.962v41.5
			C80.401,496.084,44.736,469.598,32.756,430.895z M189.181,496.42c0.011-9.421,7.645-17.056,17.067-17.067h102.4
			c9.421,0.011,17.056,7.645,17.067,17.067H189.181z M308.648,462.287h-102.4c-18.843,0.02-34.113,15.29-34.133,34.133h-34.133
			v-41.554c-0.193-23.055-15.623-43.199-37.833-49.388c-32.515-8.756-61.063-28.357-80.917-55.555
			c-1.178-16.605-1.417-33.263-0.717-49.895c0-15.309,5.931-21.41,10.894-23.851c2.786,17.558,11.552,33.615,24.815,45.455
			c31.992,27.976,69.866,48.399,110.818,59.758c6.102,27.295,30.304,46.717,58.273,46.763h68.267
			c27.969-0.045,52.171-19.468,58.273-46.763c40.946-11.356,78.814-31.775,110.802-59.746
			c13.252-11.826,22.018-27.862,24.819-45.401c4.896,2.498,10.912,8.716,10.923,24.314c0.689,16.464,0.445,32.954-0.731,49.391
			c-19.797,27.252-48.37,46.86-80.919,55.53c-22.21,6.189-37.641,26.332-37.833,49.387v41.554h-34.133
			C342.761,477.577,327.491,462.307,308.648,462.287z M393.981,496.366v-41.5c0.172-15.421,10.532-28.866,25.4-32.962
			c27.617-7.591,52.843-22.096,73.295-42.147c-2.219,17.287-5.741,34.382-10.536,51.139
			C470.159,469.598,434.494,496.084,393.981,496.366z"/>
		<path d="M239.698,245.708c-0.189-0.542-0.446-1.057-0.767-1.533c-0.341-0.429-0.683-0.854-1.025-1.279
			c-2.441-2.461-6.129-3.201-9.331-1.872s-5.281,4.463-5.261,7.93c0.014,0.571,0.07,1.141,0.167,1.704
			c0.096,0.535,0.27,1.053,0.517,1.538c0.184,0.545,0.442,1.062,0.767,1.538c0.341,0.425,0.683,0.85,1.025,1.279
			c1.627,1.572,3.796,2.459,6.058,2.475c2.259-0.035,4.421-0.918,6.059-2.475c0.341-0.429,0.683-0.854,1.025-1.279
			c0.321-0.477,0.579-0.994,0.767-1.538c0.247-0.483,0.419-1.002,0.508-1.538c0.103-0.563,0.162-1.133,0.175-1.704
			c-0.013-0.544-0.071-1.086-0.175-1.621C240.13,246.766,239.958,246.217,239.698,245.708z"/>
		<path d="M223.139,230.179c-0.09-0.536-0.261-1.054-0.508-1.538c-0.172-0.523-0.431-1.013-0.767-1.45
			c-0.341-0.513-0.683-0.937-1.025-1.363c-3.421-3.158-8.695-3.158-12.117,0c-0.341,0.425-0.683,0.85-1.025,1.363
			c-0.338,0.435-0.598,0.926-0.767,1.45c-0.246,0.485-0.42,1.003-0.517,1.538c-0.093,0.565-0.148,1.136-0.167,1.708
			c0.03,2.26,0.914,4.424,2.475,6.059c0.403,0.367,0.829,0.708,1.275,1.021c0.477,0.324,0.996,0.583,1.542,0.771
			c0.483,0.245,1,0.418,1.533,0.513c0.565,0.098,1.136,0.155,1.709,0.171c0.542-0.016,1.083-0.073,1.617-0.171
			c0.566-0.082,1.115-0.255,1.625-0.513c0.524-0.171,1.015-0.432,1.45-0.771c0.49-0.291,0.949-0.633,1.367-1.021
			c1.557-1.637,2.44-3.8,2.475-6.059C223.297,231.314,223.239,230.743,223.139,230.179z"/>
		<path d="M307.964,228.641c-0.172-0.523-0.431-1.013-0.767-1.45c-0.341-0.513-0.683-0.937-1.025-1.363
			c-0.425-0.341-0.858-0.683-1.283-1.025c-0.475-0.324-0.99-0.583-1.533-0.771c-0.483-0.244-1-0.416-1.533-0.508
			c-1.124-0.258-2.292-0.258-3.417,0c-0.534,0.091-1.051,0.263-1.533,0.508c-0.546,0.187-1.064,0.447-1.542,0.771l-1.275,1.025
			c-0.341,0.425-0.683,0.85-1.025,1.363c-0.338,0.435-0.598,0.926-0.767,1.45c-0.259,0.51-0.434,1.059-0.517,1.625
			c-0.097,0.535-0.152,1.077-0.166,1.621c0.014,1.115,0.246,2.216,0.683,3.242c0.433,1.034,1.039,1.987,1.792,2.817
			c0.425,0.341,0.85,0.683,1.275,1.021c0.477,0.324,0.996,0.583,1.542,0.771c0.483,0.245,1,0.418,1.533,0.513
			c0.565,0.094,1.136,0.151,1.708,0.171c0.573-0.02,1.143-0.077,1.708-0.171c0.533-0.096,1.05-0.269,1.533-0.513
			c0.543-0.188,1.059-0.447,1.533-0.771c0.425-0.337,0.858-0.679,1.283-1.021c0.753-0.83,1.359-1.783,1.792-2.817
			c0.437-1.026,0.669-2.127,0.683-3.242c-0.013-0.544-0.071-1.086-0.175-1.621C308.397,229.7,308.225,229.15,307.964,228.641z"/>
		<path d="M257.448,266.02c2.259-0.035,4.421-0.918,6.059-2.475c0.366-0.406,0.708-0.834,1.025-1.279
			c0.321-0.477,0.579-0.994,0.767-1.538c0.247-0.483,0.419-1.002,0.508-1.538c0.233-1.126,0.233-2.287,0-3.412
			c-0.09-0.536-0.261-1.054-0.508-1.538c-0.172-0.523-0.431-1.013-0.767-1.45c-0.293-0.489-0.637-0.946-1.025-1.363
			c-3.346-3.346-8.771-3.346-12.117,0c-3.346,3.346-3.346,8.771,0,12.117C253.016,265.118,255.185,266.004,257.448,266.02z"/>
		<path d="M283.048,257.487c1.119,0.029,2.229-0.205,3.242-0.683c1.033-0.435,1.985-1.041,2.817-1.792
			c1.557-1.637,2.441-3.799,2.475-6.058c-0.013-1.116-0.245-2.219-0.683-3.246c-0.412-1.044-1.02-1.998-1.792-2.813
			c-0.831-0.754-1.783-1.361-2.817-1.796c-2.075-0.924-4.439-0.954-6.537-0.083s-3.745,2.568-4.554,4.691
			c-0.438,1.027-0.67,2.13-0.683,3.246c-0.022,2.27,0.87,4.453,2.475,6.058C278.595,256.617,280.778,257.509,283.048,257.487z"/>
		<path d="M257.448,291.62c95.7,0,170.667-44.979,170.667-102.4c0-57.617-78.75-128-170.667-128s-170.667,70.383-170.667,128
			C86.781,246.641,161.748,291.62,257.448,291.62z M257.448,78.287c87.642,0,153.6,67.296,153.6,110.933
			c0,47.054-68.908,85.333-153.6,85.333s-153.6-38.279-153.6-85.333C103.848,145.583,169.806,78.287,257.448,78.287z"/>
		<path d="M223.314,394.02h68.267c14.132-0.015,25.585-11.468,25.6-25.6v-8.533c-0.015-14.132-11.468-25.585-25.6-25.6h-68.267
			c-14.132,0.015-25.585,11.468-25.6,25.6v8.533C197.73,382.552,209.182,394.005,223.314,394.02z M214.781,359.887
			c0.005-4.711,3.822-8.529,8.533-8.533h68.267c4.711,0.005,8.529,3.822,8.533,8.533v8.533c-0.005,4.711-3.822,8.529-8.533,8.533
			h-68.267c-4.711-0.005-8.529-3.822-8.533-8.533V359.887z"/>
		<path d="M143.814,342.383c4.029,1.342,8.432-0.481,10.333-4.279c5.072-9.162,12.621-16.711,21.783-21.783
			c3.142-1.575,4.997-4.915,4.675-8.414c-0.322-3.5-2.757-6.444-6.133-7.419c-0.567-0.162-56.508-16.775-80.058-63.883
			c-1.226-2.454-3.558-4.169-6.266-4.608s-5.462,0.451-7.401,2.391c-2,2-19.567,20.141-19.567,40.166
			c-0.001,1.547,0.419,3.066,1.217,4.392C81.825,308.466,110.44,330.762,143.814,342.383z M85.564,255.487
			c17.012,24.703,40.783,43.981,68.467,55.525c-4.178,3.868-7.915,8.188-11.142,12.879c-25.977-10.726-48.352-28.646-64.492-51.654
			C79.504,266.188,81.953,260.464,85.564,255.487z"/>
		<path d="M420.481,236.604c-23.55,47.108-79.492,63.721-80.058,63.883c-3.377,0.975-5.811,3.919-6.133,7.419
			c-0.322,3.5,1.533,6.839,4.675,8.414c9.171,5.061,16.722,12.613,21.783,21.783c1.901,3.798,6.304,5.621,10.333,4.279
			c33.374-11.621,61.989-33.917,81.417-63.437c0.797-1.326,1.218-2.844,1.217-4.392c0-20.025-17.567-38.167-19.567-40.166
			c-1.939-1.941-4.693-2.831-7.401-2.391C424.038,232.435,421.707,234.15,420.481,236.604L420.481,236.604z M436.498,272.237
			c-16.14,23.008-38.514,40.928-64.492,51.654c-3.227-4.692-6.963-9.011-11.142-12.879c27.684-11.544,51.454-30.822,68.467-55.525
			C432.943,260.464,435.392,266.188,436.498,272.237L436.498,272.237z"/>
		<path d="M155.731,158.329c0.433,1.034,1.039,1.987,1.792,2.817c3.365,3.3,8.752,3.3,12.117,0c0.753-0.83,1.359-1.783,1.792-2.817
			c0.437-1.026,0.669-2.127,0.683-3.242c-0.013-0.573-0.071-1.145-0.175-1.708c-0.09-0.536-0.261-1.054-0.508-1.538
			c-0.189-0.542-0.446-1.057-0.767-1.533c-0.341-0.429-0.683-0.854-1.025-1.279c-3.421-3.158-8.695-3.158-12.117,0
			c-0.368,0.405-0.71,0.832-1.025,1.279c-0.324,0.474-0.582,0.99-0.767,1.533c-0.246,0.485-0.42,1.003-0.517,1.538
			c-0.097,0.565-0.153,1.136-0.167,1.708C155.017,156.206,155.251,157.317,155.731,158.329z"/>
		<path d="M146.514,146.554c0.573-0.02,1.143-0.077,1.708-0.171c0.533-0.096,1.05-0.269,1.533-0.512
			c0.543-0.188,1.059-0.447,1.533-0.771c0.449-0.313,0.877-0.654,1.284-1.021c1.557-1.637,2.44-3.8,2.475-6.059
			c-0.013-1.116-0.245-2.219-0.683-3.246c-0.433-1.033-1.039-1.984-1.792-2.813c-3.421-3.158-8.695-3.158-12.117,0
			c-0.753,0.829-1.359,1.78-1.792,2.813c-0.438,1.027-0.67,2.13-0.683,3.246c-0.022,2.27,0.87,4.453,2.475,6.058
			C142.061,145.684,144.244,146.576,146.514,146.554z"/>
		<path d="M208.722,144.079c1.627,1.572,3.796,2.459,6.059,2.475c2.259-0.035,4.421-0.918,6.059-2.475
			c0.753-0.83,1.359-1.783,1.792-2.817c0.911-2.067,0.911-4.421,0-6.487c-0.433-1.033-1.039-1.984-1.792-2.813
			c-3.421-3.158-8.695-3.158-12.117,0c-0.753,0.829-1.359,1.78-1.792,2.813c-0.911,2.067-0.911,4.421,0,6.487
			C207.363,142.296,207.969,143.249,208.722,144.079z"/>
		<path d="M129.448,163.62c3.873,0,7.263-2.603,8.263-6.345c1-3.742-0.639-7.688-3.995-9.621c-3.356-1.933-7.592-1.369-10.327,1.374
			c-0.772,0.814-1.38,1.769-1.792,2.813c-0.438,1.027-0.67,2.13-0.683,3.246c0.03,2.26,0.914,4.424,2.475,6.059
			C125.016,162.718,127.185,163.604,129.448,163.62z"/>
		<path d="M191.656,161.146c0.403,0.367,0.829,0.708,1.275,1.021c0.477,0.324,0.996,0.583,1.542,0.771
			c0.483,0.245,1,0.418,1.533,0.513c0.565,0.098,1.136,0.155,1.709,0.171c2.259-0.035,4.421-0.918,6.059-2.475
			c0.771-0.816,1.379-1.772,1.792-2.817c0.437-1.026,0.669-2.127,0.683-3.242c-0.013-0.573-0.071-1.145-0.175-1.708
			c-0.09-0.536-0.261-1.054-0.508-1.538c-0.189-0.542-0.446-1.057-0.767-1.533c-0.341-0.429-0.683-0.854-1.025-1.279
			c-2.044-2.014-4.956-2.878-7.767-2.304c-0.534,0.091-1.051,0.263-1.533,0.508c-0.546,0.187-1.064,0.447-1.542,0.771l-1.275,1.025
			c-0.341,0.425-0.683,0.85-1.025,1.279c-0.324,0.474-0.582,0.99-0.767,1.533c-0.246,0.485-0.42,1.003-0.517,1.538
			c-0.097,0.565-0.152,1.136-0.166,1.709c0.014,1.115,0.246,2.216,0.683,3.242C190.277,159.373,190.885,160.329,191.656,161.146z"/>
		<path d="M223.998,158.329c0.433,1.034,1.039,1.987,1.792,2.817c1.627,1.572,3.796,2.459,6.058,2.475
			c2.27,0.022,4.453-0.87,6.058-2.475c1.605-1.605,2.497-3.788,2.475-6.058c-0.013-1.116-0.245-2.219-0.683-3.246
			c-0.433-1.033-1.039-1.984-1.792-2.813c-3.421-3.158-8.695-3.158-12.117,0c-0.753,0.829-1.359,1.78-1.792,2.813
			C223.086,153.908,223.086,156.262,223.998,158.329L223.998,158.329z"/>
		<path d="M154.364,168.908c-0.433-1.033-1.039-1.984-1.792-2.813c-3.421-3.158-8.695-3.158-12.117,0
			c-0.753,0.829-1.359,1.78-1.792,2.813c-0.438,1.027-0.67,2.13-0.683,3.246c-0.022,2.27,0.87,4.453,2.475,6.058
			c1.605,1.605,3.788,2.497,6.058,2.475c0.573-0.02,1.143-0.077,1.708-0.171c0.533-0.096,1.05-0.269,1.533-0.513
			c0.543-0.188,1.059-0.447,1.533-0.771c0.449-0.313,0.877-0.654,1.284-1.021c1.557-1.637,2.44-3.8,2.475-6.059
			C155.034,171.037,154.802,169.935,154.364,168.908z"/>
		<path d="M169.64,183.162c-2.896-2.953-7.476-3.444-10.932-1.171c-3.455,2.272-4.82,6.672-3.256,10.501
			c1.564,3.829,5.618,6.015,9.677,5.219c4.058-0.797,6.985-4.354,6.986-8.49C172.086,186.96,171.201,184.795,169.64,183.162z"/>
		<path d="M203.773,183.162c-2.072-1.966-4.958-2.822-7.767-2.304c-0.534,0.091-1.051,0.263-1.533,0.508
			c-0.546,0.187-1.064,0.447-1.542,0.771l-1.276,1.025c-3.3,3.365-3.3,8.752,0,12.117c0.403,0.367,0.829,0.708,1.275,1.021
			c0.477,0.324,0.996,0.583,1.542,0.771c0.483,0.245,1,0.418,1.533,0.513c0.565,0.098,1.136,0.155,1.709,0.171
			c3.45-0.014,6.556-2.096,7.879-5.282C206.917,189.285,206.199,185.615,203.773,183.162z"/>
		<path d="M186.706,200.228c-0.418-0.389-0.876-0.732-1.367-1.025c-0.435-0.339-0.926-0.6-1.45-0.771
			c-0.51-0.258-1.059-0.43-1.625-0.508c-2.783-0.561-5.661,0.303-7.675,2.304c-0.753,0.829-1.359,1.78-1.792,2.813
			c-0.481,1.013-0.715,2.125-0.683,3.246c0.014,0.571,0.07,1.141,0.167,1.704c0.096,0.535,0.27,1.053,0.517,1.538
			c0.184,0.545,0.442,1.062,0.767,1.538c0.317,0.446,0.659,0.873,1.025,1.279c1.636,1.558,3.8,2.441,6.059,2.475
			c0.542-0.016,1.083-0.073,1.617-0.171c0.566-0.082,1.115-0.255,1.625-0.512c0.524-0.171,1.015-0.432,1.45-0.771
			c0.508-0.337,0.942-0.679,1.367-1.021c0.341-0.429,0.683-0.854,1.025-1.279c0.321-0.477,0.579-0.994,0.767-1.538
			c0.247-0.483,0.419-1.002,0.508-1.538c0.104-0.563,0.162-1.132,0.175-1.704c-0.013-1.116-0.245-2.219-0.683-3.246
			C188.065,202.008,187.459,201.057,186.706,200.228z"/>
		<path d="M172.798,175.395c0.433,1.034,1.039,1.987,1.792,2.817c1.636,1.558,3.799,2.441,6.058,2.475
			c0.542-0.016,1.083-0.073,1.617-0.171c0.566-0.082,1.115-0.255,1.625-0.513c0.524-0.171,1.015-0.432,1.45-0.771
			c0.508-0.337,0.942-0.679,1.367-1.021c0.753-0.83,1.359-1.783,1.792-2.817c0.911-2.067,0.911-4.421,0-6.487
			c-0.433-1.033-1.039-1.984-1.792-2.813c-0.425-0.341-0.858-0.683-1.367-1.025c-0.435-0.339-0.926-0.6-1.45-0.771
			c-0.51-0.258-1.059-0.43-1.625-0.508c-2.783-0.561-5.661,0.303-7.675,2.304c-0.753,0.829-1.359,1.78-1.792,2.813
			C171.886,170.974,171.886,173.329,172.798,175.395L172.798,175.395z"/>
		<path d="M206.931,175.395c0.167,0.525,0.427,1.016,0.767,1.45c0.341,0.512,0.683,0.937,1.025,1.367
			c1.627,1.572,3.796,2.459,6.058,2.475c2.259-0.035,4.421-0.918,6.059-2.475c0.341-0.429,0.683-0.854,1.025-1.367
			c0.337-0.436,0.596-0.926,0.767-1.45c0.247-0.483,0.419-1.002,0.508-1.538c0.099-0.563,0.158-1.133,0.175-1.704
			c-0.033-2.259-0.917-4.422-2.475-6.059c-0.425-0.341-0.858-0.683-1.367-1.025c-0.435-0.339-0.926-0.6-1.45-0.771
			c-0.51-0.258-1.059-0.43-1.625-0.508c-1.093-0.258-2.232-0.258-3.325,0c-0.534,0.091-1.051,0.263-1.533,0.508
			c-0.546,0.187-1.064,0.447-1.542,0.771l-1.276,1.025c-1.561,1.634-2.445,3.799-2.475,6.059c0.018,0.571,0.074,1.14,0.167,1.704
			C206.511,174.393,206.685,174.911,206.931,175.395z"/>
		<path d="M311.122,161.146c0.403,0.367,0.829,0.708,1.275,1.021c0.477,0.324,0.996,0.583,1.542,0.771
			c0.483,0.245,1,0.418,1.533,0.513c0.565,0.094,1.136,0.151,1.709,0.171c2.259-0.035,4.421-0.918,6.059-2.475
			c0.771-0.816,1.379-1.772,1.792-2.817c0.437-1.026,0.669-2.127,0.683-3.242c-0.018-2.262-0.904-4.431-2.475-6.059
			c-2.044-2.014-4.956-2.878-7.767-2.304c-0.534,0.091-1.051,0.263-1.533,0.508c-0.546,0.187-1.064,0.447-1.542,0.771l-1.276,1.025
			c-0.368,0.405-0.71,0.832-1.025,1.279c-0.324,0.474-0.582,0.99-0.767,1.533c-0.246,0.485-0.42,1.003-0.517,1.538
			c-0.093,0.565-0.148,1.136-0.166,1.709C308.678,157.346,309.562,159.511,311.122,161.146z"/>
		<path d="M292.264,141.262c0.184,0.545,0.442,1.062,0.767,1.538c0.341,0.425,0.683,0.85,1.025,1.279
			c0.425,0.341,0.85,0.683,1.275,1.021c0.477,0.324,0.996,0.583,1.542,0.771c0.483,0.245,1,0.418,1.533,0.513
			c0.565,0.098,1.136,0.155,1.708,0.171c0.573-0.02,1.143-0.077,1.708-0.171c0.533-0.096,1.05-0.269,1.533-0.512
			c0.543-0.188,1.059-0.447,1.533-0.771c0.425-0.337,0.858-0.679,1.283-1.021c0.341-0.429,0.683-0.854,1.025-1.279
			c0.321-0.477,0.579-0.994,0.767-1.538c0.247-0.483,0.419-1.002,0.508-1.538c0.099-0.563,0.158-1.133,0.175-1.704
			c-0.013-0.573-0.071-1.145-0.175-1.708c-0.089-0.536-0.261-1.054-0.508-1.538c-0.189-0.542-0.446-1.057-0.767-1.533
			c-0.341-0.429-0.683-0.854-1.025-1.279c-2.044-2.014-4.956-2.878-7.767-2.304c-0.534,0.091-1.051,0.263-1.533,0.508
			c-0.546,0.187-1.064,0.447-1.542,0.771l-1.275,1.025c-0.341,0.425-0.683,0.85-1.025,1.279c-0.324,0.474-0.582,0.99-0.767,1.533
			c-0.246,0.485-0.42,1.003-0.517,1.538c-0.097,0.565-0.152,1.136-0.166,1.709c0.018,0.571,0.074,1.14,0.167,1.704
			C291.844,140.259,292.018,140.777,292.264,141.262z"/>
		<path d="M362.322,144.079c0.817,0.771,1.773,1.379,2.817,1.792c1.026,0.437,2.127,0.669,3.242,0.683
			c0.542-0.016,1.083-0.073,1.617-0.171c0.566-0.082,1.115-0.255,1.625-0.512c0.543-0.188,1.059-0.447,1.533-0.771
			c0.449-0.313,0.878-0.654,1.284-1.021c0.771-0.816,1.379-1.772,1.792-2.817c0.437-1.026,0.669-2.127,0.683-3.242
			c-0.033-2.259-0.917-4.422-2.475-6.059c-0.425-0.341-0.858-0.683-1.283-1.025c-0.475-0.324-0.99-0.583-1.533-0.771
			c-0.51-0.258-1.059-0.43-1.625-0.508c-2.778-0.482-5.621,0.372-7.675,2.304c-0.368,0.405-0.71,0.832-1.025,1.279
			c-0.324,0.474-0.582,0.99-0.767,1.533c-0.259,0.51-0.434,1.059-0.517,1.625c-0.097,0.535-0.153,1.077-0.167,1.621
			c0.014,1.115,0.246,2.216,0.683,3.242C360.944,142.306,361.551,143.262,362.322,144.079z"/>
		<path d="M276.989,161.146c1.636,1.558,3.8,2.441,6.059,2.475c1.115-0.014,2.216-0.246,3.242-0.683
			c1.033-0.435,1.985-1.041,2.817-1.792c0.753-0.83,1.359-1.783,1.792-2.817c0.437-1.025,0.669-2.127,0.683-3.241
			c-0.033-2.259-0.917-4.422-2.475-6.059c-0.831-0.754-1.783-1.361-2.817-1.796c-3.178-1.339-6.849-0.63-9.301,1.796
			c-1.561,1.634-2.445,3.799-2.475,6.059c0.014,1.115,0.246,2.216,0.683,3.242C275.63,159.363,276.236,160.315,276.989,161.146z"/>
		<path d="M345.256,161.146c0.425,0.341,0.85,0.683,1.275,1.021c0.477,0.324,0.996,0.583,1.542,0.771
			c0.483,0.245,1,0.418,1.533,0.513c0.565,0.098,1.136,0.155,1.709,0.171c1.115-0.014,2.216-0.246,3.242-0.683
			c1.033-0.435,1.985-1.041,2.817-1.792c0.789-0.802,1.399-1.762,1.792-2.817c0.437-1.025,0.669-2.127,0.683-3.241
			c-0.018-2.262-0.904-4.431-2.475-6.059c-0.831-0.754-1.783-1.361-2.817-1.796c-1.557-0.679-3.288-0.857-4.95-0.508
			c-0.534,0.091-1.051,0.263-1.533,0.508c-0.546,0.187-1.064,0.447-1.542,0.771l-1.275,1.025c-0.368,0.405-0.71,0.832-1.025,1.279
			c-0.324,0.474-0.582,0.99-0.767,1.533c-0.246,0.485-0.42,1.003-0.517,1.538c-0.093,0.565-0.148,1.136-0.166,1.709
			c-0.031,1.119,0.203,2.23,0.683,3.242C343.877,159.373,344.485,160.329,345.256,161.146z"/>
		<path d="M377.081,156.791c0.096,0.535,0.27,1.053,0.517,1.538c0.184,0.545,0.442,1.062,0.767,1.538
			c0.341,0.425,0.683,0.85,1.025,1.279c0.817,0.771,1.773,1.379,2.817,1.792c1.012,0.478,2.123,0.712,3.242,0.683
			c0.573-0.016,1.144-0.073,1.708-0.171c0.533-0.096,1.05-0.269,1.533-0.513c0.543-0.188,1.059-0.447,1.533-0.771
			c0.425-0.337,0.858-0.679,1.283-1.021c0.341-0.429,0.683-0.854,1.025-1.279c0.321-0.477,0.579-0.994,0.767-1.538
			c0.247-0.483,0.419-1.002,0.508-1.538c0.099-0.563,0.158-1.133,0.175-1.704c-0.033-2.259-0.917-4.422-2.475-6.059
			c-0.425-0.341-0.858-0.683-1.283-1.025c-0.475-0.324-0.99-0.583-1.533-0.771c-0.483-0.244-1-0.415-1.534-0.508
			c-1.663-0.349-3.393-0.171-4.95,0.508c-1.045,0.413-2.001,1.023-2.817,1.796c-1.561,1.634-2.445,3.799-2.475,6.059
			C376.933,155.658,376.988,156.227,377.081,156.791z"/>
		<path d="M294.056,178.212c0.425,0.341,0.85,0.683,1.275,1.021c0.477,0.324,0.996,0.583,1.542,0.771
			c0.483,0.245,1,0.418,1.533,0.513c0.565,0.098,1.136,0.155,1.709,0.171c0.573-0.02,1.143-0.077,1.708-0.171
			c0.533-0.096,1.05-0.269,1.533-0.513c0.543-0.188,1.059-0.447,1.533-0.771c0.425-0.337,0.858-0.679,1.283-1.021
			c0.771-0.816,1.379-1.772,1.792-2.817c0.911-2.067,0.911-4.421,0-6.487c-0.433-1.033-1.039-1.984-1.792-2.813
			c-0.425-0.341-0.858-0.683-1.283-1.025c-0.475-0.324-0.99-0.583-1.533-0.771c-0.483-0.244-1-0.416-1.533-0.509
			c-1.124-0.258-2.292-0.258-3.417,0c-0.534,0.091-1.051,0.263-1.533,0.508c-0.546,0.187-1.064,0.447-1.542,0.771l-1.275,1.025
			c-0.753,0.829-1.359,1.78-1.792,2.813c-0.911,2.067-0.911,4.421,0,6.487C292.676,176.439,293.285,177.396,294.056,178.212z"/>
		<path d="M323.24,183.162c-2.044-2.014-4.956-2.878-7.767-2.304c-0.534,0.091-1.051,0.263-1.533,0.508
			c-0.546,0.187-1.064,0.447-1.542,0.771l-1.276,1.025c-0.388,0.417-0.732,0.874-1.025,1.363c-0.338,0.435-0.598,0.926-0.767,1.45
			c-0.259,0.51-0.434,1.059-0.517,1.625c-0.097,0.535-0.152,1.077-0.166,1.621c-0.031,1.119,0.203,2.23,0.683,3.242
			c0.433,1.034,1.039,1.987,1.792,2.817c0.425,0.341,0.85,0.683,1.275,1.021c0.477,0.324,0.996,0.583,1.542,0.771
			c0.483,0.245,1,0.418,1.533,0.513c0.565,0.094,1.136,0.151,1.708,0.171c2.259-0.035,4.421-0.918,6.059-2.475
			c0.771-0.816,1.379-1.772,1.792-2.817c0.437-1.026,0.669-2.127,0.683-3.242C325.697,186.958,324.811,184.789,323.24,183.162z"/>
		<path d="M354.556,181.366c-1.557-0.679-3.287-0.857-4.95-0.508c-0.534,0.091-1.051,0.263-1.533,0.508
			c-0.546,0.187-1.064,0.447-1.542,0.771l-1.275,1.025c-0.368,0.405-0.71,0.832-1.025,1.279c-0.324,0.474-0.582,0.99-0.767,1.533
			c-0.246,0.485-0.42,1.003-0.517,1.538c-0.093,0.565-0.148,1.136-0.166,1.709c-0.031,1.119,0.203,2.23,0.683,3.242
			c0.413,1.044,1.021,2,1.792,2.817c0.403,0.367,0.829,0.708,1.275,1.021c0.477,0.324,0.996,0.583,1.542,0.771
			c0.483,0.245,1,0.418,1.533,0.513c0.564,0.098,1.135,0.155,1.708,0.171c1.115-0.014,2.216-0.246,3.242-0.683
			c1.033-0.435,1.985-1.041,2.817-1.792c0.789-0.802,1.399-1.762,1.792-2.817c0.437-1.025,0.669-2.127,0.683-3.241
			c-0.018-2.262-0.904-4.431-2.475-6.059C356.542,182.408,355.59,181.801,354.556,181.366z"/>
		<path d="M340.306,200.228c-0.406-0.368-0.835-0.71-1.283-1.025c-0.475-0.324-0.99-0.583-1.533-0.771
			c-0.51-0.258-1.059-0.43-1.625-0.508c-1.093-0.258-2.232-0.258-3.325,0c-0.534,0.091-1.051,0.263-1.533,0.508
			c-0.546,0.187-1.064,0.447-1.542,0.771c-0.446,0.315-0.872,0.657-1.276,1.025c-0.772,0.814-1.38,1.769-1.792,2.813
			c-0.481,1.013-0.715,2.125-0.683,3.246c0.03,2.26,0.914,4.424,2.475,6.059c0.425,0.341,0.85,0.683,1.275,1.021
			c0.477,0.324,0.996,0.583,1.542,0.771c0.483,0.245,1,0.418,1.533,0.513c0.565,0.098,1.136,0.155,1.709,0.17
			c0.542-0.016,1.083-0.073,1.617-0.171c0.566-0.082,1.115-0.255,1.625-0.512c0.543-0.188,1.059-0.447,1.533-0.771
			c0.425-0.337,0.858-0.679,1.283-1.021c1.557-1.637,2.441-3.8,2.475-6.059c-0.013-1.116-0.245-2.219-0.683-3.246
			C341.686,201.997,341.078,201.043,340.306,200.228z"/>
		<path d="M326.398,175.395c0.433,1.034,1.039,1.987,1.792,2.817c0.425,0.341,0.85,0.683,1.275,1.021
			c0.477,0.324,0.996,0.583,1.542,0.771c0.483,0.245,1,0.418,1.533,0.513c0.564,0.098,1.135,0.155,1.708,0.171
			c0.542-0.016,1.083-0.073,1.617-0.171c0.566-0.082,1.115-0.255,1.625-0.513c0.543-0.188,1.059-0.447,1.533-0.771
			c0.425-0.337,0.858-0.679,1.283-1.021c0.753-0.83,1.359-1.783,1.792-2.817c0.911-2.067,0.911-4.421,0-6.487
			c-0.433-1.033-1.039-1.984-1.792-2.813c-3.421-3.158-8.695-3.158-12.117,0c-0.753,0.829-1.359,1.78-1.792,2.813
			C325.486,170.974,325.486,173.329,326.398,175.395L326.398,175.395z"/>
		<path d="M374.44,166.095c-0.406-0.368-0.835-0.71-1.283-1.025c-0.475-0.324-0.99-0.583-1.533-0.771
			c-0.51-0.258-1.059-0.43-1.625-0.508c-2.778-0.482-5.621,0.372-7.675,2.304c-1.561,1.634-2.446,3.799-2.475,6.059
			c0.018,0.571,0.074,1.14,0.167,1.704c0.096,0.535,0.27,1.053,0.517,1.538c0.184,0.545,0.442,1.062,0.767,1.538
			c0.317,0.446,0.659,0.873,1.025,1.279c0.803,0.788,1.762,1.399,2.817,1.792c1.012,0.478,2.123,0.712,3.242,0.683
			c0.542-0.016,1.083-0.073,1.617-0.171c0.566-0.082,1.115-0.255,1.625-0.513c0.543-0.188,1.059-0.447,1.533-0.771
			c0.449-0.313,0.878-0.654,1.284-1.021c0.341-0.429,0.683-0.854,1.025-1.279c0.321-0.477,0.579-0.994,0.767-1.538
			c0.247-0.483,0.419-1.002,0.508-1.538c0.099-0.563,0.158-1.133,0.175-1.704c-0.013-1.116-0.245-2.219-0.683-3.246
			C375.82,167.864,375.211,166.909,374.44,166.095z"/>
	</g>
</g>
<g>
</g>
<g>
</g>
<g>
</g>
<g>
</g>
<g>
</g>
<g>
</g>
<g>
</g>
<g>
</g>
<g>
</g>
<g>
</g>
<g>
</g>
<g>
</g>
<g>
</g>
<g>
</g>
<g>
</g>
</svg>
