<?xml version="1.0" encoding="iso-8859-1"?>
<!-- Generator: Adobe Illustrator 19.0.0, SVG Export Plug-In . SVG Version: 6.00 Build 0)  -->
<svg version="1.1" id="Capa_1" xmlns="http://www.w3.org/2000/svg" xmlns:xlink="http://www.w3.org/1999/xlink" x="0px" y="0px"
	 viewBox="0 0 512.009 512.009" style="enable-background:new 0 0 512.009 512.009;" xml:space="preserve">
<g transform="translate(-1 -1)">
	<g transform="translate(1 2)">
		<path style="fill:#607D8B;" d="M355.849,398.802c-7.509,0.853-15.189,1.707-23.04,2.389c-5.632,0.427-11.264,0.853-17.067,1.195
			c-5.632,0.427-11.264,0.768-17.067,1.025c-5.632,0.256-11.349,0.427-17.067,0.597c-5.632,0.171-11.349,0.256-17.067,0.256
			c-2.816,0.085-5.632,0.085-8.448,0.085c-2.901,0-5.803,0-8.619-0.085c-5.717,0-11.435-0.085-17.067-0.256
			c-5.803-0.171-11.52-0.341-17.067-0.597c-5.803-0.256-11.52-0.597-17.067-1.025c-5.803-0.341-11.435-0.768-17.067-1.195
			c-7.851-0.683-15.531-1.536-23.04-2.389c3.732-16.705,11.662-32.183,23.04-44.971c2.647-3.088,5.498-5.996,8.533-8.704
			c2.708-2.468,5.557-4.776,8.533-6.912c5.337-3.873,11.055-7.19,17.067-9.899c2.731-1.28,5.632-2.475,8.533-3.499
			c2.816-0.939,5.632-1.877,8.533-2.56c5.595-1.457,11.305-2.428,17.067-2.901c2.816-0.256,5.632-0.341,8.533-0.341
			s5.717,0.085,8.533,0.341c5.762,0.474,11.472,1.444,17.067,2.901c2.901,0.683,5.717,1.621,8.533,2.56
			c2.901,1.024,5.803,2.219,8.533,3.499c6.011,2.709,11.73,6.026,17.067,9.899c2.976,2.136,5.826,4.444,8.533,6.912
			c3.035,2.708,5.886,5.616,8.533,8.704C344.188,366.619,352.118,382.096,355.849,398.802z"/>
		<path id="SVGCleanerId_0" style="fill:#F4F4F4;" d="M197.136,126.693h-22.312c-2.901,0.024-5.614-1.436-7.193-3.87
			c-1.579-2.434-1.806-5.506-0.601-8.145c11.168-21.85,28.98-39.592,50.874-50.674c2.647-1.393,5.831-1.298,8.391,0.251
			c2.559,1.549,4.121,4.325,4.114,7.317v15.466c0.025,3.152-1.716,6.054-4.51,7.514c-10.218,4.842-17.707,14.034-20.385,25.019
			C204.783,123.643,201.272,126.627,197.136,126.693z"/>
		<path style="fill:#607D8B;" d="M503.476,404.348c0.205,11.685-2.965,23.181-9.131,33.109c-0.256,0.341-0.512,0.768-0.768,1.109
			c-0.545,0.857-1.174,1.657-1.877,2.389c-0.727,0.942-1.526,1.826-2.389,2.645c-0.82,0.889-1.704,1.716-2.645,2.475
			c-30.037,25.173-121.941,43.605-230.571,43.605c-5.717,0-11.435-0.085-17.067-0.171c-101.205-1.792-185.173-19.627-213.589-43.435
			c-0.853-0.768-1.792-1.536-2.645-2.389l-0.853-0.853c-0.277-0.295-0.533-0.609-0.768-0.939c-0.171-0.085-0.256-0.256-0.341-0.341
			c-0.427-0.512-0.853-1.024-1.195-1.451c-7.476-10.401-11.369-22.949-11.093-35.755c-0.166-11.692,3.033-23.185,9.216-33.109
			c0.577-0.916,1.203-1.799,1.877-2.645c0.235-0.33,0.491-0.643,0.768-0.939c0.696-0.863,1.437-1.689,2.219-2.475
			c0.855-0.941,1.798-1.798,2.816-2.56h461.227c0.962,0.735,1.848,1.564,2.645,2.475c0.861,0.821,1.66,1.705,2.389,2.645
			c0.614,0.632,1.131,1.351,1.536,2.133c0.171,0.085,0.171,0.171,0.341,0.256c0.256,0.341,0.512,0.768,0.768,1.109
			C500.511,381.167,503.681,392.663,503.476,404.348z"/>
		<path style="fill:#7F8C8D;" d="M469.343,404.348c0.205,11.685-2.965,23.181-9.131,33.109c-0.256,0.341-0.512,0.768-0.768,1.109
			c-0.545,0.857-1.174,1.657-1.877,2.389c-0.727,0.942-1.526,1.826-2.389,2.645c-0.82,0.889-1.704,1.716-2.645,2.475
			c-28.416,23.808-112.384,41.643-213.504,43.435c-101.205-1.792-185.173-19.627-213.589-43.435
			c-0.853-0.768-1.792-1.536-2.645-2.389l-0.853-0.853c-0.277-0.295-0.533-0.609-0.768-0.939c-0.171-0.085-0.256-0.256-0.341-0.341
			c-0.427-0.512-0.853-1.024-1.195-1.451c-7.476-10.401-11.369-22.949-11.093-35.755c-0.166-11.692,3.033-23.185,9.216-33.109
			c0.577-0.916,1.203-1.799,1.877-2.645c0.235-0.33,0.491-0.643,0.768-0.939c0.696-0.863,1.437-1.689,2.219-2.475
			c0.855-0.941,1.798-1.798,2.816-2.56h427.093c0.962,0.735,1.848,1.564,2.645,2.475c0.861,0.821,1.66,1.705,2.389,2.645
			c0.614,0.632,1.131,1.351,1.536,2.133c0.171,0.085,0.171,0.171,0.341,0.256c0.256,0.341,0.512,0.768,0.768,1.109
			C466.378,381.167,469.548,392.663,469.343,404.348z"/>
		<path style="fill:#00838F;" d="M497.076,380.626c0,8.448-6.485,16.384-18.347,23.723c-11.843,6.82-24.482,12.151-37.632,15.872
			c-44.203,13.397-110.677,22.016-185.003,22.016c-3.925,0-7.936,0-11.776-0.085h-2.048c-68.779-1.024-129.792-9.387-171.264-21.931
			c-34.987-10.752-55.979-24.491-55.979-39.595c0.044-3.318,0.988-6.563,2.731-9.387c0.577-0.916,1.203-1.799,1.877-2.645
			c0.235-0.33,0.491-0.643,0.768-0.939c0.696-0.863,1.437-1.689,2.219-2.475c0.855-0.941,1.798-1.798,2.816-2.56
			c8.002-6.19,16.891-11.138,26.368-14.677l382.805-0.085h25.6c9.501,3.581,18.417,8.557,26.453,14.763
			c0.962,0.735,1.848,1.564,2.645,2.475c0.861,0.821,1.66,1.705,2.389,2.645c0.614,0.632,1.131,1.351,1.536,2.133
			c0.171,0.085,0.171,0.171,0.341,0.256c0.256,0.341,0.512,0.768,0.768,1.109C496.088,374.063,497.032,377.307,497.076,380.626z"/>
		<path style="fill:#00BCD4;" d="M471.476,380.626c0,8.448-6.485,16.384-18.347,23.723c-11.843,6.82-24.482,12.151-37.632,15.872
			c-41.472,12.544-102.485,20.907-171.179,21.931h-2.048c-68.779-1.024-129.792-9.387-171.264-21.931
			c-34.987-10.752-55.979-24.491-55.979-39.595c0.044-3.318,0.988-6.563,2.731-9.387c0.577-0.916,1.203-1.799,1.877-2.645
			c0.235-0.33,0.491-0.643,0.768-0.939c0.696-0.863,1.437-1.689,2.219-2.475c0.855-0.941,1.798-1.798,2.816-2.56
			c8.002-6.19,16.891-11.138,26.368-14.677l382.805-0.085c9.501,3.581,18.417,8.557,26.453,14.763
			c0.962,0.735,1.848,1.564,2.645,2.475c0.861,0.821,1.66,1.705,2.389,2.645c0.614,0.632,1.131,1.351,1.536,2.133
			c0.171,0.085,0.171,0.171,0.341,0.256c0.256,0.341,0.512,0.768,0.768,1.109C470.488,374.063,471.432,377.307,471.476,380.626z"/>
		<path style="fill:#00838F;" d="M460.809,375.335c-5.973,2.389-12.544,4.779-19.712,6.912
			c-44.203,13.483-110.677,22.101-185.003,22.101c-3.925,0-7.936,0-11.776-0.085h-2.048c-68.779-1.024-129.792-9.387-171.264-22.016
			c-7.253-2.219-13.824-4.523-19.797-6.997c0.085-9.387,0.256-18.432,0.597-27.307c0.512-13.568,1.365-26.539,2.56-38.997
			C71.433,128.722,154.036,58.578,208.052,31.698c30.181-15.133,65.734-15.133,95.915,0
			c54.016,26.88,136.619,97.024,153.685,277.248c1.195,12.458,2.048,25.429,2.56,38.912
			C460.553,356.732,460.724,365.948,460.809,375.335z"/>
		<path style="fill:#00BCD4;" d="M435.209,375.335c-5.973,2.389-12.544,4.779-19.712,6.912
			c-41.472,12.629-102.485,20.992-171.179,22.016h-2.048c-68.779-1.024-129.792-9.387-171.264-22.016
			c-7.253-2.219-13.824-4.523-19.797-6.997c0.085-9.387,0.256-18.432,0.597-27.307c0.512-13.568,1.365-26.539,2.56-38.997
			C71.433,128.722,154.036,58.578,208.052,31.698c11.023-5.524,22.917-9.103,35.157-10.581c12.241,1.478,24.134,5.058,35.157,10.581
			c54.016,26.88,136.619,97.024,153.685,277.248c1.195,12.458,2.048,25.429,2.56,38.912
			C434.953,356.732,435.124,365.948,435.209,375.335z"/>
		<g>
			<path id="SVGCleanerId_0_1_" style="fill:#F4F4F4;" d="M197.136,126.693h-22.312c-2.901,0.024-5.614-1.436-7.193-3.87
				c-1.579-2.434-1.806-5.506-0.601-8.145c11.168-21.85,28.98-39.592,50.874-50.674c2.647-1.393,5.831-1.298,8.391,0.251
				c2.559,1.549,4.121,4.325,4.114,7.317v15.466c0.025,3.152-1.716,6.054-4.51,7.514c-10.218,4.842-17.707,14.034-20.385,25.019
				C204.783,123.643,201.272,126.627,197.136,126.693z"/>
		</g>
		<path style="fill:#E91E63;" d="M147.92,293.415c-29.802,0-54.044-26.795-54.044-59.733s24.243-59.733,54.044-59.733h216.178
			c29.802,0,54.044,26.795,54.044,59.733s-24.243,59.733-54.044,59.733H147.92z"/>
		<g>
			<path style="fill:#FEC108;" d="M153.609,199.548h204.8c18.851,0,34.133,15.282,34.133,34.133l0,0
				c0,18.851-15.282,34.133-34.133,34.133h-204.8c-18.851,0-34.133-15.282-34.133-34.133l0,0
				C119.476,214.83,134.758,199.548,153.609,199.548z"/>
			<path style="fill:#FFEB3A;" d="M151.408,199.548h175.07c17.635,0,31.932,14.296,31.932,31.932v4.403
				c0,17.635-14.296,31.932-31.932,31.932h-175.07c-17.635,0-31.932-14.296-31.932-31.932v-4.403
				C119.476,213.845,133.772,199.548,151.408,199.548z"/>
			<g>
				<path style="fill:#607D8B;" d="M358.409,242.215h-51.2c-4.713,0-8.533-3.821-8.533-8.533s3.821-8.533,8.533-8.533h51.2
					c4.713,0,8.533,3.82,8.533,8.533S363.122,242.215,358.409,242.215z"/>
				<path style="fill:#607D8B;" d="M204.809,242.215h-51.2c-4.713,0-8.533-3.821-8.533-8.533s3.821-8.533,8.533-8.533h51.2
					c4.713,0,8.533,3.82,8.533,8.533S209.522,242.215,204.809,242.215z"/>
			</g>
			<g>
				<path style="fill:#606060;" d="M196.276,338.215v64.171c-5.803-0.341-11.435-0.768-17.067-1.195v-47.36
					c2.647-3.088,5.498-5.996,8.533-8.704C190.45,342.659,193.3,340.351,196.276,338.215z"/>
				<path style="fill:#606060;" d="M230.409,322.258v81.749c-5.803-0.171-11.52-0.341-17.067-0.597v-75.093
					c2.731-1.28,5.632-2.475,8.533-3.499C224.692,323.879,227.508,322.94,230.409,322.258z"/>
				<path style="fill:#606060;" d="M264.543,319.356v84.907c-2.816,0.085-5.632,0.085-8.448,0.085c-2.901,0-5.803,0-8.619-0.085
					v-84.907c2.816-0.256,5.632-0.341,8.533-0.341S261.727,319.1,264.543,319.356z"/>
				<path style="fill:#606060;" d="M298.676,328.316v75.093c-5.632,0.256-11.349,0.427-17.067,0.597v-81.749
					c2.901,0.683,5.717,1.621,8.533,2.56C293.044,325.842,295.945,327.036,298.676,328.316z"/>
				<path style="fill:#606060;" d="M332.809,353.831v47.36c-5.632,0.427-11.264,0.853-17.067,1.195v-64.171
					c2.976,2.136,5.826,4.444,8.533,6.912C327.311,347.835,330.162,350.743,332.809,353.831z"/>
			</g>
		</g>
	</g>
	<g>
		<path d="M502.71,368.94c-0.083-0.146-0.508-0.788-0.608-0.929c-0.242-0.371-0.5-0.742-0.75-1.067
			c-0.114-0.146-0.229-0.289-0.35-0.427c-0.501-0.749-1.055-1.462-1.657-2.132l-0.035-0.045c-0.912-1.148-1.894-2.237-2.942-3.262
			l-0.031-0.029l-0.019-0.021c-0.62-0.663-1.268-1.188-1.89-1.755c-0.426-0.383-0.867-0.89-1.293-1.203l-0.013-0.01l-0.129-0.119
			l-0.097-0.049c-7.174-5.587-15.055-10.201-23.438-13.722c-0.523-11.62-1.261-23.074-2.315-34.028
			C449.393,122.703,360.301,51.698,308.768,26.057c-32.569-16.35-70.948-16.35-103.517,0
			C153.718,51.698,64.626,122.703,46.876,310.132c-1.054,10.979-1.793,22.457-2.316,34.104c-8.325,3.45-16.144,8.012-23.243,13.563
			l-0.116,0.095l-0.051,0.026c-0.335,0.263-0.649,0.545-0.976,0.82c-0.905,0.731-1.757,1.525-2.549,2.376l-0.002,0.002l-0.007,0.006
			l-0.007,0.008c-0.734,0.718-1.426,1.478-2.071,2.277c-0.173,0.203-0.343,0.356-0.522,0.573c-0.282,0.306-0.534,0.641-0.79,0.977
			c-0.079,0.101-0.191,0.216-0.26,0.306c-0.929,1.174-1.788,2.401-2.575,3.675c-0.343,0.586-0.603,1.182-0.901,1.775
			c-6.317,10.805-9.593,23.118-9.482,35.634c-0.243,14.747,4.313,29.173,12.983,41.104l1.15,1.421
			c0.092,0.112,0.183,0.225,0.283,0.333c0.133,0.158,0.283,0.313,0.442,0.471c0.608,0.733,1.275,1.425,1.992,2.142
			c0.992,0.958,1.967,1.813,2.942,2.667l0.013,0.008l0.12,0.109c32.542,27.283,127.433,45.612,236.125,45.612
			s203.583-18.329,236.258-45.729c1.044-0.878,2.037-1.814,2.975-2.804c1.034-0.994,2.006-2.052,2.908-3.167
			c0.797-0.835,1.503-1.751,2.108-2.733c0.466-0.599,0.895-1.227,1.283-1.879c0.109-0.166,0.182-0.365,0.29-0.532l0.052-0.08
			l0.009-0.033c13.314-22.581,13.427-50.585,0.295-73.273C503.053,369.637,502.911,369.285,502.71,368.94z M25.728,378.356
			c0.134-0.209,0.228-0.459,0.365-0.666c0.16-0.262,0.348-0.528,0.514-0.781c0.228-0.327,0.44-0.669,0.694-0.985l-0.03-0.024
			l0.08-0.122c0.227-0.221,0.44-0.456,0.638-0.703l0.004,0.003c0.56-0.684,1.06-1.253,1.941-2.152
			c0.507-0.534,1.054-1.029,1.637-1.479c0.125-0.098,0.206-0.174,0.347-0.282c3.71-2.97,7.718-5.548,11.958-7.694
			c-0.095,4.5-0.159,9.058-0.2,13.702l0.013,0.069c0.159,2.206,1.013,4.304,2.441,5.993c0.058,0.06,0.15,0.086,0.21,0.144
			c0.739,0.723,1.604,1.306,2.552,1.718l0.051,0.034c6.108,2.529,12.833,4.912,20.575,7.279
			c38.827,10.831,78.694,17.514,118.931,19.937c0.104,0.004,0.19,0.06,0.294,0.06l0.128-0.026
			c11.019,0.821,22.296,1.435,33.75,1.853c0.09,0.003,0.165,0.051,0.256,0.051c0.064,0,0.116-0.035,0.18-0.036
			c11.177,0.402,22.493,0.613,33.951,0.631l0.002,0.001l0.003-0.001l0.081,0.001c11.427,0,22.724-0.209,33.892-0.628
			c0.056,0.001,0.102,0.032,0.158,0.032c0.08,0,0.146-0.044,0.226-0.046c11.476-0.417,22.774-1.03,33.815-1.852l0.092,0.019
			c0.076,0,0.137-0.041,0.212-0.043c40.275-2.416,80.181-9.099,119.046-19.936c6.608-1.967,13.292-4.312,20.442-7.167l0.1-0.065
			c0.669-0.32,1.292-0.728,1.853-1.213c0.319-0.191,0.626-0.402,0.919-0.631c0.617-0.894,1.222-1.795,1.816-2.705
			c0.108-0.374,0.19-0.754,0.247-1.139c0.229-0.69,0.367-1.407,0.41-2.133c0-0.04,0.022-0.073,0.022-0.114
			c-0.041-4.66-0.108-9.27-0.201-13.829c4.375,2.232,8.512,4.902,12.348,7.969c0.544,0.446,1.052,0.934,1.519,1.46
			c0.153,0.168,0.324,0.323,0.494,0.479l0.106,0.104l0.134,0.139c0.482,0.482,0.931,0.996,1.341,1.541
			c0.067,0.083,0.525,0.546,0.592,0.629c0.346,0.67,0.781,1.289,1.293,1.841l0.021,0.031l0.186,0.297
			c0.855,1.424,1.325,3.046,1.365,4.706c0,4.912-5.083,10.758-14.308,16.463c-11.211,6.428-23.171,11.453-35.608,14.963
			c-45.392,13.758-111.925,21.65-182.533,21.65c-70.667,0-137.225-7.892-182.575-21.642c-36.833-11.312-49.958-23.654-49.958-31.433
			C24.6,381.131,25.001,379.665,25.728,378.356z M282.609,333.138v64.326c-5.648,0.154-11.345,0.241-17.067,0.292v-67.778
			C271.317,330.504,277.03,331.562,282.609,333.138z M316.743,351.161v44.709c-5.63,0.37-11.319,0.689-17.067,0.957v-56.949
			C305.767,342.992,311.491,346.777,316.743,351.161L316.743,351.161z M345.911,393.452c-3.99,0.408-8.024,0.789-12.102,1.142
			v-25.149C338.999,376.81,343.077,384.899,345.911,393.452L345.911,393.452z M248.476,397.755
			c-5.721-0.052-11.42-0.14-17.067-0.294v-64.322c5.58-1.575,11.293-2.632,17.067-3.159V397.755z M214.343,396.82
			c-5.749-0.266-11.438-0.585-17.067-0.958V351.16c5.251-4.385,10.975-8.17,17.067-11.285V396.82z M180.209,394.586
			c-4.076-0.353-8.108-0.734-12.098-1.143c2.834-8.548,6.91-16.633,12.098-23.994V394.586z M212.851,41.34
			c27.785-13.954,60.531-13.954,88.317,0c48.358,24.062,132.017,91.192,148.992,270.417c1.175,12.333,2.025,25.259,2.525,38.429
			c0.261,6.897,0.406,14.042,0.505,21.276c-4.629,1.727-9.146,3.306-13.58,4.624c-25,7.219-50.554,12.358-76.401,15.364
			c-5.78-19.402-16.816-36.826-31.888-50.343l-0.026-0.025c-0.102-0.092-0.192-0.193-0.294-0.284
			c-10.621-9.58-23.015-16.988-36.483-21.806l-0.118-0.049c-0.145-0.052-0.279-0.122-0.424-0.174
			c-11.824-4.134-24.26-6.247-36.786-6.251c-0.064-0.002-0.116-0.036-0.181-0.036s-0.119,0.035-0.184,0.037
			c-12.534,0.006-24.977,2.122-36.808,6.259c-0.14,0.049-0.269,0.118-0.409,0.168l-0.1,0.041
			c-13.458,4.813-25.843,12.213-36.458,21.783c-0.11,0.098-0.207,0.208-0.317,0.307l-0.042,0.04
			c-15.063,13.514-26.096,30.93-31.879,50.322c-25.814-3.004-51.336-8.137-76.304-15.348c-5.044-1.545-9.476-3.101-13.68-4.68
			c0.099-7.185,0.243-14.242,0.505-21.145c0.5-13.204,1.35-26.158,2.525-38.517C80.834,132.532,164.493,65.403,212.851,41.34z
			 M32.034,441.644c-0.758-0.663-1.517-1.325-2.217-2c-0.265-0.245-0.515-0.505-0.75-0.779c-0.29-0.403-0.616-0.778-0.975-1.121
			l-0.718-0.887c-6.303-8.904-9.564-19.603-9.298-30.509c0-0.569,0.097-1.122,0.114-1.69c14.99,12.286,32.53,21.075,51.345,25.727
			c46.925,14.225,115.283,22.383,187.558,22.383c72.217,0,140.55-8.158,187.517-22.396c13.844-3.932,27.148-9.564,39.608-16.767
			c4.18-2.547,8.076-5.534,11.62-8.911c0.014,0.559,0.105,1.091,0.105,1.654c0.207,10.153-2.556,20.145-7.95,28.75
			c-0.092,0.117-0.567,0.771-0.65,0.892c-0.302,0.453-0.639,0.883-1.008,1.283c-0.2,0.229-0.392,0.471-0.575,0.717
			c-0.555,0.681-1.16,1.32-1.808,1.912c-0.559,0.584-1.15,1.135-1.771,1.652c-29.27,24.488-121.818,41.594-225.121,41.594
			C153.718,483.148,61.134,466.032,32.034,441.644z"/>
		<path d="M175.826,137.228h22.308c8.202-0.032,15.226-5.881,16.741-13.942c2.179-8.448,8.029-15.475,15.942-19.15
			c5.634-2.92,9.158-8.75,9.125-15.096V73.573c0.007-5.977-3.113-11.522-8.226-14.618c-5.113-3.096-11.473-3.291-16.766-0.515
			c-23.476,11.979-42.579,31.054-54.592,54.512c-2.524,5.191-2.181,11.319,0.908,16.196
			C164.391,134.183,169.901,137.241,175.826,137.228z M222.876,73.573l0.117,15.396c-12.613,6.092-21.8,17.555-25,31.192
			l-22.275,0.237C186.127,100.223,202.627,83.839,222.876,73.573z"/>
		<path d="M148.918,303.948h216.183c34.5,0,62.575-30.625,62.575-68.267s-28.075-68.267-62.575-68.267H148.918
			c-34.5,0-62.575,30.625-62.575,68.267S114.417,303.948,148.918,303.948z M148.918,184.482h216.183
			c25.092,0,45.508,22.967,45.508,51.2s-20.417,51.2-45.508,51.2H148.918c-25.092,0-45.508-22.967-45.508-51.2
			S123.826,184.482,148.918,184.482z"/>
		<path d="M154.609,278.348h204.8c23.564,0,42.667-19.103,42.667-42.667s-19.103-42.667-42.667-42.667h-204.8
			c-23.564,0-42.667,19.103-42.667,42.667S131.045,278.348,154.609,278.348z M154.609,210.082h204.8c14.138,0,25.6,11.462,25.6,25.6
			s-11.462,25.6-25.6,25.6h-204.8c-14.138,0-25.6-11.462-25.6-25.6S140.471,210.082,154.609,210.082z"/>
		<path d="M308.209,244.215h51.2c4.713,0,8.533-3.821,8.533-8.533s-3.821-8.533-8.533-8.533h-51.2c-4.713,0-8.533,3.82-8.533,8.533
			S303.496,244.215,308.209,244.215z"/>
		<path d="M154.609,244.215h51.2c4.713,0,8.533-3.821,8.533-8.533s-3.821-8.533-8.533-8.533h-51.2c-4.713,0-8.533,3.82-8.533,8.533
			S149.896,244.215,154.609,244.215z"/>
	</g>
</g>
<g>
</g>
<g>
</g>
<g>
</g>
<g>
</g>
<g>
</g>
<g>
</g>
<g>
</g>
<g>
</g>
<g>
</g>
<g>
</g>
<g>
</g>
<g>
</g>
<g>
</g>
<g>
</g>
<g>
</g>
</svg>
