<?xml version="1.0" encoding="iso-8859-1"?>
<!-- Generator: Adobe Illustrator 19.0.0, SVG Export Plug-In . SVG Version: 6.00 Build 0)  -->
<svg version="1.1" id="Capa_1" xmlns="http://www.w3.org/2000/svg" xmlns:xlink="http://www.w3.org/1999/xlink" x="0px" y="0px"
	 viewBox="0 0 512.009 512.009" style="enable-background:new 0 0 512.009 512.009;" xml:space="preserve">
<g transform="translate(-1 -1)">
	<g transform="translate(1 2)">
		<path style="fill:#607D8B;" d="M503.476,404.348c0.205,11.685-2.965,23.181-9.131,33.109c-0.256,0.341-0.512,0.768-0.768,1.109
			c-0.545,0.857-1.174,1.657-1.877,2.389c-0.727,0.942-1.526,1.826-2.389,2.645c-0.82,0.889-1.704,1.716-2.645,2.475
			c-30.037,25.173-121.941,43.605-230.571,43.605c-5.717,0-11.435-0.085-17.067-0.171c-101.205-1.792-185.173-19.627-213.589-43.435
			c-0.853-0.768-1.792-1.536-2.645-2.389l-0.853-0.853c-0.277-0.295-0.533-0.609-0.768-0.939c-0.171-0.085-0.256-0.256-0.341-0.341
			c-0.427-0.512-0.853-1.024-1.195-1.451c-7.476-10.401-11.369-22.949-11.093-35.755c-0.166-11.692,3.033-23.185,9.216-33.109
			c0.577-0.916,1.203-1.799,1.877-2.645c0.235-0.33,0.491-0.643,0.768-0.939c0.696-0.863,1.437-1.689,2.219-2.475
			c0.855-0.941,1.798-1.798,2.816-2.56h461.227c0.962,0.735,1.848,1.564,2.645,2.475c0.861,0.821,1.66,1.705,2.389,2.645
			c0.614,0.632,1.131,1.351,1.536,2.133c0.171,0.085,0.171,0.171,0.341,0.256c0.256,0.341,0.512,0.768,0.768,1.109
			C500.511,381.167,503.681,392.663,503.476,404.348z"/>
		<path style="fill:#7F8C8D;" d="M469.343,404.348c0.205,11.685-2.965,23.181-9.131,33.109c-0.256,0.341-0.512,0.768-0.768,1.109
			c-0.545,0.857-1.174,1.657-1.877,2.389c-0.727,0.942-1.526,1.826-2.389,2.645c-0.82,0.889-1.704,1.716-2.645,2.475
			c-28.416,23.808-112.384,41.643-213.504,43.435c-101.205-1.792-185.173-19.627-213.589-43.435
			c-0.853-0.768-1.792-1.536-2.645-2.389l-0.853-0.853c-0.277-0.295-0.533-0.609-0.768-0.939c-0.171-0.085-0.256-0.256-0.341-0.341
			c-0.427-0.512-0.853-1.024-1.195-1.451c-7.476-10.401-11.369-22.949-11.093-35.755c-0.166-11.692,3.033-23.185,9.216-33.109
			c0.577-0.916,1.203-1.799,1.877-2.645c0.235-0.33,0.491-0.643,0.768-0.939c0.696-0.863,1.437-1.689,2.219-2.475
			c0.855-0.941,1.798-1.798,2.816-2.56h427.093c0.962,0.735,1.848,1.564,2.645,2.475c0.861,0.821,1.66,1.705,2.389,2.645
			c0.614,0.632,1.131,1.351,1.536,2.133c0.171,0.085,0.171,0.171,0.341,0.256c0.256,0.341,0.512,0.768,0.768,1.109
			C466.378,381.167,469.548,392.663,469.343,404.348z"/>
		<path style="fill:#00838F;" d="M497.076,380.626c0,8.448-6.485,16.384-18.347,23.723c-11.843,6.82-24.482,12.151-37.632,15.872
			c-44.203,13.397-110.677,22.016-185.003,22.016c-3.925,0-7.936,0-11.776-0.085h-2.048c-68.779-1.024-129.792-9.387-171.264-21.931
			c-34.987-10.752-55.979-24.491-55.979-39.595c0.044-3.318,0.988-6.563,2.731-9.387c0.577-0.916,1.203-1.799,1.877-2.645
			c0.235-0.33,0.491-0.643,0.768-0.939c0.696-0.863,1.437-1.689,2.219-2.475c0.855-0.941,1.798-1.798,2.816-2.56
			c8.002-6.19,16.891-11.138,26.368-14.677l382.805-0.085h25.6c9.501,3.581,18.417,8.557,26.453,14.763
			c0.962,0.735,1.848,1.564,2.645,2.475c0.861,0.821,1.66,1.705,2.389,2.645c0.614,0.632,1.131,1.351,1.536,2.133
			c0.171,0.085,0.171,0.171,0.341,0.256c0.256,0.341,0.512,0.768,0.768,1.109C496.088,374.063,497.032,377.307,497.076,380.626z"/>
		<path style="fill:#00BCD4;" d="M471.476,380.626c0,8.448-6.485,16.384-18.347,23.723c-11.843,6.82-24.482,12.151-37.632,15.872
			c-41.472,12.544-102.485,20.907-171.179,21.931h-2.048c-68.779-1.024-129.792-9.387-171.264-21.931
			c-34.987-10.752-55.979-24.491-55.979-39.595c0.044-3.318,0.988-6.563,2.731-9.387c0.577-0.916,1.203-1.799,1.877-2.645
			c0.235-0.33,0.491-0.643,0.768-0.939c0.696-0.863,1.437-1.689,2.219-2.475c0.855-0.941,1.798-1.798,2.816-2.56
			c8.002-6.19,16.891-11.138,26.368-14.677l382.805-0.085c9.501,3.581,18.417,8.557,26.453,14.763
			c0.962,0.735,1.848,1.564,2.645,2.475c0.861,0.821,1.66,1.705,2.389,2.645c0.614,0.632,1.131,1.351,1.536,2.133
			c0.171,0.085,0.171,0.171,0.341,0.256c0.256,0.341,0.512,0.768,0.768,1.109C470.488,374.063,471.432,377.307,471.476,380.626z"/>
		<path style="fill:#00838F;" d="M460.809,375.335c-5.973,2.389-12.544,4.779-19.712,6.912
			c-44.203,13.483-110.677,22.101-185.003,22.101c-3.925,0-7.936,0-11.776-0.085h-2.048c-68.779-1.024-129.792-9.387-171.264-22.016
			c-7.253-2.219-13.824-4.523-19.797-6.997c0.085-9.387,0.256-18.432,0.597-27.307c0.512-13.568,1.365-26.539,2.56-38.997
			C71.433,128.722,154.036,58.578,208.052,31.698c30.181-15.133,65.734-15.133,95.915,0
			c54.016,26.88,136.619,97.024,153.685,277.248c1.195,12.458,2.048,25.429,2.56,38.912
			C460.553,356.732,460.724,365.948,460.809,375.335z"/>
		<path style="fill:#00BCD4;" d="M435.209,375.335c-5.973,2.389-12.544,4.779-19.712,6.912
			c-41.472,12.629-102.485,20.992-171.179,22.016h-2.048c-68.779-1.024-129.792-9.387-171.264-22.016
			c-7.253-2.219-13.824-4.523-19.797-6.997c0.085-9.387,0.256-18.432,0.597-27.307c0.512-13.568,1.365-26.539,2.56-38.997
			C71.433,128.722,154.036,58.578,208.052,31.698c11.023-5.524,22.917-9.103,35.157-10.581c12.241,1.478,24.134,5.058,35.157,10.581
			c54.016,26.88,136.619,97.024,153.685,277.248c1.195,12.458,2.048,25.429,2.56,38.912
			C434.953,356.732,435.124,365.948,435.209,375.335z"/>
		<path style="fill:#F4F4F4;" d="M197.136,126.693h-22.312c-2.901,0.024-5.614-1.436-7.193-3.87
			c-1.579-2.434-1.806-5.506-0.601-8.145c11.168-21.85,28.98-39.592,50.874-50.674c2.647-1.393,5.831-1.298,8.391,0.251
			c2.559,1.549,4.121,4.325,4.114,7.317v15.466c0.025,3.152-1.716,6.054-4.51,7.514c-10.218,4.842-17.707,14.034-20.385,25.019
			C204.783,123.643,201.272,126.627,197.136,126.693z"/>
		<g>
			<path style="fill:#E91E63;" d="M147.92,231.671c19.619-0.485,38.919,5.034,55.316,15.818c5.057,3.657,11.704,4.268,17.343,1.594
				c5.638-2.674,9.371-8.209,9.738-14.439c0.061-0.984,0.092-1.975,0.092-2.973c-1.224-29.434-26.029-52.33-55.467-51.2
				c-14.761-0.625-29.115,4.927-39.615,15.321c-10.499,10.394-16.195,24.692-15.72,39.458
				C128.853,232.85,138.368,231.647,147.92,231.671z"/>
			<path style="fill:#E91E63;" d="M364.099,231.671c-19.619-0.485-38.919,5.034-55.316,15.818
				c-5.057,3.657-11.704,4.268-17.343,1.594c-5.638-2.674-9.371-8.209-9.738-14.439c-0.061-0.984-0.092-1.975-0.092-2.973
				c1.224-29.434,26.029-52.33,55.467-51.2c14.761-0.625,29.115,4.927,39.615,15.321c10.5,10.394,16.195,24.692,15.72,39.458
				C383.165,232.85,373.65,231.647,364.099,231.671z"/>
		</g>
		<path style="fill:#AD1457;" d="M170.676,284.882h170.667c14.138,0,25.6,11.462,25.6,25.6v34.133c0,14.138-11.462,25.6-25.6,25.6
			H170.676c-14.138,0-25.6-11.462-25.6-25.6v-34.133C145.076,296.343,156.537,284.882,170.676,284.882z"/>
		<path style="fill:#E91E63;" d="M341.343,310.482v34.133c0.783,13.311-9.339,24.753-22.646,25.6H167.722
			c-13.308-0.847-23.429-12.289-22.646-25.6v-34.133c-0.783-13.311,9.339-24.753,22.646-25.6h150.974
			C332.004,285.729,342.125,297.17,341.343,310.482z"/>
		<path style="fill:#F9EAB0;" d="M366.943,319.015v17.067h-85.333c-2.262-0.016-4.432-0.902-6.059-2.475l-2.475-2.56l-19.541,19.627
			c-3.365,3.3-8.752,3.3-12.117,0l-28.075-28.16l-11.008,11.093c-1.627,1.572-3.796,2.458-6.059,2.475h-51.2v-17.067h47.701
			l14.507-14.592c3.354-3.328,8.764-3.328,12.117,0l28.075,28.16l19.541-19.627c3.354-3.328,8.764-3.328,12.117,0l5.973,6.059
			H366.943z"/>
	</g>
	<g>
		<path d="M502.71,368.94c-0.083-0.146-0.508-0.788-0.608-0.929c-0.242-0.371-0.5-0.742-0.75-1.067
			c-0.114-0.146-0.229-0.289-0.35-0.427c-0.501-0.749-1.055-1.462-1.657-2.132l-0.035-0.045c-0.912-1.148-1.894-2.237-2.942-3.262
			l-0.031-0.029l-0.019-0.021c-0.62-0.663-1.268-1.188-1.89-1.755c-0.426-0.383-0.867-0.89-1.293-1.203l-0.013-0.01l-0.129-0.119
			l-0.097-0.049c-7.174-5.587-15.055-10.201-23.438-13.722c-0.523-11.62-1.261-23.074-2.315-34.028
			C449.393,122.703,360.301,51.698,308.768,26.057c-32.569-16.35-70.948-16.35-103.517,0
			C153.718,51.698,64.626,122.703,46.876,310.132c-1.054,10.979-1.793,22.457-2.316,34.104c-8.325,3.45-16.144,8.012-23.243,13.563
			l-0.116,0.095l-0.051,0.026c-0.335,0.263-0.649,0.545-0.976,0.82c-0.905,0.731-1.757,1.525-2.549,2.376l-0.002,0.002l-0.007,0.006
			l-0.007,0.008c-0.734,0.718-1.426,1.478-2.071,2.277c-0.173,0.203-0.343,0.356-0.522,0.573c-0.282,0.306-0.534,0.641-0.79,0.977
			c-0.079,0.101-0.191,0.216-0.26,0.306c-0.929,1.174-1.788,2.401-2.575,3.675c-0.343,0.586-0.603,1.182-0.901,1.775
			c-6.317,10.805-9.593,23.118-9.482,35.634c-0.243,14.747,4.313,29.173,12.983,41.104l1.15,1.421
			c0.092,0.112,0.183,0.225,0.283,0.333c0.133,0.158,0.283,0.313,0.442,0.471c0.608,0.733,1.275,1.425,1.992,2.142
			c0.992,0.958,1.967,1.813,2.942,2.667l0.013,0.008l0.12,0.109c32.542,27.283,127.433,45.612,236.125,45.612
			s203.583-18.329,236.258-45.729c1.044-0.878,2.037-1.814,2.975-2.804c1.034-0.994,2.006-2.052,2.908-3.167
			c0.797-0.835,1.503-1.751,2.108-2.733c0.466-0.599,0.895-1.227,1.283-1.879c0.109-0.166,0.182-0.365,0.29-0.532l0.052-0.08
			l0.009-0.033c13.314-22.581,13.427-50.585,0.295-73.273C503.053,369.637,502.911,369.285,502.71,368.94z M25.728,378.356
			c0.134-0.209,0.228-0.459,0.365-0.666c0.16-0.262,0.348-0.528,0.514-0.781c0.228-0.327,0.44-0.669,0.694-0.985l-0.03-0.024
			l0.08-0.122c0.227-0.221,0.44-0.456,0.638-0.703l0.004,0.003c0.56-0.684,1.06-1.253,1.941-2.152
			c0.507-0.534,1.054-1.029,1.637-1.479c0.125-0.098,0.206-0.174,0.347-0.282c3.71-2.97,7.718-5.548,11.958-7.694
			c-0.095,4.5-0.159,9.058-0.2,13.702l0.013,0.069c0.159,2.206,1.013,4.304,2.441,5.993c0.058,0.06,0.15,0.086,0.21,0.144
			c0.739,0.723,1.604,1.306,2.552,1.718l0.051,0.034c6.108,2.529,12.833,4.912,20.575,7.279
			c46.817,14.279,115.183,22.471,187.575,22.471c72.333,0,140.675-8.192,187.442-22.454c6.608-1.967,13.292-4.312,20.442-7.167
			l0.099-0.065c0.669-0.32,1.292-0.728,1.853-1.213c0.319-0.191,0.626-0.402,0.919-0.631c0.617-0.894,1.222-1.795,1.816-2.705
			c0.108-0.374,0.19-0.754,0.247-1.139c0.229-0.69,0.367-1.407,0.41-2.133c0-0.04,0.022-0.073,0.022-0.114
			c-0.041-4.66-0.108-9.27-0.201-13.829c4.375,2.232,8.512,4.902,12.348,7.969c0.544,0.446,1.052,0.934,1.519,1.46
			c0.153,0.168,0.324,0.323,0.494,0.479l0.106,0.104l0.134,0.139c0.482,0.482,0.931,0.996,1.341,1.541
			c0.067,0.083,0.525,0.546,0.592,0.629c0.346,0.669,0.781,1.289,1.293,1.841l0.021,0.031l0.186,0.297
			c0.855,1.424,1.325,3.046,1.365,4.706c0,4.912-5.083,10.758-14.308,16.462c-11.211,6.428-23.171,11.453-35.608,14.963
			c-45.392,13.758-111.925,21.65-182.533,21.65c-70.667,0-137.225-7.892-182.575-21.642c-36.833-11.312-49.958-23.654-49.958-31.433
			C24.6,381.13,25.001,379.665,25.728,378.356z M212.851,41.34c27.785-13.954,60.531-13.954,88.317,0
			c48.358,24.062,132.017,91.192,148.992,270.417c1.175,12.333,2.025,25.259,2.525,38.429c0.261,6.897,0.406,14.042,0.505,21.276
			c-4.629,1.727-9.146,3.306-13.58,4.624c-45.275,13.808-111.8,21.729-182.517,21.729c-70.775,0-137.325-7.921-182.583-21.725
			c-5.044-1.545-9.476-3.101-13.68-4.68c0.099-7.185,0.243-14.242,0.505-21.145c0.5-13.204,1.35-26.158,2.525-38.517
			C80.834,132.532,164.493,65.403,212.851,41.34z M32.034,441.644c-0.758-0.663-1.517-1.325-2.217-2
			c-0.265-0.245-0.515-0.505-0.75-0.779c-0.29-0.403-0.616-0.778-0.975-1.121l-0.718-0.887c-6.303-8.904-9.564-19.603-9.298-30.509
			c0-0.569,0.097-1.122,0.114-1.69c14.99,12.286,32.53,21.075,51.345,25.727c46.925,14.225,115.283,22.383,187.558,22.383
			c72.217,0,140.55-8.158,187.517-22.396c13.844-3.932,27.148-9.564,39.608-16.767c4.18-2.547,8.076-5.534,11.62-8.911
			c0.014,0.559,0.105,1.091,0.105,1.654c0.207,10.153-2.556,20.145-7.95,28.75c-0.092,0.117-0.567,0.771-0.65,0.892
			c-0.302,0.453-0.639,0.883-1.008,1.283c-0.2,0.229-0.392,0.471-0.575,0.717c-0.555,0.681-1.16,1.32-1.808,1.912
			c-0.559,0.584-1.15,1.135-1.771,1.652c-29.27,24.488-121.818,41.594-225.121,41.594
			C153.718,483.148,61.134,466.032,32.034,441.644z"/>
		<path d="M175.826,137.228h22.308c8.202-0.032,15.226-5.881,16.742-13.942c2.179-8.448,8.029-15.475,15.942-19.15
			c5.634-2.92,9.158-8.75,9.125-15.096V73.573c0.007-5.977-3.113-11.522-8.226-14.618c-5.113-3.096-11.473-3.291-16.766-0.515
			c-23.476,11.979-42.579,31.054-54.592,54.512c-2.524,5.191-2.181,11.319,0.908,16.196
			C164.391,134.183,169.901,137.241,175.826,137.228z M222.876,73.573l0.117,15.396c-12.613,6.092-21.8,17.555-25,31.192
			l-22.275,0.237C186.127,100.223,202.627,83.839,222.876,73.573z"/>
		<path d="M115.651,244.198c2.063,1.479,4.68,1.957,7.133,1.304c8.533-2.217,17.317-3.326,26.133-3.3
			c17.835-0.456,35.39,4.504,50.35,14.225c7.583,5.467,17.542,6.37,25.985,2.358c8.443-4.013,14.032-12.305,14.582-21.637
			c0.067-1.15,0.108-2.308,0.108-3.479c-1.255-34.133-29.862-60.832-64-59.733c-18.28-0.124-35.793,7.338-48.367,20.608
			c-11.019,11.628-16.635,27.356-15.475,43.333C112.283,240.408,113.585,242.725,115.651,244.198z M140.076,206.16
			c9.342-9.8,22.328-15.288,35.867-15.158c24.711-1.091,45.671,17.964,46.933,42.667c0,0.829-0.025,1.654-0.075,2.446
			c-0.173,3.132-2.046,5.918-4.881,7.261c-2.835,1.343-6.177,1.027-8.71-0.824c-17.868-11.781-38.894-17.855-60.292-17.417
			c-6.452-0.006-12.894,0.497-19.267,1.504C131.091,218.956,134.71,211.847,140.076,206.16L140.076,206.16z"/>
		<path d="M288.768,258.786c8.436,4.069,18.426,3.162,25.992-2.358c14.956-9.722,32.509-14.682,50.342-14.225
			c8.817-0.026,17.6,1.083,26.133,3.3c2.453,0.648,5.067,0.171,7.133-1.303c2.065-1.474,3.367-3.791,3.551-6.322
			c1.16-15.977-4.457-31.705-15.475-43.333c-12.574-13.27-30.087-20.732-48.367-20.608c-34.138-1.099-62.745,25.6-64,59.733
			c0,1.171,0.042,2.329,0.108,3.504C274.685,246.517,280.291,254.825,288.768,258.786z M338.076,191.003
			c13.538-0.13,26.525,5.359,35.867,15.158c5.366,5.686,8.984,12.795,10.425,20.479c-6.373-1.008-12.815-1.511-19.267-1.504
			c-21.395-0.44-42.419,5.634-60.283,17.417c-2.531,1.849-5.869,2.167-8.703,0.831c-2.835-1.337-4.713-4.115-4.897-7.243
			c-0.05-0.817-0.075-1.64-0.075-2.471C292.405,208.967,313.365,189.912,338.076,191.003z"/>
		<path d="M137.543,312.482v34.133c0.02,18.843,15.29,34.113,34.133,34.133h170.667c18.843-0.02,34.113-15.29,34.133-34.133v-34.133
			c-0.02-18.843-15.29-34.113-34.133-34.133H171.676C152.833,278.368,137.563,293.639,137.543,312.482z M342.343,363.682H171.676
			c-9.421-0.011-17.056-7.645-17.067-17.067v-8.533h42.667c2.263,0,4.434-0.899,6.033-2.5l11.034-11.033l28.1,28.1
			c1.6,1.601,3.77,2.5,6.033,2.5c2.263,0,4.433-0.899,6.033-2.5l19.566-19.567l2.5,2.5c1.6,1.601,3.77,2.5,6.033,2.5h76.8v8.533
			C359.398,356.036,351.764,363.671,342.343,363.682z M359.409,312.482v8.533h-73.267l-6.033-6.033c-1.6-1.601-3.77-2.5-6.033-2.5
			s-4.433,0.899-6.033,2.5l-19.567,19.566l-28.1-28.1c-1.6-1.601-3.77-2.5-6.033-2.5c-2.263,0-4.433,0.899-6.033,2.5l-14.566,14.567
			h-39.133v-8.533c0.011-9.421,7.645-17.056,17.067-17.067h170.667C351.764,295.426,359.398,303.061,359.409,312.482z"/>
	</g>
</g>
<g>
</g>
<g>
</g>
<g>
</g>
<g>
</g>
<g>
</g>
<g>
</g>
<g>
</g>
<g>
</g>
<g>
</g>
<g>
</g>
<g>
</g>
<g>
</g>
<g>
</g>
<g>
</g>
<g>
</g>
</svg>
