<?xml version="1.0" encoding="iso-8859-1"?>
<!-- Generator: Adobe Illustrator 19.0.0, SVG Export Plug-In . SVG Version: 6.00 Build 0)  -->
<svg version="1.1" id="Capa_1" xmlns="http://www.w3.org/2000/svg" xmlns:xlink="http://www.w3.org/1999/xlink" x="0px" y="0px"
	 viewBox="0 0 510.435 510.435" style="enable-background:new 0 0 510.435 510.435;" xml:space="preserve">
<g>
	<g transform="translate(1 1)">
		<path style="fill:#A5A5A4;" d="M377.951,475.302v25.6h-42.667c-23.04,0-25.344-69.12-25.6-82.944
			c0.853-0.768,1.707-1.621,2.645-2.389c7.221-6.24,15.601-10.996,24.661-13.995L377.951,475.302z"/>
		<g>
			<g>
				<path style="fill:#00BCD4;" d="M416.351,168.102l39.25,39.25c2.119,2.12,2.971,5.196,2.244,8.104l-14.759,59.035
					c-0.708,2.83-2.812,5.103-5.58,6.026l-46.756,15.585H117.685l-46.756-15.585c-2.768-0.923-4.872-3.195-5.58-6.026L50.59,215.456
					c-0.727-2.908,0.125-5.984,2.244-8.104l39.251-39.25H416.351z"/>
				<path style="fill:#00BCD4;" d="M455.602,207.352l-39.251-39.25h-0.578c-1.371-21.906-6.939-43.343-16.403-63.147
					c-5.105-10.692-11.496-20.722-19.029-29.867c-2.048-2.645-4.352-5.205-6.656-7.765c-8.282-9.009-17.428-17.183-27.307-24.405
					c-8.91-6.416-18.328-12.095-28.16-16.981c-14.229-7.181-29.271-12.624-44.8-16.213c-12.607-2.902-25.708-2.902-38.315,0
					c-15.538,3.612-30.602,9.025-44.885,16.128c-9.758,4.89-19.117,10.539-27.989,16.896c-9.963,7.279-19.194,15.509-27.563,24.576
					c-2.304,2.56-4.523,5.12-6.656,7.765c-7.429,9.173-13.785,19.165-18.944,29.781c-9.474,19.828-15.031,41.298-16.365,63.232
					h-0.616l-39.251,39.25c-2.119,2.12-2.971,5.196-2.244,8.104l14.759,59.035c0.707,2.83,2.812,5.103,5.58,6.026l46.756,15.585
					h1.137c2.004,3.163,4.436,6.035,7.225,8.533l26.795,83.541c2.104,6.044,7.22,10.545,13.483,11.861
					c1.738,0.401,3.448,0.914,5.12,1.536l-40.96,73.728v25.6h247.467v-25.6l-40.96-73.728c1.672-0.622,3.382-1.135,5.12-1.536
					c6.263-1.316,11.379-5.817,13.483-11.861l26.795-83.541c2.799-2.496,5.239-5.368,7.25-8.533h1.113l46.756-15.585
					c2.768-0.923,4.872-3.196,5.58-6.026l14.759-59.035C458.573,212.548,457.721,209.472,455.602,207.352z"/>
			</g>
			<path style="fill:#607D8B;" d="M416.351,188.497c-0.145,0.557-0.203,1.132-0.171,1.707c-0.189,12.627-1.445,25.216-3.755,37.632
				c0,0-9.984,59.733-30.037,76.8l-26.795,83.541c-2.104,6.044-7.22,10.545-13.483,11.861c-1.738,0.401-3.448,0.914-5.12,1.536
				l40.96,73.728v25.6H130.485v-25.6l40.96-73.728c-1.672-0.622-3.382-1.135-5.12-1.536c-6.263-1.316-11.379-5.817-13.483-11.861
				l-26.795-83.541c-19.968-17.067-30.037-76.8-30.037-76.8c-2.338-12.413-3.623-25.002-3.84-37.632v-1.707
				c-1.151-28.827,4.644-57.508,16.896-83.627c5.159-10.617,11.515-20.609,18.944-29.781c2.133-2.645,4.352-5.205,6.656-7.765
				c8.369-9.067,17.6-17.297,27.563-24.576c8.873-6.357,18.231-12.006,27.989-16.896c14.284-7.103,29.347-12.516,44.885-16.128
				c2.108-0.522,4.245-0.921,6.4-1.195c10.619-1.613,21.446-1.207,31.915,1.195c15.529,3.589,30.57,9.033,44.8,16.213
				c9.832,4.886,19.25,10.566,28.16,16.981c9.879,7.222,19.025,15.397,27.307,24.405c2.304,2.56,4.608,5.12,6.656,7.765
				c7.534,9.145,13.924,19.174,19.029,29.867C411.609,131.051,417.431,159.694,416.351,188.497z"/>
			<path style="fill:#BDC3C7;" d="M390.751,188.497c-0.145,0.557-0.203,1.132-0.171,1.707c-0.189,12.627-1.445,25.216-3.755,37.632
				c0,0-9.984,59.733-30.037,76.8l-26.795,83.541c-2.104,6.044-7.22,10.545-13.483,11.861c-1.738,0.401-3.448,0.914-5.12,1.536
				l40.96,73.728v25.6H130.485v-25.6l40.96-73.728c-1.672-0.622-3.382-1.135-5.12-1.536c-6.263-1.316-11.379-5.817-13.483-11.861
				l-26.795-83.541c-19.968-17.067-30.037-76.8-30.037-76.8c-2.338-12.413-3.623-25.002-3.84-37.632v-1.707
				c-1.151-28.827,4.644-57.508,16.896-83.627c5.159-10.617,11.515-20.609,18.944-29.781c2.133-2.645,4.352-5.205,6.656-7.765
				c8.369-9.067,17.6-17.297,27.563-24.576c8.873-6.357,18.231-12.006,27.989-16.896c14.284-7.103,29.347-12.516,44.885-16.128
				c2.108-0.522,4.245-0.921,6.4-1.195c2.133,0.341,4.267,0.683,6.315,1.195c15.529,3.589,30.57,9.033,44.8,16.213
				c9.832,4.886,19.25,10.566,28.16,16.981c9.879,7.222,19.025,15.397,27.307,24.405c2.304,2.56,4.608,5.12,6.656,7.765
				c7.534,9.145,13.924,19.174,19.029,29.867C386.009,131.051,391.831,159.694,390.751,188.497z"/>
		</g>
		<path style="fill:#7F8C8D;" d="M335.285,500.902H173.151c23.125,0,25.344-69.376,25.515-83.029
			c17.237,16.043,19.2,31.232,55.552,31.744c36.267-0.512,38.315-15.701,55.467-31.659
			C309.941,431.782,312.245,500.902,335.285,500.902z"/>
		<path style="fill:#A5A5A4;" d="M198.666,417.873c-0.171,13.653-2.389,83.029-25.515,83.029h-42.667v-25.6l40.96-73.728
			c9.06,2.999,17.441,7.754,24.661,13.995C197.045,416.337,197.898,417.104,198.666,417.873z"/>
		<path style="fill:#D1D4D1;" d="M382.389,304.635l-26.795,83.541c-2.104,6.044-7.22,10.545-13.483,11.861
			c-1.738,0.401-3.448,0.914-5.12,1.536c-9.06,2.999-17.441,7.754-24.661,13.995c-0.939,0.768-1.792,1.621-2.645,2.389
			c-17.152,15.957-19.2,31.147-55.467,31.659c-36.352-0.512-38.315-15.701-55.552-31.744c-0.768-0.768-1.621-1.536-2.56-2.304
			c-7.221-6.24-15.601-10.996-24.661-13.995c-1.672-0.622-3.382-1.135-5.12-1.536c-6.263-1.316-11.379-5.817-13.483-11.861
			l-26.795-83.541l59.904,68.267h10.155l30.037-25.6h56.149l30.037,25.6h10.155L382.389,304.635z"/>
		<path style="fill:#02A9F4;" d="M254.218,296.102c7.701,0,15.403-10.105,18.544-14.764c0.961-1.416,1.474-3.088,1.473-4.799
			v-28.697c0-1.905-0.637-3.756-1.811-5.257l-11.484-14.687c-1.617-2.068-4.097-3.277-6.722-3.277c-2.626,0-5.105,1.209-6.722,3.277
			l-11.484,14.687c-1.174,1.501-1.811,3.351-1.811,5.257v28.697c-0.001,1.711,0.512,3.383,1.473,4.799
			C238.815,285.997,246.517,296.102,254.218,296.102z"/>
		<polygon style="fill:#A5A5A4;" points="237.151,372.902 271.285,372.902 288.351,389.969 262.751,415.569 245.685,415.569 
			220.085,389.969 		"/>
		<path style="fill:#FEC108;" d="M197.642,217.169c-4.08,12.709-14.331,22.478-27.221,25.941c-1.897,0.711-3.835,1.309-5.803,1.792
			c-34.133,8.533-34.133-34.133-34.133-34.133s10.837-21.845,41.472-13.141c7.76,2.346,15.166,5.734,22.016,10.069
			C197.153,209.698,198.644,213.548,197.642,217.169z"/>
		<path style="fill:#FFEB3A;" d="M197.642,217.169c-4.08,12.709-14.331,22.478-27.221,25.941
			c-14.336-8.448-14.336-32.341-14.336-32.341c3.561-6.127,9.188-10.786,15.872-13.141c7.76,2.346,15.166,5.734,22.016,10.069
			C197.153,209.698,198.644,213.548,197.642,217.169z"/>
		<path style="fill:#527F72;" d="M159.026,280.077c-4.412,0.023-8.816-0.382-13.15-1.208c-4.617-0.923-7.614-5.411-6.697-10.029
			c0.917-4.618,5.402-7.62,10.022-6.708c1.475,0.283,36.563,6.725,50.45-21.046c1.358-2.737,4.075-4.54,7.125-4.726
			c3.05-0.186,5.967,1.272,7.647,3.824c1.681,2.552,1.869,5.807,0.494,8.536C203.903,269.084,182.148,281.29,159.026,280.077z"/>
		<path style="fill:#FEC108;" d="M377.951,210.769c0,0,0,42.667-34.133,34.133c-1.968-0.483-3.905-1.081-5.803-1.792
			c-12.89-3.464-23.141-13.233-27.221-25.941c-1.002-3.621,0.489-7.471,3.669-9.472c6.869-4.301,14.27-7.686,22.016-10.069
			C367.114,188.923,377.951,210.769,377.951,210.769z"/>
		<path style="fill:#FFEB3A;" d="M352.351,210.769c0,0,0,23.893-14.336,32.341c-12.89-3.464-23.141-13.233-27.221-25.941
			c-1.002-3.621,0.489-7.471,3.669-9.472c6.869-4.301,14.27-7.686,22.016-10.069C343.164,199.983,348.79,204.641,352.351,210.769z"
			/>
		<path style="fill:#527F72;" d="M349.41,280.077c-23.122,1.215-44.878-10.991-55.892-31.358c-1.375-2.729-1.187-5.984,0.494-8.536
			c1.681-2.552,4.598-4.01,7.647-3.824c3.05,0.186,5.767,1.989,7.125,4.726c13.879,27.771,48.971,21.325,50.45,21.046
			c4.619-0.912,9.104,2.09,10.022,6.708c0.917,4.618-2.08,9.107-6.697,10.029C358.226,279.695,353.822,280.1,349.41,280.077z"/>
	</g>
	<g>
		<path d="M268.66,223.64c-3.342-3.961-8.26-6.246-13.443-6.245c-5.182,0.001-10.1,2.287-13.441,6.249l-11.479,14.679
			c-2.347,3.005-3.624,6.708-3.629,10.521v28.696c-0.002,3.411,1.019,6.745,2.929,9.571c5.7,8.45,14.771,18.525,25.621,18.525
			c10.85,0,19.921-10.075,25.625-18.529c1.908-2.825,2.927-6.157,2.925-9.567v-28.696c-0.004-3.81-1.28-7.51-3.625-10.512
			L268.66,223.64z M266.689,277.569c-5.55,8.229-10.2,11-11.471,11c-1.271,0-5.921-2.771-11.483-11.029v-28.7l11.483-14.688
			l11.483,14.692L266.689,277.569z"/>
		<path d="M278.318,367.869c-1.6-1.6-3.77-2.5-6.033-2.5h-34.133c-2.263,0.001-4.433,0.9-6.033,2.5l-17.067,17.067
			c-1.601,1.6-2.5,3.77-2.5,6.033s0.899,4.433,2.5,6.033l25.6,25.6c1.6,1.6,3.77,2.499,6.033,2.5h17.067
			c2.263-0.001,4.433-0.9,6.033-2.5l25.6-25.6c1.601-1.6,2.5-3.77,2.5-6.033s-0.899-4.433-2.5-6.033L278.318,367.869z
			 M260.218,408.035h-10l-17.067-17.067l8.533-8.533h27.067l8.533,8.533L260.218,408.035z"/>
		<path d="M167.689,254.181c27.613-6.904,36.387-24.037,39.163-33.642c2.097-7.321-0.95-15.142-7.446-19.117
			c-19.779-12.046-37.383-15.975-52.325-11.692c-9.868,2.723-18.234,9.285-23.229,18.221c-0.592,1.185-0.9,2.492-0.9,3.817
			c0,2.617,0.433,25.892,15.4,37.579c5.394,4.147,12.039,6.334,18.842,6.2C160.734,255.524,164.26,255.065,167.689,254.181z
			 M140.122,214.09c2.933-3.838,7.026-6.628,11.671-7.954c10.012-2.875,23.354,0.508,38.625,9.796
			c-2.179,7.404-8.617,17.129-26.871,21.692c-4.883,1.793-10.327,1.159-14.667-1.708C143.369,229.969,140.25,222.196,140.122,214.09
			z"/>
		<path d="M212.101,238.269c-2.024-1.015-4.369-1.183-6.517-0.467c-2.148,0.716-3.923,2.257-4.933,4.284
			c-13.887,27.771-48.975,21.329-50.45,21.046c-4.619-0.912-9.104,2.09-10.022,6.708c-0.917,4.618,2.08,9.107,6.697,10.029
			c4.334,0.826,8.738,1.231,13.15,1.208c23.122,1.213,44.877-10.993,55.892-31.358c1.013-2.024,1.179-4.368,0.464-6.516
			C215.666,241.056,214.126,239.281,212.101,238.269z"/>
		<path d="M363.356,189.731c-14.942-4.3-32.546-0.358-52.325,11.692c-6.497,3.976-9.543,11.798-7.446,19.121
			c2.775,9.6,11.55,26.733,39.163,33.637c3.429,0.884,6.955,1.343,10.496,1.367c6.802,0.133,13.447-2.054,18.842-6.2
			c14.967-11.688,15.4-34.963,15.4-37.579c0-1.325-0.308-2.631-0.9-3.817C381.59,199.017,373.224,192.454,363.356,189.731z
			 M361.555,235.915c-4.339,2.869-9.784,3.503-14.667,1.708c-18.258-4.563-24.695-14.292-26.871-21.692
			c15.108-9.187,28.354-12.596,38.304-9.887c4.776,1.274,8.994,4.098,11.992,8.029C370.19,222.185,367.07,229.964,361.555,235.915
			L361.555,235.915z"/>
		<path d="M360.235,263.131c-1.479,0.279-36.571,6.725-50.45-21.046c-1.358-2.737-4.075-4.54-7.125-4.726
			c-3.05-0.186-5.967,1.272-7.647,3.824c-1.681,2.552-1.869,5.807-0.494,8.536c11.014,20.367,32.769,32.573,55.892,31.358
			c4.412,0.023,8.816-0.382,13.15-1.208c4.617-0.923,7.614-5.411,6.697-10.029C369.339,265.221,364.854,262.219,360.235,263.131
			L360.235,263.131z"/>
		<path d="M452.36,277.561l14.758-59.017c1.447-5.82-0.253-11.973-4.483-16.225l-37.885-37.885
			c-1.804-21.5-7.46-42.501-16.698-61.999l-0.109-0.204c-7.004-14.467-16.089-27.831-26.966-39.666
			C352.9,32.511,316.462,11.559,276.364,2.415c-13.884-3.21-28.316-3.22-42.204-0.029c-29.543,6.836-57.253,19.996-81.221,38.573
			l-0.108,0.079c-8.4,6.512-16.243,13.711-23.451,21.522c-10.832,11.82-19.89,25.15-26.891,39.573
			c-0.12,0.182-0.196,0.374-0.301,0.565c-0.116,0.241-0.262,0.465-0.377,0.707c-0.025,0.056-0.07,0.098-0.094,0.155l-0.009,0.037
			c-8.902,19.19-14.343,39.802-16.072,60.885l-37.835,37.836c-4.223,4.249-5.925,10.392-4.492,16.208l14.758,59.034
			c1.405,5.668,5.619,10.219,11.163,12.054l45.701,15.232c1.415,1.897,2.968,3.685,4.648,5.352l26.101,81.599
			c2.358,6.985,7.575,12.638,14.349,15.549l-36.003,64.809c-0.704,1.268-1.074,2.695-1.075,4.146v25.6
			c0,4.713,3.821,8.533,8.533,8.533h247.467c4.713,0,8.533-3.82,8.533-8.533v-25.6c-0.001-1.451-0.371-2.877-1.075-4.146
			l-36.003-64.809c6.774-2.911,11.99-8.564,14.349-15.549l26.095-81.581c1.688-1.673,3.249-3.47,4.67-5.375l45.697-15.231
			C446.755,287.776,450.963,283.225,452.36,277.561z M377.843,299.144c-5.858,4.992-15.675,4.742-26.092,4.479
			c-16.437-0.438-38.938-0.987-46.616,25.212c-0.638,2.171-0.386,4.508,0.699,6.493c1.086,1.986,2.916,3.459,5.088,4.094
			c0.78,0.232,1.59,0.35,2.404,0.35c3.787-0.006,7.117-2.504,8.183-6.138c3.646-12.429,11.05-13.458,29.808-12.95
			c2.415,0.06,4.901,0.101,7.404,0.096l-39.104,44.587h-3.146l-27.646-23.563c-1.543-1.316-3.505-2.039-5.534-2.038h-56.149
			c-2.028-0.001-3.99,0.721-5.533,2.038l-27.646,23.563h-3.146l-39.114-44.589c2.509,0.005,5.001-0.035,7.422-0.095
			c18.737-0.508,26.158,0.521,29.808,12.95c1.325,4.522,6.066,7.113,10.588,5.788c4.522-1.326,7.113-6.066,5.788-10.588
			c-7.679-26.204-30.221-25.633-46.617-25.212c-10.412,0.267-20.233,0.513-26.092-4.479c-14.454-12.325-24.496-55.95-27.196-71.992
			c-1.784-9.281-2.909-18.677-3.365-28.117c0.262-0.451,0.48-0.925,0.652-1.417c5.871-21.817,28.125-31.621,62.625-27.625
			c3.031,0.358,6.023-0.931,7.845-3.379s2.198-5.684,0.985-8.485s-3.83-4.74-6.863-5.086c-33.145-3.834-52.91,3.956-64.768,14.193
			c1.45-18.936,6.171-37.477,13.954-54.801c20.636-14.148,56.811-33.624,81.585-17.201c11.975,7.921,17.85,24.567,22.421,41.396
			c3.552,13.595,5.533,27.553,5.904,41.6c0.382,7.109,3.762,13.722,9.3,18.196c5.53,4.46,12.434,6.866,19.538,6.808
			c14.766,0.75,27.492-10.289,28.837-25.012c0.372-14.051,2.355-28.013,5.908-41.612c4.567-16.808,10.442-33.454,22.412-41.371
			c24.882-16.441,61.209,3.24,81.761,17.377c7.756,17.26,12.43,35.746,13.808,54.619c-11.836-10.24-31.603-18.046-64.798-14.183
			c-4.681,0.545-8.033,4.782-7.487,9.463c0.545,4.681,4.782,8.033,9.463,7.487c46.483-5.404,59.146,14.871,62.537,27.45
			c0.178,0.52,0.408,1.021,0.686,1.495c-0.463,9.559-1.584,19.075-3.353,28.48C402.351,243.185,392.326,286.794,377.843,299.144
			L377.843,299.144z M238.006,19.01c11.349-2.611,23.143-2.601,34.487,0.029c17.685,4.138,34.704,10.727,50.565,19.577
			c-13.901,1.473-27.252,6.237-38.944,13.898c-12.074,8.267-21.984,19.315-28.896,32.212c-6.897-12.874-16.803-23.891-28.875-32.112
			c-11.616-7.747-24.924-12.588-38.803-14.115C203.372,29.683,220.358,23.123,238.006,19.01z M141.96,74.09
			c5.936-6.437,12.349-12.418,19.184-17.892c19.259-3.878,39.272-0.063,55.754,10.629c14.191,10.19,24.811,24.591,30.354,41.158
			c1.264,3.3,4.433,5.479,7.967,5.479c3.534,0,6.702-2.179,7.967-5.479c5.563-16.576,16.174-30.996,30.346-41.238
			c12.065-7.889,26.207-12.004,40.621-11.82c5.12,0.028,10.228,0.504,15.265,1.421c6.762,5.432,13.106,11.365,18.977,17.749
			c2.4,2.611,4.543,5.349,6.726,8.067c-22.688-10.309-49.767-15.94-72.155-1.163c-16.692,11.042-24.025,31.1-29.463,51.113
			c-3.9,14.844-6.08,30.087-6.496,45.429c-1.118,5.484-6.222,9.219-11.788,8.625c-3.103,0.064-6.135-0.936-8.592-2.833
			c-1.807-1.411-2.961-3.498-3.196-5.779c-0.414-15.339-2.593-30.58-6.492-45.421c-5.442-20.033-12.775-40.092-29.458-51.129
			c-22.361-14.834-49.454-9.209-72.171,1.111C137.471,79.408,139.592,76.675,141.96,74.09z M74.626,273.419l-14.758-59.034
			l24.734-24.734l0.004,1.821c0.252,13.013,1.596,25.982,4.017,38.771c3.1,17.991,7.958,35.635,14.507,52.676L74.626,273.419z
			 M140.018,478.515l36.258-65.269c5.313,2.469,10.277,5.628,14.764,9.394c-1.007,41.86-9.525,70.729-16.889,70.729h-34.133V478.515
			z M252.756,459.137c0.171,0.01,0.315,0.099,0.488,0.099c0.688,0,1.307-0.034,1.975-0.044c0.668,0.01,1.287,0.044,1.975,0.044
			c0.173,0,0.317-0.089,0.488-0.099c25.949-0.874,36.483-9.393,45.389-19.304c0.564,18.372,4.384,36.498,11.282,53.535H195.989
			c6.938-17.028,10.791-35.155,11.38-53.533C216.274,449.746,226.809,458.263,252.756,459.137L252.756,459.137z M370.418,493.369
			h-34.133c-6.398,0-15.627-24.576-16.95-70.682c4.504-3.787,9.489-6.962,14.825-9.441l36.258,65.269V493.369z M348.497,386.598
			c-1.247,3.172-4.029,5.485-7.375,6.133c-12.319,3.109-23.744,9.049-33.367,17.346c-5.007,4.388-9.646,9.18-13.871,14.325
			c-9.241,10.763-15.075,17.326-38.667,17.696c-23.592-0.37-29.426-6.933-38.667-17.696c-4.226-5.147-8.867-9.939-13.875-14.329
			c-9.622-8.295-21.045-14.233-33.363-17.342c-3.346-0.648-6.128-2.962-7.375-6.133l-14.229-44.484l32.825,37.418
			c1.621,1.846,3.96,2.905,6.417,2.904h10.154c2.028,0.001,3.99-0.721,5.533-2.038l27.646-23.563h49.867l27.646,23.563
			c1.543,1.316,3.505,2.039,5.533,2.038h10.154c2.458,0.001,4.797-1.059,6.417-2.908l32.832-37.436L348.497,386.598z
			 M407.324,282.917c6.529-16.974,11.375-34.548,14.469-52.468c2.425-12.969,3.727-26.124,3.892-39.317
			c0.093-0.485,0.146-0.978,0.157-1.472l24.726,24.726l-14.758,59.037L407.324,282.917z"/>
	</g>
</g>
<g>
</g>
<g>
</g>
<g>
</g>
<g>
</g>
<g>
</g>
<g>
</g>
<g>
</g>
<g>
</g>
<g>
</g>
<g>
</g>
<g>
</g>
<g>
</g>
<g>
</g>
<g>
</g>
<g>
</g>
</svg>
