<?xml version="1.0" encoding="iso-8859-1"?>
<!-- Generator: Adobe Illustrator 19.0.0, SVG Export Plug-In . SVG Version: 6.00 Build 0)  -->
<svg version="1.1" id="Capa_1" xmlns="http://www.w3.org/2000/svg" xmlns:xlink="http://www.w3.org/1999/xlink" x="0px" y="0px"
	 viewBox="0 0 512.009 512.009" style="enable-background:new 0 0 512.009 512.009;" xml:space="preserve">
<g transform="translate(0 -1)">
	<g transform="translate(1 1)">
		<path style="fill:#00838F;" d="M463.945,275.124c-1.843,7.1-4.269,14.035-7.253,20.736l-1.536,3.328
			c-17.323,39.168-30.379,74.24-44.117,101.547c-2.901,5.973-5.888,11.52-9.045,16.725c-8.216,16.509-21.49,29.963-37.888,38.4
			c-13.909,6.059-30.379,13.824-46.592,21.248c-29.611,13.568-58.112,26.368-67.925,26.368c-9.794-1.532-19.311-4.494-28.245-8.789
			c-11.691-4.779-25.6-11.093-39.68-17.579c-16.213-7.424-32.683-15.189-46.592-21.248c-16.398-8.437-29.672-21.891-37.888-38.4
			c-3.157-5.205-6.144-10.752-9.045-16.725c-13.739-27.307-26.795-62.379-44.117-101.547l-1.536-3.328
			c-2.984-6.701-5.41-13.636-7.253-20.736c-18.773-72.448,28.587-140.288,28.587-140.288L40.948,87.732
			c-5.973-12.459,23.125-38.741,64.939-58.88c19.564-9.925,40.597-16.638,62.293-19.883c12.8-1.365,21.675,0.512,24.32,5.973
			l6.059,12.544l6.229,12.715c29.32-8.078,60.28-8.078,89.6,0l12.288-25.259c3.755-7.851,20.651-8.277,43.179-2.389h0.085
			c14.936,4.039,29.452,9.496,43.349,16.299c41.813,20.139,70.912,46.421,64.939,58.88l-22.869,47.104
			C435.359,134.836,482.719,202.676,463.945,275.124z"/>
		<g>
			<path style="fill:#00BCD4;" d="M198.559,27.486l6.229,12.715c29.32-8.078,60.28-8.078,89.6,0l12.288-25.259
				c3.755-7.851,20.651-8.277,43.179-2.389h0.085c5.803,2.304,11.776,4.864,17.749,7.765c41.813,20.139,70.912,46.421,64.939,58.88
				l-22.869,47.104c0,0,47.36,67.84,28.587,140.288c-1.843,7.1-4.269,14.035-7.253,20.736l-1.536,3.328
				c-17.323,39.168-30.379,74.24-44.117,101.547c-2.901,5.973-5.888,11.52-9.045,16.725c-8.216,16.509-21.49,29.963-37.888,38.4
				c-13.909,6.059-30.379,13.824-46.592,21.248c-29.611,13.568-58.112,26.368-67.925,26.368c-0.887-0.012-1.772-0.098-2.645-0.256
				c-11.691-4.779-25.6-11.093-39.68-17.579c-16.213-7.424-32.683-15.189-46.592-21.248c-16.398-8.437-29.672-21.891-37.888-38.4
				c-3.157-5.205-6.144-10.752-9.045-16.725c-13.739-27.307-26.795-62.379-44.117-101.547l-1.536-3.328
				c-2.984-6.701-5.41-13.636-7.253-20.736c-18.773-72.448,28.587-140.288,28.587-140.288L40.948,87.732
				c-5.973-12.459,23.125-38.741,64.939-58.88c19.564-9.925,40.597-16.638,62.293-19.883"/>
			<path style="fill:#00BCD4;" d="M87.455,401.076l-36.608-6.144c-9.025-1.473-16.574-7.656-19.797-16.213L14.58,334.686
				c-2.504-6.653-2.101-14.052,1.109-20.395l19.541-39.168c1.843,7.1,4.269,14.035,7.253,20.736l1.536,3.328
				c17.323,39.168,30.379,74.24,44.117,101.547L87.455,401.076z"/>
			<path style="fill:#00BCD4;" d="M135.071,455.86c13.909,6.059,30.379,13.824,46.592,21.248l-0.341,0.768
				c-59.733,51.2-128,8.533-128,8.533c34.133-17.067,42.667-68.267,42.667-68.267l1.195-0.683
				C105.399,433.969,118.673,447.423,135.071,455.86z"/>
			<path style="fill:#00BCD4;" d="M484.596,334.686l-16.469,44.032c-3.223,8.557-10.773,14.74-19.797,16.213l-36.608,6.144
				l-0.683-0.341c13.739-27.307,26.795-62.379,44.117-101.547l1.536-3.328c2.984-6.701,5.41-13.636,7.253-20.736l19.541,39.168
				C486.698,320.634,487.1,328.033,484.596,334.686z"/>
			<path style="fill:#00BCD4;" d="M127.476,73.822c-41.813,20.053-80.555,26.283-86.528,13.909
				c-5.973-12.459,23.125-38.741,64.939-58.88c41.899-20.139,80.64-26.368,86.613-13.909
				C198.388,27.316,169.375,53.684,127.476,73.822z"/>
		</g>
		<path style="fill:none;stroke:#000000;stroke-width:2;stroke-linecap:round;stroke-linejoin:round;" d="M70.217,147.892
			l-0.683-1.451"/>
		<path style="fill:#00BCD4;" d="M458.228,87.732c-5.973,12.373-44.715,6.144-86.528-13.909
			c-41.899-20.139-70.912-46.507-65.024-58.88c5.973-12.459,44.715-6.229,86.613,13.909
			C435.103,48.99,464.201,75.273,458.228,87.732z"/>
		<path style="fill:#606060;" d="M458.228,87.732l-6.485,13.397l-16.384,33.707l-5.717,11.605h-0.085
			c-2.816,5.803-12.629,7.509-26.625,5.717c-5.671-0.776-11.286-1.916-16.811-3.413c-14.839-4.048-29.266-9.477-43.093-16.213
			c-36.608-17.579-63.403-39.851-65.451-53.504c-0.448-1.798-0.267-3.695,0.512-5.376l16.299-33.451l12.288-25.259
			c-3.072,6.485,3.413,16.725,16.213,27.819c14.808,12.49,31.224,22.937,48.811,31.061c13.89,6.751,28.373,12.207,43.264,16.299
			h0.085C437.577,95.924,454.473,95.582,458.228,87.732z"/>
		<path style="fill:#9E9E9E;" d="M451.743,101.129l-16.384,33.707l-5.717,11.605h-0.085c-2.816,5.803-12.629,7.509-26.625,5.717
			c-5.671-0.776-11.286-1.916-16.811-3.413c-5.717-2.304-11.605-4.864-17.493-7.68c-36.608-17.579-63.403-39.851-65.451-53.504
			c-0.448-1.798-0.267-3.695,0.512-5.376l16.299-33.451l2.901-5.973c14.808,12.49,31.224,22.937,48.811,31.061
			c13.89,6.751,28.373,12.207,43.264,16.299h0.085C426.892,94.977,439.182,98.664,451.743,101.129z"/>
		<g>
			<path style="fill:#E91E63;" d="M45.215,298.676l-1.195,0.512l-1.536-3.328c-2.984-6.701-5.41-13.636-7.253-20.736
				c-18.773-72.448,28.587-140.288,28.587-140.288l5.717,11.605h0.085c2.816,5.803,12.629,7.509,26.625,5.717l0.171,1.451
				C96.415,153.609,36.681,213.342,45.215,298.676z"/>
			<path style="fill:#E91E63;" d="M463.945,275.124c-1.843,7.1-4.269,14.035-7.253,20.736l-1.536,3.328l-1.195-0.512
				c8.533-85.333-51.2-145.067-51.2-145.067l0.171-1.451c13.995,1.792,23.808,0.085,26.625-5.717h0.085l5.717-11.605
				C435.359,134.836,482.719,202.676,463.945,275.124z"/>
			<path style="fill:#E91E63;" d="M278.089,73.652c-0.779,1.681-0.96,3.578-0.512,5.376c-18.542-2.958-37.437-2.958-55.979,0
				c0.448-1.798,0.267-3.695-0.512-5.376l-16.298-33.451c29.32-8.078,60.28-8.078,89.6,0L278.089,73.652z"/>
		</g>
		<g>
			<path style="fill:#606060;" d="M88.137,400.734l-0.683,0.341l-36.608-6.144c-9.025-1.473-16.574-7.656-19.797-16.213
				L14.58,334.686c-2.504-6.653-2.101-14.052,1.109-20.395l19.541-39.168c1.843,7.1,4.269,14.035,7.253,20.736l1.536,3.328
				C61.343,338.356,74.399,373.428,88.137,400.734z"/>
			<path style="fill:#606060;" d="M221.599,79.028c-2.048,13.653-28.842,35.925-65.451,53.504
				c-13.827,6.737-28.255,12.165-43.093,16.213c-5.525,1.497-11.14,2.637-16.811,3.413c-13.995,1.792-23.808,0.085-26.625-5.717
				h-0.085l-5.717-11.605l-16.384-33.707l-6.485-13.397c3.755,7.851,20.651,8.192,43.179,2.389h0.085
				c14.891-4.092,29.374-9.548,43.264-16.299c17.586-8.124,34.003-18.571,48.811-31.061c12.8-11.093,19.285-21.333,16.213-27.819
				l12.288,25.259l16.299,33.451C221.866,75.333,222.047,77.23,221.599,79.028z"/>
		</g>
		<path style="fill:#9E9E9E;" d="M195.999,87.561c-2.048,13.653-28.842,35.925-65.451,53.504c-5.888,2.816-11.776,5.376-17.493,7.68
			c-5.525,1.497-11.14,2.637-16.811,3.413c-13.995,1.792-23.808,0.085-26.625-5.717h-0.085l-5.717-11.605l-16.384-33.707
			c12.561-2.465,24.85-6.151,36.693-11.008h0.085c14.891-4.092,29.374-9.548,43.264-16.299
			c17.586-8.124,34.003-18.571,48.811-31.061l2.901,5.973l16.299,33.451C196.266,83.866,196.447,85.763,195.999,87.561z"/>
		<path style="fill:#606060;" d="M484.596,334.686l-16.469,44.032c-3.223,8.557-10.773,14.74-19.797,16.213l-36.608,6.144
			l-0.683-0.341c13.739-27.307,26.795-62.379,44.117-101.547l1.536-3.328c2.984-6.701,5.41-13.636,7.253-20.736l19.541,39.168
			C486.698,320.634,487.1,328.033,484.596,334.686z"/>
		<path style="fill:#E91E63;" d="M181.663,477.108l-0.341,0.768c-59.733,51.2-128,8.533-128,8.533
			c34.133-17.067,42.667-68.267,42.667-68.267l1.195-0.683c8.216,16.509,21.49,29.963,37.888,38.4
			C148.98,461.918,165.449,469.684,181.663,477.108z"/>
		<g>
			<g>
				<circle style="fill:#FB7B76;" cx="172.788" cy="281.609" r="8.533"/>
				<circle style="fill:#FB7B76;" cx="377.588" cy="281.609" r="8.533"/>
			</g>
			<path style="fill:#AD1457;" d="M493.556,375.305c-2.158-5.348-5.348-10.219-9.387-14.336c-3.9-4.186-8.639-7.501-13.909-9.728
				c-5.367-2.402-11.187-3.625-17.067-3.584c-1.596-0.002-3.192,0.083-4.779,0.256c-0.683,0.085-1.195,0.171-1.877,0.256
				c-2.122,0.261-4.21,0.747-6.229,1.451c-1.427,0.451-2.823,0.993-4.181,1.621c-5.284,2.247-10.048,5.558-13.995,9.728
				c-4.384,4.888-7.904,10.486-10.411,16.555c-1.812-4.337-4.101-8.459-6.827-12.288c-1.114-1.488-2.31-2.913-3.584-4.267
				c-0.755-0.783-1.553-1.524-2.389-2.219c-3.402-3.16-7.329-5.701-11.605-7.509c-5.361-2.419-11.185-3.642-17.067-3.584
				c-4.317-0.049-8.613,0.614-12.715,1.963h-0.171c-1.422,0.466-2.817,1.007-4.181,1.621c-5.27,2.227-10.01,5.542-13.909,9.728
				c-4.039,4.117-7.228,8.988-9.387,14.336c-4.665,11.284-4.665,23.958,0,35.243l1.365,2.56l52.395,60.501l2.645,3.157l2.304,2.56
				l10.325,11.861l9.216,10.581c0.869,1.092,2.188,1.728,3.584,1.728s2.715-0.636,3.584-1.728l76.885-88.661l1.365-2.56
				C498.221,399.263,498.221,386.589,493.556,375.305z"/>
			<path style="fill:#E91E63;" d="M471.455,392.884c0.044,6.064-1.146,12.074-3.499,17.664l-1.365,2.56l-67.669,78.08
				l-10.325-11.861l-2.304-2.56l-2.645-3.157l-52.395-60.501l-1.365-2.56c-4.665-11.285-4.665-23.958,0-35.243
				c2.158-5.348,5.348-10.219,9.387-14.336c3.9-4.186,8.64-7.501,13.909-9.728c1.364-0.614,2.76-1.156,4.181-1.621h0.171
				c4.102-1.349,8.397-2.012,12.715-1.963c5.882-0.058,11.705,1.165,17.067,3.584c4.276,1.808,8.204,4.35,11.605,7.509
				c0.837,0.695,1.634,1.436,2.389,2.219c1.274,1.354,2.47,2.778,3.584,4.267c2.725,3.829,5.015,7.951,6.827,12.288
				c2.507-6.069,6.027-11.667,10.411-16.555c3.947-4.17,8.711-7.481,13.995-9.728c1.358-0.628,2.755-1.17,4.181-1.621
				c1.49,0.427,2.945,0.969,4.352,1.621c5.27,2.227,10.01,5.542,13.909,9.728c4.039,4.117,7.228,8.988,9.387,14.336
				C470.292,380.87,471.482,386.848,471.455,392.884z"/>
		</g>
	</g>
	<g>
		<path d="M251.021,335.93c9.683-0.517,18.04,6.721,18.908,16.379c0.792,4.646,5.2,7.771,9.846,6.979
			c4.646-0.792,7.771-5.2,6.979-9.846c-2.305-18.028-18.007-31.304-36.167-30.579c-18.162-0.729-33.866,12.549-36.167,30.579
			c-0.792,4.646,2.333,9.054,6.979,9.846c4.646,0.792,9.054-2.333,9.846-6.979c0.88-9.619,9.177-16.839,18.825-16.384
			C250.388,335.945,250.705,335.947,251.021,335.93z"/>
		<path d="M214.567,269.188c-0.919-2.068-2.622-3.687-4.734-4.499c-2.112-0.812-4.461-0.751-6.528,0.17
			c-51.181,22.747-80.028,2.341-92.296-11.05c-0.046-0.053-0.057-0.122-0.104-0.175c-0.06-0.066-0.144-0.088-0.206-0.152
			c-2.581-2.789-4.863-5.84-6.811-9.103c-2.275-4.097-7.427-5.593-11.542-3.352c-4.115,2.241-5.653,7.381-3.446,11.514
			c1.206,2.046,2.537,4.016,3.983,5.899L81.721,268.55c-3.493,3.164-3.76,8.561-0.596,12.055c3.164,3.493,8.561,3.76,12.054,0.596
			l11.315-10.247c3.066,2.727,6.323,5.232,9.746,7.495l-4.469,13.147c-1.012,2.895-0.394,6.11,1.621,8.422
			c2.014,2.312,5.114,3.366,8.121,2.76c3.006-0.606,5.456-2.778,6.417-5.691l3.621-10.653c4.374,1.73,8.891,3.076,13.5,4.021v17.486
			c0,4.713,3.821,8.533,8.533,8.533s8.533-3.82,8.533-8.533v-15.781c0.102,0,0.194,0.015,0.296,0.015
			c17.248-0.358,34.227-4.354,49.825-11.725c2.069-0.918,3.688-2.621,4.5-4.734C215.549,273.604,215.488,271.256,214.567,269.188z"
			/>
		<path d="M108.688,222.163c2.81,0.005,5.442-1.376,7.033-3.692c0.25-0.358,25.479-35.763,87.479-25.45
			c4.626,0.73,8.977-2.405,9.748-7.025s-2.326-8.998-6.939-9.809c-72.6-12.087-103.075,30.763-104.337,32.6
			c-1.797,2.609-2.001,6-0.529,8.806C102.614,220.399,105.52,222.159,108.688,222.163L108.688,222.163z"/>
		<path d="M341.059,292.161v15.781c0,4.713,3.82,8.533,8.533,8.533s8.533-3.82,8.533-8.533v-17.486
			c4.608-0.945,9.125-2.291,13.5-4.022l3.621,10.654c1.546,4.421,6.367,6.769,10.801,5.262c4.434-1.507,6.825-6.306,5.357-10.754
			l-4.469-13.15c3.422-2.263,6.679-4.768,9.745-7.494l11.316,10.248c3.495,3.146,8.877,2.872,12.034-0.614
			c3.157-3.485,2.9-8.868-0.576-12.036l-11.164-10.11c1.447-1.883,2.778-3.853,3.984-5.898c1.453-2.679,1.366-5.931-0.228-8.529
			c-1.594-2.598-4.453-4.148-7.5-4.067c-3.047,0.082-5.819,1.782-7.272,4.462c-1.828,3.141-3.974,6.084-6.406,8.784
			c-0.186,0.172-0.424,0.25-0.598,0.441c-0.147,0.162-0.19,0.371-0.322,0.542c-4.579,5.004-9.917,9.256-15.818,12.599
			c-0.056,0.018-0.112,0.003-0.168,0.022c-0.499,0.226-0.974,0.502-1.417,0.824c-15.936,8.429-40.176,12.577-74.674-2.762
			c-2.786-1.243-6.024-0.904-8.492,0.889c-2.468,1.793-3.791,4.768-3.469,7.802c0.322,3.034,2.239,5.665,5.028,6.901
			c15.598,7.371,32.577,11.366,49.825,11.725C340.865,292.176,340.957,292.162,341.059,292.161z"/>
		<path d="M297.976,193.021c61.296-10.208,86.367,23.888,87.5,25.483c2.695,3.843,7.987,4.788,11.845,2.115
			c3.858-2.672,4.834-7.959,2.184-11.832c-1.258-1.833-31.721-44.688-104.337-32.6c-4.613,0.811-7.71,5.189-6.939,9.809
			C288.998,190.617,293.349,193.752,297.976,193.021L297.976,193.021z"/>
		<path d="M301.726,399.038c-1.057-6.803-6.331-12.175-13.112-13.358l-35.921-9.142c-2.955-0.752-6.086,0.13-8.215,2.313
			s-2.931,5.336-2.104,8.271c0.826,2.935,3.156,5.206,6.111,5.958l30.796,7.838l-10.192,4.862
			c-5.503,2.043-9.155,7.293-9.155,13.163c0,5.87,3.652,11.12,9.155,13.163l10.167,4.871l-30.771,7.829
			c-4.568,1.162-7.329,5.807-6.167,10.375c1.162,4.568,5.807,7.329,10.375,6.167l35.921-9.142
			c6.782-1.183,12.056-6.556,13.112-13.358c0.39-6.26-3.271-12.066-9.087-14.413l-11.487-5.5l11.487-5.483
			C298.454,411.104,302.116,405.298,301.726,399.038z"/>
		<path d="M491.413,356.155c-1.023-1.102-2.109-2.126-3.217-3.121l5.4-14.371c3.303-8.871,2.771-18.716-1.471-27.179l-18.23-36.534
			c15.077-64.488-17.684-123.639-27.773-139.76l20.77-42.747l0.004-0.016l0.012-0.017c4.796-9.983-0.758-22.288-16.517-36.563
			c-15.844-13.589-33.49-24.924-52.437-33.683c-18.678-9.316-38.554-16.008-59.063-19.888c-20.916-3.364-33.978-0.046-38.811,9.862
			l-0.035,0.046l-0.019,0.038l-0.002,0.004l-0.001,0.003l-9.28,19.037c-26.43-6.044-53.883-6.044-80.314,0l-9.28-19.037
			l-0.001-0.003l-0.002-0.004l-0.019-0.038l-0.034-0.045c-4.837-9.91-17.886-13.236-38.812-9.863
			c-20.509,3.879-40.384,10.572-59.063,19.887c-18.947,8.759-36.593,20.094-52.437,33.683
			C35.026,70.121,29.471,82.425,34.267,92.409l0.012,0.017l0.004,0.016l20.767,42.741c-10.13,16.143-43.161,75.425-27.854,139.925
			L9.013,311.476c-4.231,8.493-4.748,18.361-1.429,27.25l16.492,43.979c4.299,11.402,14.334,19.659,26.35,21.683l33.196,5.533
			c1.569,3.044,3.154,5.984,4.754,8.82c-1.324,6.668-10.432,47.317-37.871,61.034c-2.762,1.381-4.562,4.145-4.708,7.229
			c-0.146,3.084,1.385,6.006,4.004,7.642C70,506.006,92.724,512.12,115.896,512.43c24.899,0.061,49.05-8.505,68.346-24.241
			c34.004,15.58,55.894,24.82,66.345,24.82c10.412,0,31.346-8.754,71.512-27.158l4.763-2.208
			c13.621-6.316,27.159-12.58,38.962-17.772l36.788,42.451c2.507,2.962,6.186,4.675,10.067,4.687s7.571-1.679,10.096-4.625
			l76.892-88.729c0.429-0.497,0.801-1.041,1.108-1.621l1.625-3.167c2.797-6.633,4.221-13.764,4.187-20.963
			c0.017-7.154-1.389-14.241-4.137-20.846C499.915,366.755,496.164,361.012,491.413,356.155z M477.609,332.688l-4.224,11.244
			c-7.915-3.373-16.586-4.572-25.119-3.472c5.41-12.919,10.987-26.128,17.227-40.139c0.324-0.729,0.569-1.488,0.88-2.221
			l10.503,21.046C479.017,323.355,479.283,328.272,477.609,332.688z M460.603,246.968c-6.571-30.983-20.053-60.083-39.439-85.129
			c2.049-0.276,4.066-0.749,6.025-1.41c2.829-0.943,5.421-2.489,7.596-4.529c0.877-0.619,1.627-1.4,2.211-2.301
			C452.845,182.142,460.982,214.322,460.603,246.968z M286.925,79.458c0.017-0.437,0.001-0.874-0.048-1.309l19.497-39.999
			c13.684,17.355,42.118,34.481,62.605,44.326c18.678,9.316,38.553,16.009,59.063,19.888c4.737,0.803,9.529,1.229,14.333,1.275
			l0.107-0.009l-19.289,39.698c-0.052,0.098-0.145,0.155-0.194,0.257c-3.421,3.604-30.821,3.65-75.242-17.746
			C306.143,105.839,288.508,85.823,286.925,79.458z M390.563,37.546c44.379,21.321,61.542,42.746,61.079,47.287
			c-3.438,3.596-30.892,3.583-75.271-17.742c-43.716-21.008-61.021-42.108-60.908-47.45
			C319.563,16.23,346.851,16.546,390.563,37.546z M283.103,46.943l-11.531,23.656c-13.946-1.562-28.022-1.562-41.968,0.001
			l-11.531-23.656C239.535,42.632,261.641,42.632,283.103,46.943L283.103,46.943z M78.284,143.754
			c-0.066-0.138-0.193-0.218-0.265-0.351l-19.326-39.774l0.107,0.009c4.804-0.046,9.597-0.472,14.333-1.275
			c20.509-3.879,40.384-10.571,59.063-19.887c20.487-9.844,48.922-26.971,62.605-44.326l19.489,39.982l0.006,0.022
			c0.692,4.908-16.4,26.308-60.887,47.688C109.001,147.234,81.584,147.192,78.284,143.754z M110.613,37.546
			c20.529-11.033,43.125-17.682,66.358-19.525c3.009-0.308,6.043,0.255,8.742,1.621c0.112,5.342-17.192,26.442-60.908,47.45
			c-44.249,21.26-71.658,21.328-75.04,18.16l-0.039-0.08C49.183,80.156,66.366,58.804,110.613,37.546z M64.189,153.611
			c0.582,0.896,1.33,1.673,2.203,2.29c2.175,2.041,4.767,3.586,7.596,4.529c1.958,0.663,3.975,1.136,6.023,1.412
			c-19.366,25.021-32.84,54.087-39.42,85.036C40.273,214.273,48.402,182.141,64.189,153.611z M53.234,387.555
			c-6.009-1.01-11.027-5.14-13.175-10.842l-16.492-43.979c-1.662-4.444-1.404-9.379,0.713-13.625l10.497-20.994
			c0.316,0.742,0.585,1.485,0.916,2.227c7.579,16.954,14.246,32.954,20.696,48.429c3.444,8.264,6.746,16.166,9.986,23.753
			l0.052,0.121c2.738,6.41,5.442,12.563,8.112,18.46L53.234,387.555z M165.255,460.644c-9.07-4.174-17.857-8.174-25.792-11.615
			c-20.155-8.727-34.857-33.128-49.82-66.021l63.991,21.371c6.959,2.291,11.65,8.803,11.621,16.129L165.255,460.644z M71.18,486.338
			c14.004-13.155,24.25-29.804,29.682-48.234c8.09,11.498,19.061,20.666,31.814,26.584c10.265,4.452,21.954,9.837,33.872,15.347
			C137.897,498.212,101.974,500.587,71.18,486.338L71.18,486.338z M319.684,468.159l-4.725,2.192
			c-20.888,9.571-55.85,25.591-64.371,25.591c-8.391,0-41.651-15.129-68.267-27.42v-48.013c0.044-14.689-9.368-27.739-23.321-32.333
			l-78.589-26.248c-2.702-6.369-5.459-12.943-8.27-19.723c-5.53-13.265-11.342-27.06-17.643-41.412
			c0.145-0.645,0.211-1.306,0.197-1.967c-7.867-78.654,46.038-135.39,48.539-137.969c19.988-3.921,39.355-10.526,57.574-19.635
			c24.051-11.558,59.067-33.152,68.241-53.382c14.301-1.817,28.775-1.817,43.076,0c9.173,20.23,44.189,41.823,68.233,53.378
			c18.222,9.111,37.592,15.717,57.584,19.64c2.441,2.507,56.433,59.002,48.536,137.969c-0.014,0.664,0.052,1.327,0.198,1.976
			c-6.63,15.126-12.739,29.614-18.552,43.537l-1.714,4.098c-3.389,2.118-6.512,4.634-9.303,7.494
			c-1.588,1.621-3.052,3.359-4.379,5.2c-1.309-1.774-2.73-3.462-4.254-5.054c-4.698-4.969-10.357-8.931-16.633-11.646
			c-13.041-5.728-27.88-5.755-40.942-0.075c-6.309,2.637-11.986,6.582-16.658,11.575c-4.827,4.894-8.64,10.692-11.221,17.062
			c-5.663,13.626-5.549,28.968,0.317,42.508l1.329,2.533c0.306,0.579,0.677,1.121,1.104,1.617l28.365,32.731
			C343.371,457.187,331.563,462.652,319.684,468.159L319.684,468.159z M486.989,407.567l-0.867,1.658l-73.404,84.704l-73.434-84.746
			l-0.533-0.983c-1.898-4.525-2.861-9.388-2.829-14.296c-0.01-4.948,0.969-9.848,2.879-14.413c1.773-4.386,4.404-8.373,7.738-11.729
			c3.127-3.356,6.938-6.002,11.175-7.758c14.7-6.263,31.777-1.611,41.271,11.242c2.322,3.249,4.272,6.749,5.812,10.433
			c1.294,3.243,4.432,5.37,7.924,5.371c3.491,0.001,6.631-2.125,7.926-5.367c2.079-5.079,5.018-9.761,8.688-13.842
			c3.181-3.36,7.017-6.032,11.271-7.85c2.595-1.184,5.352-1.978,8.179-2.354l1.696-0.267c5.945-0.692,11.966,0.244,17.421,2.708
			c4.264,1.799,8.09,4.497,11.217,7.908c3.259,3.32,5.826,7.252,7.554,11.571c1.893,4.545,2.862,9.422,2.85,14.346
			C489.567,398.58,488.706,403.219,486.989,407.567L486.989,407.567z"/>
	</g>
</g>
<g>
</g>
<g>
</g>
<g>
</g>
<g>
</g>
<g>
</g>
<g>
</g>
<g>
</g>
<g>
</g>
<g>
</g>
<g>
</g>
<g>
</g>
<g>
</g>
<g>
</g>
<g>
</g>
<g>
</g>
</svg>
