<?xml version="1.0" encoding="iso-8859-1"?>
<!-- Generator: Adobe Illustrator 19.0.0, SVG Export Plug-In . SVG Version: 6.00 Build 0)  -->
<svg version="1.1" id="Capa_1" xmlns="http://www.w3.org/2000/svg" xmlns:xlink="http://www.w3.org/1999/xlink" x="0px" y="0px"
	 viewBox="0 0 512.009 512.009" style="enable-background:new 0 0 512.009 512.009;" xml:space="preserve">
<g transform="translate(0 -1)">
	<g transform="translate(1 1)">
		<path style="fill:#00838F;" d="M469.362,275.124c-1.843,7.1-4.269,14.035-7.253,20.736l-1.536,3.328
			c-17.323,39.168-30.379,74.24-44.117,101.547c-2.901,5.973-5.888,11.52-9.045,16.725c-8.216,16.509-21.49,29.963-37.888,38.4
			c-13.909,6.059-30.379,13.824-46.592,21.248c-29.611,13.568-58.112,26.368-67.925,26.368c-9.794-1.532-19.311-4.494-28.245-8.789
			c-11.691-4.779-25.6-11.093-39.68-17.579c-16.213-7.424-32.683-15.189-46.592-21.248c-16.398-8.437-29.672-21.891-37.888-38.4
			c-3.157-5.205-6.144-10.752-9.045-16.725c-13.739-27.307-26.795-62.379-44.117-101.547l-1.536-3.328
			c-2.984-6.701-5.41-13.636-7.253-20.736c-18.773-72.448,28.587-140.288,28.587-140.288L46.365,87.732
			c-5.973-12.459,23.125-38.741,64.939-58.88c19.564-9.925,40.597-16.638,62.293-19.883c12.8-1.365,21.675,0.512,24.32,5.973
			l6.059,12.544l6.229,12.715c29.32-8.078,60.279-8.078,89.6,0l12.288-25.259c3.755-7.851,20.651-8.277,43.179-2.389h0.085
			c14.936,4.039,29.452,9.496,43.349,16.299c41.813,20.139,70.912,46.421,64.939,58.88l-22.869,47.104
			C440.775,134.836,488.135,202.676,469.362,275.124z"/>
		<g>
			<path style="fill:#00BCD4;" d="M203.975,27.486l6.229,12.715c29.32-8.078,60.279-8.078,89.6,0l12.288-25.259
				c3.755-7.851,20.651-8.277,43.179-2.389h0.085c5.803,2.304,11.776,4.864,17.749,7.765c41.813,20.139,70.912,46.421,64.939,58.88
				l-22.869,47.104c0,0,47.36,67.84,28.587,140.288c-1.843,7.1-4.269,14.035-7.253,20.736l-1.536,3.328
				c-17.323,39.168-30.379,74.24-44.117,101.547c-2.901,5.973-5.888,11.52-9.045,16.725c-8.216,16.509-21.49,29.963-37.888,38.4
				c-13.909,6.059-30.379,13.824-46.592,21.248c-29.611,13.568-58.112,26.368-67.925,26.368c-0.887-0.012-1.772-0.098-2.645-0.256
				c-11.691-4.779-25.6-11.093-39.68-17.579c-16.213-7.424-32.683-15.189-46.592-21.248c-16.398-8.437-29.672-21.891-37.888-38.4
				c-3.157-5.205-6.144-10.752-9.045-16.725c-13.739-27.307-26.795-62.379-44.117-101.547l-1.536-3.328
				c-2.984-6.701-5.41-13.636-7.253-20.736c-18.773-72.448,28.587-140.288,28.587-140.288L46.365,87.732
				c-5.973-12.459,23.125-38.741,64.939-58.88c19.564-9.925,40.597-16.638,62.293-19.883"/>
			<path style="fill:#00BCD4;" d="M92.871,401.076l-36.608-6.144c-9.025-1.473-16.574-7.656-19.797-16.213l-16.469-44.032
				c-2.504-6.653-2.101-14.052,1.109-20.395l19.541-39.168c1.843,7.1,4.269,14.035,7.253,20.736l1.536,3.328
				c17.323,39.168,30.379,74.24,44.117,101.547L92.871,401.076z"/>
			<path style="fill:#00BCD4;" d="M140.487,455.86c13.909,6.059,30.379,13.824,46.592,21.248l-0.341,0.768
				c-59.733,51.2-128,8.533-128,8.533c34.133-17.067,42.667-68.267,42.667-68.267l1.195-0.683
				C110.815,433.969,124.09,447.423,140.487,455.86z"/>
			<path style="fill:#00BCD4;" d="M451.271,486.409c0,0-68.267,42.667-128-8.533l-0.341-0.768
				c16.213-7.424,32.683-15.189,46.592-21.248c16.398-8.437,29.672-21.891,37.888-38.4l1.195,0.683
				C408.605,418.142,417.138,469.342,451.271,486.409z"/>
			<path style="fill:#00BCD4;" d="M490.013,334.686l-16.469,44.032c-3.223,8.557-10.773,14.74-19.797,16.213l-36.608,6.144
				l-0.683-0.341c13.739-27.307,26.795-62.379,44.117-101.547l1.536-3.328c2.984-6.701,5.41-13.636,7.253-20.736l19.541,39.168
				C492.114,320.634,492.516,328.033,490.013,334.686z"/>
			<path style="fill:#00BCD4;" d="M132.893,73.822c-41.813,20.053-80.555,26.283-86.528,13.909
				c-5.973-12.459,23.125-38.741,64.939-58.88c41.899-20.139,80.64-26.368,86.613-13.909
				C203.805,27.316,174.791,53.684,132.893,73.822z"/>
		</g>
		<path style="fill:none;stroke:#000000;stroke-width:2;stroke-linecap:round;stroke-linejoin:round;" d="M75.634,147.892
			l-0.683-1.451"/>
		<path style="fill:#00BCD4;" d="M463.645,87.732c-5.973,12.373-44.715,6.144-86.528-13.909
			c-41.899-20.139-70.912-46.507-65.024-58.88c5.973-12.459,44.715-6.229,86.613,13.909
			C440.519,48.99,469.618,75.273,463.645,87.732z"/>
		<path style="fill:#606060;" d="M463.645,87.732l-6.485,13.397l-16.384,33.707l-5.717,11.605h-0.085
			c-2.816,5.803-12.629,7.509-26.625,5.717c-5.671-0.776-11.286-1.916-16.811-3.413c-14.839-4.048-29.266-9.477-43.093-16.213
			c-36.608-17.579-63.403-39.851-65.451-53.504c-0.448-1.798-0.267-3.695,0.512-5.376l16.299-33.451l12.288-25.259
			c-3.072,6.485,3.413,16.725,16.213,27.819c14.808,12.49,31.224,22.937,48.811,31.061c13.89,6.751,28.373,12.207,43.264,16.299
			h0.085C442.994,95.924,459.89,95.582,463.645,87.732z"/>
		<path style="fill:#9E9E9E;" d="M457.159,101.129l-16.384,33.707l-5.717,11.605h-0.085c-2.816,5.803-12.629,7.509-26.625,5.717
			c-5.671-0.776-11.286-1.916-16.811-3.413c-5.717-2.304-11.605-4.864-17.493-7.68c-36.608-17.579-63.403-39.851-65.451-53.504
			c-0.448-1.798-0.267-3.695,0.512-5.376l16.299-33.451l2.901-5.973c14.808,12.49,31.224,22.937,48.811,31.061
			c13.89,6.751,28.373,12.207,43.264,16.299h0.085C432.309,94.977,444.598,98.664,457.159,101.129z"/>
		<g>
			<path style="fill:#E91E63;" d="M50.631,298.676l-1.195,0.512l-1.536-3.328c-2.984-6.701-5.41-13.636-7.253-20.736
				c-18.773-72.448,28.587-140.288,28.587-140.288l5.717,11.605h0.085c2.816,5.803,12.629,7.509,26.625,5.717l0.171,1.451
				C101.832,153.609,42.098,213.342,50.631,298.676z"/>
			<path style="fill:#E91E63;" d="M469.362,275.124c-1.843,7.1-4.269,14.035-7.253,20.736l-1.536,3.328l-1.195-0.512
				c8.533-85.333-51.2-145.067-51.2-145.067l0.171-1.451c13.995,1.792,23.808,0.085,26.625-5.717h0.085l5.717-11.605
				C440.775,134.836,488.135,202.676,469.362,275.124z"/>
			<path style="fill:#E91E63;" d="M283.506,73.652c-0.779,1.681-0.96,3.578-0.512,5.376c-18.542-2.958-37.437-2.958-55.979,0
				c0.448-1.798,0.267-3.695-0.512-5.376l-16.298-33.451c29.32-8.078,60.279-8.078,89.6,0L283.506,73.652z"/>
		</g>
		<g>
			<path style="fill:#606060;" d="M93.554,400.734l-0.683,0.341l-36.608-6.144c-9.025-1.473-16.574-7.656-19.797-16.213
				l-16.469-44.032c-2.504-6.653-2.101-14.052,1.109-20.395l19.541-39.168c1.843,7.1,4.269,14.035,7.253,20.736l1.536,3.328
				C66.759,338.356,79.815,373.428,93.554,400.734z"/>
			<path style="fill:#606060;" d="M227.015,79.028c-2.048,13.653-28.842,35.925-65.451,53.504
				c-13.827,6.737-28.255,12.165-43.093,16.213c-5.525,1.497-11.14,2.637-16.811,3.413c-13.995,1.792-23.808,0.085-26.625-5.717
				h-0.085l-5.717-11.605L52.85,101.129l-6.485-13.397c3.755,7.851,20.651,8.192,43.179,2.389h0.085
				c14.891-4.092,29.374-9.548,43.264-16.299c17.586-8.124,34.003-18.571,48.811-31.061c12.8-11.093,19.285-21.333,16.213-27.819
				l12.288,25.259l16.299,33.451C227.282,75.333,227.463,77.23,227.015,79.028z"/>
		</g>
		<path style="fill:#9E9E9E;" d="M201.415,87.561c-2.048,13.653-28.842,35.925-65.451,53.504c-5.888,2.816-11.776,5.376-17.493,7.68
			c-5.525,1.497-11.14,2.637-16.811,3.413c-13.995,1.792-23.808,0.085-26.625-5.717h-0.085l-5.717-11.605L52.85,101.129
			c12.561-2.465,24.85-6.151,36.693-11.008h0.085c14.891-4.092,29.374-9.548,43.264-16.299
			c17.586-8.124,34.003-18.571,48.811-31.061l2.901,5.973l16.299,33.451C201.682,83.866,201.863,85.763,201.415,87.561z"/>
		<path style="fill:#606060;" d="M490.013,334.686l-16.469,44.032c-3.223,8.557-10.773,14.74-19.797,16.213l-36.608,6.144
			l-0.683-0.341c13.739-27.307,26.795-62.379,44.117-101.547l1.536-3.328c2.984-6.701,5.41-13.636,7.253-20.736l19.541,39.168
			C492.114,320.634,492.516,328.033,490.013,334.686z"/>
		<g>
			<path style="fill:#E91E63;" d="M187.079,477.108l-0.341,0.768c-59.733,51.2-128,8.533-128,8.533
				c34.133-17.067,42.667-68.267,42.667-68.267l1.195-0.683c8.216,16.509,21.49,29.963,37.888,38.4
				C154.397,461.918,170.866,469.684,187.079,477.108z"/>
			<path style="fill:#E91E63;" d="M451.271,486.409c0,0-68.267,42.667-128-8.533l-0.341-0.768
				c16.213-7.424,32.683-15.189,46.592-21.248c16.398-8.437,29.672-21.891,37.888-38.4l1.195,0.683
				C408.605,418.142,417.138,469.342,451.271,486.409z"/>
		</g>
		<g>
			<circle style="fill:#FB7B76;" cx="135.538" cy="273.076" r="17.067"/>
			<circle style="fill:#FB7B76;" cx="178.205" cy="281.609" r="8.533"/>
			<circle style="fill:#FB7B76;" cx="340.338" cy="273.076" r="17.067"/>
			<circle style="fill:#FB7B76;" cx="383.005" cy="281.609" r="8.533"/>
		</g>
		<path style="fill:#FEC108;" d="M199.709,308.233l-73.728,4.011l-19.456,1.109c-4.221,0.324-8.362-1.281-11.263-4.364
			c-2.901-3.083-4.25-7.314-3.67-11.508c0.009-0.065,0.039-0.125,0.085-0.171c4.352-22.272,19.712-73.643,66.645-66.901
			c1.792,0.256,3.584,0.597,5.291,0.939c34.645,7.509,47.275,36.181,51.797,55.979c1.132,4.912,0.038,10.074-2.989,14.105
			C209.394,305.462,204.742,307.951,199.709,308.233z"/>
		<path style="fill:#FFEB3A;" d="M199.709,308.233l-73.728,4.011c-6.115-2.147-9.816-8.364-8.789-14.763
			c0.009-0.065,0.039-0.125,0.085-0.171c3.669-18.688,15.019-57.856,46.336-65.963c34.645,7.509,47.275,36.181,51.797,55.979
			c1.132,4.912,0.038,10.074-2.989,14.105C209.394,305.462,204.742,307.951,199.709,308.233z"/>
		<path style="fill:#FEC108;" d="M403.485,313.353l-19.456-1.109l-73.728-4.011c-5.033-0.282-9.685-2.771-12.712-6.802
			c-3.027-4.031-4.121-9.192-2.989-14.105c4.523-19.797,17.152-48.469,51.797-55.979c1.707-0.341,3.499-0.683,5.291-0.939
			c46.933-6.741,62.293,44.629,66.645,66.901c0.046,0.046,0.076,0.106,0.085,0.171c0.58,4.194-0.769,8.424-3.67,11.508
			C411.846,312.072,407.706,313.677,403.485,313.353z"/>
		<path style="fill:#FFEB3A;" d="M384.029,312.244l-73.728-4.011c-5.033-0.282-9.685-2.771-12.712-6.802
			c-3.027-4.031-4.121-9.192-2.989-14.105c4.523-19.797,17.152-48.469,51.797-55.979c31.317,8.107,42.667,47.275,46.336,65.963
			c0.046,0.046,0.076,0.106,0.085,0.171C393.845,303.88,390.144,310.097,384.029,312.244z"/>
	</g>
	<g>
		<path d="M224.759,286.43c-8.342-36.204-31.15-58.742-64.221-63.467c-37.604-5.417-66.079,22.167-76.321,73.983
			c-1.176,6.493,0.712,13.166,5.117,18.079c4.428,4.996,10.778,7.865,17.454,7.883c0.412,0,0.829-0.012,1.246-0.033l93.167-5.133
			c7.545-0.412,14.523-4.136,19.066-10.174C224.809,301.53,226.454,293.794,224.759,286.43L224.759,286.43z M206.638,297.301
			c-1.509,2.033-3.85,3.281-6.379,3.4l-93.167,5.133c-1.887,0.123-3.721-0.651-4.95-2.087c-0.959-1.023-1.376-2.441-1.121-3.821
			c4.596-23.25,17.142-60.567,50.292-60.567c2.278,0.006,4.553,0.171,6.808,0.496c32.812,4.692,45.304,30,50.004,50.408
			C208.711,292.713,208.165,295.297,206.638,297.301z"/>
		<path d="M93.905,221.751c1.965,1.123,4.295,1.42,6.479,0.824c2.183-0.595,4.041-2.034,5.163-3.999
			c1.225-2.142,30.758-51.958,99.379-13.842c2.667,1.515,5.942,1.481,8.578-0.087c2.636-1.569,4.227-4.431,4.168-7.498
			c-0.059-3.067-1.76-5.866-4.454-7.331c-83.221-46.234-122.1,19.625-122.487,20.292C88.392,214.201,89.813,219.412,93.905,221.751z
			"/>
		<path d="M307.084,204.734c68.137-37.829,98.116,11.683,99.396,13.871c1.518,2.644,4.33,4.277,7.379,4.285s5.869-1.612,7.4-4.248
			c1.531-2.636,1.539-5.889,0.021-8.533c-0.383-0.667-39.258-66.529-122.487-20.292c-2.694,1.466-4.395,4.265-4.454,7.331
			c-0.059,3.067,1.532,5.929,4.168,7.498C301.142,206.215,304.417,206.248,307.084,204.734L307.084,204.734z"/>
		<path d="M479.37,275.056c15.295-64.404-17.689-123.648-27.845-139.838l20.784-42.776l0.004-0.016l0.012-0.017
			c4.796-9.983-0.758-22.288-16.517-36.563c-15.844-13.589-33.49-24.924-52.437-33.683c-18.678-9.316-38.554-16.008-59.063-19.888
			c-20.916-3.364-33.978-0.046-38.811,9.863l-0.034,0.045l-0.019,0.038l-0.002,0.004l-0.001,0.003l-9.28,19.037
			c-26.43-6.044-53.883-6.044-80.314,0l-9.28-19.037l-0.001-0.003l-0.002-0.004l-0.019-0.038l-0.034-0.045
			c-4.837-9.91-17.886-13.236-38.812-9.863c-20.509,3.879-40.384,10.572-59.063,19.887c-18.947,8.759-36.593,20.094-52.437,33.683
			C40.442,70.121,34.888,82.425,39.684,92.409l0.012,0.017l0.004,0.016l20.784,42.776c-10.156,16.19-43.14,75.434-27.845,139.838
			l-18.21,36.419c-4.231,8.493-4.748,18.361-1.429,27.25l16.492,43.979c4.299,11.402,14.334,19.659,26.35,21.683l33.227,5.538
			c1.562,3.028,3.139,5.953,4.731,8.777c-1.3,6.567-10.395,47.333-37.879,61.072c-2.762,1.381-4.562,4.145-4.708,7.229
			c-0.146,3.084,1.385,6.006,4.004,7.642c20.199,11.359,42.924,17.474,66.096,17.783c24.91,0.061,49.071-8.512,68.371-24.26
			c33.992,15.586,55.88,24.839,66.32,24.839c10.441,0,32.328-9.253,66.32-24.839c19.298,15.751,43.461,24.325,68.371,24.26
			c23.172-0.313,45.896-6.427,66.096-17.783c2.619-1.635,4.15-4.558,4.004-7.642c-0.146-3.084-1.947-5.849-4.708-7.229
			c-27.483-13.74-36.579-54.506-37.879-61.072c1.592-2.827,3.169-5.753,4.731-8.777l33.227-5.538
			c12.016-2.024,22.051-10.281,26.35-21.683l16.492-43.979c3.319-8.889,2.802-18.757-1.429-27.25L479.37,275.056z M367.134,449
			c-7.936,3.437-16.727,7.435-25.796,11.609l0-40.101c-0.016-3.036,0.809-6.017,2.383-8.613c0.273-0.317,0.521-0.654,0.742-1.008
			c1.992-3.109,5.014-5.417,8.537-6.521l63.922-21.349C401.964,415.895,387.258,440.279,367.134,449z M434.542,341.917
			c-2.864,6.878-5.661,13.551-8.39,20.02l-78.481,26.214c-6.011,1.971-11.324,5.639-15.298,10.56
			c-4.895,1.201-10.018,2.335-15.389,3.34c-9.158,1.717-19.025,3.058-29.313,3.983c-21.071,1.767-42.254,1.767-63.325,0
			c-10.296-0.925-20.162-2.267-29.325-3.983c-5.308-0.993-10.372-2.115-15.219-3.3c-4.029-4.905-9.363-8.571-15.386-10.575
			l-78.56-26.239c-2.741-6.463-5.538-13.136-8.39-20.02c-5.497-13.2-11.278-26.93-17.542-41.216
			c0.135-0.616,0.198-1.246,0.188-1.876c-7.867-78.654,46.038-135.39,48.539-137.969c19.988-3.922,39.355-10.526,57.574-19.635
			c24.051-11.558,59.067-33.152,68.241-53.382c14.301-1.817,28.775-1.817,43.076,0c9.173,20.23,44.189,41.823,68.233,53.378
			c18.222,9.111,37.592,15.717,57.584,19.64c2.441,2.507,56.433,59.002,48.536,137.969c-0.01,0.631,0.053,1.26,0.188,1.876
			C445.82,314.988,440.039,328.717,434.542,341.917z M95.087,383.018l63.963,21.362c3.379,1.107,6.319,3.256,8.399,6.139
			l0.134,0.249c2.004,2.854,3.082,6.254,3.087,9.741v40.101c-9.069-4.174-17.86-8.172-25.796-11.609
			C124.751,440.279,110.045,415.895,95.087,383.018z M83.7,143.754c-0.066-0.137-0.192-0.218-0.265-0.351L64.11,103.629l0.107,0.009
			c4.804-0.046,9.597-0.472,14.333-1.275c20.509-3.879,40.384-10.571,59.063-19.887c20.487-9.844,48.922-26.971,62.605-44.326
			l19.489,39.982l0.006,0.022c0.692,4.908-16.4,26.308-60.887,47.688C114.417,147.234,87,147.192,83.7,143.754z M374.396,82.476
			c18.678,9.316,38.553,16.009,59.063,19.888c4.737,0.803,9.529,1.229,14.333,1.275l0.107-0.009l-19.289,39.698
			c-0.052,0.098-0.145,0.155-0.193,0.256c-3.425,3.604-30.825,3.65-75.242-17.746c-41.616-19.999-59.251-40.015-60.834-46.38
			c0.017-0.437,0.001-0.874-0.048-1.309l19.497-39.999C325.475,55.505,353.909,72.631,374.396,82.476z M466.006,246.901
			c-6.577-30.958-20.054-60.033-39.426-85.06c2.049-0.276,4.066-0.749,6.025-1.41c2.829-0.943,5.421-2.489,7.596-4.529
			c0.87-0.615,1.616-1.389,2.198-2.282C458.233,182.136,466.369,214.284,466.006,246.901z M395.98,37.546
			c44.379,21.321,61.542,42.746,61.079,47.287c-3.429,3.596-30.896,3.583-75.271-17.742c-43.716-21.008-61.021-42.108-60.908-47.45
			C324.979,16.23,352.271,16.546,395.98,37.546z M288.519,46.943l-11.531,23.656c-13.946-1.562-28.022-1.562-41.968,0.001
			l-11.531-23.656C244.952,42.632,267.057,42.632,288.519,46.943L288.519,46.943z M116.03,37.546
			c20.529-11.033,43.125-17.682,66.358-19.525c3.009-0.308,6.043,0.255,8.742,1.621c0.112,5.342-17.192,26.442-60.908,47.45
			C85.975,88.353,58.57,88.42,55.18,85.253l-0.039-0.08C54.599,80.156,71.782,58.804,116.03,37.546z M69.627,153.642
			c0.579,0.883,1.319,1.649,2.182,2.258c2.175,2.041,4.767,3.586,7.596,4.529c1.958,0.663,3.975,1.136,6.023,1.412
			c-19.342,24.992-32.808,54.018-39.397,84.926C45.734,214.21,53.862,182.13,69.627,153.642L69.627,153.642z M58.65,387.555
			c-6.009-1.01-11.027-5.14-13.175-10.842l-16.492-43.979c-1.662-4.444-1.404-9.379,0.713-13.625l10.528-21.055
			c0.32,0.751,0.592,1.5,0.927,2.251c7.521,16.867,14.15,32.783,20.563,48.175c3.459,8.306,6.776,16.247,10.03,23.871
			c0.057,0.125,0.096,0.25,0.16,0.372c2.727,6.384,5.42,12.514,8.081,18.388L58.65,387.555z M76.596,486.338
			c14.012-13.163,24.262-29.825,29.693-48.267c8.087,11.497,19.054,20.667,31.803,26.588c10.278,4.456,21.981,9.845,33.904,15.356
			C143.341,498.211,107.402,500.593,76.596,486.338L76.596,486.338z M187.738,468.492v-47.983c0-0.87-0.139-1.71-0.203-2.567
			c1.454,0.293,2.868,0.607,4.349,0.883c9.687,1.817,20.096,3.233,30.938,4.208c10.404,0.929,21.567,1.4,33.183,1.4
			c11.617,0,22.779-0.471,33.192-1.4c10.833-0.975,21.242-2.392,30.925-4.208c1.476-0.276,2.89-0.588,4.34-0.88
			c-0.064,0.855-0.19,1.698-0.19,2.563v47.983c-26.538,12.262-59.883,27.451-68.266,27.451
			C247.621,495.942,214.277,480.754,187.738,468.492z M435.317,486.255c-30.441,13.837-65.754,11.727-94.331-5.635
			c0.106-0.381,0.184-0.77,0.234-1.162c11.503-5.316,22.767-10.494,32.697-14.799c12.749-5.922,23.717-15.091,31.804-26.589
			C411.143,456.47,421.357,473.099,435.317,486.255L435.317,486.255z M483.025,332.734l-16.492,43.979
			c-2.148,5.702-7.166,9.832-13.175,10.842l-21.333,3.556c2.669-5.862,5.362-11.991,8.081-18.388
			c0.064-0.122,0.102-0.247,0.16-0.372c3.254-7.624,6.571-15.565,10.03-23.871c6.412-15.392,13.042-31.308,20.563-48.175
			c0.335-0.751,0.607-1.501,0.927-2.251l10.528,21.055C484.43,323.355,484.688,328.29,483.025,332.734z"/>
		<circle cx="138.629" cy="274.076" r="17.067"/>
		<circle cx="181.295" cy="282.609" r="8.533"/>
		<path d="M351.471,222.963c-33.071,4.725-55.879,27.262-64.221,63.467c-1.695,7.364-0.05,15.1,4.492,21.138
			c4.543,6.038,11.521,9.762,19.066,10.174l93.167,5.133c0.417,0.021,0.829,0.033,1.246,0.033
			c6.676-0.018,13.027-2.886,17.454-7.883c4.461-5.013,6.329-11.82,5.054-18.408C417.55,245.13,389.05,217.551,351.471,222.963z
			 M409.867,303.746c-1.233,1.432-3.064,2.204-4.95,2.087l-93.167-5.133c-2.518-0.131-4.849-1.37-6.367-3.384
			c-1.518-2.014-2.067-4.596-1.499-7.053c4.7-20.408,17.192-45.717,50.004-50.408c2.253-0.327,4.527-0.492,6.804-0.496
			c33.146,0,45.7,37.325,50.317,60.679C411.23,301.385,410.807,302.757,409.867,303.746z"/>
		<circle cx="339.247" cy="274.076" r="17.067"/>
		<circle cx="381.914" cy="282.609" r="8.533"/>
		<path d="M256.005,318.863c-18.164-0.736-33.872,12.546-36.167,30.579c-0.792,4.646,2.333,9.054,6.979,9.846
			c4.646,0.792,9.054-2.333,9.846-6.979c0.878-9.62,9.176-16.842,18.825-16.384c0.316,0.02,0.634,0.021,0.95,0.004
			c9.682-0.513,18.036,6.724,18.908,16.38c0.512,3.006,2.589,5.51,5.448,6.569c2.859,1.059,6.066,0.513,8.413-1.433
			c2.347-1.946,3.477-4.997,2.965-8.002C289.853,331.422,274.16,318.153,256.005,318.863z"/>
	</g>
</g>
<g>
</g>
<g>
</g>
<g>
</g>
<g>
</g>
<g>
</g>
<g>
</g>
<g>
</g>
<g>
</g>
<g>
</g>
<g>
</g>
<g>
</g>
<g>
</g>
<g>
</g>
<g>
</g>
<g>
</g>
</svg>
