<?xml version="1.0" encoding="iso-8859-1"?>
<!-- Generator: Adobe Illustrator 19.0.0, SVG Export Plug-In . SVG Version: 6.00 Build 0)  -->
<svg version="1.1" id="Capa_1" xmlns="http://www.w3.org/2000/svg" xmlns:xlink="http://www.w3.org/1999/xlink" x="0px" y="0px"
	 viewBox="0 0 512.009 512.009" style="enable-background:new 0 0 512.009 512.009;" xml:space="preserve">
<g transform="translate(0 -1)">
	<g transform="translate(1 1)">
		<path style="fill:#00838F;" d="M469.362,275.123c-1.843,7.1-4.269,14.035-7.253,20.736l-1.536,3.328
			c-17.323,39.168-30.379,74.24-44.117,101.547c-2.901,5.973-5.888,11.52-9.045,16.725c-8.216,16.509-21.49,29.963-37.888,38.4
			c-13.909,6.059-30.379,13.824-46.592,21.248c-29.611,13.568-58.112,26.368-67.925,26.368c-9.794-1.532-19.311-4.494-28.245-8.789
			c-11.691-4.779-25.6-11.093-39.68-17.579c-16.213-7.424-32.683-15.189-46.592-21.248c-16.398-8.437-29.672-21.891-37.888-38.4
			c-3.157-5.205-6.144-10.752-9.045-16.725c-13.739-27.307-26.795-62.379-44.117-101.547l-1.536-3.328
			c-2.984-6.701-5.41-13.636-7.253-20.736c-18.773-72.448,28.587-140.288,28.587-140.288L46.364,87.731
			c-5.973-12.459,23.125-38.741,64.939-58.88c19.564-9.925,40.597-16.638,62.293-19.883c12.8-1.365,21.675,0.512,24.32,5.973
			l6.059,12.544l6.229,12.715c29.32-8.078,60.28-8.078,89.6,0l12.288-25.259c3.755-7.851,20.651-8.277,43.179-2.389h0.085
			c14.936,4.039,29.452,9.496,43.349,16.299c41.813,20.139,70.912,46.421,64.939,58.88l-22.869,47.104
			C440.775,134.835,488.135,202.675,469.362,275.123z"/>
		<g>
			<path style="fill:#00BCD4;" d="M203.975,27.486l6.229,12.715c29.32-8.078,60.28-8.078,89.6,0l12.288-25.259
				c3.755-7.851,20.651-8.277,43.179-2.389h0.085c5.803,2.304,11.776,4.864,17.749,7.765c41.813,20.139,70.912,46.421,64.939,58.88
				l-22.869,47.104c0,0,47.36,67.84,28.587,140.288c-1.843,7.1-4.269,14.035-7.253,20.736l-1.536,3.328
				c-17.323,39.168-30.379,74.24-44.117,101.547c-2.901,5.973-5.888,11.52-9.045,16.725c-8.216,16.509-21.49,29.963-37.888,38.4
				c-13.909,6.059-30.379,13.824-46.592,21.248c-29.611,13.568-58.112,26.368-67.925,26.368c-0.887-0.012-1.772-0.098-2.645-0.256
				c-11.691-4.779-25.6-11.093-39.68-17.579c-16.213-7.424-32.683-15.189-46.592-21.248c-16.398-8.437-29.672-21.891-37.888-38.4
				c-3.157-5.205-6.144-10.752-9.045-16.725c-13.739-27.307-26.795-62.379-44.117-101.547l-1.536-3.328
				c-2.984-6.701-5.41-13.636-7.253-20.736c-18.773-72.448,28.587-140.288,28.587-140.288L46.364,87.731
				c-5.973-12.459,23.125-38.741,64.939-58.88c19.564-9.925,40.597-16.638,62.293-19.883"/>
			<path style="fill:#00BCD4;" d="M92.871,401.075l-36.608-6.144c-9.025-1.473-16.574-7.656-19.797-16.213l-16.469-44.032
				c-2.504-6.653-2.101-14.052,1.109-20.395l19.541-39.168c1.843,7.1,4.269,14.035,7.253,20.736l1.536,3.328
				c17.323,39.168,30.379,74.24,44.117,101.547L92.871,401.075z"/>
			<path style="fill:#00BCD4;" d="M140.487,455.859c13.909,6.059,30.379,13.824,46.592,21.248l-0.341,0.768
				c-59.733,51.2-128,8.533-128,8.533c34.133-17.067,42.667-68.267,42.667-68.267l1.195-0.683
				C110.815,433.969,124.089,447.422,140.487,455.859z"/>
			<path style="fill:#00BCD4;" d="M451.271,486.409c0,0-68.267,42.667-128-8.533l-0.341-0.768
				c16.213-7.424,32.683-15.189,46.592-21.248c16.398-8.437,29.672-21.891,37.888-38.4l1.195,0.683
				C408.604,418.142,417.138,469.342,451.271,486.409z"/>
			<path style="fill:#00BCD4;" d="M490.012,334.686l-16.469,44.032c-3.223,8.557-10.773,14.74-19.797,16.213l-36.608,6.144
				l-0.683-0.341c13.739-27.307,26.795-62.379,44.117-101.547l1.536-3.328c2.984-6.701,5.41-13.636,7.253-20.736l19.541,39.168
				C492.114,320.634,492.516,328.033,490.012,334.686z"/>
		</g>
		<path style="fill:#FEC108;" d="M216.007,307.209c-6.324,14.626-18.024,26.264-32.683,32.512h-0.085
			c-8.659,3.056-18.003,3.618-26.965,1.621c-21.983-4.473-42.668-13.867-60.501-27.477c-5.02-3.911-7.426-10.305-6.229-16.555
			c4.437-22.272,19.712-73.643,66.731-66.901c3.378,0.454,6.716,1.167,9.984,2.133C216.007,246.793,216.007,307.209,216.007,307.209
			z"/>
		<path style="fill:#FFEB3A;" d="M216.007,307.209c-6.324,14.626-18.024,26.264-32.683,32.512h-0.085
			c-19.341-4.929-37.484-13.724-53.333-25.856c-5.02-3.911-7.426-10.305-6.229-16.555c3.584-17.92,14.165-54.613,42.581-64.768
			C216.007,246.793,216.007,307.209,216.007,307.209z"/>
		<path style="fill:#FEC108;" d="M414.236,313.865c-17.833,13.611-38.518,23.005-60.501,27.477c-8.991,2-18.363,1.438-27.051-1.621
			c-14.659-6.248-26.358-17.886-32.683-32.512c0,0,0-60.416,49.749-74.667c3.268-0.967,6.606-1.68,9.984-2.133
			c47.019-6.741,62.293,44.629,66.731,66.901C421.662,303.56,419.256,309.954,414.236,313.865z"/>
		<path style="fill:#FFEB3A;" d="M380.103,313.865c-15.883,12.129-34.053,20.924-53.419,25.856
			c-14.659-6.248-26.358-17.886-32.683-32.512c0,0,0-60.416,49.749-74.667c28.416,10.155,38.997,46.848,42.581,64.768
			C387.529,303.56,385.123,309.954,380.103,313.865z"/>
		<path style="fill:#00BCD4;" d="M268.046,400.809c-4.567-0.005-8.32-3.605-8.516-8.168c-0.195-4.563,3.237-8.47,7.787-8.866
			c3.106-0.239,6.183-0.765,9.191-1.571c1.688-0.386,3.287-1.089,4.713-2.071c-0.083-0.146-0.2-0.446-0.4-0.842
			c-1.39-2.692-3.473-4.964-6.033-6.583c-2.761-1.773-5.778-3.109-8.946-3.962c-2.71-0.761-5.48-1.291-8.279-1.583
			c-1.108-0.117-1.987-0.171-2.562-0.2c-0.563,0.029-1.446,0.083-2.554,0.2c-2.8,0.293-5.569,0.822-8.279,1.583
			c-3.168,0.853-6.185,2.19-8.946,3.963c-2.561,1.619-4.643,3.892-6.033,6.583c-0.186,0.347-0.332,0.715-0.433,1.096
			c1.508,0.783,3.1,1.392,4.746,1.817c3.009,0.806,6.086,1.332,9.192,1.571c3.042,0.257,5.715,2.119,7.01,4.884
			c1.294,2.765,1.013,6.011-0.738,8.512c-1.751,2.501-4.705,3.875-7.746,3.604c-4.195-0.327-8.35-1.051-12.408-2.163
			c-5.158-1.181-9.835-3.904-13.408-7.808c-4.411-5.459-5-13.074-1.479-19.146c2.718-5.348,6.8-9.884,11.833-13.15
			c4.228-2.753,8.856-4.834,13.721-6.171c3.66-1.037,7.403-1.757,11.187-2.15c0.837-0.087,1.596-0.15,2.25-0.196
			c0.466-0.077,0.937-0.116,1.408-0.117h1.367c0.447,0.004,0.892,0.041,1.333,0.112c0.671,0.046,1.454,0.108,2.325,0.2
			c3.784,0.394,7.527,1.113,11.187,2.15c4.865,1.336,9.493,3.418,13.721,6.171c5.033,3.266,9.115,7.802,11.833,13.15
			c3.521,6.072,2.932,13.686-1.479,19.146c-3.573,3.904-8.25,6.627-13.408,7.808c-4.058,1.111-8.213,1.836-12.408,2.163
			C268.542,400.8,268.292,400.809,268.046,400.809z"/>
		<path style="fill:#606060;" d="M297.671,443.742h-85.333c8.533-25.6,42.667-25.6,42.667-25.6S289.138,418.142,297.671,443.742z"/>
		<path style="fill:#00BCD4;" d="M132.892,73.822c-41.813,20.053-80.555,26.283-86.528,13.909
			c-5.973-12.459,23.125-38.741,64.939-58.88c41.899-20.139,80.64-26.368,86.613-13.909
			C203.804,27.315,174.791,53.683,132.892,73.822z"/>
		<path style="fill:none;stroke:#000000;stroke-width:2;stroke-linecap:round;stroke-linejoin:round;" d="M75.634,147.891
			l-0.683-1.451"/>
		<path style="fill:#00BCD4;" d="M463.644,87.731c-5.973,12.373-44.715,6.144-86.528-13.909
			c-41.899-20.139-70.912-46.507-65.024-58.88c5.973-12.459,44.715-6.229,86.613,13.909
			C440.519,48.99,469.618,75.273,463.644,87.731z"/>
		<path style="fill:#606060;" d="M463.644,87.731l-6.485,13.397l-16.384,33.707l-5.717,11.605h-0.085
			c-2.816,5.803-12.629,7.509-26.625,5.717c-5.671-0.776-11.286-1.916-16.811-3.413c-14.839-4.048-29.266-9.477-43.093-16.213
			c-36.608-17.579-63.403-39.851-65.451-53.504c-0.448-1.798-0.267-3.695,0.512-5.376l16.299-33.451l12.288-25.259
			c-3.072,6.485,3.413,16.725,16.213,27.819c14.808,12.49,31.224,22.937,48.811,31.061c13.89,6.751,28.373,12.207,43.264,16.299
			h0.085C442.994,95.923,459.89,95.582,463.644,87.731z"/>
		<path style="fill:#9E9E9E;" d="M457.159,101.129l-16.384,33.707l-5.717,11.605h-0.085c-2.816,5.803-12.629,7.509-26.625,5.717
			c-5.671-0.776-11.286-1.916-16.811-3.413c-5.717-2.304-11.605-4.864-17.493-7.68c-36.608-17.579-63.403-39.851-65.451-53.504
			c-0.448-1.798-0.267-3.695,0.512-5.376l16.299-33.451l2.901-5.973c14.808,12.49,31.224,22.937,48.811,31.061
			c13.89,6.751,28.373,12.207,43.264,16.299h0.085C432.308,94.977,444.598,98.664,457.159,101.129z"/>
		<g>
			<path style="fill:#E91E63;" d="M50.631,298.675l-1.195,0.512l-1.536-3.328c-2.984-6.701-5.41-13.636-7.253-20.736
				c-18.773-72.448,28.587-140.288,28.587-140.288l5.717,11.605h0.085c2.816,5.803,12.629,7.509,26.625,5.717l0.171,1.451
				C101.832,153.609,42.098,213.342,50.631,298.675z"/>
			<path style="fill:#E91E63;" d="M469.362,275.123c-1.843,7.1-4.269,14.035-7.253,20.736l-1.536,3.328l-1.195-0.512
				c8.533-85.333-51.2-145.067-51.2-145.067l0.171-1.451c13.995,1.792,23.808,0.085,26.625-5.717h0.085l5.717-11.605
				C440.775,134.835,488.135,202.675,469.362,275.123z"/>
			<path style="fill:#E91E63;" d="M283.506,73.651c-0.779,1.681-0.96,3.578-0.512,5.376c-18.542-2.958-37.437-2.958-55.979,0
				c0.448-1.798,0.267-3.695-0.512-5.376l-16.298-33.451c29.32-8.078,60.28-8.078,89.6,0L283.506,73.651z"/>
		</g>
		<g>
			<path style="fill:#606060;" d="M93.554,400.734l-0.683,0.341l-36.608-6.144c-9.025-1.473-16.574-7.656-19.797-16.213
				l-16.469-44.032c-2.504-6.653-2.101-14.052,1.109-20.395l19.541-39.168c1.843,7.1,4.269,14.035,7.253,20.736l1.536,3.328
				C66.759,338.355,79.815,373.427,93.554,400.734z"/>
			<path style="fill:#606060;" d="M227.015,79.027c-2.048,13.653-28.842,35.925-65.451,53.504
				c-13.827,6.737-28.255,12.165-43.093,16.213c-5.525,1.497-11.14,2.637-16.811,3.413c-13.995,1.792-23.808,0.085-26.625-5.717
				h-0.085l-5.717-11.605L52.85,101.129l-6.485-13.397c3.755,7.851,20.651,8.192,43.179,2.389h0.085
				c14.891-4.092,29.374-9.548,43.264-16.299c17.586-8.124,34.003-18.571,48.811-31.061c12.8-11.093,19.285-21.333,16.213-27.819
				l12.288,25.259l16.299,33.451C227.282,75.332,227.463,77.229,227.015,79.027z"/>
		</g>
		<path style="fill:#9E9E9E;" d="M201.415,87.561c-2.048,13.653-28.842,35.925-65.451,53.504c-5.888,2.816-11.776,5.376-17.493,7.68
			c-5.525,1.497-11.14,2.637-16.811,3.413c-13.995,1.792-23.808,0.085-26.625-5.717h-0.085l-5.717-11.605L52.85,101.129
			c12.561-2.465,24.85-6.151,36.693-11.008h0.085c14.891-4.092,29.374-9.548,43.264-16.299
			c17.586-8.124,34.003-18.571,48.811-31.061l2.901,5.973l16.299,33.451C201.682,83.866,201.863,85.763,201.415,87.561z"/>
		<path style="fill:#606060;" d="M490.012,334.686l-16.469,44.032c-3.223,8.557-10.773,14.74-19.797,16.213l-36.608,6.144
			l-0.683-0.341c13.739-27.307,26.795-62.379,44.117-101.547l1.536-3.328c2.984-6.701,5.41-13.636,7.253-20.736l19.541,39.168
			C492.114,320.634,492.516,328.033,490.012,334.686z"/>
		<g>
			<path style="fill:#E91E63;" d="M187.079,477.107l-0.341,0.768c-59.733,51.2-128,8.533-128,8.533
				c34.133-17.067,42.667-68.267,42.667-68.267l1.195-0.683c8.216,16.509,21.49,29.963,37.888,38.4
				C154.396,461.918,170.866,469.683,187.079,477.107z"/>
			<path style="fill:#E91E63;" d="M451.271,486.409c0,0-68.267,42.667-128-8.533l-0.341-0.768
				c16.213-7.424,32.683-15.189,46.592-21.248c16.398-8.437,29.672-21.891,37.888-38.4l1.195,0.683
				C408.604,418.142,417.138,469.342,451.271,486.409z"/>
		</g>
		<g>
			<circle style="fill:#FB7B76;" cx="135.538" cy="273.075" r="17.067"/>
			<circle style="fill:#FB7B76;" cx="178.204" cy="281.609" r="8.533"/>
			<circle style="fill:#FB7B76;" cx="340.338" cy="273.075" r="17.067"/>
			<circle style="fill:#FB7B76;" cx="383.004" cy="281.609" r="8.533"/>
		</g>
	</g>
	<g>
		<path d="M224.896,311.379c0.401-1.009,0.608-2.085,0.608-3.171c0-26.171-14.017-77.671-67.058-85.246
			c-37.583-5.425-66.075,22.167-76.262,73.658c-1.899,9.43,1.737,19.118,9.371,24.971v0.004
			c18.871,14.401,40.752,24.353,64.009,29.112c4.134,0.841,8.34,1.269,12.558,1.279
			C199.809,351.988,218.842,326.513,224.896,311.379z M158.913,333.975c-20.686-4.233-40.148-13.083-56.933-25.892
			c-2.47-1.928-3.649-5.078-3.054-8.154c4.904-24.783,18.879-65.508,57.104-60.075c47.342,6.767,51.921,56.646,52.363,66.679
			C205.2,313.363,190.484,340.275,158.913,333.975z"/>
		<path d="M343.888,351.988c4.218-0.01,8.425-0.438,12.558-1.279c23.256-4.76,45.137-14.712,64.009-29.112v-0.004
			c7.636-5.855,11.271-15.547,9.371-24.979c-10.183-51.479-38.654-79.079-76.262-73.65c-53.042,7.575-67.058,59.075-67.058,85.246
			c0.001,1.086,0.207,2.162,0.608,3.171C293.167,326.513,312.196,351.988,343.888,351.988z M355.979,239.854
			c38.254-5.475,52.204,35.292,57.104,60.071c0.596,3.077-0.584,6.229-3.054,8.158c-16.786,12.808-36.248,21.659-56.933,25.892
			c-31.325,6.296-46.275-20.721-49.483-27.479C304.021,296.375,308.463,246.642,355.979,239.854L355.979,239.854z"/>
		<path d="M214.921,372.659c-3.521,6.072-2.932,13.686,1.479,19.146c3.573,3.904,8.25,6.627,13.408,7.808
			c4.058,1.111,8.213,1.836,12.408,2.163c3.041,0.271,5.995-1.103,7.746-3.604c1.751-2.501,2.033-5.747,0.738-8.512
			c-1.294-2.765-3.967-4.628-7.01-4.884c-3.106-0.239-6.183-0.765-9.192-1.57c-1.645-0.424-3.238-1.034-4.746-1.817
			c0.102-0.381,0.247-0.749,0.433-1.096c1.39-2.692,3.472-4.964,6.033-6.583c2.761-1.773,5.778-3.109,8.946-3.962
			c2.71-0.761,5.48-1.291,8.279-1.583c1.108-0.117,1.992-0.171,2.554-0.2c0.575,0.029,1.454,0.083,2.562,0.2
			c2.8,0.293,5.569,0.822,8.279,1.583c3.168,0.853,6.185,2.19,8.946,3.963c2.561,1.619,4.643,3.892,6.033,6.583
			c0.2,0.396,0.317,0.696,0.4,0.842c-1.426,0.982-3.025,1.685-4.713,2.071c-3.009,0.806-6.086,1.332-9.192,1.571
			c-4.55,0.395-7.982,4.303-7.787,8.866c0.195,4.563,3.949,8.163,8.516,8.168c0.246,0,0.496-0.009,0.746-0.033
			c4.195-0.327,8.35-1.051,12.408-2.163c5.158-1.181,9.835-3.904,13.408-7.808c4.412-5.459,5-13.074,1.479-19.146
			c-2.718-5.348-6.8-9.884-11.833-13.15c-4.228-2.753-8.856-4.834-13.721-6.171c-3.66-1.037-7.403-1.757-11.187-2.15
			c-0.871-0.092-1.654-0.154-2.325-0.2c-0.441-0.071-0.887-0.109-1.333-0.113h-1.367c-0.472,0.001-0.943,0.04-1.408,0.117
			c-0.654,0.046-1.413,0.108-2.25,0.196c-3.784,0.394-7.527,1.113-11.187,2.15c-4.865,1.336-9.493,3.418-13.721,6.171
			C221.722,362.774,217.64,367.31,214.921,372.659z"/>
		<path d="M93.904,221.75c1.965,1.123,4.295,1.42,6.479,0.824c2.183-0.595,4.041-2.034,5.163-3.999
			c1.225-2.142,30.758-51.958,99.379-13.842c2.667,1.515,5.942,1.481,8.578-0.087c2.636-1.569,4.227-4.431,4.168-7.498
			c-0.059-3.067-1.76-5.866-4.454-7.331c-83.221-46.234-122.104,19.625-122.487,20.292C88.392,214.2,89.813,219.412,93.904,221.75z"
			/>
		<path d="M307.084,204.733c68.146-37.829,98.116,11.683,99.396,13.871c1.518,2.644,4.33,4.277,7.379,4.285s5.869-1.612,7.4-4.248
			c1.531-2.636,1.539-5.889,0.021-8.533c-0.379-0.667-39.258-66.529-122.487-20.292c-2.694,1.466-4.395,4.265-4.454,7.331
			c-0.059,3.067,1.532,5.929,4.168,7.498C301.142,206.214,304.417,206.248,307.084,204.733L307.084,204.733z"/>
		<path d="M306.775,446.867c0.189-0.586,0.311-1.191,0.365-1.805c0.004-0.112,0.065-0.207,0.065-0.32
			c-0.215-0.887-0.361-1.79-0.438-2.7c-0.06-0.182-0.149-0.332-0.211-0.512l-0.081-0.197c-10.727-30.331-48.838-30.724-50.47-30.724
			c-1.632,0-39.743,0.393-50.47,30.724l-0.081,0.197c-0.062,0.18-0.151,0.33-0.211,0.512c-0.076,0.91-0.223,1.813-0.438,2.7
			c0,0.114,0.06,0.208,0.065,0.32c0.054,0.613,0.176,1.219,0.365,1.805c0.345,2.102,1.66,3.919,3.548,4.905
			c0.488,0.356,1.013,0.658,1.566,0.9c0.108,0.041,0.179,0.129,0.29,0.166c0.87,0.292,1.782,0.441,2.7,0.442l0.027-0.004h85.28
			l0.027,0.004c0.918,0,1.83-0.15,2.7-0.442c0.11-0.037,0.182-0.126,0.29-0.166c0.553-0.242,1.079-0.543,1.566-0.9
			C305.118,450.789,306.433,448.97,306.775,446.867L306.775,446.867z M256.016,427.675c9.495,0.203,18.725,3.168,26.561,8.533
			h-53.086C237.337,430.89,246.541,427.928,256.016,427.675z"/>
		<path d="M479.37,275.056c15.295-64.404-17.689-123.648-27.845-139.838l20.784-42.776l0.004-0.016l0.012-0.017
			c4.796-9.983-0.758-22.288-16.517-36.563c-15.844-13.589-33.49-24.924-52.437-33.683c-18.678-9.316-38.554-16.008-59.063-19.888
			c-20.921-3.364-33.978-0.046-38.811,9.863l-0.035,0.045l-0.019,0.038l-0.002,0.004l-0.001,0.003l-9.28,19.037
			c-26.43-6.044-53.883-6.044-80.314,0l-9.28-19.037l-0.001-0.003l-0.002-0.004l-0.019-0.038l-0.034-0.045
			c-4.838-9.909-17.89-13.235-38.812-9.863c-20.509,3.879-40.384,10.572-59.063,19.887C89.691,30.922,72.045,42.257,56.2,55.846
			C40.442,70.121,34.888,82.425,39.684,92.409l0.012,0.017l0.004,0.016l20.784,42.776c-10.156,16.19-43.14,75.434-27.845,139.838
			l-18.21,36.419c-4.231,8.493-4.748,18.361-1.429,27.25l16.492,43.979c4.299,11.402,14.334,19.659,26.35,21.683l33.227,5.538
			c1.562,3.028,3.139,5.953,4.731,8.777c-1.3,6.567-10.395,47.333-37.879,61.072c-2.762,1.381-4.562,4.145-4.708,7.229
			c-0.146,3.084,1.385,6.006,4.004,7.642c20.199,11.359,42.924,17.474,66.096,17.783c24.91,0.061,49.071-8.512,68.371-24.26
			c33.992,15.586,55.88,24.839,66.32,24.839c10.441,0,32.328-9.253,66.32-24.839c19.298,15.751,43.461,24.325,68.371,24.26
			c23.172-0.313,45.896-6.427,66.096-17.783c2.619-1.635,4.15-4.558,4.004-7.642c-0.146-3.084-1.947-5.849-4.708-7.229
			c-27.483-13.74-36.579-54.506-37.879-61.072c1.592-2.827,3.169-5.753,4.731-8.777l33.227-5.538
			c12.016-2.024,22.051-10.281,26.35-21.683l16.492-43.979c3.319-8.889,2.802-18.757-1.429-27.25L479.37,275.056z M466.005,246.9
			c-6.577-30.958-20.054-60.033-39.426-85.06c2.049-0.276,4.066-0.749,6.025-1.41c2.829-0.943,5.421-2.489,7.596-4.529
			c0.87-0.615,1.616-1.389,2.198-2.282C458.233,182.135,466.369,214.284,466.005,246.9z M292.341,79.458
			c0.017-0.437,0.001-0.874-0.048-1.309l19.497-39.999c13.684,17.355,42.118,34.481,62.605,44.326
			c18.678,9.316,38.553,16.009,59.063,19.888c4.737,0.803,9.529,1.229,14.333,1.275l0.107-0.009l-19.289,39.698
			c-0.052,0.098-0.145,0.155-0.194,0.257c-3.417,3.604-30.829,3.65-75.242-17.746C311.559,105.839,293.925,85.823,292.341,79.458z
			 M395.979,37.546c44.379,21.321,61.542,42.746,61.079,47.287c-3.433,3.596-30.896,3.583-75.271-17.742
			c-43.716-21.008-61.021-42.108-60.908-47.45C324.975,16.229,352.267,16.546,395.979,37.546z M288.519,46.943l-11.531,23.656
			c-13.946-1.562-28.022-1.562-41.968,0.001l-11.531-23.656C244.952,42.631,267.057,42.631,288.519,46.943L288.519,46.943z
			 M83.7,143.754c-0.066-0.138-0.192-0.218-0.265-0.351L64.11,103.629l0.107,0.009c4.804-0.046,9.597-0.472,14.333-1.275
			c20.509-3.879,40.384-10.571,59.063-19.887c20.487-9.844,48.922-26.971,62.605-44.326l19.489,39.982l0.006,0.022
			c0.692,4.908-16.4,26.308-60.887,47.688C114.417,147.234,87,147.192,83.7,143.754z M116.029,37.546
			c20.529-11.033,43.125-17.682,66.358-19.525c3.009-0.308,6.043,0.255,8.742,1.621c0.112,5.342-17.192,26.442-60.908,47.45
			c-44.241,21.26-71.658,21.328-75.04,18.16l-0.039-0.08C54.599,80.156,71.782,58.804,116.029,37.546z M69.627,153.642
			c0.579,0.883,1.319,1.649,2.182,2.258c2.175,2.041,4.767,3.586,7.596,4.529c1.958,0.663,3.975,1.136,6.023,1.412
			c-19.342,24.992-32.808,54.018-39.397,84.926C45.733,214.21,53.862,182.13,69.627,153.642L69.627,153.642z M58.65,387.554
			c-6.009-1.01-11.027-5.14-13.175-10.842l-16.492-43.979c-1.662-4.444-1.404-9.379,0.713-13.625l10.528-21.055
			c0.32,0.751,0.592,1.5,0.927,2.251c7.521,16.867,14.15,32.783,20.563,48.175c3.459,8.306,6.776,16.247,10.03,23.871
			c0.057,0.125,0.096,0.25,0.16,0.372c2.727,6.384,5.42,12.514,8.081,18.388L58.65,387.554z M170.671,460.61
			c-9.069-4.174-17.86-8.172-25.796-11.609c-20.124-8.721-34.83-33.105-49.788-65.983l63.963,21.362
			c6.959,2.291,11.65,8.803,11.621,16.129L170.671,460.61z M76.596,486.338c14.012-13.163,24.262-29.825,29.693-48.267
			c8.087,11.497,19.054,20.667,31.803,26.588c10.278,4.456,21.981,9.845,33.904,15.356
			C143.341,498.211,107.402,500.593,76.596,486.338L76.596,486.338z M187.738,468.491v-47.983
			c0.044-14.689-9.368-27.739-23.321-32.333l-78.56-26.239c-2.741-6.463-5.538-13.136-8.39-20.02
			c-5.497-13.2-11.278-26.93-17.542-41.216c0.135-0.616,0.198-1.246,0.188-1.876c-7.867-78.654,46.038-135.39,48.539-137.969
			c19.988-3.922,39.355-10.526,57.574-19.635c24.051-11.558,59.067-33.152,68.241-53.382c14.301-1.817,28.775-1.817,43.076,0
			c9.173,20.23,44.189,41.823,68.233,53.378c18.222,9.111,37.592,15.717,57.584,19.64c2.441,2.507,56.433,59.002,48.536,137.969
			c-0.01,0.63,0.053,1.26,0.188,1.876c-6.265,14.286-12.045,28.016-17.542,41.216c-2.864,6.878-5.661,13.551-8.39,20.02
			l-78.518,26.226c-13.971,4.584-23.402,17.642-23.361,32.346v47.983c-26.539,12.262-59.883,27.45-68.267,27.45
			C247.621,495.942,214.276,480.753,187.738,468.491z M367.134,449c-7.936,3.437-16.727,7.435-25.796,11.609l0-40.101
			c-0.025-7.341,4.685-13.861,11.663-16.142l63.922-21.349C401.964,415.895,387.258,440.279,367.134,449z M435.317,486.254
			c-30.441,13.837-65.754,11.727-94.331-5.635c0.106-0.381,0.184-0.77,0.234-1.162c11.503-5.316,22.767-10.494,32.697-14.799
			c12.749-5.922,23.717-15.091,31.804-26.589C411.143,456.47,421.357,473.099,435.317,486.254L435.317,486.254z M483.025,332.733
			l-16.492,43.979c-2.148,5.702-7.166,9.832-13.175,10.842l-21.333,3.556c2.669-5.862,5.362-11.991,8.081-18.388
			c0.064-0.122,0.102-0.247,0.16-0.372c3.254-7.624,6.571-15.565,10.03-23.871c6.412-15.392,13.042-31.308,20.563-48.175
			c0.335-0.751,0.607-1.501,0.927-2.251l10.528,21.055C484.43,323.355,484.688,328.29,483.025,332.733z"/>
		<circle cx="136.538" cy="274.075" r="17.067"/>
		<circle cx="179.204" cy="282.609" r="8.533"/>
		<circle cx="341.338" cy="274.075" r="17.067"/>
		<circle cx="384.004" cy="282.609" r="8.533"/>
	</g>
</g>
<g>
</g>
<g>
</g>
<g>
</g>
<g>
</g>
<g>
</g>
<g>
</g>
<g>
</g>
<g>
</g>
<g>
</g>
<g>
</g>
<g>
</g>
<g>
</g>
<g>
</g>
<g>
</g>
<g>
</g>
</svg>
