<?xml version="1.0" encoding="iso-8859-1"?>
<!-- Generator: Adobe Illustrator 19.0.0, SVG Export Plug-In . SVG Version: 6.00 Build 0)  -->
<svg version="1.1" id="Capa_1" xmlns="http://www.w3.org/2000/svg" xmlns:xlink="http://www.w3.org/1999/xlink" x="0px" y="0px"
	 viewBox="0 0 512 512" style="enable-background:new 0 0 512 512;" xml:space="preserve">
<g>
	<g transform="translate(1 1)">
		<path style="fill:#4527A0;" d="M485.4,168.323h-3.925c-2.87-0.014-5.693,0.722-8.192,2.133
			c-3.62-16.132-9.815-31.576-18.347-45.739c2.987,0.171,4.608,0.341,4.608,0.341c3.243-33.963-21.419-44.885-21.419-44.885
			c-5.291,1.877-10.325,3.669-15.275,5.632l-0.256-0.683c-13.914-12.918-29.498-23.91-46.336-32.683l2.389-16.896
			c1.877-8.021-5.717-18.091-17.835-23.296c-8.134-4.278-17.838-4.342-26.027-0.171c-0.892,0.597-1.696,1.315-2.389,2.133
			l-18.261,15.531c-6.912-1.536-13.909-2.816-21.077-3.84c-12.606-1.793-25.325-2.677-38.059-2.645
			c-4.267,0-8.448,0.085-12.629,0.341c-16.882,0.733-33.655,3.076-50.091,6.997l-4.779-4.096h-0.085l-14.421-12.288
			c-5.035-5.888-16.725-6.997-28.075-2.133c-0.171,0.085-0.256,0.085-0.427,0.171c-12.117,5.205-19.712,15.36-17.749,23.296
			l0.085,0.341v0.171l2.645,18.688c-15.201,8.386-29.328,18.587-42.069,30.379l-0.341,0.939c-5.12-2.048-10.411-4.011-15.872-5.888
			c-3.349,1.684-6.381,3.936-8.96,6.656c-10.004,10.032-14.631,24.229-12.459,38.229c0,0,1.877-0.171,5.291-0.341
			c-8.539,14.159-14.734,29.604-18.347,45.739c-2.499-1.412-5.322-2.147-8.192-2.133H24.6c-9.414,0.028-17.039,7.652-17.067,17.067
			v34.133c0.028,9.414,7.653,17.039,17.067,17.067h3.925c2.87,0.013,5.693-0.722,8.192-2.133c1.26,5.795,2.913,11.497,4.949,17.067
			v181.333c-0.005,18.107,7.186,35.474,19.989,48.277c12.804,12.804,30.17,19.994,48.277,19.989h290.133
			c18.107,0.005,35.474-7.186,48.277-19.989c12.804-12.804,19.994-30.17,19.989-48.277V251.608
			c2.025-5.602,3.678-11.332,4.949-17.152c2.499,1.411,5.322,2.147,8.192,2.133h3.925c9.414-0.028,17.039-7.653,17.067-17.067
			V185.39C502.439,175.976,494.814,168.351,485.4,168.323z"/>
		<path style="fill:#673AB7;" d="M459.8,168.323h-3.925c-2.87-0.014-5.693,0.722-8.192,2.133
			c-3.62-16.132-9.815-31.576-18.347-45.739c2.987,0.171,4.608,0.341,4.608,0.341c2.134-13.898-2.385-27.992-12.203-38.059
			c-2.657-2.788-5.774-5.098-9.216-6.827c-5.291,1.877-10.325,3.669-15.275,5.632l-0.256-0.683
			c-13.914-12.918-29.498-23.91-46.336-32.683l2.389-16.896c1.877-8.021-5.717-18.091-17.835-23.296
			c-0.171-0.085-0.256-0.085-0.427-0.171c-0.892,0.597-1.696,1.315-2.389,2.133l-18.261,15.531
			c-6.912-1.536-13.909-2.816-21.077-3.84l-4.523,3.84c-15.176-3.411-30.625-5.467-46.165-6.144
			c-4.267-0.256-8.619-0.341-12.971-0.341c-14.029-0.011-28.038,1.073-41.899,3.243h-0.085c-7.083,1.109-13.995,2.475-20.736,4.096
			l-19.285-16.384c-0.701-0.843-1.537-1.564-2.475-2.133c-0.171,0.085-0.256,0.085-0.427,0.171
			c-12.117,5.205-19.712,15.36-17.749,23.296l0.085,0.341v0.171l2.645,18.688c-15.201,8.386-29.328,18.587-42.069,30.379
			l-0.341,0.939c-5.12-2.048-10.411-4.011-15.872-5.888c-3.349,1.684-6.381,3.936-8.96,6.656
			c-10.004,10.032-14.631,24.229-12.459,38.229c0,0,1.877-0.171,5.291-0.341c-8.539,14.159-14.734,29.604-18.347,45.739
			c-2.499-1.412-5.322-2.147-8.192-2.133H24.6c-9.414,0.028-17.039,7.652-17.067,17.067v34.133
			c0.028,9.414,7.653,17.039,17.067,17.067h3.925c2.87,0.013,5.693-0.722,8.192-2.133c1.26,5.795,2.913,11.497,4.949,17.067v181.333
			c-0.005,18.107,7.186,35.474,19.989,48.277c12.804,12.804,30.17,19.994,48.277,19.989h264.533
			c18.107,0.005,35.474-7.186,48.277-19.989c12.804-12.804,19.994-30.17,19.989-48.277V251.608
			c2.025-5.602,3.678-11.332,4.949-17.152c2.499,1.411,5.322,2.147,8.192,2.133h3.925c9.414-0.028,17.039-7.653,17.067-17.067
			V185.39C476.839,175.976,469.214,168.351,459.8,168.323z"/>
		<path style="fill:#9E9E9E;" d="M157.379,41.944c-1.894,0.845-3.866,1.502-5.888,1.963h-0.085
			c-11.008,2.901-21.077,0.341-24.149-6.571c-0.18-0.413-0.323-0.841-0.427-1.28v-0.171l-0.085-0.341
			c-1.963-7.936,5.632-18.091,17.749-23.296c11.52-5.035,23.381-4.011,28.501,1.963c0.668,0.797,1.215,1.688,1.621,2.645
			C178.2,25.048,170.435,36.312,157.379,41.944z"/>
		<g>
			<path style="fill:#894B9D;" d="M199.021,36.312l-0.171-0.171"/>
			<path style="fill:#894B9D;" d="M306.627,36.227l-0.171,0.171"/>
		</g>
		<path style="fill:#9E9E9E;" d="M378.648,35.544c-0.16,0.61-0.36,1.208-0.597,1.792c-3.519,5.835-10.276,8.891-16.981,7.68
			c-2.396-0.09-4.774-0.462-7.083-1.109h-0.085c-2.022-0.461-3.994-1.118-5.888-1.963c-3.244-1.375-6.287-3.184-9.045-5.376
			c-6.766-4.06-10.117-12.039-8.277-19.712c0.436-0.96,1.012-1.852,1.707-2.645c5.12-5.973,16.896-6.997,28.416-1.963
			C372.931,17.454,380.525,27.523,378.648,35.544z"/>
		<path style="fill:#5E5F62;" d="M378.648,35.544l-2.389,16.896l-2.133,14.336l-0.341,2.645c-0.108,0.826-0.338,1.631-0.683,2.389
			c-4.693,10.837-24.235,12.8-43.691,4.352c-19.456-8.363-31.488-23.979-26.795-34.816c0.826-1.956,2.15-3.663,3.84-4.949
			l-0.085-0.085l7.765-6.571l18.261-15.531c-0.695,0.794-1.27,1.685-1.707,2.645c-1.839,7.673,1.511,15.652,8.277,19.712
			c2.759,2.192,5.801,4.001,9.045,5.376c1.894,0.845,3.866,1.502,5.888,1.963h0.085c2.309,0.647,4.686,1.02,7.083,1.109
			c6.706,1.211,13.463-1.845,16.981-7.68C378.288,36.753,378.488,36.154,378.648,35.544z"/>
		<g>
			<path style="fill:#E91E63;" d="M33.133,202.456c-0.022,10.768,1.18,21.504,3.584,32c-2.499,1.411-5.322,2.147-8.192,2.133H24.6
				c-9.414-0.028-17.039-7.653-17.067-17.067V185.39c0.028-9.414,7.652-17.039,17.067-17.067h3.925
				c2.87-0.014,5.693,0.722,8.192,2.133C34.318,180.954,33.116,191.689,33.133,202.456z"/>
			<path style="fill:#E91E63;" d="M502.467,185.39v34.133c-0.028,9.414-7.653,17.039-17.067,17.067h-3.925
				c-2.87,0.013-5.693-0.722-8.192-2.133c4.778-21.066,4.778-42.934,0-64c2.499-1.412,5.322-2.147,8.192-2.133h3.925
				C494.814,168.351,502.439,175.976,502.467,185.39z"/>
			<path style="fill:#E91E63;" d="M216.856,169.091c-56.32-46.421-140.032-45.483-161.792-44.373
				c-3.413,0.171-5.291,0.341-5.291,0.341c-3.243-33.963,21.419-44.885,21.419-44.885c5.461,1.877,10.752,3.84,15.872,5.888
				C189.293,125.059,216.856,169.091,216.856,169.091z"/>
			<path style="fill:#E91E63;" d="M459.544,125.059c0,0-1.621-0.171-4.608-0.341c-20.565-1.109-105.472-2.56-162.475,44.287
				c1.707-2.645,30.805-45.312,130.389-83.2c4.949-1.963,9.984-3.754,15.275-5.632C438.125,80.174,462.787,91.096,459.544,125.059z"
				/>
		</g>
		<path style="fill:#FEC108;" d="M425.155,220.888c-1.498,12.868-8.383,24.497-18.944,32
			c-15.878,10.362-34.553,15.604-53.504,15.019c-4.078,0.021-8.153-0.207-12.203-0.683h-0.085
			c-22.101-2.304-46.251-11.264-56.405-31.659c-13.909-27.904,8.192-64.939,31.061-80.811c2.401-1.696,4.909-3.236,7.509-4.608
			c8.187-4.427,17.032-7.51,26.197-9.131h0.085c20.144-4.617,41.241,1.554,55.723,16.299c10.548,12.351,17.461,27.387,19.968,43.435
			C425.774,207.394,425.975,214.184,425.155,220.888z"/>
		<g>
			<path style="fill:#FFEB3A;" d="M255,206.723c1.238,6.283,1.238,12.747,0,19.029C253.762,219.47,253.762,213.006,255,206.723z"/>
			<path style="fill:#FFEB3A;" d="M399.555,220.888c-1.498,12.868-8.383,24.497-18.944,32
				c-11.933,8.109-25.737,13.043-40.107,14.336h-0.085c-22.101-2.304-46.251-11.264-56.405-31.659
				c-13.909-27.904,8.192-64.939,31.061-80.811c2.401-1.696,4.909-3.236,7.509-4.608c8.187-4.427,17.032-7.51,26.197-9.131h0.085
				c11.561,1.971,22.149,7.699,30.123,16.299c10.548,12.351,17.461,27.387,19.968,43.435
				C400.174,207.394,400.375,214.184,399.555,220.888z"/>
		</g>
		<path style="fill:#607D8B;" d="M103.789,252.888c-10.561-7.503-17.446-19.132-18.944-32c-0.82-6.704-0.619-13.495,0.597-20.139
			c2.507-16.047,9.42-31.084,19.968-43.435c7.962-8.615,18.555-14.347,30.123-16.299c-20.144-4.617-41.241,1.554-55.723,16.299
			c-10.548,12.351-17.461,27.387-19.968,43.435c-1.216,6.644-1.418,13.434-0.597,20.139c1.498,12.868,8.383,24.497,18.944,32
			c15.878,10.362,34.553,15.604,53.504,15.019c4.106,0.021,8.21-0.207,12.288-0.683
			C129.585,265.932,115.754,260.999,103.789,252.888z M422.851,85.806l-0.256-0.683c-13.914-12.918-29.498-23.91-46.336-32.683
			l-2.133,14.251c8.061,5.58,15.704,11.741,22.869,18.432l0.256,0.683l-59.733,42.752
			C364.249,111.119,392.878,96.776,422.851,85.806z M473.283,170.456c-3.62-16.132-9.815-31.576-18.347-45.739
			c-5.291-0.256-14.763-0.597-27.051-0.085c0.512,0,1.024,0.085,1.451,0.085c8.532,14.162,14.727,29.606,18.347,45.739
			c4.778,21.066,4.778,42.934,0,64c-1.271,5.82-2.924,11.55-4.949,17.152c-7.48,20.952-19.087,40.19-34.133,56.576
			c-6.607,7.227-13.738,13.959-21.333,20.139c-8.057,6.496-12.758,16.275-12.8,26.624v50.603c-0.025,1.315-0.139,2.626-0.341,3.925
			L383,424.323c9.887-0.493,17.516-8.884,17.067-18.773v-50.603c0.042-10.349,4.743-20.128,12.8-26.624
			c7.596-6.18,14.726-12.911,21.333-20.139c15.047-16.386,26.653-35.624,34.133-56.576c2.025-5.602,3.678-11.332,4.949-17.152
			C478.061,213.391,478.061,191.522,473.283,170.456z"/>
		<g>
			<path style="fill:#9E9E9E;" d="M198.765,36.227l0.085-0.085l-6.571-5.547c16.436-3.922,33.209-6.265,50.091-6.997
				c-4.267-0.256-8.619-0.341-12.971-0.341c-21.122-0.028-42.175,2.435-62.72,7.339l6.571,5.547l-0.085,0.085
				c1.77,1.319,3.154,3.086,4.011,5.12c4.693,10.837-7.339,26.453-26.795,34.816c-3.094,1.334-6.29,2.418-9.557,3.243
				c11.715,3.329,24.249,2.173,35.157-3.243c19.456-8.363,31.488-23.979,26.795-34.816C201.92,39.313,200.535,37.546,198.765,36.227
				z M152.6,381.656l-12.8,21.333l12.8,21.333l12.8-21.333L152.6,381.656z M284.44,284.462l-25.6-12.8c-2.4-1.28-5.28-1.28-7.68,0
				l-8.96,4.523l-8.96-4.523c-2.4-1.28-5.28-1.28-7.68,0l-25.6,12.8c-2.902,1.41-4.73,4.368-4.693,7.595v14.763
				c0.005,3.54,2.169,6.719,5.461,8.021c9.136,3.659,18.837,5.709,28.672,6.059c4.305-0.121,8.589-0.635,12.8-1.536
				c4.211,0.901,8.495,1.415,12.8,1.536c9.835-0.35,19.536-2.399,28.672-6.059c3.292-1.302,5.457-4.481,5.461-8.021v-14.763
				C289.17,288.83,287.342,285.872,284.44,284.462z M203.8,381.656L191,402.99l12.8,21.333l12.8-21.333L203.8,381.656z M255,381.656
				l-12.8,21.333l12.8,21.333l12.8-21.333L255,381.656z M323.779,138.371l12.544-9.045
				C331.715,132.483,327.533,135.47,323.779,138.371z M404.589,157.315c-14.469-14.706-35.52-20.873-55.637-16.299h-0.085
				c-1.594-0.394-3.224-0.623-4.864-0.683c26.989-9.51,55.281-14.806,83.883-15.701c-35.24-1.57-70.481,3.08-104.107,13.739
				c-1.536,1.195-2.901,2.304-4.267,3.328c-7.856,1.788-15.434,4.63-22.528,8.448c-2.6,1.372-5.108,2.912-7.509,4.608
				c-22.869,15.872-44.971,52.907-31.061,80.811c12.117,24.235,43.947,32.341,68.693,32.341c4.352,0,8.875-0.256,13.312-0.683
				c4.078,0.476,8.182,0.704,12.288,0.683c18.951,0.585,37.626-4.657,53.504-15.019c10.561-7.503,17.446-19.132,18.944-32
				c0.82-6.704,0.619-13.495-0.597-20.139C422.05,184.702,415.138,169.666,404.589,157.315z M357.4,381.656l-12.8,21.333
				l12.8,21.333c8.408-0.314,15.417-6.536,16.725-14.848L357.4,381.656z"/>
			<path style="fill:#9E9E9E;" d="M447.683,170.456c-3.62-16.132-9.815-31.576-18.347-45.739c-0.427,0-0.939-0.085-1.451-0.085
				c-28.601,0.896-56.894,6.192-83.883,15.701c1.641,0.06,3.27,0.288,4.864,0.683h0.085c20.117-4.574,41.168,1.593,55.637,16.299
				c10.548,12.351,17.461,27.387,19.968,43.435c1.216,6.644,1.418,13.434,0.597,20.139c-1.498,12.868-8.383,24.497-18.944,32
				c-15.878,10.362-34.553,15.604-53.504,15.019c-4.106,0.021-8.21-0.207-12.288-0.683c-4.437,0.427-8.96,0.683-13.312,0.683
				c-24.747,0-56.576-8.107-68.693-32.341c-13.909-27.904,8.192-64.939,31.061-80.811c2.401-1.696,4.909-3.236,7.509-4.608
				c7.094-3.818,14.672-6.66,22.528-8.448c1.365-1.024,2.731-2.133,4.267-3.328c3.755-2.901,7.936-5.888,12.544-9.045l1.195-0.768
				l59.733-42.752l-0.256-0.683c-7.165-6.691-14.809-12.852-22.869-18.432v0.085l-0.341,2.645c-0.108,0.826-0.338,1.631-0.683,2.389
				c-3.925,9.045-18.176,11.947-34.133,7.595c-8.619,3.413-9.18-4.827-22.407-10.544c-19.456-8.363-18.638-16.677-13.945-27.515
				c6.646-4.024,13.543-7.615,20.651-10.752h-25.244l-9.486-0.853c-15.176-3.411-30.625-5.467-46.165-6.144
				c-16.882,0.733-33.655,3.076-50.091,6.997l6.571,5.547l-0.085,0.085c1.77,1.319,3.154,3.086,4.011,5.12
				c4.693,10.837-7.339,26.453-26.795,34.816c-10.908,5.416-23.443,6.572-35.157,3.243c-15.957,4.352-30.208,1.451-34.133-7.595
				c-0.277-0.658-0.477-1.345-0.597-2.048c-6.545,4.723-12.787,9.853-18.688,15.36l-0.341,0.939
				c6.4,2.475,12.459,4.864,18.261,7.339c2.731,1.195,5.376,2.389,8.021,3.499c2.645,1.109,5.205,2.304,7.68,3.499
				c2.56,1.195,5.035,2.389,7.509,3.584c2.475,1.195,4.864,2.389,7.168,3.584c2.304,1.195,4.523,2.304,6.741,3.499
				c3.413,1.792,6.656,3.584,9.728,5.461c1.536,0.768,2.987,1.707,4.437,2.56c1.365,0.768,2.731,1.621,4.096,2.475
				c1.877,1.109,3.669,2.219,5.376,3.328c4.267,2.731,8.192,5.376,11.776,7.936c1.536,1.109,3.072,2.133,4.437,3.243
				c2.816,2.048,5.461,4.096,7.936,6.144c0.21,0.088,0.388,0.236,0.512,0.427c1.282,0.952,2.507,1.978,3.67,3.072
				c2.048,1.707,3.84,3.328,5.547,4.864c0.971,0.786,1.884,1.641,2.731,2.56c0.362,0.289,0.704,0.603,1.024,0.939
				c0.853,0.853,1.707,1.621,2.389,2.389l1.195,1.195c0.427,0.427,0.768,0.853,1.195,1.28l0.768,0.768
				c0.085,0.085,0.171,0.256,0.256,0.341c0.251,0.234,0.479,0.491,0.683,0.768c1.365,1.536,2.475,2.901,3.413,3.925
				c0,0.085,0.085,0.171,0.171,0.256c0.167,0.148,0.311,0.321,0.427,0.512c0,0.085,0.085,0.171,0.171,0.256l0.256,0.256
				c0.085,0.085,0.171,0.171,0.171,0.256c0.512,0.683,0.939,1.28,1.28,1.707c0.341,0.427,0.427,0.768,0.597,0.939
				c-1.165-1.012-2.39-1.952-3.669-2.816c-0.085-0.171-0.171-0.256-0.256-0.256c-2.645-2.048-5.291-4.011-8.107-5.803
				c-0.256-0.171-0.427-0.341-0.683-0.512c-0.939-0.597-1.963-1.28-2.987-1.877c-0.708-0.505-1.449-0.961-2.219-1.365
				c-0.194-0.19-0.427-0.336-0.683-0.427c-1.536-0.939-3.157-1.877-4.693-2.731c-0.085-0.085-0.171-0.085-0.256-0.171
				c-2.389-1.365-4.864-2.645-7.339-3.84c-0.853-0.427-1.792-0.939-2.731-1.365c-1.109-0.512-2.304-1.109-3.499-1.621
				c-0.256-0.085-0.512-0.256-0.768-0.341c-0.243-0.079-0.473-0.194-0.683-0.341l-4.864-2.048c-0.085-0.085-0.171-0.085-0.256-0.171
				h-0.085l-1.792-0.768l-0.768-0.256c-0.853-0.341-1.621-0.683-2.475-1.024c-1.792-0.597-3.499-1.28-5.205-1.877
				c-1.024-0.341-1.963-0.683-2.987-1.024c1.365,1.109,2.731,2.133,4.011,3.157c8.297,1.704,16.293,4.638,23.723,8.704
				c2.6,1.372,5.108,2.912,7.509,4.608c22.869,15.872,44.971,52.907,31.061,80.811c-12.117,24.235-43.947,32.341-68.693,32.341
				c-4.352,0-8.875-0.256-13.312-0.683c-4.078,0.476-8.182,0.704-12.288,0.683c-18.951,0.585-37.626-4.657-53.504-15.019
				c-10.561-7.503-17.446-19.132-18.944-32c-0.82-6.704-0.619-13.495,0.597-20.139c2.507-16.047,9.42-31.084,19.968-43.435
				c14.481-14.744,35.578-20.915,55.723-16.299c1.456-0.358,2.941-0.587,4.437-0.683c-1.024-0.341-1.963-0.683-2.901-1.024
				c-1.707-0.597-3.413-1.195-5.12-1.707c-1.195-0.427-2.389-0.768-3.584-1.109c-0.939-0.341-1.877-0.597-2.73-0.853
				c-3.072-0.853-6.144-1.707-9.131-2.475c-3.755-0.939-7.424-1.792-11.093-2.56c-2.987-0.597-5.973-1.195-8.875-1.707
				c-3.243-0.597-6.485-1.024-9.557-1.536c-3.157-0.341-6.229-0.768-9.216-1.109c-1.536-0.171-3.157-0.341-4.608-0.427
				c-2.901-0.256-5.717-0.512-8.363-0.683c-1.365-0.085-2.731-0.171-4.011-0.256c-1.536-0.085-2.987-0.171-4.352-0.171
				c-0.454-0.043-0.911-0.043-1.365,0c-8.539,14.159-14.734,29.604-18.347,45.739c-4.778,21.066-4.778,42.934,0,64
				c1.26,5.795,2.913,11.497,4.949,17.067c7.46,20.961,19.069,40.203,34.133,56.576c6.64,7.36,13.829,14.207,21.504,20.48
				c7.955,6.447,12.592,16.128,12.629,26.368v50.603c0.025,1.315,0.139,2.626,0.341,3.925c1.308,8.311,8.317,14.534,16.725,14.848
				l25.6-42.667l25.6,42.667l25.6-42.667l25.6,42.667l25.6-42.667l25.6,42.667l12.8-21.333l12.8,21.333L319,402.99l12.8,21.248
				l12.8-21.248l12.8-21.333l16.725,27.819c0.202-1.299,0.316-2.611,0.341-3.925v-50.603c0.042-10.349,4.743-20.128,12.8-26.624
				c7.596-6.18,14.726-12.911,21.333-20.139c15.047-16.386,26.653-35.624,34.133-56.576c2.025-5.602,3.678-11.332,4.949-17.152
				C452.461,213.391,452.461,191.522,447.683,170.456z M289.133,306.819c-0.005,3.54-2.169,6.719-5.461,8.021
				c-9.136,3.659-18.837,5.709-28.672,6.059c-4.305-0.121-8.589-0.635-12.8-1.536c-4.211,0.901-8.495,1.415-12.8,1.536
				c-9.835-0.35-19.536-2.399-28.672-6.059c-3.292-1.302-5.457-4.481-5.461-8.021v-14.763c-0.037-3.226,1.791-6.185,4.693-7.595
				l25.6-12.8c2.4-1.28,5.28-1.28,7.68,0l8.96,4.523l8.96-4.523c2.4-1.28,5.28-1.28,7.68,0l25.6,12.8
				c2.902,1.41,4.73,4.368,4.693,7.595V306.819z"/>
		</g>
		<path style="fill:#5E5F62;" d="M175.981,76.163c-19.456,8.448-38.997,6.485-43.691-4.352c-0.345-0.758-0.575-1.563-0.683-2.389
			l-0.341-2.645l-1.792-12.032l-2.645-18.688c0.103,0.439,0.246,0.867,0.427,1.28c3.072,6.912,13.141,9.472,24.149,6.571h0.085
			c2.022-0.461,3.994-1.118,5.888-1.963c13.056-5.632,20.821-16.896,17.237-25.088c-0.406-0.957-0.953-1.849-1.621-2.645
			l19.285,16.384l6.571,5.547l-0.085,0.085c1.77,1.319,3.154,3.086,4.011,5.12C207.469,52.184,195.437,67.8,175.981,76.163z"/>
		<path style="fill:#FEC108;" d="M225.987,235.566c-10.155,20.395-34.304,29.355-56.405,31.659
			c-4.078,0.476-8.182,0.704-12.288,0.683c-18.951,0.585-37.626-4.657-53.504-15.019c-10.561-7.503-17.446-19.132-18.944-32
			c-0.82-6.704-0.619-13.495,0.597-20.139c2.507-16.047,9.42-31.084,19.968-43.435c14.481-14.744,35.578-20.915,55.723-16.299
			c9.202,1.581,18.082,4.666,26.283,9.131c2.6,1.372,5.108,2.912,7.509,4.608C217.795,170.627,239.896,207.662,225.987,235.566z"/>
		<path style="fill:#FFEB3A;" d="M225.987,235.566c-10.155,20.395-34.304,29.355-56.405,31.659
			c-14.396-1.292-28.227-6.226-40.192-14.336c-10.561-7.503-17.446-19.132-18.944-32c-0.82-6.704-0.619-13.495,0.597-20.139
			c2.507-16.047,9.42-31.084,19.968-43.435c7.962-8.615,18.555-14.347,30.123-16.299c9.202,1.581,18.082,4.666,26.283,9.131
			c2.6,1.372,5.108,2.912,7.509,4.608C217.795,170.627,239.896,207.662,225.987,235.566z"/>
		<path style="fill:#FEC108;" d="M284.024,235.566c10.155,20.395,34.304,29.355,56.405,31.659c4.078,0.476,8.182,0.704,12.288,0.683
			c18.951,0.585,37.626-4.657,53.504-15.019c10.561-7.503,17.446-19.132,18.944-32c0.82-6.704,0.619-13.495-0.597-20.139
			c-2.507-16.047-9.42-31.084-19.968-43.435c-14.481-14.744-35.578-20.915-55.723-16.299c-9.202,1.581-18.082,4.666-26.283,9.131
			c-2.6,1.372-5.108,2.912-7.509,4.608C292.215,170.627,270.114,207.662,284.024,235.566z"/>
		<path style="fill:#FFEB3A;" d="M284.024,235.566c10.155,20.395,34.304,29.355,56.405,31.659
			c14.396-1.292,28.227-6.226,40.192-14.336c10.561-7.503,17.446-19.132,18.944-32c0.82-6.704,0.619-13.495-0.597-20.139
			c-2.507-16.047-9.42-31.084-19.968-43.435c-7.962-8.615-18.555-14.347-30.123-16.299c-9.202,1.581-18.082,4.666-26.283,9.131
			c-2.6,1.372-5.108,2.912-7.509,4.608C292.215,170.627,270.114,207.662,284.024,235.566z"/>
		<g>
			<path style="fill:#4527A0;" d="M289.133,292.056v14.763c-0.005,3.54-2.169,6.719-5.461,8.021
				c-9.136,3.659-18.837,5.709-28.672,6.059c-9.835-0.35-19.536-2.399-28.672-6.059c-3.292-1.302-5.457-4.481-5.461-8.021v-14.763
				c-0.037-3.226,1.791-6.185,4.693-7.595l25.6-12.8c2.4-1.28,5.28-1.28,7.68,0l25.6,12.8
				C287.342,285.872,289.17,288.83,289.133,292.056z"/>
			<path style="fill:#4527A0;" d="M434.2,308.184V415.79c-0.009,23.561-19.106,42.658-42.667,42.667h-17.067l-17.067-25.6
				l-17.067,25.6h-17.067l-17.067-25.6l-17.067,25.6h-17.067L255,432.856l-17.067,25.6h-17.067l-17.067-25.6l-17.067,25.6h-17.067
				l-17.067-25.6l-17.067,25.6h-17.067C94.906,458.448,75.809,439.35,75.8,415.79V308.099c6.64,7.36,13.829,14.207,21.504,20.48
				c7.955,6.447,12.592,16.128,12.629,26.368v50.603c-0.449,9.889,7.18,18.28,17.067,18.773l25.6-42.667l25.6,42.667l25.6-42.667
				l25.6,42.667l25.6-42.667l25.6,42.667l25.6-42.667l25.6,42.667l25.6-42.667l25.6,42.667c9.887-0.493,17.516-8.884,17.067-18.773
				v-50.603c0.042-10.349,4.743-20.128,12.8-26.624C420.462,322.143,427.593,315.412,434.2,308.184z"/>
		</g>
		<g>
			<circle style="fill:#607D8B;" cx="374.467" cy="182.54" r="17.067"/>
			<circle style="fill:#607D8B;" cx="331.8" cy="191.073" r="8.533"/>
			<circle style="fill:#607D8B;" cx="135.533" cy="182.54" r="17.067"/>
			<circle style="fill:#607D8B;" cx="178.2" cy="191.073" r="8.533"/>
		</g>
	</g>
	<g>
		<circle cx="375.467" cy="183.54" r="17.067"/>
		<circle cx="332.8" cy="192.073" r="8.533"/>
		<path d="M486.4,160.79h-3.925c-0.725,0-1.414,0.213-2.131,0.274c-3.027-10.73-7.153-21.12-12.314-31.003
			c0.531-0.989,0.86-2.074,0.97-3.191c3.796-39.646-25.212-52.983-26.45-53.529c-1.985-0.879-4.23-0.97-6.279-0.254
			c-3.538,1.239-6.996,2.486-10.374,3.74c-12.068-10.735-25.279-20.111-39.396-27.958L388.1,37.74
			c0.018-0.126-0.033-0.239-0.021-0.364c2.071-11.989-7.309-25.274-22.849-31.949c-11.949-6.445-26.583-5.18-37.248,3.22
			l-0.114,0.063l-15.153,12.866c-38.665-7.901-78.555-7.622-117.106,0.82L179.504,8.719c-0.093-0.079-0.212-0.096-0.308-0.171
			c-3.759-3.62-8.571-5.951-13.742-6.654c-7.943-1.018-16.013,0.188-23.312,3.483c-7.399,3.06-13.804,8.111-18.504,14.592
			c-3.702,5.032-5.26,11.326-4.335,17.504c0.01,0.092-0.028,0.175-0.015,0.267l1.954,13.567
			c-12.606,7.386-24.453,15.996-35.372,25.704c-3.543-1.316-7.169-2.624-10.878-3.925c-2.049-0.716-4.294-0.625-6.279,0.254
			c-1.237,0.546-30.25,13.884-26.454,53.529c0.151,1.32,0.616,2.584,1.357,3.687c-5.07,9.724-9.139,19.938-12.145,30.484
			c-0.656-0.051-1.283-0.25-1.945-0.25H25.6c-14.132,0.015-25.585,11.468-25.6,25.6v34.133c0.015,14.132,11.468,25.585,25.6,25.6
			h3.925c0.681,0,1.325-0.203,1.999-0.257c0.791,2.808,1.66,5.596,2.609,8.364v179.627c0.049,42.395,34.405,76.751,76.8,76.8
			h290.133c42.395-0.049,76.751-34.405,76.8-76.8V253.94c0.905-2.674,1.686-5.379,2.447-8.094c0.728,0.062,1.425,0.278,2.161,0.278
			h3.925c14.132-0.015,25.585-11.468,25.6-25.6V186.39C511.985,172.258,500.532,160.805,486.4,160.79z M438.242,90.494
			c8.534,6.166,13.688,15.974,13.925,26.5c-32.358-1.246-64.71,2.613-95.867,11.433C382.287,113.093,409.736,100.386,438.242,90.494
			z M320.925,162.79c2.175-1.513,4.433-2.904,6.762-4.167c10.908-5.936,23.099-9.121,35.517-9.279
			c13.571-0.48,26.698,4.878,36.058,14.717c9.439,11.17,15.621,24.724,17.867,39.175c1.102,5.779,1.292,11.695,0.563,17.533
			c-1.189,10.535-6.819,20.061-15.475,26.183c-14.426,9.328-31.369,14.002-48.538,13.388c-22.842,0-50.867-7.25-61.017-27.596
			C281.1,209.569,301.329,176.386,320.925,162.79L320.925,162.79z M311.442,45.752c0.239-0.599,0.63-1.126,1.133-1.529
			c0.38-0.299,0.742-0.62,1.084-0.962c0.062-0.062,0.079-0.146,0.139-0.209l11.536-9.797c2.326,4.254,5.493,7.99,9.309,10.981
			c3.342,2.666,7.031,4.864,10.967,6.533c2.156,0.958,4.393,1.725,6.683,2.292c0.425,0.139,0.862,0.242,1.304,0.308
			c2.624,0.669,5.311,1.06,8.017,1.167c0.692,0.037,1.375,0.054,2.05,0.054c1.616-0.009,3.229-0.132,4.828-0.366l-1.762,12.266
			c-0.011,0.071-0.057,0.125-0.066,0.196l-0.392,2.733c-0.864,1.472-2.245,2.57-3.875,3.079c-9.603,2.499-19.79,1.368-28.612-3.175
			c-9.358-3.321-17.164-9.974-21.925-18.687C311.119,49.116,310.971,47.375,311.442,45.752z M358.446,21.089
			c9.375,4.025,13.317,10.692,12.925,13.342l-0.162,0.542c-0.608,1.417-3.783,2.804-8.821,2.512
			c-1.708-0.062-3.403-0.325-5.05-0.783c-0.336-0.095-0.676-0.17-1.021-0.225c-1.359-0.348-2.687-0.812-3.967-1.388
			c-2.523-1.07-4.892-2.474-7.042-4.175c-5.029-4.033-6.409-8.196-5.429-10.15C345.676,17.525,352.766,17.649,358.446,21.089
			L358.446,21.089z M141.003,68.802l-0.273-2.116c-0.007-0.058-0.045-0.102-0.054-0.159l-1.762-12.233
			c1.631,0.237,3.276,0.359,4.924,0.367c6.179-0.07,12.279-1.391,17.933-3.883c7.399-3.06,13.804-8.111,18.504-14.592
			c0.608-0.974,1.157-1.983,1.644-3.022l12.384,10.518c0.115,0.097,0.168,0.237,0.289,0.33c0.603,0.44,1.072,1.038,1.354,1.729
			c0.475,1.627,0.328,3.372-0.413,4.896c-4.767,8.72-12.58,15.377-21.946,18.7c-7.239,3.33-15.182,4.838-23.138,4.392
			c-4.813-0.479-8.383-2.129-9.379-4.396l-0.01-0.079l0.002-0.033L141.003,68.802z M137.704,29.636
			c2.892-3.825,6.767-6.794,11.213-8.592c3.514-1.566,7.307-2.412,11.154-2.488c0.933-0.003,1.865,0.065,2.788,0.205
			c1.929,0.057,3.736,0.959,4.942,2.467v0.004c0.271,1.911-0.311,3.844-1.592,5.288c-2.892,3.825-6.767,6.794-11.213,8.592
			c-4.355,2.005-9.171,2.794-13.938,2.283c-1.932-0.055-3.742-0.96-4.946-2.471C135.841,33.012,136.423,31.079,137.704,29.636
			L137.704,29.636z M123.873,69.586l0.239,1.658l0.013,0.1l0.005,0.023l0.041,0.285l0.045,0.133
			c0.218,1.521,0.637,3.006,1.247,4.417c4.503,8.751,13.447,14.323,23.287,14.508c1.579,0.158,3.194,0.236,4.846,0.233
			c9.228-0.156,18.33-2.176,26.758-5.937c13.54-5.07,24.64-15.108,31.042-28.071c2.491-5.679,2.582-12.123,0.254-17.871
			c-0.393-0.788-0.837-1.55-1.328-2.28c28.821-5,58.267-5.238,87.165-0.707c-0.641,0.913-1.209,1.876-1.699,2.879
			c-2.367,5.774-2.292,12.261,0.208,17.979c6.396,12.956,17.487,22.989,31.017,28.058c8.428,3.773,17.534,5.8,26.767,5.958
			c5.08,0.077,10.13-0.798,14.888-2.579c5.856-2.086,10.625-6.443,13.229-12.087c0.686-1.514,1.141-3.122,1.35-4.771l0.651-4.529
			c8.412,5.028,16.451,10.657,24.054,16.841c-93.724,38.346-120.58,79.793-121.771,81.7c-1.77,2.875-1.656,6.528,0.291,9.287
			c-12.833,19.515-19.705,44.251-9.082,65.546c13.629,27.312,48.346,37.046,76.292,37.046c20.743,0.604,41.169-5.192,58.505-16.6
			c12.446-8.867,20.584-22.566,22.417-37.737v-0.004c0.973-7.611,0.744-15.327-0.679-22.867
			c-2.744-17.641-10.39-34.157-22.067-47.663c-5.664-6.194-12.566-11.13-20.258-14.487c19.561-3.205,39.383-4.534,59.196-3.968
			c6.945,12.29,12.058,25.529,15.178,39.297c4.49,19.829,4.483,40.412-0.021,60.237c-8.495,35.367-28.77,66.792-57.492,89.108
			c-10.037,8.115-15.886,20.318-15.925,33.225v50.6c0.075,3.529-1.623,6.861-4.523,8.874l-22.294-37.157
			c-1.654-2.413-4.391-3.856-7.317-3.856c-2.926,0-5.663,1.443-7.317,3.856L332.8,408.737l-18.283-30.473
			c-1.654-2.413-4.391-3.856-7.317-3.856s-5.663,1.443-7.317,3.856L281.6,408.737l-18.283-30.473
			c-1.654-2.413-4.391-3.856-7.317-3.856c-2.926,0-5.663,1.443-7.317,3.856L230.4,408.737l-18.283-30.473
			c-1.654-2.413-4.391-3.856-7.317-3.856c-2.926,0-5.663,1.443-7.317,3.856L179.2,408.737l-18.283-30.473
			c-1.654-2.413-4.391-3.856-7.317-3.856s-5.663,1.443-7.317,3.856l-22.294,37.157c-2.9-2.013-4.598-5.345-4.523-8.874v-50.6
			c-0.017-12.806-5.808-24.922-15.763-32.979c-7.374-6.012-14.286-12.57-20.677-19.618c-0.115-0.124-0.204-0.258-0.326-0.375
			c-14.128-15.47-25.035-33.598-32.082-53.328c-0.077-0.212-0.122-0.428-0.216-0.632c-13.273-38.068-9.336-80.027,10.785-114.962
			c19.764-0.516,39.532,0.851,59.036,4.083c-7.621,3.352-14.459,8.257-20.079,14.4c-11.677,13.507-19.324,30.024-22.067,47.667
			c-1.423,7.538-1.652,15.253-0.679,22.863v0.004c1.834,15.173,9.971,28.872,22.417,37.742
			c17.336,11.405,37.762,17.199,58.505,16.596c27.946,0,62.662-9.733,76.292-37.046c10.715-21.482,3.627-46.461-9.421-66.052
			c1.598-2.721,1.555-6.103-0.112-8.782c-1.19-1.904-27.948-43.209-121.27-81.499C110.203,78.817,116.903,73.994,123.873,69.586z
			 M85.333,329.69c2.456,2.204,4.98,4.369,7.571,6.496c5.981,4.821,9.469,12.081,9.496,19.762v50.6
			c-0.369,14.027,10.236,25.922,24.214,27.159c0.156,0.026,0.305,0.033,0.462,0.05c0.314,0.012,0.607,0.1,0.924,0.1
			c0.336-0.046,0.668-0.113,0.995-0.201c0.567-0.055,1.126-0.168,1.67-0.337c1.009-0.375,1.953-0.907,2.797-1.576
			c0.441-0.389,0.838-0.824,1.187-1.298c0.238-0.229,0.461-0.473,0.668-0.73l18.283-30.471l18.283,30.471
			c0.084,0.14,0.206,0.239,0.296,0.372c0.137,0.202,0.296,0.374,0.451,0.565c0.555,0.696,1.216,1.3,1.96,1.789
			c0.085,0.056,0.13,0.146,0.218,0.199l0.101,0.035c0.864,0.49,1.808,0.825,2.787,0.989c0.232,0.042,0.452,0.065,0.685,0.087
			c0.277,0.027,0.547,0.105,0.827,0.105c0.62-0.015,1.238-0.097,1.84-0.246c0.089-0.02,0.18-0.013,0.268-0.036
			c0.8-0.199,1.566-0.514,2.275-0.935c0.115-0.069,0.175-0.187,0.285-0.26c0.866-0.724,1.666-1.524,2.389-2.391
			c0.071-0.106,0.184-0.164,0.251-0.274l18.283-30.471l18.283,30.471c0.084,0.14,0.206,0.239,0.296,0.372
			c0.137,0.202,0.296,0.374,0.451,0.565c0.555,0.696,1.216,1.3,1.96,1.789c0.085,0.056,0.13,0.146,0.218,0.199l0.101,0.035
			c0.863,0.491,1.806,0.825,2.786,0.989c0.232,0.042,0.453,0.065,0.686,0.087c0.278,0.027,0.547,0.105,0.827,0.105
			c0.62-0.015,1.238-0.097,1.84-0.246c0.089-0.02,0.18-0.013,0.268-0.036c0.8-0.199,1.566-0.514,2.275-0.935
			c0.115-0.069,0.174-0.186,0.284-0.259c0.867-0.724,1.667-1.524,2.39-2.392c0.071-0.106,0.184-0.164,0.251-0.274L256,399.244
			l18.283,30.471c0.084,0.14,0.206,0.239,0.296,0.372c0.137,0.202,0.296,0.374,0.451,0.565c0.555,0.696,1.216,1.3,1.96,1.789
			c0.085,0.056,0.13,0.146,0.218,0.199l0.101,0.035c0.865,0.491,1.811,0.826,2.792,0.99c0.23,0.041,0.45,0.064,0.682,0.086
			c0.277,0.027,0.546,0.105,0.826,0.105c0.619-0.015,1.235-0.097,1.837-0.245c0.093-0.02,0.186-0.014,0.278-0.037
			c0.798-0.2,1.562-0.514,2.269-0.934c0.114-0.068,0.172-0.184,0.281-0.256c0.868-0.724,1.67-1.525,2.393-2.394
			c0.071-0.107,0.184-0.164,0.251-0.275l18.283-30.471l18.283,30.471c0.084,0.14,0.206,0.239,0.296,0.372
			c0.137,0.202,0.296,0.374,0.451,0.565c0.555,0.696,1.216,1.3,1.96,1.789c0.085,0.056,0.13,0.146,0.218,0.199l0.101,0.035
			c0.863,0.491,1.807,0.825,2.786,0.989c0.232,0.042,0.453,0.065,0.686,0.087c0.278,0.027,0.547,0.105,0.827,0.105
			c0.62-0.015,1.238-0.097,1.84-0.246c0.089-0.02,0.18-0.013,0.268-0.036c0.8-0.199,1.566-0.514,2.275-0.935
			c0.115-0.069,0.174-0.186,0.284-0.259c0.867-0.724,1.667-1.524,2.39-2.392c0.071-0.106,0.184-0.164,0.251-0.274l18.283-30.471
			l18.283,30.471c0.327,0.517,0.71,0.997,1.141,1.432c0.074,0.078,0.121,0.172,0.197,0.248c0.698,0.671,1.506,1.216,2.39,1.611
			c0.212,0.1,0.422,0.174,0.643,0.256c0.934,0.369,1.927,0.569,2.931,0.592l0.014,0.002l0.005-0.001l0.004,0.001l0.035-0.005
			c14.577-0.526,25.994-12.724,25.557-27.304v-50.6c0.046-7.782,3.592-15.129,9.654-20.008c2.581-2.102,4.969-4.323,7.412-6.509
			v87.359c-0.022,18.842-15.291,34.112-34.133,34.133h-12.5l-14.534-21.8c-1.672-2.242-4.304-3.563-7.1-3.563
			c-2.796,0-5.428,1.321-7.1,3.563l-14.533,21.8h-7.933l-14.534-21.8c-1.672-2.242-4.304-3.563-7.1-3.563
			c-2.796,0-5.428,1.321-7.1,3.563l-14.533,21.8h-7.933l-14.534-21.8c-1.672-2.242-4.304-3.563-7.1-3.563
			c-2.796,0-5.428,1.321-7.1,3.563l-14.533,21.8h-7.933l-14.534-21.8c-1.672-2.242-4.304-3.563-7.1-3.563s-5.428,1.321-7.1,3.563
			l-14.533,21.8h-7.933l-14.534-21.8c-1.672-2.242-4.304-3.563-7.1-3.563s-5.428,1.321-7.1,3.563l-14.533,21.8h-12.5
			c-18.842-0.022-34.112-15.291-34.133-34.133V329.69z M184.317,158.623c2.33,1.265,4.589,2.658,6.767,4.171
			c19.588,13.592,39.817,46.775,28.254,69.95c-10.15,20.346-38.175,27.596-61.017,27.596c-17.168,0.613-34.11-4.058-48.538-13.383
			c-8.655-6.124-14.285-15.652-15.475-26.188c-0.73-5.837-0.54-11.751,0.563-17.529c2.245-14.453,8.426-28.008,17.867-39.179
			C131.346,143.723,162.879,146.986,184.317,158.623z M73.033,90.498c28.501,9.891,55.947,22.597,81.929,37.929
			c-27.453-7.826-55.87-11.749-84.417-11.654c-4.454,0-8.312,0.096-11.45,0.221C59.358,106.472,64.512,96.675,73.033,90.498
			L73.033,90.498z M25.6,229.056c-4.71-0.006-8.527-3.823-8.533-8.533V186.39c0.006-4.71,3.823-8.527,8.533-8.533h2.188
			c-2.907,16.942-2.917,34.255-0.029,51.2H25.6z M460.8,433.856c-0.037,32.974-26.759,59.696-59.733,59.733H110.933
			c-32.974-0.037-59.696-26.759-59.733-59.733V289.652c5.096,8.005,10.802,15.605,17.067,22.733V416.79
			c0.031,28.264,22.936,51.169,51.2,51.2h17.067c2.853,0,5.518-1.426,7.1-3.8l9.967-14.95l9.967,14.95
			c1.582,2.374,4.247,3.8,7.1,3.8h17.067c2.853,0,5.518-1.426,7.1-3.8l9.967-14.95l9.967,14.95c1.582,2.374,4.247,3.8,7.1,3.8
			h17.067c2.853,0,5.518-1.426,7.1-3.8L256,449.24l9.967,14.95c1.582,2.374,4.247,3.8,7.1,3.8h17.067c2.853,0,5.518-1.426,7.1-3.8
			l9.967-14.95l9.967,14.95c1.582,2.374,4.247,3.8,7.1,3.8h17.067c2.853,0,5.518-1.426,7.1-3.8l9.967-14.95l9.967,14.95
			c1.582,2.374,4.247,3.8,7.1,3.8h17.067c28.264-0.031,51.169-22.936,51.2-51.2V312.303c6.267-7.102,11.973-14.679,17.067-22.665
			V433.856z M494.933,220.523c-0.006,4.71-3.823,8.527-8.533,8.533h-2.385c1.517-8.451,2.315-17.015,2.385-25.6
			c-0.069-8.585-0.865-17.149-2.382-25.6h2.382c4.71,0.006,8.527,3.823,8.533,8.533V220.523z"/>
		<circle cx="136.533" cy="183.54" r="17.067"/>
		<circle cx="179.2" cy="192.073" r="8.533"/>
		<path d="M213.333,293.056v14.796c-0.003,7.009,4.273,13.31,10.788,15.896c10.154,4.076,20.943,6.344,31.879,6.7
			c10.936-0.356,21.725-2.624,31.879-6.7c6.515-2.586,10.791-8.887,10.788-15.896v-14.796c0.022-6.471-3.636-12.392-9.433-15.267
			l-25.604-12.8c-4.808-2.383-10.454-2.383-15.262,0l-25.6,12.8C216.97,280.665,213.311,286.586,213.333,293.056z M230.4,293.056
			l25.6-12.8l25.6,12.8l-0.104,14.867c-8.131,3.239-16.751,5.085-25.496,5.458c-8.785-0.382-17.441-2.252-25.6-5.529V293.056z"/>
	</g>
</g>
<g>
</g>
<g>
</g>
<g>
</g>
<g>
</g>
<g>
</g>
<g>
</g>
<g>
</g>
<g>
</g>
<g>
</g>
<g>
</g>
<g>
</g>
<g>
</g>
<g>
</g>
<g>
</g>
<g>
</g>
</svg>
