<?xml version="1.0" encoding="iso-8859-1"?>
<!-- Generator: Adobe Illustrator 19.0.0, SVG Export Plug-In . SVG Version: 6.00 Build 0)  -->
<svg version="1.1" id="Capa_1" xmlns="http://www.w3.org/2000/svg" xmlns:xlink="http://www.w3.org/1999/xlink" x="0px" y="0px"
	 viewBox="0 0 512 512" style="enable-background:new 0 0 512 512;" xml:space="preserve">
<g>
	<g transform="translate(1 1)">
		<g>
			<path style="fill:#606060;" d="M502.467,215.228v34.133c-0.028,9.414-7.652,17.039-17.067,17.067h-3.925
				c-2.87,0.014-5.693-0.721-8.192-2.133c-10.677,43.054-37.343,80.43-74.581,104.533h6.571c5.537-0.05,10.751,2.597,13.978,7.097
				c3.226,4.5,4.06,10.288,2.236,15.516c-17.152,45.653-85.163,79.787-166.485,79.787c-4.267,0-8.533-0.085-12.8-0.341
				c-75.605-3.328-137.472-36.181-153.685-79.445c-1.825-5.228-0.991-11.016,2.236-15.516c3.226-4.5,8.441-7.148,13.978-7.097h6.57
				c-37.238-24.103-63.905-61.479-74.581-104.533c-2.499,1.412-5.322,2.147-8.192,2.133H24.6
				c-9.414-0.027-17.039-7.652-17.067-17.067v-34.133c0.028-9.414,7.653-17.039,17.067-17.067h3.925
				c2.87-0.014,5.693,0.722,8.192,2.133c5.004-21.989,14.665-42.649,28.331-60.587c-14.421-1.28-23.381-1.28-23.381-1.28
				c-0.377-10.016,2.933-19.823,9.302-27.563c2.166-2.645,4.797-4.872,7.765-6.571c3.669,1.28,7.253,2.646,10.837,3.925
				c6.144,2.304,12.117,4.523,17.835,6.741c12.742-11.792,26.868-21.993,42.069-30.379l-2.645-18.603V65.81l-0.085-0.427
				c-1.877-7.936,5.632-18.091,17.75-23.296c0.171-0.085,0.256-0.085,0.426-0.171c11.349-4.779,23.041-3.669,28.075,2.133
				l14.422,12.288h0.085l4.778,4.096c16.436-3.922,33.209-6.265,50.091-6.997c4.181-0.256,8.363-0.341,12.629-0.341
				c12.733-0.032,25.452,0.852,38.059,2.645c7.169,1.024,14.165,2.304,21.077,3.84l18.263-15.531
				c0.693-0.819,1.497-1.537,2.388-2.133c8.189-4.171,17.893-4.107,26.027,0.171c12.117,5.205,19.712,15.275,17.835,23.296
				l-2.389,16.896c13.797,7.205,26.76,15.904,38.656,25.941c2.646,2.219,5.121,4.437,7.595,6.741h0.085
				c3.499-1.365,7.168-2.73,10.836-4.096c5.719-2.219,11.692-4.352,17.835-6.571c11.575,7.336,18.143,20.472,17.067,34.133
				c0,0-8.96,0-23.381,1.28c13.666,17.938,23.327,38.598,28.331,60.587c2.499-1.412,5.322-2.147,8.192-2.133h3.925
				C494.814,198.189,502.439,205.814,502.467,215.228z"/>
			<path style="fill:#9E9E9E;" d="M476.867,215.228v34.133c-0.028,9.414-7.652,17.039-17.067,17.067h-3.925
				c-2.87,0.014-5.693-0.721-8.192-2.133c-10.677,43.054-37.343,80.43-74.581,104.533h6.571c5.537-0.05,10.751,2.597,13.978,7.097
				c3.226,4.5,4.06,10.288,2.236,15.516c-16.213,43.264-78.08,76.117-153.685,79.445c-75.605-3.328-137.472-36.181-153.685-79.445
				c-1.825-5.228-0.991-11.016,2.236-15.516c3.226-4.5,8.441-7.148,13.978-7.097h6.57c-37.238-24.103-63.905-61.479-74.581-104.533
				c-2.499,1.412-5.322,2.147-8.192,2.133H24.6c-9.414-0.027-17.039-7.652-17.067-17.067v-34.133
				c0.028-9.414,7.653-17.039,17.067-17.067h3.925c2.87-0.014,5.693,0.722,8.192,2.133c5.004-21.989,14.665-42.649,28.331-60.587
				c-14.421-1.28-23.381-1.28-23.381-1.28c-0.377-10.016,2.933-19.823,9.302-27.563c3.669,1.365,7.337,2.731,10.836,4.096
				c2.475-2.304,5.12-4.608,7.765-6.741c6.144,2.304,12.117,4.523,17.835,6.741c12.742-11.792,26.868-21.993,42.069-30.379
				l-2.645-18.603V65.81l-0.085-0.427c-1.877-7.936,5.632-18.091,17.75-23.296c0.171-0.085,0.256-0.085,0.426-0.171
				c0.918,0.596,1.75,1.313,2.475,2.133l19.285,16.384c6.741-1.621,13.653-2.987,20.736-4.096h0.085
				c13.86-2.169,27.869-3.253,41.898-3.243c4.352,0,8.704,0.085,12.971,0.341c15.54,0.677,30.989,2.734,46.165,6.144l4.523-3.84
				c7.169,1.024,14.165,2.304,21.077,3.84l18.263-15.531c0.693-0.819,1.497-1.537,2.389-2.133c0.171,0.085,0.256,0.085,0.427,0.171
				c12.117,5.205,19.711,15.275,17.835,23.296l-2.389,16.896c16.83,8.743,32.39,19.738,46.251,32.683h0.085
				c5.803-2.218,11.776-4.523,17.92-6.741c3.499-1.365,7.083-2.645,10.752-3.925c2.967,1.698,5.599,3.925,7.765,6.571
				c6.369,7.74,9.679,17.546,9.302,27.563c0,0-8.96,0-23.381,1.28c13.666,17.938,23.327,38.598,28.331,60.587
				c2.499-1.412,5.322-2.147,8.192-2.133h3.925C469.214,198.189,476.839,205.814,476.867,215.228z"/>
		</g>
		<path style="fill:#37474F;" d="M374.467,223.762c-0.001-1.888,0.317-3.764,0.939-5.547c-2.762-1.973-6.078-3.019-9.472-2.987
			c-6.224,0.013-11.947,3.414-14.933,8.875c3.761,0.938,6.4,4.316,6.4,8.192c0,3.876-2.639,7.254-6.4,8.192
			c2.987,5.46,8.71,8.861,14.933,8.875c7.248,0.029,13.706-4.573,16.043-11.435C377.279,234.742,374.466,229.436,374.467,223.762z
			 M473.283,200.295c-5.004-21.989-14.665-42.649-28.331-60.587c-34.237,2.818-67.936,10.252-100.181,22.101
			c-0.182,0.018-0.357,0.076-0.513,0.171c-26.907,9.733-51.492,24.961-72.191,44.715c9.494-11.94,20.811-22.307,33.535-30.72
			c36.21-25.237,75.497-45.741,116.907-61.013c-13.861-12.944-29.421-23.94-46.251-32.683l-2.133,14.336l-0.341,2.645
			c-0.108,0.826-0.337,1.631-0.681,2.389c-0.319,0.682-0.69,1.338-1.11,1.963c-6.406,6.708-15.912,9.475-24.918,7.253
			c-6.101-0.713-12.058-2.354-17.664-4.864c-19.456-8.363-31.488-23.979-26.794-34.816c0.826-1.957,2.15-3.663,3.84-4.949
			l-0.085-0.085l7.765-6.571c-40.161-8.927-81.824-8.635-121.856,0.853l3.755,3.243l2.729,2.389l0.256,0.171
			c1.647,1.309,2.938,3.011,3.755,4.949c4.693,10.837-7.339,26.453-26.795,34.816c-5.87,2.623-12.121,4.294-18.517,4.949
			c-12.117,1.28-22.017-1.963-25.174-9.301c-0.344-0.729-0.574-1.506-0.683-2.304V99.26l-0.341-2.645l-1.792-12.032
			c-8.526,4.71-16.71,10.013-24.492,15.872c-6.139,4.486-12.008,9.33-17.577,14.507c113.408,44.459,146.517,86.187,150.187,91.221
			c0.127,0.161,0.241,0.333,0.341,0.512c-33.535-33.536-81.579-50.603-121.685-59.307c-16.889-3.63-33.989-6.195-51.2-7.68
			c-2.56,3.413-4.95,6.912-7.253,10.496c-9.94,15.315-17.078,32.276-21.078,50.091c-4.778,21.066-4.778,42.934,0,64
			c10.677,43.054,37.343,80.43,74.581,104.533h287.404c37.238-24.103,63.905-61.479,74.581-104.533
			C478.061,243.229,478.061,221.361,473.283,200.295L473.283,200.295z M108.909,237.927c-4.697-3.185-7.51-8.491-7.509-14.165
			c-0.001-1.888,0.317-3.764,0.939-5.547c2.708-7.887,10.721-12.661,18.947-11.287c8.225,1.374,14.251,8.494,14.248,16.833
			c0.016,3.169-0.873,6.277-2.56,8.96c-1.373,2.27-3.276,4.173-5.546,5.547c-2.693,1.665-5.794,2.551-8.96,2.56
			C115.067,240.809,111.746,239.801,108.909,237.927z M161.133,240.828c-4.713,0-8.533-3.82-8.533-8.533s3.821-8.533,8.533-8.533
			c4.713,0,8.533,3.821,8.533,8.533c0.008,2.266-0.888,4.441-2.49,6.043S163.399,240.836,161.133,240.828z M348.867,240.828
			c-4.713,0-8.533-3.82-8.533-8.533s3.821-8.533,8.533-8.533c0.726-0.019,1.449,0.097,2.133,0.341c3.761,0.938,6.4,4.316,6.4,8.192
			c0,3.876-2.639,7.254-6.4,8.192C350.316,240.731,349.593,240.847,348.867,240.828z M381.976,237.927
			c-4.697-3.185-7.51-8.491-7.509-14.165c-0.001-1.888,0.317-3.764,0.939-5.547c2.829-8.222,11.39-13.001,19.874-11.095
			c8.484,1.907,14.177,9.889,13.216,18.531c-0.96,8.642-8.267,15.18-16.962,15.177C388.134,240.809,384.813,239.801,381.976,237.927
			z"/>
		<path style="fill:#607D8B;" d="M351,224.103c-0.684-0.244-1.407-0.36-2.133-0.341c-4.713,0-8.533,3.821-8.533,8.533
			s3.821,8.533,8.533,8.533c0.726,0.019,1.449-0.097,2.133-0.341C348.156,235.396,348.156,229.194,351,224.103z M57.795,150.204
			c-9.94,15.315-17.078,32.276-21.078,50.091c-4.778,21.066-4.778,42.934,0,64c10.677,43.054,37.343,80.43,74.581,104.533h273.323
			c31.49-23.745,53.776-57.67,63.063-96c4.778-21.066,4.778-42.934,0-64c-5.004-21.989-14.665-42.649-28.331-60.587
			c-25.228,2.192-50.197,6.735-74.581,13.568c-0.182,0.018-0.357,0.076-0.513,0.171c-13.21,3.715-26.129,8.393-38.656,13.995
			c-21.504,9.557-11.273,8.698-28.254,25.679c0,0-2.052,0.698,4.006-5.446c15.446-15.531,28.686-38.58,115.555-72.713
			c-7.774-7.268-16.105-13.916-24.917-19.883c-6.852-4.684-13.976-8.958-21.333-12.8l-2.133,14.336l-0.341,2.645
			c-0.108,0.826-0.337,1.631-0.681,2.389c-0.091,0.256-0.236,0.489-0.427,0.683c-5.121,10.24-24.235,11.947-43.265,3.669
			c-19.456-8.363-31.487-23.979-26.794-34.816c0.826-1.957,2.15-3.663,3.84-4.949l-0.085-0.085l7.765-6.571
			c-30.355-6.74-61.639-8.241-92.5-4.437c-9.881,1.187-19.683,2.954-29.357,5.291l6.484,5.632l0.256,0.171
			c1.647,1.309,2.938,3.011,3.755,4.949c4.096,9.472-4.523,22.528-19.712,31.232c-2.299,1.314-4.663,2.51-7.083,3.584
			c-19.456,8.448-38.998,6.485-43.691-4.352c-0.344-0.729-0.574-1.506-0.683-2.304v-0.085l-0.341-2.645l-0.683-4.693l-1.108-7.339
			c-15.201,8.386-29.328,18.587-42.069,30.379c20.736,8.107,38.741,16.128,54.443,23.893L57.795,150.204z M92.867,249.362
			c-9.426,0-17.067-7.641-17.067-17.067s7.641-17.067,17.067-17.067c3.394-0.032,6.71,1.013,9.472,2.987
			c4.73,3.125,7.582,8.411,7.595,14.08c0.015,1.925-0.333,3.835-1.024,5.632C106.572,244.788,100.115,249.391,92.867,249.362z
			 M135.533,249.362c-4.713,0-8.533-3.821-8.533-8.533c0-4.713,3.821-8.533,8.533-8.533s8.533,3.821,8.533,8.533
			c0.008,2.266-0.888,4.441-2.49,6.043C139.974,248.473,137.799,249.37,135.533,249.362z M323.267,249.362
			c-4.713,0-8.533-3.821-8.533-8.533c0-4.713,3.821-8.533,8.533-8.533s8.533,3.821,8.533,8.533c0.008,2.266-0.888,4.441-2.491,6.043
			C327.707,248.473,325.532,249.37,323.267,249.362z M365.933,249.362c-6.224-0.013-11.947-3.414-14.933-8.875
			c-2.845-5.091-2.845-11.293,0-16.384c2.987-5.46,8.71-8.861,14.933-8.875c3.394-0.032,6.71,1.013,9.472,2.987
			c4.73,3.125,7.582,8.411,7.595,14.08c0.014,1.925-0.333,3.835-1.024,5.632C379.639,244.788,373.182,249.391,365.933,249.362z"/>
		<path style="fill:#FEC108;" d="M229.4,232.295c0,29.611-27.648,54.187-64,58.795c-4.234,0.658-8.515,0.972-12.8,0.939
			c-42.411,0-76.8-26.709-76.8-59.733c0,0,0-34.133,17.067-51.2c7.946,0.188,15.871,0.901,23.723,2.133
			C158.007,188.837,197.057,205.822,229.4,232.295z"/>
		<path style="fill:#FFEB3A;" d="M229.4,232.295c0,29.611-27.648,54.187-64,58.795c-36.352-4.608-64-29.184-64-58.795
			c0,0,0-31.487,15.189-49.067C158.007,188.837,197.057,205.822,229.4,232.295z"/>
		<path style="fill:#FEC108;" d="M434.2,232.295c0,33.025-34.389,59.733-76.8,59.733c-4.285,0.033-8.566-0.28-12.8-0.939h-0.171
			c-36.267-4.693-63.829-29.184-63.829-58.795c32.343-26.473,71.393-43.458,112.811-49.067c7.852-1.232,15.777-1.945,23.723-2.133
			C434.2,198.162,434.2,232.295,434.2,232.295z"/>
		<path style="fill:#FFEB3A;" d="M408.6,232.295c0,29.611-27.648,54.187-64,58.795h-0.171
			c-36.267-4.693-63.829-29.184-63.829-58.795c32.343-26.473,71.393-43.458,112.811-49.067
			C408.6,200.807,408.6,232.295,408.6,232.295z"/>
		<path style="fill:none;stroke:#000000;stroke-width:2;stroke-linecap:round;stroke-linejoin:round;" d="M151.491,73.778
			c0,0,0,0.085-0.085,0"/>
		<path style="fill:#5E5F62;" d="M289.133,309.129c-10.504-0.648-20.608-4.262-29.141-10.421c-3.01-2.056-6.972-2.058-9.984-0.004
			c-8.532,6.162-18.637,9.777-29.141,10.425c-4.713,0-8.533-3.821-8.533-8.533c0-4.713,3.821-8.533,8.533-8.533
			c7.066-0.754,13.813-3.338,19.575-7.496c8.786-5.978,20.333-5.976,29.117,0.004c5.786,4.177,12.568,6.76,19.667,7.492
			c4.684,0.104,8.419,3.944,8.392,8.629C297.588,305.358,293.799,309.126,289.133,309.129z"/>
		<g>
			<path style="fill:#E91E63;" d="M237.933,206.695c-50.176-50.176-132.693-63.488-172.885-66.987
				c-14.421-1.28-23.381-1.28-23.381-1.28c-1.076-13.661,5.492-26.797,17.067-34.133c10.069,3.584,19.627,7.168,28.672,10.667
				C208.408,162.407,237.933,206.695,237.933,206.695z"/>
			<path style="fill:#E91E63;" d="M468.333,138.428c0,0-8.96,0-23.381,1.28c-40.192,3.499-122.709,16.811-172.885,66.987
				c0,0,29.525-44.287,150.443-91.733h0.085c9.045-3.499,18.603-7.083,28.672-10.667
				C462.841,111.631,469.41,124.767,468.333,138.428z"/>
		</g>
		<g>
			<path style="fill:#607D8B;" d="M135.533,223.762c0,9.426-7.641,17.067-17.067,17.067s-17.067-7.641-17.067-17.067
				c0-9.426,7.641-17.067,17.067-17.067c4.527-0.001,8.868,1.796,12.069,4.997C133.737,214.893,135.535,219.235,135.533,223.762z"/>
			<path style="fill:#607D8B;" d="M169.667,232.295c0,4.713-3.82,8.533-8.533,8.533s-8.533-3.82-8.533-8.533s3.82-8.533,8.533-8.533
				c2.266-0.008,4.441,0.888,6.043,2.49S169.675,230.029,169.667,232.295z"/>
			<path style="fill:#607D8B;" d="M408.6,223.762c0,9.426-7.641,17.067-17.067,17.067s-17.067-7.641-17.067-17.067
				c0-9.426,7.641-17.067,17.067-17.067c4.527-0.001,8.868,1.796,12.069,4.997C406.804,214.893,408.601,219.235,408.6,223.762z"/>
			<path style="fill:#607D8B;" d="M357.4,232.295c0,4.713-3.82,8.533-8.533,8.533c-4.713,0-8.533-3.82-8.533-8.533
				s3.82-8.533,8.533-8.533c2.266-0.008,4.441,0.888,6.043,2.49S357.408,230.029,357.4,232.295z"/>
		</g>
		<g>
			<path style="fill:#CFD8DC;" d="M157.379,71.783c-13.056,5.717-26.54,3.584-30.123-4.608c-0.18-0.384-0.323-0.784-0.427-1.195
				V65.81l-0.085-0.427c-1.877-7.936,5.632-18.091,17.75-23.296c11.52-4.949,23.381-3.925,28.501,1.963
				c0.668,0.797,1.215,1.688,1.622,2.645C178.2,54.887,170.435,66.151,157.379,71.783z"/>
			<path style="fill:#CFD8DC;" d="M378.648,65.383c-0.161,0.61-0.36,1.208-0.598,1.792c-3.518,5.836-10.276,8.892-16.981,7.68
				c-2.396-0.09-4.774-0.462-7.083-1.109h-0.084c-2.022-0.46-3.994-1.118-5.888-1.963c-3.244-1.375-6.286-3.184-9.045-5.376
				c-6.766-4.06-10.117-12.039-8.278-19.712c0.436-0.961,1.012-1.852,1.707-2.645c5.119-5.973,16.896-6.997,28.416-1.963
				C372.931,47.292,380.525,57.362,378.648,65.383z"/>
		</g>
		<path style="fill:#5E5F62;" d="M378.648,65.383l-2.389,16.896l-2.133,14.336l-0.341,2.645c-0.108,0.826-0.337,1.631-0.681,2.389
			c-4.695,10.837-24.236,12.8-43.692,4.352c-19.456-8.363-31.488-23.979-26.794-34.816c0.826-1.957,2.15-3.663,3.84-4.949
			l-0.085-0.085l7.765-6.571l18.263-15.531c-0.696,0.793-1.271,1.685-1.707,2.645c-1.839,7.673,1.512,15.652,8.277,19.712
			c2.758,2.192,5.801,4.001,9.045,5.376c1.894,0.845,3.866,1.502,5.889,1.963h0.085c2.309,0.647,4.686,1.019,7.083,1.109
			c6.706,1.212,13.463-1.844,16.981-7.68C378.288,66.591,378.488,65.992,378.648,65.383z"/>
		<path style="fill:#E91E63;" d="M33.133,232.295c-0.017,10.768,1.185,21.503,3.583,32c-2.499,1.412-5.322,2.147-8.192,2.133H24.6
			c-9.414-0.027-17.039-7.652-17.067-17.067v-34.133c0.028-9.414,7.653-17.039,17.067-17.067h3.925
			c2.87-0.014,5.693,0.722,8.192,2.133C34.319,210.792,33.116,221.527,33.133,232.295z"/>
		<path style="fill:#5E5F62;" d="M175.981,106.002c-19.456,8.448-38.998,6.485-43.691-4.352c-0.344-0.729-0.574-1.506-0.683-2.304
			V99.26l-0.341-2.645l-1.792-12.032l-2.645-18.603c0.104,0.411,0.247,0.811,0.427,1.195c3.583,8.192,17.067,10.325,30.123,4.608
			c13.056-5.632,20.821-16.896,17.237-25.088c-0.407-0.957-0.953-1.848-1.621-2.645l19.285,16.384l6.484,5.632l0.256,0.171
			c1.647,1.309,2.938,3.011,3.755,4.949C207.469,82.023,195.437,97.639,175.981,106.002z"/>
		<path style="fill:#E91E63;" d="M502.467,215.228v34.133c-0.028,9.414-7.652,17.039-17.067,17.067h-3.925
			c-2.87,0.014-5.693-0.721-8.192-2.133c4.778-21.066,4.778-42.934,0-64c2.499-1.412,5.322-2.147,8.192-2.133h3.925
			C494.814,198.189,502.439,205.814,502.467,215.228z"/>
	</g>
	<g>
		<path d="M153.6,301.596c47.05,0,85.333-30.625,85.333-68.267c-0.001-2.492-1.091-4.859-2.983-6.479
			c-40.286-32.771-90.182-51.472-142.083-53.254c-2.263,0-4.434,0.899-6.033,2.5c-19.342,19.341-19.567,55.695-19.567,57.233
			C68.267,270.971,106.55,301.596,153.6,301.596z M97.575,190.791c45.086,2.63,88.334,18.786,124.1,46.363
			c-2.617,26.454-32.15,47.375-68.075,47.375c-37.642,0-68.267-22.967-68.267-51.2C85.29,218.275,89.536,203.52,97.575,190.791z"/>
		<path d="M213.333,301.596c-0.001,2.263,0.898,4.434,2.499,6.035c1.6,1.6,3.771,2.499,6.035,2.499
			c10.504-0.648,20.609-4.263,29.141-10.425c3.012-2.053,6.973-2.051,9.983,0.004c8.533,6.159,18.638,9.773,29.142,10.421
			c4.666-0.003,8.455-3.772,8.483-8.438c0.027-4.685-3.708-8.526-8.392-8.629c-7.099-0.731-13.881-3.315-19.667-7.492
			c-8.784-5.98-20.331-5.982-29.117-0.004c-5.762,4.158-12.509,6.742-19.575,7.496c-2.263-0.001-4.434,0.898-6.035,2.499
			S213.333,299.332,213.333,301.596z"/>
		<path d="M358.4,301.596c47.05,0,85.333-30.625,85.333-68.267c0-1.538-0.225-37.892-19.567-57.233c-1.6-1.601-3.77-2.5-6.033-2.5
			c-51.901,1.782-101.797,20.483-142.083,53.254c-1.893,1.621-2.982,3.988-2.983,6.479
			C273.067,270.971,311.35,301.596,358.4,301.596z M414.442,190.796c12.008,15.112,12.225,42.254,12.225,42.533
			c0,28.233-30.625,51.2-68.267,51.2c-35.925,0-65.458-20.921-68.075-47.375C326.123,209.624,369.361,193.474,414.442,190.796
			L414.442,190.796z"/>
		<circle cx="119.467" cy="224.796" r="17.067"/>
		<circle cx="162.133" cy="233.329" r="8.533"/>
		<circle cx="392.533" cy="224.796" r="17.067"/>
		<circle cx="349.867" cy="233.329" r="8.533"/>
		<path d="M25.6,275.996h3.925c0.692,0,1.348-0.206,2.032-0.261c10.584,35.358,31.746,66.626,60.638,89.594
			c-3.05,1.825-5.689,4.261-7.753,7.155c-4.734,6.688-5.833,15.291-2.933,22.954c18.849,50.258,90.599,85.358,174.491,85.358
			s155.642-35.1,174.492-85.358c2.9-7.663,1.8-16.267-2.933-22.954c-2.064-2.894-4.703-5.329-7.753-7.155
			c28.891-22.969,50.053-54.236,60.639-89.594c0.683,0.055,1.34,0.261,2.031,0.261h3.925c14.132-0.015,25.585-11.468,25.6-25.6
			v-34.133c-0.015-14.132-11.468-25.585-25.6-25.6h-3.925c-0.718,0-1.398,0.211-2.108,0.27
			c-4.28-15.051-10.671-29.419-18.983-42.677c4.886-0.235,7.769-0.26,7.95-0.26c4.712-0.002,8.532-3.821,8.533-8.533
			c1.104-16.897-7.296-33.002-21.783-41.767c-2.073-1.031-4.474-1.18-6.658-0.413c-8.414,2.97-16.421,5.939-24.118,8.902
			C413.4,95.664,400.389,86.462,386.502,78.74l1.598-11.128c0.018-0.126-0.033-0.24-0.021-0.365
			c2.067-11.989-7.306-25.273-22.846-31.947c-11.95-6.464-26.6-5.194-37.259,3.228l-0.099,0.055L312.717,51.45
			c-38.664-7.905-78.555-7.626-117.105,0.819l-16.103-13.681c-0.083-0.07-0.19-0.084-0.274-0.151
			c-10.643-8.303-25.181-9.552-37.084-3.186c-15.812,6.829-25.018,20.308-22.857,32.202c0.007,0.055-0.018,0.106-0.009,0.161
			l1.954,13.568c-12.295,7.205-23.868,15.578-34.558,25.001c-7.694-2.961-15.696-5.93-24.104-8.897
			c-2.184-0.771-4.587-0.622-6.658,0.412c-14.488,8.765-22.887,24.87-21.783,41.766c0.001,4.712,3.821,8.532,8.533,8.533
			c0.182,0,3.065,0.022,7.952,0.255c-8.314,13.259-14.706,27.629-18.986,42.682c-0.71-0.06-1.391-0.27-2.108-0.27H25.6
			c-14.132,0.015-25.585,11.468-25.6,25.6v34.133C0.015,264.528,11.468,275.98,25.6,275.996z M414.508,389.446
			c-16.142,43.042-82.8,74.283-158.508,74.283s-142.367-31.242-158.508-74.283c-0.906-2.425-0.54-5.143,0.975-7.242
			c1.637-2.374,4.333-3.797,7.217-3.808h300.633c2.884,0.011,5.58,1.434,7.217,3.808
			C415.048,384.303,415.414,387.021,414.508,389.446z M486.4,207.729c4.711,0.005,8.529,3.822,8.533,8.533v34.133
			c-0.005,4.711-3.822,8.529-8.533,8.533h-2.219c2.932-16.939,2.959-34.253,0.078-51.2H486.4z M451.008,114.833
			c4.741,4.292,7.909,10.048,9,16.35c-25.248,1.223-50.331,4.759-74.933,10.563C403.808,132.991,425.642,123.921,451.008,114.833z
			 M311.45,75.608c0.237-0.592,0.625-1.112,1.125-1.508c0.382-0.299,0.743-0.622,1.084-0.967l-0.053-0.053l11.731-9.96
			c2.323,4.253,5.486,7.99,9.297,10.984c3.348,2.661,7.04,4.859,10.975,6.533c2.156,0.959,4.393,1.728,6.683,2.295
			c0.419,0.136,0.848,0.237,1.283,0.304c2.632,0.671,5.327,1.064,8.042,1.171c0.683,0.037,1.367,0.054,2.033,0.054
			c1.619-0.009,3.236-0.132,4.837-0.367l-1.762,12.265c-0.01,0.07-0.057,0.123-0.067,0.194l-0.392,2.737
			c-0.862,1.474-2.244,2.573-3.875,3.079c-9.605,2.496-19.793,1.366-28.617-3.175c-9.353-3.327-17.155-9.981-21.917-18.692
			C311.117,78.98,310.971,77.234,311.45,75.608z M358.45,50.962c9.367,4.025,13.308,10.687,12.925,13.342l-0.167,0.546
			c-0.608,1.408-3.733,2.792-8.825,2.508c-1.711-0.063-3.409-0.326-5.058-0.783c-0.323-0.094-0.651-0.168-0.983-0.221
			c-1.368-0.35-2.703-0.815-3.992-1.392c-2.524-1.07-4.892-2.474-7.042-4.175c-5.025-4.037-6.409-8.2-5.425-10.154
			C345.679,47.391,352.772,47.516,358.45,50.962L358.45,50.962z M141.012,98.711l-0.279-2.157c-0.009-0.06-0.047-0.105-0.056-0.164
			l-1.765-12.262c1.665,0.251,3.346,0.382,5.029,0.393c6.143-0.069,12.207-1.386,17.825-3.871
			c8.51-3.435,15.616-9.633,20.177-17.597l12.358,10.501c0.119,0.1,0.173,0.243,0.298,0.338c0.6,0.435,1.065,1.03,1.342,1.717
			c0.478,1.626,0.333,3.372-0.408,4.896c-4.769,8.72-12.583,15.377-21.95,18.7c-8.815,4.533-18.99,5.66-28.583,3.167
			c-1.662-0.523-3.065-1.656-3.925-3.171l-0.01-0.078l0.002-0.03L141.012,98.711z M148.916,50.916
			c3.51-1.577,7.303-2.425,11.15-2.492c4.217,0,7.117,1.25,7.733,2.675c1.075,2.479-2.975,9.633-12.8,13.884
			c-9.817,4.254-17.808,2.3-18.892-0.179C135.042,62.321,139.092,55.162,148.916,50.916L148.916,50.916z M60.983,114.829
			c25.375,9.087,47.2,18.158,65.942,26.917c-24.602-5.804-49.685-9.34-74.933-10.562C53.08,124.881,56.245,119.124,60.983,114.829z
			 M232.9,213.762c3.102,3.101,8.05,3.344,11.442,0.564c3.392-2.781,4.123-7.68,1.691-11.33
			c-1.306-1.96-30.36-43.895-141.463-89.683c6.16-4.987,12.603-9.613,19.298-13.855l0.298,2.068c0.009,0.064,0.049,0.112,0.06,0.176
			c0.223,1.505,0.637,2.975,1.232,4.374c2.598,5.681,7.383,10.071,13.267,12.171c4.76,1.781,9.81,2.656,14.892,2.579
			c9.222-0.157,18.316-2.183,26.733-5.954c13.541-5.066,24.642-15.103,31.042-28.067c2.49-5.675,2.586-12.115,0.267-17.862
			c-0.394-0.79-0.839-1.553-1.331-2.285c28.82-5,58.265-5.238,87.161-0.705c-0.643,0.911-1.213,1.872-1.705,2.873
			c-2.362,5.776-2.284,12.262,0.217,17.979c6.394,12.955,17.481,22.987,31.008,28.058c8.431,3.773,17.539,5.8,26.775,5.958
			c5.078,0.077,10.126-0.796,14.883-2.575c5.862-2.087,10.634-6.451,13.233-12.104c0.682-1.511,1.137-3.114,1.35-4.758l0.65-4.523
			c8.235,4.916,16.112,10.408,23.573,16.434c-111.14,45.794-140.2,87.741-141.506,89.701c-2.433,3.65-1.702,8.55,1.691,11.331
			s8.34,2.537,11.442-0.564c46.15-46.15,122.159-59.909,162.719-64.015c17.643,24.32,27.262,53.537,27.515,83.582
			c0,49.081-26.38,95.583-72.395,128h-33.264l10.892-21.783c2.09-4.213,0.378-9.323-3.829-11.426
			c-4.206-2.103-9.321-0.407-11.438,3.792l-14.708,29.417h-34.999l5.882-23.529c0.745-2.958-0.146-6.089-2.338-8.212
			c-2.192-2.122-5.35-2.913-8.282-2.073c-2.933,0.84-5.194,3.182-5.93,6.143l-6.918,27.671h-27.474v-25.6
			c0-4.713-3.821-8.533-8.533-8.533c-4.713,0-8.533,3.821-8.533,8.533v25.6h-27.474l-6.918-27.671
			c-0.736-2.961-2.997-5.303-5.93-6.143c-2.933-0.84-6.091-0.05-8.282,2.073c-2.192,2.122-3.083,5.253-2.338,8.212l5.882,23.529
			h-34.999L152.7,331.912c-2.117-4.2-7.232-5.896-11.438-3.792s-5.919,7.213-3.829,11.426l10.892,21.783h-33.264
			c-46.015-32.417-72.395-78.919-72.395-128c0.254-30.051,9.876-59.274,27.525-83.597C110.734,153.818,186.69,167.552,232.9,213.762
			z M17.067,216.262c0.005-4.711,3.822-8.529,8.533-8.533h2.142c-2.882,16.947-2.856,34.261,0.077,51.2H25.6
			c-4.711-0.005-8.529-3.822-8.533-8.533V216.262z"/>
	</g>
</g>
<g>
</g>
<g>
</g>
<g>
</g>
<g>
</g>
<g>
</g>
<g>
</g>
<g>
</g>
<g>
</g>
<g>
</g>
<g>
</g>
<g>
</g>
<g>
</g>
<g>
</g>
<g>
</g>
<g>
</g>
</svg>
