<?xml version="1.0" encoding="iso-8859-1"?>
<!-- Generator: Adobe Illustrator 19.0.0, SVG Export Plug-In . SVG Version: 6.00 Build 0)  -->
<svg version="1.1" id="Capa_1" xmlns="http://www.w3.org/2000/svg" xmlns:xlink="http://www.w3.org/1999/xlink" x="0px" y="0px"
	 viewBox="0 0 512.12 512.12" style="enable-background:new 0 0 512.12 512.12;" xml:space="preserve">
<g transform="translate(0 -1)">
	<g transform="translate(0 2)">
		<path style="fill:#37474F;" d="M452.327,366.907l0,135.68H59.794l0-135.68c-0.012-11.6,3.931-22.858,11.179-31.915l22.954-28.672
			h324.267l22.954,28.672C448.396,344.049,452.339,355.307,452.327,366.907z"/>
		<path style="fill:#607D8B;" d="M426.727,366.907l0,135.68H59.794l0-135.68c-0.012-11.6,3.931-22.858,11.179-31.915l22.954-28.672
			h298.667l22.954,28.672C422.796,344.049,426.739,355.307,426.727,366.907z"/>
		<path style="fill:#00838F;" d="M418.194,127.12v258.048h-51.2l-18.005,35.925c-1.448,2.865-4.385,4.672-7.595,4.672
			s-6.147-1.807-7.595-4.672l-5.205-10.411l-12.8-25.515H196.327l-18.005,35.925c-1.448,2.865-4.385,4.672-7.595,4.672
			c-3.21,0-6.147-1.807-7.595-4.672l-5.205-10.411l-12.8-25.515h-51.2V127.12c-0.002-9.053,3.593-17.737,9.995-24.139
			c6.402-6.402,15.085-9.997,24.139-9.995h256c9.053-0.002,17.737,3.593,24.139,9.995
			C414.601,109.384,418.196,118.067,418.194,127.12z"/>
		<g>
			<path style="fill:#00BCD4;" d="M392.594,127.12v258.048h-51.2l-12.8,25.515l-12.8-25.515H170.727l-12.8,25.515l-12.8-25.515
				h-51.2V127.12c-0.002-9.053,3.593-17.737,9.995-24.139c6.402-6.402,15.085-9.997,24.139-9.995h230.4
				c9.053-0.002,17.737,3.593,24.139,9.995C389.001,109.384,392.596,118.067,392.594,127.12z"/>
			<circle style="fill:#00BCD4;" cx="170.727" cy="50.32" r="42.667"/>
		</g>
		<g>
			<path style="fill:#607D8B;" d="M170.727,58.854c-2.259-0.033-4.422-0.917-6.059-2.475c-0.771-0.816-1.379-1.772-1.792-2.817
				c-0.48-1.012-0.714-2.123-0.683-3.242c0-4.713,3.821-8.533,8.533-8.533s8.533,3.821,8.533,8.533
				c-0.014,1.115-0.246,2.216-0.683,3.242c-0.413,1.044-1.021,2-1.792,2.817C175.148,57.935,172.985,58.819,170.727,58.854z"/>
			<circle style="fill:#00BCD4;" cx="341.394" cy="50.32" r="42.667"/>
			<path style="fill:#607D8B;" d="M341.394,58.854c-1.115-0.014-2.216-0.246-3.242-0.683c-1.034-0.433-1.986-1.039-2.817-1.791
				c-3.3-3.365-3.3-8.752,0-12.117c0.815-0.773,1.772-1.383,2.817-1.796c1.526-0.675,3.226-0.853,4.859-0.509
				c0.566,0.079,1.115,0.25,1.625,0.508c0.543,0.188,1.059,0.447,1.533,0.771c0.425,0.341,0.858,0.683,1.283,1.025
				c0.772,0.814,1.38,1.769,1.792,2.813c0.911,2.067,0.911,4.421,0,6.487c-0.393,1.055-1.003,2.014-1.792,2.817
				c-0.406,0.367-0.835,0.708-1.283,1.021c-0.475,0.324-0.99,0.583-1.533,0.771c-0.51,0.257-1.059,0.431-1.625,0.513
				C342.476,58.781,341.936,58.838,341.394,58.854z"/>
		</g>
		<path style="fill:#37474F;" d="M230.46,195.387c0.011,32.774-23.273,60.93-55.467,67.072c-4.221,0.79-8.506,1.19-12.8,1.195
			c-37.703,0-68.267-30.564-68.267-68.267s30.564-68.267,68.267-68.267c4.294,0.005,8.579,0.405,12.8,1.195
			C207.187,134.457,230.472,162.613,230.46,195.387z"/>
		<path style="fill:#607D8B;" d="M230.46,195.387c0.011,32.774-23.273,60.93-55.467,67.072
			c-32.188-6.152-55.467-34.302-55.467-67.072s23.279-60.92,55.467-67.072C207.187,134.457,230.472,162.613,230.46,195.387z"/>
		<path style="fill:#37474F;" d="M418.194,195.387c0.005,18.107-7.186,35.474-19.99,48.277
			c-12.804,12.804-30.17,19.994-48.277,19.989c-4.294-0.005-8.579-0.405-12.8-1.195c-32.188-6.152-55.467-34.302-55.467-67.072
			s23.279-60.92,55.467-67.072c4.221-0.79,8.506-1.19,12.8-1.195c18.107-0.005,35.474,7.186,48.277,19.989
			C411.008,159.913,418.199,177.28,418.194,195.387z"/>
		<g>
			<path style="fill:#607D8B;" d="M392.594,195.387c0.011,32.774-23.273,60.93-55.467,67.072
				c-32.188-6.152-55.467-34.302-55.467-67.072s23.279-60.92,55.467-67.072C369.321,134.457,392.605,162.613,392.594,195.387z"/>
			<path style="fill:#607D8B;" d="M281.66,279.654c0,8.837-11.462,26.667-25.6,26.667s-25.6-17.83-25.6-26.667
				c0-8.837,11.462-16,25.6-16S281.66,270.817,281.66,279.654z"/>
			<g>
				<path style="fill:#607D8B;" d="M469.394,297.787H332.86c-4.713,0-8.533-3.82-8.533-8.533s3.821-8.533,8.533-8.533h136.533
					c4.713,0,8.533,3.82,8.533,8.533S474.106,297.787,469.394,297.787z"/>
				<path style="fill:#607D8B;" d="M469.394,366.054H332.86c-4.713,0-8.533-3.821-8.533-8.533c0-4.713,3.821-8.533,8.533-8.533
					h136.533c4.713,0,8.533,3.821,8.533,8.533C477.927,362.233,474.106,366.054,469.394,366.054z"/>
				<path style="fill:#607D8B;" d="M503.527,331.92H358.46c-4.713,0-8.533-3.821-8.533-8.533s3.821-8.533,8.533-8.533h145.067
					c4.713,0,8.533,3.82,8.533,8.533S508.24,331.92,503.527,331.92z"/>
				<path style="fill:#607D8B;" d="M179.26,289.254H42.727c-4.713,0-8.533-3.82-8.533-8.533s3.821-8.533,8.533-8.533H179.26
					c4.713,0,8.533,3.82,8.533,8.533S183.973,289.254,179.26,289.254z"/>
				<path style="fill:#607D8B;" d="M179.26,357.52H42.727c-4.713,0-8.533-3.82-8.533-8.533s3.821-8.533,8.533-8.533H179.26
					c4.713,0,8.533,3.82,8.533,8.533S183.973,357.52,179.26,357.52z"/>
				<path style="fill:#607D8B;" d="M153.66,323.387H8.594c-4.713,0-8.533-3.82-8.533-8.533s3.821-8.533,8.533-8.533H153.66
					c4.713,0,8.533,3.82,8.533,8.533S158.373,323.387,153.66,323.387z"/>
			</g>
		</g>
		<g>
			<circle style="fill:#F44335;" cx="183.527" cy="199.654" r="21.333"/>
			<circle style="fill:#F44335;" cx="328.594" cy="199.654" r="21.333"/>
		</g>
		<path style="fill:#00BCD4;" d="M418.194,459.92v8.533c0.002,9.053-3.593,17.737-9.995,24.138
			c-6.402,6.402-15.085,9.997-24.138,9.995h-256c-9.053,0.002-17.737-3.593-24.138-9.995c-6.402-6.402-9.997-15.085-9.995-24.138
			v-8.533c0.014-4.707,3.826-8.52,8.533-8.533h307.2C414.367,451.401,418.18,455.213,418.194,459.92z"/>
		<g>
			<path style="fill:#607D8B;" d="M128.06,451.387v17.067c0,4.713-3.821,8.533-8.533,8.533c-4.713,0-8.533-3.82-8.533-8.533v-17.067
				H128.06z"/>
			<path style="fill:#607D8B;" d="M162.194,451.387v17.067c0,4.713-3.821,8.533-8.533,8.533c-4.713,0-8.533-3.82-8.533-8.533
				v-17.067H162.194z"/>
			<path style="fill:#607D8B;" d="M196.327,451.387v17.067c0,4.713-3.821,8.533-8.533,8.533s-8.533-3.82-8.533-8.533v-17.067
				H196.327z"/>
			<path style="fill:#607D8B;" d="M230.46,451.387v17.067c0,4.713-3.821,8.533-8.533,8.533s-8.533-3.82-8.533-8.533v-17.067H230.46z
				"/>
			<path style="fill:#607D8B;" d="M264.594,451.387v17.067c0,4.713-3.821,8.533-8.533,8.533c-4.713,0-8.533-3.82-8.533-8.533
				v-17.067H264.594z"/>
			<path style="fill:#607D8B;" d="M298.727,451.387v17.067c0,4.713-3.821,8.533-8.533,8.533s-8.533-3.82-8.533-8.533v-17.067
				H298.727z"/>
			<path style="fill:#607D8B;" d="M332.86,451.387v17.067c0,4.713-3.821,8.533-8.533,8.533c-4.713,0-8.533-3.82-8.533-8.533v-17.067
				H332.86z"/>
			<path style="fill:#607D8B;" d="M366.994,451.387v17.067c0,4.713-3.821,8.533-8.533,8.533c-4.713,0-8.533-3.82-8.533-8.533
				v-17.067H366.994z"/>
			<path style="fill:#607D8B;" d="M401.127,451.387v17.067c0,4.713-3.82,8.533-8.533,8.533s-8.533-3.82-8.533-8.533v-17.067H401.127
				z"/>
		</g>
	</g>
	<g>
		<path d="M164.668,46.262c-1.561,1.634-2.445,3.799-2.475,6.059c-0.031,1.119,0.203,2.23,0.683,3.242
			c0.413,1.044,1.021,2,1.792,2.817c3.365,3.3,8.752,3.3,12.117,0c0.771-0.816,1.379-1.772,1.792-2.817
			c0.437-1.026,0.669-2.127,0.683-3.242c0.02-3.467-2.059-6.601-5.261-7.931C170.797,43.06,167.11,43.8,164.668,46.262z"/>
		<path d="M347.452,46.262c-0.425-0.341-0.858-0.683-1.283-1.025c-0.475-0.324-0.99-0.583-1.533-0.771
			c-0.51-0.258-1.059-0.43-1.625-0.508c-1.633-0.344-3.332-0.166-4.858,0.508c-1.045,0.413-2.001,1.023-2.817,1.796
			c-3.3,3.365-3.3,8.752,0,12.117c0.83,0.753,1.783,1.359,2.817,1.792c1.026,0.438,2.127,0.67,3.242,0.683
			c0.542-0.016,1.083-0.073,1.617-0.171c0.566-0.082,1.115-0.255,1.625-0.513c0.543-0.188,1.059-0.447,1.533-0.771
			c0.449-0.313,0.878-0.654,1.284-1.021c0.789-0.802,1.399-1.762,1.792-2.817c0.911-2.067,0.911-4.421,0-6.487
			C348.833,48.031,348.224,47.076,347.452,46.262z"/>
		<path d="M256.06,316.854c20.058,0,34.133-22.837,34.133-35.2c0-13.758-14.992-24.533-34.133-24.533s-34.133,10.775-34.133,24.533
			C221.927,294.016,236.002,316.854,256.06,316.854z M256.06,274.187c10.583,0,17.067,4.833,17.067,7.467
			c0,4.8-8.492,18.133-17.067,18.133s-17.067-13.333-17.067-18.133C238.994,279.02,245.477,274.187,256.06,274.187z"/>
		<path d="M8.594,325.387h60.748l-4.998,6.246c-2.612,3.357-4.856,6.985-6.694,10.821H42.727c-4.713,0-8.533,3.82-8.533,8.533
			s3.821,8.533,8.533,8.533h9.339c-0.519,3.115-0.788,6.267-0.805,9.425v135.642c-0.001,2.263,0.898,4.434,2.499,6.035
			c1.6,1.6,3.771,2.499,6.035,2.499h392.533c2.263,0.001,4.434-0.898,6.035-2.499c1.6-1.6,2.499-3.771,2.499-6.035V368.945
			c0-0.3-0.071-0.592-0.076-0.892h8.609c4.713,0,8.533-3.821,8.533-8.533c0-4.713-3.821-8.533-8.533-8.533H457.95
			c-1.947-6.116-4.866-11.878-8.644-17.067h54.221c4.713,0,8.533-3.821,8.533-8.533s-3.821-8.533-8.533-8.533h-67.575l-9.225-11.53
			v-5.537h42.667c4.713,0,8.533-3.82,8.533-8.533s-3.821-8.533-8.533-8.533h-42.667v-153.6
			c-0.028-23.553-19.114-42.639-42.667-42.667h-4.613c18.451-20.498,17.35-51.928-2.49-71.086c-19.84-19.157-51.289-19.157-71.129,0
			c-19.84,19.157-20.941,50.587-2.49,71.086h-94.558c18.451-20.498,17.35-51.928-2.49-71.086c-19.84-19.157-51.289-19.157-71.129,0
			c-19.84,19.157-20.941,50.587-2.49,71.086h-4.612c-23.553,0.028-42.639,19.114-42.667,42.667v145.067H42.727
			c-4.713,0-8.533,3.82-8.533,8.533s3.821,8.533,8.533,8.533h42.667v14.07l-2.398,2.996H8.594c-4.713,0-8.533,3.82-8.533,8.533
			S3.881,325.387,8.594,325.387z M77.677,342.292l7.717-9.645v9.807h-7.825L77.677,342.292z M375.527,496.054H128.06
			c-14.132-0.015-25.585-11.468-25.6-25.6v-8.533h8.533v8.533c0,4.713,3.821,8.533,8.533,8.533c4.713,0,8.533-3.82,8.533-8.533
			v-8.533h17.067v8.533c0,4.713,3.821,8.533,8.533,8.533c4.713,0,8.533-3.82,8.533-8.533v-8.533h17.067v8.533
			c0,4.713,3.821,8.533,8.533,8.533s8.533-3.82,8.533-8.533v-8.533h17.067v8.533c0,4.713,3.82,8.533,8.533,8.533
			s8.533-3.82,8.533-8.533v-8.533h17.067v8.533c0,4.713,3.821,8.533,8.533,8.533c4.713,0,8.533-3.82,8.533-8.533v-8.533h17.067
			v8.533c0,4.713,3.82,8.533,8.533,8.533s8.533-3.82,8.533-8.533v-8.533h17.067v8.533c0,4.713,3.821,8.533,8.533,8.533
			c4.713,0,8.533-3.82,8.533-8.533v-8.533h17.067v8.533c0,4.713,3.821,8.533,8.533,8.533c4.713,0,8.533-3.82,8.533-8.533v-8.533
			h17.067v8.533c0,4.713,3.821,8.533,8.533,8.533s8.533-3.82,8.533-8.533v-8.533h8.533v8.533c-0.015,14.132-11.468,25.585-25.6,25.6
			H375.527z M443.794,368.945v127.108h-25.819c5.645-7.343,8.72-16.338,8.752-25.6v-8.533c-0.011-9.421-7.645-17.056-17.067-17.067
			h-307.2c-9.421,0.011-17.056,7.645-17.067,17.067v8.533c0.032,9.262,3.107,18.257,8.752,25.6H68.327V368.945
			c0.044-3.177,0.446-6.338,1.196-9.425h15.871v27.613c-0.001,2.263,0.898,4.434,2.499,6.035c1.6,1.6,3.771,2.499,6.035,2.499
			h45.925l15.608,31.217c2.89,5.783,8.8,9.437,15.265,9.438c6.465,0.001,12.376-3.651,15.268-9.433l15.608-31.221h108.917
			l15.608,31.217c2.89,5.783,8.8,9.437,15.265,9.438c6.465,0.001,12.376-3.651,15.268-9.433l15.608-31.221h45.925
			c2.263,0.001,4.434-0.898,6.035-2.499c1.6-1.6,2.499-3.771,2.499-6.035v-19.079h16.991
			C443.724,368.353,443.794,368.645,443.794,368.945z M434.444,342.292c2.081,2.679,3.833,5.599,5.218,8.695h-12.934V333.92h1.019
			L434.444,342.292z M307.26,52.32c0-18.851,15.282-34.133,34.133-34.133s34.133,15.282,34.133,34.133s-15.282,34.133-34.133,34.133
			C322.551,86.434,307.28,71.163,307.26,52.32z M136.594,52.32c0-18.851,15.282-34.133,34.133-34.133S204.86,33.469,204.86,52.32
			s-15.282,34.133-34.133,34.133C151.884,86.434,136.614,71.163,136.594,52.32z M179.26,274.187h-76.8v-28.634
			c20.427,25.37,54.636,35.095,85.355,24.265s51.264-39.859,51.264-72.43s-20.546-61.601-51.264-72.43s-64.927-1.105-85.355,24.265
			V129.12c0.015-14.132,11.468-25.585,25.6-25.6h256c14.132,0.015,25.585,11.468,25.6,25.6v20.101
			c-20.427-25.37-54.636-35.095-85.355-24.265c-30.718,10.83-51.264,39.859-51.264,72.43s20.546,61.601,51.264,72.43
			c30.718,10.83,64.927,1.105,85.355-24.265v37.168h-76.8c-4.713,0-8.533,3.82-8.533,8.533s3.821,8.533,8.533,8.533h76.8v17.067
			h-51.2c-4.713,0-8.533,3.82-8.533,8.533s3.821,8.533,8.533,8.533h51.2v17.067h-76.8c-4.713,0-8.533,3.821-8.533,8.533
			c0,4.713,3.821,8.533,8.533,8.533h76.8V378.6h-42.667c-0.404,0.05-0.803,0.13-1.195,0.241c-0.611,0.055-1.214,0.177-1.799,0.363
			c-0.502,0.22-0.98,0.491-1.427,0.807c-0.471,0.255-0.917,0.556-1.33,0.897c-0.427,0.438-0.805,0.922-1.127,1.442
			c-0.276,0.302-0.529,0.626-0.755,0.967l-17.967,35.938l-17.967-35.938c-0.231-0.35-0.489-0.681-0.771-0.991
			c-0.315-0.507-0.682-0.979-1.097-1.408c-0.872-0.642-1.793-1.214-2.755-1.71c-0.606-0.196-1.233-0.323-1.868-0.377
			c-0.375-0.105-0.757-0.182-1.143-0.231H196.327c-0.403,0.05-0.801,0.13-1.192,0.241c-0.614,0.055-1.219,0.177-1.806,0.365
			c-0.963,0.496-1.885,1.066-2.758,1.707c-0.422,0.434-0.796,0.913-1.115,1.428c-0.279,0.305-0.534,0.632-0.763,0.977
			l-17.967,35.937l-17.967-35.938c-0.23-0.348-0.487-0.678-0.768-0.985c-0.316-0.51-0.686-0.984-1.103-1.416
			c-0.872-0.642-1.794-1.213-2.756-1.709c-0.603-0.195-1.226-0.32-1.857-0.375c-0.377-0.105-0.761-0.183-1.149-0.232H102.46V359.52
			h76.8c4.713,0,8.533-3.82,8.533-8.533s-3.821-8.533-8.533-8.533h-76.8v-17.067h51.2c4.713,0,8.533-3.82,8.533-8.533
			s-3.821-8.533-8.533-8.533h-51.2v-17.067h76.8c4.713,0,8.533-3.82,8.533-8.533S183.973,274.187,179.26,274.187z M102.46,197.387
			c0-32.99,26.744-59.733,59.733-59.733s59.733,26.744,59.733,59.733s-26.744,59.733-59.733,59.733
			C129.22,257.082,102.499,230.361,102.46,197.387z M409.66,197.387c0,32.99-26.743,59.733-59.733,59.733
			s-59.733-26.744-59.733-59.733s26.744-59.733,59.733-59.733C382.901,137.692,409.622,164.413,409.66,197.387z"/>
		<path d="M183.527,231.52c16.495,0,29.867-13.372,29.867-29.867s-13.372-29.867-29.867-29.867s-29.867,13.372-29.867,29.867
			C153.68,218.14,167.04,231.5,183.527,231.52z M183.527,188.854c7.069,0,12.8,5.731,12.8,12.8c0,7.069-5.731,12.8-12.8,12.8
			c-7.069,0-12.8-5.731-12.8-12.8C170.735,194.588,176.461,188.861,183.527,188.854z"/>
		<path d="M328.594,171.787c-16.495,0-29.867,13.372-29.867,29.867s13.372,29.867,29.867,29.867
			c16.495,0,29.867-13.372,29.867-29.867C358.44,185.167,345.08,171.807,328.594,171.787z M328.594,214.454
			c-5.177,0-9.844-3.119-11.826-7.902c-1.981-4.783-0.886-10.289,2.775-13.949c3.661-3.661,9.166-4.756,13.949-2.775
			c4.783,1.981,7.902,6.649,7.902,11.826C341.386,208.72,335.66,214.446,328.594,214.454z"/>
	</g>
</g>
<g>
</g>
<g>
</g>
<g>
</g>
<g>
</g>
<g>
</g>
<g>
</g>
<g>
</g>
<g>
</g>
<g>
</g>
<g>
</g>
<g>
</g>
<g>
</g>
<g>
</g>
<g>
</g>
<g>
</g>
</svg>
