<?xml version="1.0" encoding="iso-8859-1"?>
<!-- Generator: Adobe Illustrator 19.0.0, SVG Export Plug-In . SVG Version: 6.00 Build 0)  -->
<svg version="1.1" id="Capa_1" xmlns="http://www.w3.org/2000/svg" xmlns:xlink="http://www.w3.org/1999/xlink" x="0px" y="0px"
	 viewBox="0 0 512 512" style="enable-background:new 0 0 512 512;" xml:space="preserve">
<g>
	<g>
		<g>
			<g>
				<path style="fill:#6A1B9A;" d="M281.599,324.352c-2.257-0.039-4.436,0.821-6.059,2.389c-0.771,0.816-1.379,1.772-1.792,2.816
					c-0.438,1.026-0.67,2.127-0.683,3.243c-0.022,2.27,0.87,4.453,2.475,6.059c1.605,1.605,3.789,2.497,6.059,2.475
					c0.572-0.019,1.142-0.076,1.707-0.171c0.535-0.093,1.053-0.265,1.536-0.512c0.544-0.186,1.061-0.445,1.536-0.768
					c0.097-0.105,0.213-0.192,0.341-0.256C283.418,335.216,281.623,329.861,281.599,324.352z M468.308,294.997
					c23.14-76.28,3.597-159.111-51.2-217.003c-62.459-66.21-159.082-87.437-243.541-53.504c-0.986,0.318-1.955,0.688-2.901,1.109
					c-28.696,11.879-54.529,29.741-75.776,52.395c-39.109,41.091-60.87,95.678-60.757,152.405c0,6.485,0.256,12.885,0.853,19.2
					v0.085c-0.584,4.813-0.869,9.658-0.853,14.507v113.323c-0.174,10.604,3.873,20.843,11.252,28.462
					c7.378,7.619,17.482,11.992,28.087,12.157h3.328c0,0,0,59.733,68.267,59.733v25.6h204.8v-25.6
					c4.741,0.027,9.477-0.316,14.165-1.024c30.264-3.116,53.464-28.292,54.101-58.709l0.171-0.768
					c1.979,0.512,4.015,0.77,6.059,0.768c7.407,0.003,14.375-3.513,18.773-9.472c16.571-21.861,25.747-48.433,26.197-75.861
					c0-11.776,0-24.491-1.024-37.717V294.997z M187.732,349.867c-1.988,0.008-3.968-0.25-5.888-0.768
					c-5.817-1.364-10.977-4.714-14.592-9.472c-6.633-8.822-6.839-20.909-0.512-29.952c0.408-0.605,0.864-1.176,1.365-1.707
					c4.801-5.907,12.015-9.326,19.627-9.301c14.138,0,25.6,11.462,25.6,25.6C213.332,338.405,201.871,349.867,187.732,349.867z
					 M307.199,349.867c-1.988,0.008-3.968-0.25-5.888-0.768c-11.529-2.657-19.7-12.916-19.712-24.747v-0.085
					c-0.029-11.202,7.247-21.115,17.943-24.445c10.696-3.33,22.313,0.7,28.649,9.939c3.015,4.235,4.626,9.308,4.608,14.507
					C332.757,338.388,321.32,349.825,307.199,349.867z"/>
				<path style="fill:#6A1B9A;" d="M184.486,332.117c1.013,0.479,2.125,0.713,3.246,0.683c3.45-0.014,6.556-2.096,7.879-5.282
					c1.323-3.187,0.606-6.856-1.82-9.31c-2.461-2.41-6.123-3.117-9.304-1.796c-1.033,0.434-1.985,1.041-2.813,1.796
					c-3.3,3.365-3.3,8.752,0,12.117C182.503,331.077,183.454,331.682,184.486,332.117z"/>
				<path style="fill:#6A1B9A;" d="M307.199,332.8c0.571-0.02,1.14-0.077,1.704-0.171c0.535-0.095,1.053-0.268,1.538-0.513
					c0.544-0.187,1.062-0.447,1.538-0.771c0.447-0.314,0.874-0.655,1.279-1.021c1.557-1.637,2.44-3.8,2.475-6.059
					c-0.013-1.116-0.245-2.219-0.683-3.246c-0.413-1.043-1.022-1.997-1.792-2.813c-3.421-3.158-8.695-3.158-12.117,0
					c-0.773,0.814-1.383,1.769-1.796,2.813c-0.436,1.027-0.667,2.13-0.679,3.246c-0.022,2.27,0.87,4.453,2.475,6.058
					C302.746,331.93,304.929,332.822,307.199,332.8z"/>
			</g>
			<path style="fill:#9D27B0;" d="M442.708,303.531c23.14-76.28,3.597-159.111-51.2-217.003
				c-55.77-59.087-139.414-82.897-217.941-62.037c-0.986,0.318-1.955,0.688-2.901,1.109c-28.696,11.879-54.529,29.741-75.776,52.395
				c-39.109,41.091-60.87,95.678-60.757,152.405c0,6.485,0.256,12.885,0.853,19.2v0.085c-0.584,4.813-0.869,9.658-0.853,14.507
				v113.323c-0.174,10.604,3.873,20.843,11.252,28.462c7.378,7.619,17.482,11.992,28.087,12.157h3.328c0,0,0,59.733,68.267,59.733
				v25.6h179.2V486.4c8.653,0.095,17.274-1.054,25.6-3.413c25.181-7.172,42.579-30.138,42.667-56.32l0.171-0.768
				c1.979,0.512,4.015,0.77,6.059,0.768c7.407,0.003,14.375-3.513,18.773-9.472c0.085-0.085,0.085-0.171,0.171-0.256
				c16.467-21.808,25.581-48.283,26.027-75.605c0-11.776,0-24.491-1.024-37.717V303.531z"/>
		</g>
		<path style="fill:#00838F;" d="M401.236,397.995c-0.085-1.024-0.171-2.048-0.171-3.157v-44.971c0-8.533,0-25.6-25.6-42.667
			c-25.6-17.067-17.237-77.995-17.237-77.995c-0.171,0-0.427,0.085-0.597,0.085c-11.093,1.28-23.04-0.085-33.365,0.171
			c-15.445,0.256-31.061,1.963-46.421,3.499c-36.036,2.816-71.612,9.891-105.984,21.077c-2.475,0.853-5.12,1.877-7.851,2.987
			c-23.125,9.045-51.2,24.661-51.2,52.736v67.755c0.311,20.784-15.33,38.352-36.011,40.448c-1.109,0.085-2.219,0.171-3.328,0.171
			h3.328c0,0,0,59.733,68.267,59.733h204.8c4.741,0.027,9.477-0.316,14.165-1.024c30.264-3.116,53.464-28.292,54.101-58.709
			l0.171-0.768C409.301,414.824,402.623,407.245,401.236,397.995z"/>
		<path style="fill:#00BCD4;" d="M375.636,406.528c-0.085-1.024-0.171-2.048-0.171-3.157V358.4c0-8.533,0-25.6-25.6-42.667
			c-25.6-17.067-17.237-77.995-17.237-77.995c-0.171,0-0.427,0.085-0.597,0.085c-11.093,1.28-23.04-0.085-33.365,0.171
			c-15.445,0.256-31.061,1.963-46.421,3.499c-29.81,2.577-59.336,7.774-88.235,15.531c-5.973,1.621-11.861,3.499-17.749,5.547
			c-24.064,8.533-59.051,24.405-59.051,55.723v67.755c0.076,12.043-5.171,23.505-14.336,31.317l0.597,0.768h3.328
			c0,0,0,59.733,68.267,59.733h204.8c4.741,0.027,9.477-0.316,14.165-1.024c17.177-11.018,27.834-29.78,28.501-50.176l0.171-0.768
			C383.701,423.357,377.023,415.778,375.636,406.528z"/>
		<path style="fill:#C52828;" d="M213.332,401.067V435.2h-25.6c-4.707-0.014-8.519-3.826-8.533-8.533V409.6
			c0.014-4.707,3.826-8.519,8.533-8.533H213.332z"/>
		<g>
			<rect x="213.332" y="401.067" style="fill:#F44335;" width="34.133" height="34.133"/>
			<path style="fill:#F44335;" d="M315.732,409.6v17.067c-0.014,4.707-3.826,8.519-8.533,8.533h-25.6v-34.133h25.6
				C311.906,401.081,315.718,404.893,315.732,409.6z"/>
		</g>
		<rect x="247.465" y="401.067" style="fill:#C52828;" width="34.133" height="34.133"/>
		<g>
			<path style="fill:#E91E63;" d="M134.143,125.099c-29.54,17.13-55.407,39.923-76.117,67.072
				c-12.702,16.724-20.662,36.563-23.04,57.429c-0.597-6.315-0.853-12.715-0.853-19.2c-0.113-56.727,21.649-111.314,60.757-152.405
				L134.143,125.099z"/>
			<path style="fill:#E91E63;" d="M255.999,8.533v85.59c-20.354-0.902-40.731,1.139-60.501,6.059L170.665,25.6
				C197.693,14.296,226.703,8.494,255.999,8.533z"/>
		</g>
		<path style="fill:#AD1457;" d="M385.108,214.272c-0.958,1.458-2.044,2.829-3.243,4.096c-6.392,6.232-14.744,10.061-23.637,10.837
			c-0.171,0-0.427,0.085-0.597,0.085c-1.451,0.171-2.816,0.256-4.267,0.341c-9.813,0.597-20.053-0.427-29.099-0.171
			c-15.445,0.256-31.061,1.963-46.421,3.499c-36.036,2.816-71.612,9.891-105.984,21.077c-2.475,0.853-5.12,1.877-7.851,2.987
			c-23.125,9.045-51.2,24.661-51.2,52.736v67.755c0.311,20.784-15.33,38.352-36.011,40.448c-1.109,0.085-2.219,0.171-3.328,0.171
			c-0.457,0.014-0.914-0.014-1.365-0.085c-21.522-1.05-38.327-18.989-37.973-40.533V264.192c-0.016-4.849,0.269-9.693,0.853-14.507
			V249.6c2.378-20.866,10.338-40.705,23.04-57.429c20.711-27.149,46.578-49.943,76.117-67.072
			c9.973-5.783,20.354-10.831,31.061-15.104c9.852-3.986,19.975-7.265,30.293-9.813c19.771-4.92,40.148-6.96,60.501-6.059
			c14.685,0.609,29.256,2.87,43.435,6.741c5.12,1.365,10.24,2.901,15.275,4.693c9.312,3.207,18.334,7.203,26.965,11.947
			c9.63,5.227,18.501,11.744,26.368,19.371c8.516,7.733,15.293,17.186,19.883,27.733c1.182,2.621,2.152,5.331,2.901,8.107
			C395.09,186.737,393.001,201.923,385.108,214.272z"/>
		<path style="fill:#E91E63;" d="M359.508,222.805c-0.958,1.458-2.044,2.829-3.243,4.096c-0.939,0.939-1.877,1.877-2.901,2.731
			c-6.044,4.541-13.215,7.344-20.736,8.107c-0.171,0-0.427,0.085-0.597,0.085c-11.093,1.28-23.04-0.085-33.365,0.171
			c-15.445,0.256-31.061,1.963-46.421,3.499c-29.81,2.577-59.336,7.774-88.235,15.531c-5.973,1.621-11.861,3.499-17.749,5.547
			c-24.064,8.533-59.051,24.405-59.051,55.723v67.755c0.066,12.402-5.487,24.168-15.104,32
			c-21.522-1.05-38.327-18.989-37.973-40.533V264.192c-0.016-4.849,0.269-9.693,0.853-14.507V249.6
			c2.378-20.866,10.338-40.705,23.04-57.429c20.711-27.149,46.578-49.943,76.117-67.072c9.973-5.783,20.354-10.831,31.061-15.104
			c1.536-0.513,3.157-0.853,4.693-1.28c19.771-4.92,40.148-6.96,60.501-6.059c14.685,0.609,29.256,2.87,43.435,6.741
			c5.12,1.365,10.24,2.901,15.275,4.693c9.312,3.207,18.334,7.203,26.965,11.947c9.63,5.227,18.501,11.744,26.368,19.371
			c8.516,7.733,15.293,17.186,19.883,27.733c1.182,2.621,2.152,5.331,2.901,8.107C369.49,195.27,367.401,210.456,359.508,222.805z"
			/>
		<g>
			<path style="fill:#AD1457;" d="M469.332,332.8c-0.45,27.428-9.626,54-26.197,75.861c-4.399,5.959-11.367,9.475-18.773,9.472
				c-2.044,0.002-4.08-0.256-6.059-0.768c-9.002-2.541-15.679-10.121-17.067-19.371c-0.085-1.024-0.171-2.048-0.171-3.157V384
				c63.659-95.573-6.315-161.365-15.957-169.728c7.893-12.349,9.982-27.535,5.717-41.557c-0.749-2.775-1.72-5.486-2.901-8.107
				c62.293,38.912,76.885,87.211,80.384,130.389v0.085C469.332,308.309,469.332,321.024,469.332,332.8z"/>
			<path style="fill:#AD1457;" d="M417.108,77.995l-11.605,13.909l-37.461,44.971c-7.867-7.626-16.738-14.144-26.368-19.371
				c-8.632-4.743-17.653-8.74-26.965-11.947l20.565-61.781l6.059-18.176C370.028,37.479,395.861,55.341,417.108,77.995z"/>
		</g>
		<path style="fill:#E91E63;" d="M405.503,91.904l-37.461,44.971c-7.867-7.626-16.738-14.144-26.368-19.371
			c-8.632-4.743-17.653-8.74-26.965-11.947l20.565-61.781C361.65,54.99,385.525,71.352,405.503,91.904z"/>
		<rect x="145.065" y="477.867" style="fill:#00BCD4;" width="204.8" height="25.6"/>
		<g>
			<path style="fill:#E91E63;" d="M401.065,384v-34.133c0-8.533,0-25.6-25.6-42.667c-25.6-17.067-17.237-77.995-17.237-77.995
				c8.894-0.776,17.245-4.605,23.637-10.837c1.199-1.267,2.284-2.638,3.243-4.096C394.751,222.635,464.724,288.427,401.065,384z"/>
			<path style="fill:#E91E63;" d="M186.997,308.915c2.508-4.993,7.133-8.589,12.59-9.789c5.457-1.2,11.164,0.124,15.535,3.604
				c7.031,6.186,7.031,18.557,0,30.928c-7.24,10.397-16.89,18.887-28.125,24.742c-11.235-5.856-20.885-14.345-28.125-24.742
				c-7.031-12.371-7.031-24.742,0-30.928c4.371-3.48,10.078-4.804,15.535-3.604C179.864,300.326,184.49,303.922,186.997,308.915z"/>
			<path style="fill:#E91E63;" d="M307.934,308.915c2.508-4.993,7.133-8.589,12.59-9.789c5.457-1.2,11.164,0.124,15.535,3.604
				c7.031,6.186,7.031,18.557,0,30.928c-7.24,10.397-16.89,18.887-28.125,24.742c-11.235-5.856-20.885-14.345-28.125-24.742
				c-7.031-12.371-7.031-24.742,0-30.928c4.371-3.48,10.078-4.804,15.535-3.604C300.801,300.326,305.426,303.922,307.934,308.915z"
				/>
		</g>
	</g>
	<g>
		<path d="M186.999,366.933c1.518,0,3.008-0.406,4.317-1.175c12.513-6.628,23.229-16.197,31.225-27.883
			c9.067-15.942,8.35-32.642-1.783-41.554c-5.943-5.036-13.82-7.167-21.492-5.812c-4.484,0.746-8.704,2.618-12.267,5.442
			c-3.562-2.823-7.783-4.696-12.267-5.442c-7.672-1.353-15.548,0.777-21.492,5.812c-10.133,8.912-10.85,25.612-1.908,41.333
			c7.999,11.788,18.762,21.439,31.35,28.108C183.992,366.529,185.481,366.933,186.999,366.933z M166.29,329.442
			c-5.442-9.571-5.017-17.463-1.783-20.304c1.621-1.298,3.649-1.983,5.725-1.933c0.558-0.002,1.116,0.044,1.667,0.137
			c3.327,0.621,6.17,2.765,7.683,5.792c1.641,2.497,4.429,4,7.417,4c2.988,0,5.775-1.503,7.417-4
			c1.513-3.027,4.357-5.17,7.683-5.792c2.607-0.49,5.3,0.164,7.392,1.796c3.233,2.842,3.658,10.733-1.9,20.521
			c-5.355,7.726-12.397,14.133-20.592,18.737C178.732,343.752,171.646,337.267,166.29,329.442z"/>
		<path d="M320.199,290.508c-4.484,0.746-8.704,2.619-12.267,5.442c-3.562-2.823-7.783-4.696-12.267-5.442
			c-7.672-1.354-15.548,0.776-21.492,5.813c-10.133,8.912-10.85,25.612-1.9,41.337c8,11.782,18.76,21.428,31.342,28.1
			c2.665,1.565,5.967,1.567,8.633,0.004c12.517-6.624,23.234-16.195,31.225-27.888c9.067-15.942,8.35-32.642-1.783-41.554
			C335.746,291.286,327.87,289.157,320.199,290.508z M328.515,329.663c-5.348,7.728-12.387,14.135-20.583,18.733
			c-8.264-4.648-15.349-11.133-20.708-18.954c-5.442-9.571-5.017-17.463-1.783-20.304c1.621-1.298,3.649-1.983,5.725-1.933
			c0.558-0.002,1.116,0.044,1.667,0.137c3.327,0.621,6.17,2.765,7.683,5.792c1.641,2.497,4.429,4,7.417,4
			c2.988,0,5.775-1.503,7.417-4c1.513-3.027,4.357-5.17,7.683-5.792c2.607-0.49,5.3,0.164,7.392,1.796
			C333.657,311.979,334.082,319.871,328.515,329.663L328.515,329.663z"/>
		<path d="M69.142,426.442c2.78,17.224,15.008,55.604,67.39,59.474v17.551c-0.001,2.263,0.898,4.434,2.499,6.035
			c1.6,1.6,3.771,2.499,6.035,2.499h204.8c2.263,0.001,4.434-0.898,6.035-2.499c1.6-1.6,2.499-3.771,2.499-6.035v-17.551
			c52.326-3.866,64.583-42.165,67.38-59.418c9.561-0.409,18.435-5.079,24.186-12.728c17.663-23.343,27.434-51.702,27.9-80.97
			c0-11.192-0.023-23.836-0.958-36.951c23.441-79.035,2.777-164.572-54.159-224.19c-0.072-0.064-0.1-0.155-0.174-0.217l-0.067-0.036
			c-22.118-23.192-48.816-41.532-78.399-53.858l-0.076-0.043l-0.049-0.006C287.646-5.833,224.348-5.833,168.012,17.499l-0.037,0.005
			l-0.057,0.033c-29.594,12.325-56.301,30.67-78.426,53.868l-0.067,0.036c-0.074,0.062-0.102,0.153-0.174,0.217
			C48.375,114.396,25.573,171.262,25.599,230.4c0,7.083,0.292,13.621,0.85,19.283c0,0.062,0.034,0.114,0.035,0.176
			c-0.558,4.759-0.853,9.545-0.885,14.336v113.296C25.342,402.587,44.188,423.773,69.142,426.442z M42.665,377.492V264.196
			c-0.117-24.115,7.665-47.605,22.158-66.88c19.596-25.792,43.984-47.562,71.827-64.115c1.079-0.314,2.084-0.841,2.956-1.548
			c0.058-0.048,0.08-0.12,0.137-0.171c17.768-10.19,36.846-17.901,56.704-22.919c0.589-0.032,1.174-0.128,1.743-0.286
			c0.105-0.035,0.173-0.119,0.276-0.158c15.672-3.788,31.735-5.722,47.858-5.763c17.196-0.015,34.319,2.241,50.925,6.708
			c14.038,3.669,27.584,9.008,40.35,15.904c8.737,4.793,16.849,10.647,24.149,17.43c0.247,0.365,0.523,0.708,0.826,1.028
			c0.182,0.151,0.402,0.204,0.592,0.338c9.115,8.531,15.825,19.31,19.458,31.254c2.894,10.193,2.05,21.084-2.378,30.71
			c-1.128,0.533-2.123,1.309-2.914,2.273c-0.976,1.287-1.555,2.831-1.666,4.442l-0.009,0.012c-5.126,4.983-11.886,7.94-19.025,8.321
			c-6.747,0.601-13.529,0.705-20.292,0.312c-4.225-0.137-8.342-0.279-12.233-0.192c-15.225,0.321-30.566,1.9-45.408,3.421
			l-1.75,0.183c-36.713,2.885-72.955,10.112-107.966,21.53c-16.009,5.667-64.708,22.921-64.708,63.721v67.738
			c0.333,17.364-13.446,31.724-30.808,32.108C56.106,409.212,42.332,394.853,42.665,377.492z M165.547,37.25l18.945,56.9
			c-16.83,4.849-33.085,11.51-48.478,19.866l-29.605-35.529C123.651,61.499,143.646,47.556,165.547,37.25z M405.588,78.486
			l-38.341,46.008c-6.682-5.468-13.85-10.313-21.415-14.474c-6.603-3.613-13.424-6.811-20.424-9.577l21.043-63.194
			C368.351,47.556,388.347,61.499,405.588,78.486z M380.199,300.1c-15.601-10.402-15.522-46.633-13.881-63.82
			c7.14-1.642,13.754-5.05,19.235-9.912c33.056,32.225,42.639,81.582,24.045,123.836v-0.337
			C409.599,340.842,409.599,319.7,380.199,300.1z M309.274,94.853c-2.516-0.772-5.007-1.57-7.592-2.266
			c-12.167-3.244-24.6-5.394-37.15-6.423V17.283c22.616,0.875,44.946,5.366,66.142,13.302L309.274,94.853z M247.465,85.392
			c-15.569-0.083-31.104,1.474-46.347,4.645l-19.795-59.452c21.196-7.936,43.526-12.427,66.142-13.302V85.392z M341.332,494.933
			H153.599V486.4h187.733V494.933z M349.865,469.333h-204.8c-46.717,0-56.912-30.192-59.123-44.419
			c21.087-6.098,35.549-25.472,35.398-47.422v-67.738c0-19.337,17.45-34.921,53.342-47.638
			c33.737-10.946,68.648-17.873,104.008-20.638l1.75-0.179c14.5-1.488,29.5-3.029,44.025-3.333
			c3.642-0.071,7.417,0.054,11.317,0.179c4.318,0.145,8.743,0.208,13.197,0.125c-1.505,18.911-1.836,60.305,21.753,76.03
			c21.8,14.533,21.8,27.7,21.8,35.567v44.971c0,1.35,0.092,2.6,0.25,4.367c1.482,9.99,7.586,18.697,16.471,23.496
			C407.743,435.249,399.128,469.333,349.865,469.333z M436.283,403.575c-3.525,4.779-9.562,6.993-15.341,5.628
			c-5.779-1.365-10.186-6.047-11.2-11.899c-0.067-0.8-0.142-1.6-0.142-2.467v-8.391c57.599-88.85,5.556-154.13-13.746-173.681
			c4.163-8.841,6.034-18.587,5.442-28.341c35.304,26.373,56.804,67.283,58.505,111.317c1,12.896,1,25.179,1,37.059
			C460.339,358.395,451.754,383.18,436.283,403.575z M468.359,249.855c-12.793-38.142-38.89-70.403-73.517-90.882
			c-3.911-8.266-9.063-15.885-15.278-22.592l37.769-45.323c33.563,38.661,52.029,88.146,51.999,139.343
			C469.332,236.932,468.94,243.409,468.359,249.855L468.359,249.855z M94.665,91.058l26.433,31.722
			c-26.878,17.1-50.517,38.822-69.823,64.161c-1.982,2.589-3.843,5.271-5.609,8.018C52.154,156.485,69.106,120.539,94.665,91.058
			L94.665,91.058z"/>
		<path d="M76.799,358.4c0-168.992,115.508-187.1,120.608-187.808c4.663-0.635,7.933-4.925,7.308-9.589s-4.908-7.943-9.574-7.327
			c-1.358,0.179-135.408,20.187-135.408,204.725c0,4.713,3.821,8.533,8.533,8.533S76.799,363.113,76.799,358.4z"/>
		<path d="M355.157,393.213c-1.045,0.413-2.001,1.022-2.817,1.796c-3.313,3.34-3.298,8.73,0.033,12.052s8.721,3.322,12.052,0
			s3.345-8.712,0.032-12.052C361.986,392.622,358.339,391.918,355.157,393.213z"/>
		<path d="M307.199,392.533H187.732c-9.421,0.011-17.056,7.645-17.067,17.067v17.067c0.011,9.421,7.645,17.056,17.067,17.067
			h119.467c9.421-0.011,17.056-7.645,17.067-17.067V409.6C324.255,400.179,316.62,392.544,307.199,392.533z M255.999,409.6h17.067
			v17.067h-17.067V409.6z M238.932,426.667h-17.067V409.6h17.067V426.667z M187.732,409.6h17.067v17.067h-17.067V409.6z
			 M290.132,426.667V409.6h17.067l0.009,17.067H290.132z"/>
	</g>
</g>
<g>
</g>
<g>
</g>
<g>
</g>
<g>
</g>
<g>
</g>
<g>
</g>
<g>
</g>
<g>
</g>
<g>
</g>
<g>
</g>
<g>
</g>
<g>
</g>
<g>
</g>
<g>
</g>
<g>
</g>
</svg>
