<?xml version="1.0" encoding="iso-8859-1"?>
<!-- Generator: Adobe Illustrator 19.0.0, SVG Export Plug-In . SVG Version: 6.00 Build 0)  -->
<svg version="1.1" id="Capa_1" xmlns="http://www.w3.org/2000/svg" xmlns:xlink="http://www.w3.org/1999/xlink" x="0px" y="0px"
	 viewBox="0 0 512 512" style="enable-background:new 0 0 512 512;" xml:space="preserve">
<g>
	<g>
		<g>
			<g>
				<path style="fill:#6A1B9A;" d="M281.599,324.352c-2.257-0.039-4.436,0.821-6.059,2.389c-0.771,0.816-1.379,1.772-1.792,2.816
					c-0.438,1.026-0.67,2.127-0.683,3.243c-0.022,2.27,0.87,4.453,2.475,6.059c1.605,1.605,3.789,2.497,6.059,2.475
					c0.572-0.019,1.142-0.076,1.707-0.171c0.535-0.093,1.053-0.265,1.536-0.512c0.544-0.186,1.06-0.445,1.536-0.768
					c0.097-0.105,0.213-0.192,0.341-0.256C283.418,335.216,281.623,329.861,281.599,324.352z M468.308,294.997
					c23.14-76.28,3.596-159.111-51.2-217.003c-62.459-66.21-159.082-87.437-243.541-53.504c-0.986,0.318-1.955,0.688-2.901,1.109
					c-28.696,11.879-54.529,29.741-75.776,52.395c-39.109,41.091-60.87,95.678-60.757,152.405c0,6.485,0.256,12.885,0.853,19.2
					v0.085c-0.584,4.813-0.869,9.658-0.853,14.507v113.323c-0.174,10.604,3.873,20.843,11.252,28.462s17.482,11.992,28.087,12.157
					h3.328c0,0,0,59.733,68.267,59.733v25.6h204.8v-25.6c4.741,0.027,9.477-0.316,14.165-1.024
					c30.264-3.116,53.464-28.292,54.101-58.709l0.171-0.768c1.979,0.512,4.015,0.77,6.059,0.768
					c7.407,0.003,14.375-3.513,18.773-9.472c16.571-21.861,25.747-48.433,26.197-75.861c0-11.776,0-24.491-1.024-37.717V294.997z
					 M187.732,349.867c-1.988,0.008-3.968-0.25-5.888-0.768c-5.817-1.364-10.977-4.714-14.592-9.472
					c-6.633-8.822-6.839-20.909-0.512-29.952c0.408-0.605,0.864-1.176,1.365-1.707c4.801-5.907,12.015-9.326,19.627-9.301
					c14.138,0,25.6,11.462,25.6,25.6C213.332,338.405,201.871,349.867,187.732,349.867z M307.199,349.867
					c-1.988,0.008-3.968-0.25-5.888-0.768c-11.529-2.657-19.7-12.916-19.712-24.747v-0.085
					c-0.029-11.202,7.247-21.115,17.943-24.445s22.313,0.7,28.649,9.939c3.015,4.235,4.626,9.308,4.608,14.507
					C332.757,338.388,321.32,349.825,307.199,349.867z"/>
				<path style="fill:#6A1B9A;" d="M184.486,332.117c1.013,0.479,2.125,0.713,3.246,0.683c3.45-0.014,6.556-2.096,7.879-5.282
					c1.323-3.187,0.606-6.856-1.82-9.31c-2.461-2.41-6.123-3.117-9.304-1.796c-1.033,0.434-1.985,1.041-2.813,1.796
					c-3.3,3.365-3.3,8.752,0,12.117C182.503,331.077,183.454,331.682,184.486,332.117z"/>
				<path style="fill:#6A1B9A;" d="M307.199,332.8c0.571-0.02,1.14-0.077,1.704-0.171c0.535-0.095,1.053-0.268,1.538-0.512
					c0.544-0.187,1.062-0.447,1.538-0.771c0.447-0.314,0.874-0.655,1.279-1.021c1.557-1.637,2.44-3.8,2.475-6.059
					c-0.013-1.116-0.245-2.219-0.683-3.246c-0.413-1.043-1.022-1.997-1.792-2.813c-3.421-3.158-8.695-3.158-12.117,0
					c-0.773,0.814-1.383,1.769-1.796,2.813c-0.436,1.027-0.667,2.13-0.679,3.246c-0.022,2.27,0.87,4.453,2.475,6.058
					C302.746,331.93,304.929,332.822,307.199,332.8z"/>
			</g>
			<path style="fill:#9D27B0;" d="M442.708,303.531c23.14-76.28,3.596-159.111-51.2-217.003
				c-55.77-59.087-139.414-82.897-217.941-62.037c-0.986,0.318-1.955,0.688-2.901,1.109c-28.696,11.879-54.529,29.741-75.776,52.395
				c-39.109,41.091-60.87,95.678-60.757,152.405c0,6.485,0.256,12.885,0.853,19.2v0.085c-0.584,4.813-0.869,9.658-0.853,14.507
				v113.323c-0.174,10.604,3.873,20.843,11.252,28.462s17.482,11.992,28.087,12.157h3.328c0,0,0,59.733,68.267,59.733v25.6h179.2
				V486.4c8.653,0.095,17.274-1.055,25.6-3.413c25.181-7.172,42.579-30.138,42.667-56.32l0.171-0.768
				c1.979,0.512,4.015,0.77,6.059,0.768c7.407,0.003,14.375-3.513,18.773-9.472c0.085-0.085,0.085-0.171,0.171-0.256
				c16.467-21.808,25.581-48.283,26.027-75.605c0-11.776,0-24.491-1.024-37.717V303.531z"/>
		</g>
		<path style="fill:#00838F;" d="M401.236,397.995c-0.085-1.024-0.171-2.048-0.171-3.157v-44.971c0-8.533,0-25.6-25.6-42.667
			c-25.6-17.067-17.237-77.995-17.237-77.995c-0.171,0-0.427,0.085-0.597,0.085c-11.093,1.28-23.04-0.085-33.365,0.171
			c-15.445,0.256-31.061,1.963-46.421,3.499c-36.036,2.816-71.612,9.891-105.984,21.077c-2.475,0.853-5.12,1.877-7.851,2.987
			c-23.125,9.045-51.2,24.661-51.2,52.736v67.755c0.311,20.784-15.33,38.352-36.011,40.448c-1.109,0.085-2.219,0.171-3.328,0.171
			h3.328c0,0,0,59.733,68.267,59.733h204.8c4.741,0.027,9.477-0.316,14.165-1.024c30.264-3.116,53.464-28.292,54.101-58.709
			l0.171-0.768C409.301,414.824,402.623,407.245,401.236,397.995z"/>
		<path style="fill:#00BCD4;" d="M375.636,406.528c-0.085-1.024-0.171-2.048-0.171-3.157V358.4c0-8.533,0-25.6-25.6-42.667
			c-25.6-17.067-17.237-77.995-17.237-77.995c-0.171,0-0.427,0.085-0.597,0.085c-11.093,1.28-23.04-0.085-33.365,0.171
			c-15.445,0.256-31.061,1.963-46.421,3.499c-29.81,2.577-59.336,7.774-88.235,15.531c-5.973,1.621-11.861,3.499-17.749,5.547
			c-24.064,8.533-59.051,24.405-59.051,55.723v67.755c0.076,12.043-5.171,23.505-14.336,31.317l0.597,0.768h3.328
			c0,0,0,59.733,68.267,59.733h204.8c4.741,0.027,9.477-0.316,14.165-1.024c17.177-11.018,27.835-29.78,28.501-50.176l0.171-0.768
			C383.701,423.357,377.023,415.778,375.636,406.528z"/>
		<g>
			<path style="fill:#E91E63;" d="M134.143,125.099c-29.54,17.13-55.407,39.923-76.117,67.072
				c-12.702,16.724-20.662,36.563-23.04,57.429c-0.597-6.315-0.853-12.715-0.853-19.2c-0.113-56.727,21.649-111.314,60.757-152.405
				L134.143,125.099z"/>
			<path style="fill:#E91E63;" d="M255.999,8.533v85.59c-20.354-0.902-40.731,1.139-60.501,6.059L170.665,25.6
				C197.693,14.296,226.703,8.494,255.999,8.533z"/>
		</g>
		<path style="fill:#AD1457;" d="M385.108,214.272c-0.958,1.458-2.044,2.829-3.243,4.096c-6.392,6.232-14.744,10.061-23.637,10.837
			c-0.171,0-0.427,0.085-0.597,0.085c-1.451,0.171-2.816,0.256-4.267,0.341c-9.813,0.597-20.053-0.427-29.099-0.171
			c-15.445,0.256-31.061,1.963-46.421,3.499c-36.036,2.816-71.612,9.891-105.984,21.077c-2.475,0.853-5.12,1.877-7.851,2.987
			c-23.125,9.045-51.2,24.661-51.2,52.736v67.755c0.311,20.784-15.33,38.352-36.011,40.448c-1.109,0.085-2.219,0.171-3.328,0.171
			c-0.457,0.014-0.914-0.014-1.365-0.085c-21.522-1.05-38.327-18.989-37.973-40.533V264.192c-0.016-4.849,0.269-9.693,0.853-14.507
			V249.6c2.378-20.866,10.338-40.705,23.04-57.429c20.711-27.149,46.578-49.943,76.117-67.072
			c9.973-5.783,20.354-10.831,31.061-15.104c9.852-3.986,19.975-7.265,30.293-9.813c19.771-4.92,40.148-6.96,60.501-6.059
			c14.686,0.609,29.256,2.87,43.435,6.741c5.12,1.365,10.24,2.901,15.275,4.693c9.312,3.207,18.334,7.203,26.965,11.947
			c9.63,5.227,18.501,11.744,26.368,19.371c8.516,7.733,15.293,17.186,19.883,27.733c1.182,2.621,2.152,5.331,2.901,8.107
			C395.09,186.737,393.001,201.923,385.108,214.272z"/>
		<path style="fill:#E91E63;" d="M359.508,222.805c-0.958,1.458-2.044,2.829-3.243,4.096c-0.939,0.939-1.877,1.877-2.901,2.731
			c-6.044,4.541-13.215,7.344-20.736,8.107c-0.171,0-0.427,0.085-0.597,0.085c-11.093,1.28-23.04-0.085-33.365,0.171
			c-15.445,0.256-31.061,1.963-46.421,3.499c-29.81,2.577-59.336,7.774-88.235,15.531c-5.973,1.621-11.861,3.499-17.749,5.547
			c-24.064,8.533-59.051,24.405-59.051,55.723v67.755c0.066,12.402-5.487,24.168-15.104,32
			c-21.522-1.05-38.327-18.989-37.973-40.533V264.192c-0.016-4.849,0.269-9.693,0.853-14.507V249.6
			c2.378-20.866,10.338-40.705,23.04-57.429c20.711-27.149,46.578-49.943,76.117-67.072c9.973-5.783,20.354-10.831,31.061-15.104
			c1.536-0.513,3.157-0.853,4.693-1.28c19.771-4.92,40.148-6.96,60.501-6.059c14.685,0.609,29.256,2.87,43.435,6.741
			c5.12,1.365,10.24,2.901,15.275,4.693c9.312,3.207,18.334,7.203,26.965,11.947c9.63,5.227,18.501,11.744,26.368,19.371
			c8.516,7.733,15.293,17.186,19.883,27.733c1.182,2.621,2.152,5.331,2.901,8.107C369.49,195.27,367.401,210.456,359.508,222.805z"
			/>
		<g>
			<path style="fill:#AD1457;" d="M469.332,332.8c-0.45,27.428-9.626,54-26.197,75.861c-4.399,5.959-11.367,9.475-18.773,9.472
				c-2.044,0.002-4.08-0.256-6.059-0.768c-9.002-2.541-15.679-10.121-17.067-19.371c-0.085-1.024-0.171-2.048-0.171-3.157V384
				c63.659-95.573-6.315-161.365-15.957-169.728c7.893-12.349,9.982-27.535,5.717-41.557c-0.749-2.775-1.72-5.486-2.901-8.107
				c62.293,38.912,76.885,87.211,80.384,130.389v0.085C469.332,308.309,469.332,321.024,469.332,332.8z"/>
			<path style="fill:#AD1457;" d="M417.108,77.995l-11.605,13.909l-37.461,44.971c-7.867-7.627-16.738-14.144-26.368-19.371
				c-8.632-4.743-17.653-8.74-26.965-11.947l20.565-61.781l6.059-18.176C370.028,37.479,395.861,55.341,417.108,77.995z"/>
		</g>
		<path style="fill:#E91E63;" d="M405.503,91.904l-37.461,44.971c-7.867-7.627-16.738-14.144-26.368-19.371
			c-8.632-4.743-17.653-8.74-26.965-11.947l20.565-61.781C361.65,54.99,385.525,71.352,405.503,91.904z"/>
		<g>
			<rect x="145.065" y="477.867" style="fill:#00BCD4;" width="204.8" height="25.6"/>
			<path style="fill:#FFFFFF;" d="M187.732,281.6c-10.47,0.008-20.569,3.872-28.371,10.853c-3.396-3.163-8.7-3.018-11.919,0.324
				c-3.219,3.342-3.164,8.648,0.124,11.923l1.555,1.555c-1.407,3.024-2.445,6.207-3.094,9.478h-0.962
				c-4.713,0-8.533,3.82-8.533,8.533s3.82,8.533,8.533,8.533h0.862c4.491,22,25.264,36.755,47.515,33.749
				c22.251-3.005,38.366-22.742,36.86-45.145C228.797,299.002,210.186,281.6,187.732,281.6z"/>
			<path style="fill:#607D8B;" d="M187.732,332.8c-1.121,0.03-2.232-0.205-3.246-0.683c-1.032-0.434-1.983-1.04-2.813-1.792
				c-3.3-3.365-3.3-8.752,0-12.117c0.828-0.754,1.78-1.362,2.813-1.796c3.181-1.321,6.844-0.614,9.304,1.796
				c2.462,2.441,3.201,6.129,1.872,9.331C194.333,330.741,191.199,332.82,187.732,332.8z"/>
			<path style="fill:#FFFFFF;" d="M307.199,366.933c-20.269,0.026-37.759-14.212-41.846-34.065
				c-4.086-19.853,6.359-39.841,24.991-47.822c18.632-7.981,40.307-1.752,51.859,14.903c5.017,7.113,7.695,15.612,7.663,24.317
				C349.838,347.819,330.751,366.906,307.199,366.933z"/>
			<g>
				<path style="fill:#804169;" d="M335.186,313.346c-3.451-0.001-6.562-2.08-7.882-5.268c-1.321-3.188-0.591-6.858,1.849-9.298
					l6.146-6.146c3.341-3.281,8.701-3.256,12.012,0.054c3.311,3.311,3.335,8.671,0.054,12.012l-6.146,6.146
					C339.621,312.449,337.45,313.348,335.186,313.346z"/>
				<path style="fill:#804169;" d="M349.866,332.8h-8.533c-4.713,0-8.533-3.821-8.533-8.533s3.821-8.533,8.533-8.533h8.533
					c4.713,0,8.533,3.82,8.533,8.533S354.578,332.8,349.866,332.8z"/>
			</g>
			<path style="fill:#607D8B;" d="M307.199,332.8c-2.27,0.022-4.453-0.87-6.058-2.475c-1.605-1.605-2.497-3.788-2.475-6.058
				c0.012-1.116,0.243-2.219,0.679-3.246c0.413-1.044,1.023-1.999,1.796-2.813c3.421-3.158,8.695-3.158,12.117,0
				c0.771,0.815,1.379,1.77,1.792,2.813c0.438,1.027,0.67,2.13,0.683,3.246c-0.034,2.259-0.918,4.422-2.475,6.059
				c-0.405,0.366-0.833,0.707-1.279,1.021c-0.476,0.324-0.993,0.583-1.538,0.771c-0.485,0.245-1.003,0.418-1.538,0.512
				C308.339,332.723,307.77,332.78,307.199,332.8z"/>
		</g>
		<path style="fill:#E91E63;" d="M401.066,384v-34.133c0-8.533,0-25.6-25.6-42.667c-25.6-17.067-17.237-77.995-17.237-77.995
			c8.894-0.776,17.245-4.605,23.637-10.837c1.199-1.267,2.284-2.638,3.243-4.096C394.751,222.635,464.724,288.427,401.066,384z"/>
		<path style="fill:#C52828;" d="M213.332,401.067V435.2h-25.6c-4.707-0.014-8.519-3.826-8.533-8.533V409.6
			c0.014-4.707,3.826-8.519,8.533-8.533H213.332z"/>
		<g>
			<rect x="213.332" y="401.067" style="fill:#F44335;" width="34.133" height="34.133"/>
			<path style="fill:#F44335;" d="M315.732,409.6v17.067c-0.014,4.707-3.826,8.519-8.533,8.533h-25.6v-34.133h25.6
				C311.906,401.081,315.718,404.893,315.732,409.6z"/>
		</g>
		<g>
			<rect x="247.465" y="401.067" style="fill:#C52828;" width="34.133" height="34.133"/>
			<path style="fill:#00BCD4;" d="M358.399,409.6c-2.259-0.033-4.422-0.917-6.059-2.475c-0.754-0.83-1.362-1.782-1.796-2.817
				c-0.436-1.026-0.667-2.127-0.679-3.242c0.031-2.259,0.915-4.423,2.475-6.059c0.828-0.754,1.78-1.362,2.813-1.796
				c2.079-0.85,4.409-0.85,6.487,0c1.045,0.414,2.001,1.023,2.817,1.796c2.462,2.441,3.201,6.129,1.872,9.331
				S361.866,409.62,358.399,409.6z"/>
		</g>
	</g>
	<g>
		<path d="M69.143,426.442c2.782,17.225,15.01,55.603,67.389,59.474v17.551c0,4.713,3.82,8.533,8.533,8.533h204.8
			c4.713,0,8.533-3.82,8.533-8.533v-17.551c52.319-3.866,64.58-42.159,67.379-59.414c9.581-0.349,18.484-5.035,24.196-12.735
			c17.652-23.346,27.42-51.702,27.892-80.967c0-11.185-0.023-23.821-0.96-36.928c23.448-79.055,2.775-164.614-54.183-224.241
			c-0.063-0.056-0.087-0.136-0.153-0.19l-0.059-0.032c-22.122-23.197-48.826-41.541-78.416-53.868l-0.067-0.038l-0.044-0.005
			c-56.337-23.332-119.634-23.332-175.971,0l-0.044,0.005l-0.067,0.038c-29.59,12.326-56.294,30.67-78.416,53.868l-0.059,0.032
			c-0.065,0.054-0.09,0.134-0.153,0.19C48.385,114.372,25.573,171.249,25.599,230.4c0,7.142,0.292,13.683,0.854,19.283
			c0,0.058,0.032,0.106,0.033,0.163c-0.559,4.763-0.855,9.554-0.887,14.349v113.296C25.342,402.587,44.189,423.773,69.143,426.442z
			 M42.665,377.492V264.196c-0.115-24.115,7.667-47.604,22.158-66.88c19.594-25.793,43.982-47.562,71.824-64.114
			c1.08-0.313,2.086-0.84,2.959-1.549c0.059-0.049,0.081-0.121,0.138-0.172c17.765-10.188,36.841-17.898,56.696-22.916
			c0.593-0.032,1.181-0.129,1.753-0.287c0.106-0.035,0.174-0.12,0.278-0.159c15.67-3.787,31.73-5.72,47.852-5.761
			c17.198-0.015,34.322,2.241,50.929,6.708c14.036,3.669,27.581,9.009,40.346,15.904c8.739,4.792,16.852,10.647,24.153,17.431
			c0.247,0.365,0.523,0.708,0.826,1.028c0.18,0.15,0.4,0.203,0.588,0.336c9.115,8.531,15.824,19.311,19.454,31.256
			c4.036,12.863,1.426,26.891-6.967,37.442c-5.125,4.984-11.886,7.939-19.025,8.317c-6.747,0.601-13.529,0.705-20.292,0.312
			c-4.221-0.137-8.363-0.283-12.225-0.192c-15.225,0.321-30.566,1.896-45.4,3.421l-1.766,0.183
			c-36.712,2.886-72.952,10.113-107.962,21.529c-16.004,5.671-64.713,22.929-64.713,63.721v67.738
			c0.334,17.361-13.44,31.72-30.8,32.108C56.108,409.214,42.332,394.854,42.665,377.492z M165.55,37.248l18.948,56.907
			c-16.832,4.847-33.088,11.507-48.483,19.863l-29.608-35.529C123.65,61.499,143.647,47.555,165.55,37.248z M405.59,78.488
			l-38.341,46.008c-6.682-5.469-13.851-10.314-21.417-14.476c-6.604-3.613-13.427-6.813-20.428-9.58l21.042-63.193
			C368.35,47.555,388.348,61.499,405.59,78.488L405.59,78.488z M380.199,300.1c-15.601-10.402-15.522-46.633-13.881-63.819
			c7.125-1.639,13.725-5.036,19.199-9.882c33.134,32.179,42.741,81.581,24.082,123.833v-0.365
			C409.599,340.842,409.599,319.7,380.199,300.1z M309.278,94.852c-2.514-0.771-5.004-1.569-7.588-2.265
			c-12.17-3.241-24.606-5.389-37.158-6.417V17.283c22.617,0.875,44.949,5.366,66.146,13.303L309.278,94.852z M247.465,85.4
			c-15.57-0.082-31.105,1.475-46.348,4.645L181.32,30.587c21.197-7.938,43.528-12.429,66.146-13.304V85.4z M341.332,494.933H153.599
			V486.4h187.733V494.933z M349.866,469.333h-204.8c-46.713,0-56.911-30.192-59.123-44.419
			c21.086-6.099,35.546-25.473,35.394-47.423v-67.738c0-19.333,17.45-34.917,53.346-47.638
			c33.736-10.946,68.645-17.873,104.004-20.638l1.771-0.179c14.492-1.492,29.479-3.029,44.008-3.333
			c3.612-0.083,7.404,0.054,11.312,0.179c4.329,0.145,8.752,0.207,13.205,0.123c-1.507,18.91-1.836,60.306,21.75,76.031
			c21.8,14.533,21.8,27.7,21.8,35.567v44.971c0,1.363,0.096,2.625,0.258,4.367c1.477,9.989,7.578,18.697,16.462,23.496
			C407.741,435.249,399.124,469.333,349.866,469.333z M436.286,403.571c-3.527,4.786-9.572,7.001-15.356,5.629
			c-5.784-1.373-10.189-6.068-11.19-11.929c-0.071-0.792-0.142-1.579-0.142-2.434v-8.382c58.099-89.67,5.049-154.934-13.723-173.751
			c4.144-8.825,6.008-18.549,5.42-28.28c35.306,26.371,56.807,67.282,58.503,111.317c1,12.896,1,25.18,1,37.059
			C460.335,358.392,451.751,383.174,436.286,403.571z M468.358,249.851c-12.793-38.137-38.887-70.394-73.51-90.871
			c-3.913-8.27-9.068-15.892-15.286-22.602l37.769-45.322c33.564,38.661,52.032,88.147,52.001,139.345
			C469.332,236.93,468.94,243.406,468.358,249.851L468.358,249.851z M94.667,91.055l26.435,31.722
			c-26.881,17.099-50.522,38.822-69.828,64.165c-1.982,2.589-3.843,5.271-5.609,8.018C52.154,156.484,69.107,120.537,94.667,91.055z
			"/>
		<path d="M76.799,358.4c0-168.992,115.508-187.1,120.604-187.808c4.663-0.635,7.933-4.925,7.308-9.589
			c-0.625-4.665-4.908-7.943-9.574-7.327c-1.354,0.179-135.404,20.187-135.404,204.725c0,4.713,3.821,8.533,8.533,8.533
			S76.799,363.113,76.799,358.4z"/>
		<path d="M187.732,366.933c19.065,0.125,35.899-12.414,41.239-30.717c5.34-18.302-2.111-37.926-18.252-48.073
			c-16.141-10.147-37.055-8.354-51.233,4.392c-3.369-3.231-8.71-3.148-11.977,0.186c-3.267,3.334-3.242,8.675,0.057,11.978
			l1.604,1.604c-1.451,3.004-2.539,6.169-3.241,9.43h-0.862c-4.713,0-8.533,3.82-8.533,8.533s3.82,8.533,8.533,8.533h0.862
			C150.008,352.65,167.467,366.906,187.732,366.933z M187.732,298.667c14.138,0,25.6,11.462,25.6,25.6
			c0,14.138-11.462,25.6-25.6,25.6s-25.6-11.462-25.6-25.6C162.148,310.135,173.6,298.682,187.732,298.667z"/>
		<path d="M184.486,332.117c1.013,0.479,2.125,0.713,3.246,0.683c3.45-0.014,6.556-2.096,7.879-5.282
			c1.323-3.187,0.606-6.856-1.82-9.31c-2.461-2.41-6.123-3.117-9.304-1.796c-1.033,0.434-1.985,1.041-2.813,1.796
			c-3.3,3.365-3.3,8.752,0,12.117C182.503,331.077,183.454,331.682,184.486,332.117z"/>
		<path d="M358.399,324.267c0-4.713-3.82-8.533-8.533-8.533h-0.862c-0.702-3.261-1.79-6.426-3.241-9.429l1.603-1.604
			c3.313-3.3,3.345-8.654,0.072-11.994c-3.273-3.34-8.626-3.416-11.993-0.17c-14.433-12.73-35.618-14.177-51.648-3.527
			c-16.03,10.65-22.906,30.739-16.765,48.978c6.141,18.239,23.769,30.077,42.976,28.862c19.207-1.215,35.201-15.181,38.995-34.049
			h0.862C354.578,332.8,358.399,328.979,358.399,324.267z M307.199,349.867c-14.138,0-25.6-11.462-25.6-25.6
			c0-14.138,11.461-25.6,25.6-25.6s25.6,11.462,25.6,25.6C332.783,338.399,321.331,349.851,307.199,349.867z"/>
		<path d="M313.258,318.208c-3.421-3.158-8.695-3.158-12.117,0c-0.773,0.814-1.383,1.769-1.796,2.813
			c-0.437,1.027-0.668,2.13-0.68,3.246c-0.022,2.27,0.87,4.453,2.475,6.058c1.605,1.605,3.788,2.497,6.058,2.475
			c0.571-0.02,1.14-0.077,1.704-0.171c0.535-0.095,1.053-0.268,1.538-0.512c0.544-0.187,1.062-0.447,1.538-0.771
			c0.447-0.314,0.874-0.655,1.279-1.021c1.557-1.637,2.44-3.8,2.475-6.059c-0.013-1.116-0.245-2.219-0.683-3.246
			C314.636,319.978,314.028,319.023,313.258,318.208z"/>
		<path d="M307.199,392.533H187.732c-9.422,0.009-17.057,7.645-17.067,17.067v17.067c0.009,9.422,7.645,17.057,17.067,17.067
			h119.467c9.422-0.009,17.057-7.645,17.067-17.067V409.6C324.256,400.178,316.621,392.543,307.199,392.533z M255.999,409.6h17.067
			v17.067h-17.067V409.6z M238.932,426.667h-17.067V409.6h17.067V426.667z M187.732,409.6h17.067v17.067h-17.067V409.6z
			 M290.132,426.667V409.6h17.067l0.012,17.067H290.132z"/>
		<path d="M361.64,393.213c-2.079-0.85-4.409-0.85-6.487,0c-1.033,0.434-1.984,1.041-2.813,1.796
			c-1.559,1.635-2.443,3.799-2.475,6.059c0.012,1.115,0.243,2.216,0.679,3.242c0.434,1.034,1.041,1.987,1.796,2.817
			c2.165,2.165,5.319,3.01,8.276,2.218c2.957-0.792,5.266-3.102,6.059-6.059s-0.053-6.112-2.218-8.276
			C363.641,394.236,362.685,393.626,361.64,393.213z"/>
	</g>
</g>
<g>
</g>
<g>
</g>
<g>
</g>
<g>
</g>
<g>
</g>
<g>
</g>
<g>
</g>
<g>
</g>
<g>
</g>
<g>
</g>
<g>
</g>
<g>
</g>
<g>
</g>
<g>
</g>
<g>
</g>
</svg>
