<?xml version="1.0" encoding="iso-8859-1"?>
<!-- Generator: Adobe Illustrator 19.0.0, SVG Export Plug-In . SVG Version: 6.00 Build 0)  -->
<svg version="1.1" id="Capa_1" xmlns="http://www.w3.org/2000/svg" xmlns:xlink="http://www.w3.org/1999/xlink" x="0px" y="0px"
	 viewBox="0 0 512.058 512.058" style="enable-background:new 0 0 512.058 512.058;" xml:space="preserve">
<g transform="translate(0 -1)">
	<g transform="translate(1 1)">
		<g>
			<path style="fill:#AD1457;" d="M272.095,25.658c3.771,0.012,7.432,1.272,10.411,3.584c-6.84,3.706-13.202,8.234-18.944,13.483
				c-0.027-9.414-7.652-17.039-17.067-17.067H272.095z"/>
			<path style="fill:#AD1457;" d="M485.429,298.724v119.467c0.031,26.843-12.624,52.122-34.133,68.181v0.085
				c-14.758,11.102-32.732,17.093-51.2,17.067l-25.6,0c18.468,0.026,36.441-5.965,51.2-17.067v-0.085
				c21.509-16.06,34.164-41.338,34.133-68.181V298.724c0.082-58.821-22.432-115.426-62.891-158.123
				c6.008-8.901,9.998-19.007,11.691-29.611l8.533-42.667c0,0,15.189-53.333-40.619-59.136c4.779-0.427,9.813-0.597,15.019-0.597
				c68.267,0,51.2,59.733,51.2,59.733l-8.533,42.667c-1.693,10.604-5.683,20.71-11.691,29.611
				C462.997,183.298,485.511,239.903,485.429,298.724z"/>
		</g>
		<path style="fill:#E91E63;" d="M459.829,298.724v119.467c0.031,26.843-12.624,52.122-34.133,68.181v0.085
			c-14.758,11.102-32.732,17.093-51.2,17.067H109.962c-18.468,0.026-36.442-5.965-51.2-17.067v-0.085
			c-21.509-16.06-34.164-41.339-34.133-68.181V298.724c-0.082-58.796,22.434-115.374,62.891-158.037
			c-6.002-8.935-9.991-19.067-11.691-29.696l-8.533-42.667c0,0-15.189-53.333,40.619-59.136c3.511-0.426,7.045-0.626,10.581-0.597
			c29.145-0.526,57.919,6.594,83.456,20.651c6.84,3.706,13.202,8.234,18.944,13.483c0.028-9.414,7.652-17.039,17.067-17.067h8.533
			c9.414,0.028,17.039,7.652,17.067,17.067c5.742-5.249,12.104-9.776,18.944-13.483c4.186,3.221,6.644,8.2,6.656,13.483
			c0,0,29.099-29.099,87.381-33.536c55.808,5.803,40.619,59.136,40.619,59.136l-8.533,42.667
			c-1.693,10.604-5.683,20.71-11.691,29.611C437.397,183.298,459.911,239.903,459.829,298.724z"/>
		<path style="fill:#00BCD4;" d="M58.762,375.524l0,110.848c-21.509-16.06-34.164-41.339-34.133-68.181l0-68.267l8.533,0
			c6.792-0.009,13.309,2.685,18.112,7.488C56.077,362.215,58.771,368.732,58.762,375.524z"/>
		<path style="fill:#00838F;" d="M485.429,298.724v8.533c-8.77,0.009-17.458,1.689-25.6,4.949
			c-25.646,10.623-42.449,35.559-42.667,63.317v126.293c-5.618,1.138-11.335,1.71-17.067,1.707H109.962
			c-5.732,0.003-11.449-0.569-17.067-1.707V375.524c0.005-18.107-7.186-35.474-19.989-48.277
			c-12.804-12.804-30.17-19.994-48.277-19.989v-8.533c-0.092-50.918,16.816-100.41,48.043-140.629
			c4.647-6.054,9.603-11.864,14.848-17.408c4.072,5.939,10.512,9.828,17.664,10.667c7.767,0.367,15.44-1.821,21.845-6.229
			c24.648-15.382,48.435-32.104,71.253-50.091c13.653-10.667,22.613-18.176,22.613-18.176c0.028,9.414,7.653,17.039,17.067,17.067
			h34.133c0.627,0.016,1.254-0.012,1.877-0.085c8.632-0.998,15.156-8.292,15.189-16.981c29.819,24.711,61.17,47.512,93.867,68.267
			c3.92,2.429,8.175,4.269,12.629,5.461c1.035,0.3,2.09,0.528,3.157,0.683c9.295,1.262,18.498-2.876,23.723-10.667
			C462.997,183.298,485.511,239.903,485.429,298.724z"/>
		<path style="fill:#00BCD4;" d="M459.829,307.258v8.533c-2.767-0.002-5.532,0.169-8.277,0.512
			c-34.242,4.187-59.981,33.258-59.989,67.755v119.467h-281.6c-5.732,0.003-11.449-0.569-17.067-1.707V375.524
			c0.005-18.107-7.186-35.474-19.989-48.277c-12.804-12.804-30.17-19.994-48.277-19.989v-8.533
			c-0.092-50.918,16.816-100.41,48.043-140.629c9.713,3.543,20.564,1.869,28.757-4.437c1.195-0.768,2.475-1.536,3.755-2.304
			c7.767,0.367,15.44-1.821,21.845-6.229c24.648-15.382,48.435-32.104,71.253-50.091c3.199,4.626,8.456,7.397,14.08,7.424h34.133
			c9.416-0.023,17.044-7.651,17.067-17.067c0,0,3.925,3.243,10.411,8.448c26.581,21.613,54.451,41.589,83.456,59.819
			c18.517,11.093,30.549,6.144,38.229-3.072c0.494-0.42,0.925-0.909,1.28-1.451c0.67,0.671,1.297,1.383,1.877,2.133
			C438.117,193.697,459.914,249.423,459.829,307.258z"/>
		<path style="fill:#00838F;" d="M476.896,349.924l8.533,0l0,68.267c0.031,26.843-12.624,52.122-34.133,68.181l0-110.848
			c-0.009-6.792,2.685-13.309,7.488-18.112C463.586,352.609,470.103,349.915,476.896,349.924z"/>
		<g>
			<path style="fill:#009688;" d="M92.895,375.524v126.293c-12.377-2.523-24.037-7.77-34.133-15.36V375.524
				c0.009-6.792-2.685-13.309-7.488-18.112c-4.803-4.803-11.32-7.497-18.112-7.488h-8.533v-42.667
				c18.107-0.005,35.474,7.186,48.277,19.989C85.71,340.05,92.901,357.417,92.895,375.524z"/>
			<path style="fill:#009688;" d="M485.429,307.258v42.667h-8.533c-6.792-0.009-13.309,2.685-18.112,7.488
				c-4.803,4.803-7.497,11.32-7.488,18.112v110.933c-10.097,7.59-21.756,12.837-34.133,15.36V375.524
				c-0.005-18.107,7.186-35.474,19.989-48.277C449.955,314.443,467.322,307.253,485.429,307.258z"/>
		</g>
		<g>
			<path style="fill:#C52828;" d="M391.562,110.991c-2.264,0.003-4.435-0.897-6.033-2.5c-19.267-19.262-76.775-29.404-97.308-31.688
				c-4.677-0.527-8.043-4.742-7.524-9.419c0.519-4.678,4.729-8.051,9.407-7.539c3.258,0.358,80.092,9.175,107.492,36.579
				c2.44,2.441,3.17,6.111,1.849,9.299S395.013,110.991,391.562,110.991z"/>
			<path style="fill:#606060;" d="M161.162,366.991h187.733c14.138,0,25.6,11.462,25.6,25.6v51.2c0,14.138-11.462,25.6-25.6,25.6
				H161.162c-14.138,0-25.6-11.462-25.6-25.6v-51.2C135.562,378.452,147.024,366.991,161.162,366.991z"/>
			<path style="fill:#6A1B9A;" d="M118.495,179.258h273.067c14.138,0,25.6,11.462,25.6,25.6v93.867c0,14.138-11.462,25.6-25.6,25.6
				H118.495c-14.138,0-25.6-11.462-25.6-25.6v-93.867C92.895,190.719,104.357,179.258,118.495,179.258z"/>
			<path style="fill:#9D27B0;" d="M119.468,179.258H367.08c13.521,0,24.482,10.961,24.482,24.482v96.102
				c0,13.521-10.961,24.482-24.482,24.482H119.468c-13.521,0-24.482-10.961-24.482-24.482V203.74
				C94.986,190.219,105.947,179.258,119.468,179.258z"/>
			<g>
				<path style="fill:#E91E63;" d="M161.162,238.991c-1.116-0.013-2.219-0.245-3.246-0.683c-1.032-0.434-1.983-1.04-2.813-1.792
					c-1.573-1.626-2.459-3.796-2.475-6.058c0.012-1.116,0.243-2.219,0.679-3.246c0.784-2.139,2.469-3.824,4.608-4.608
					c1.557-0.679,3.287-0.857,4.95-0.508c0.535,0.091,1.053,0.263,1.538,0.508c0.544,0.187,1.062,0.447,1.538,0.771
					c0.425,0.341,0.85,0.683,1.279,1.025c0.752,0.83,1.358,1.781,1.792,2.813c0.438,1.027,0.67,2.129,0.683,3.245
					c-0.016,0.571-0.073,1.141-0.171,1.704c-0.095,0.535-0.268,1.053-0.513,1.538c-0.187,0.544-0.447,1.062-0.771,1.538
					c-0.314,0.447-0.655,0.874-1.021,1.279C165.584,238.073,163.421,238.957,161.162,238.991z"/>
				<path style="fill:#E91E63;" d="M144.095,221.924c-2.27,0.022-4.453-0.87-6.058-2.475s-2.497-3.788-2.475-6.058
					c0.012-1.116,0.243-2.219,0.679-3.246c0.434-1.033,1.041-1.984,1.796-2.813c2.042-2.014,4.953-2.878,7.763-2.304
					c0.535,0.091,1.053,0.263,1.538,0.508c0.544,0.187,1.062,0.447,1.538,0.771c0.425,0.341,0.85,0.683,1.279,1.025
					c0.752,0.83,1.358,1.781,1.792,2.813c0.438,1.027,0.67,2.13,0.683,3.246c-0.034,2.259-0.918,4.422-2.475,6.059
					c-0.405,0.366-0.833,0.707-1.279,1.021c-0.476,0.324-0.993,0.583-1.538,0.771c-0.485,0.245-1.003,0.418-1.538,0.513
					C145.237,221.852,144.667,221.909,144.095,221.924z"/>
				<path style="fill:#E91E63;" d="M212.362,221.924c-0.573-0.015-1.144-0.072-1.708-0.171c-0.535-0.095-1.053-0.268-1.538-0.512
					c-0.543-0.188-1.058-0.448-1.533-0.771c-0.448-0.312-0.876-0.653-1.279-1.021c-1.559-1.636-2.442-3.799-2.475-6.059
					c0.012-1.116,0.243-2.219,0.679-3.246c0.434-1.033,1.041-1.984,1.796-2.813c0.425-0.341,0.85-0.683,1.279-1.025
					c0.475-0.323,0.991-0.582,1.533-0.771c0.484-0.246,1.003-0.417,1.538-0.508c1.663-0.348,3.393-0.171,4.95,0.508
					c2.141,0.78,3.828,2.467,4.608,4.608c0.438,1.027,0.67,2.13,0.684,3.246c-0.034,2.259-0.918,4.422-2.475,6.059
					c-0.831,0.752-1.783,1.358-2.817,1.792C214.592,221.72,213.481,221.954,212.362,221.924z"/>
				<path style="fill:#E91E63;" d="M127.029,238.991c-2.259-0.033-4.422-0.917-6.059-2.475c-0.341-0.429-0.683-0.854-1.025-1.279
					c-0.324-0.476-0.583-0.993-0.771-1.538c-0.246-0.484-0.417-1.002-0.508-1.538c-0.1-0.563-0.157-1.133-0.171-1.704
					c0.012-1.116,0.243-2.219,0.679-3.246c0.434-1.033,1.041-1.984,1.796-2.813c0.425-0.341,0.85-0.683,1.279-1.025
					c0.475-0.323,0.991-0.582,1.533-0.771c0.484-0.246,1.003-0.417,1.538-0.508c2.809-0.531,5.702,0.327,7.767,2.304
					c0.752,0.83,1.358,1.781,1.792,2.813c0.438,1.027,0.67,2.13,0.683,3.246c-0.016,0.571-0.073,1.141-0.171,1.704
					c-0.095,0.535-0.268,1.053-0.512,1.538c-0.187,0.544-0.447,1.062-0.771,1.538c-0.337,0.425-0.679,0.85-1.021,1.279
					c-0.831,0.752-1.783,1.358-2.817,1.792C129.245,238.745,128.144,238.977,127.029,238.991z"/>
				<path style="fill:#E91E63;" d="M195.295,238.991c-1.116-0.013-2.219-0.245-3.246-0.683c-1.043-0.413-1.997-1.022-2.813-1.792
					c-0.341-0.429-0.683-0.854-1.025-1.279c-0.324-0.476-0.583-0.993-0.771-1.538c-0.246-0.484-0.417-1.002-0.508-1.538
					c-0.1-0.563-0.157-1.132-0.171-1.704c0.012-1.116,0.243-2.219,0.679-3.246c0.784-2.139,2.469-3.824,4.608-4.608
					c3.18-1.33,6.848-0.622,9.305,1.795c0.752,0.83,1.358,1.781,1.792,2.813c0.479,1.014,0.712,2.126,0.683,3.246
					c-0.016,0.571-0.073,1.141-0.171,1.704c-0.095,0.535-0.268,1.053-0.512,1.538c-0.187,0.544-0.447,1.062-0.771,1.538
					c-0.337,0.425-0.679,0.85-1.021,1.279c-0.817,0.77-1.773,1.378-2.817,1.792C197.512,238.745,196.41,238.977,195.295,238.991z"/>
				<path style="fill:#E91E63;" d="M229.429,238.991c-2.259-0.033-4.422-0.917-6.059-2.475c-0.367-0.405-0.709-0.833-1.025-1.279
					c-0.324-0.476-0.583-0.993-0.771-1.538c-0.246-0.484-0.417-1.002-0.508-1.538c-0.1-0.563-0.157-1.133-0.17-1.704
					c0.012-1.116,0.243-2.219,0.679-3.246c0.434-1.033,1.041-1.984,1.796-2.813c2.451-2.425,6.122-3.134,9.3-1.796
					c2.141,0.78,3.828,2.467,4.608,4.608c0.438,1.027,0.671,2.13,0.684,3.247c-0.016,0.571-0.073,1.141-0.171,1.704
					c-0.095,0.535-0.268,1.053-0.512,1.538c-0.187,0.544-0.447,1.062-0.771,1.538c-0.338,0.425-0.679,0.85-1.021,1.279
					c-0.831,0.752-1.783,1.358-2.817,1.792C231.645,238.745,230.544,238.977,229.429,238.991z"/>
				<path style="fill:#E91E63;" d="M144.095,256.058c-0.573-0.015-1.144-0.072-1.708-0.171c-0.535-0.095-1.053-0.268-1.538-0.513
					c-0.543-0.188-1.058-0.448-1.533-0.771c-0.429-0.337-0.854-0.679-1.279-1.021c-0.772-0.816-1.382-1.772-1.796-2.817
					c-0.436-1.026-0.667-2.127-0.679-3.242c0.031-2.259,0.915-4.423,2.475-6.059c2.472-2.385,6.118-3.089,9.3-1.796
					c1.045,0.414,2.001,1.024,2.817,1.796c1.558,1.636,2.441,3.8,2.475,6.059c-0.014,1.115-0.246,2.216-0.683,3.242
					c-0.777,2.143-2.465,3.831-4.608,4.608C146.325,255.852,145.215,256.087,144.095,256.058z"/>
				<path style="fill:#E91E63;" d="M161.162,273.124c-1.121,0.03-2.232-0.204-3.246-0.683c-1.032-0.434-1.983-1.04-2.813-1.792
					c-0.772-0.816-1.382-1.772-1.796-2.817c-0.436-1.026-0.667-2.127-0.679-3.241c0.013-0.573,0.07-1.144,0.171-1.708
					c0.091-0.535,0.263-1.053,0.508-1.538c0.188-0.543,0.448-1.058,0.771-1.533c0.341-0.429,0.683-0.854,1.025-1.279
					c3.397-3.221,8.72-3.221,12.117,0c1.558,1.636,2.442,3.799,2.475,6.058c-0.014,1.115-0.246,2.216-0.683,3.242
					c-0.414,1.044-1.022,1.999-1.792,2.817c-0.429,0.341-0.854,0.683-1.279,1.021c-0.476,0.324-0.993,0.583-1.538,0.771
					c-0.485,0.245-1.003,0.418-1.538,0.513C162.303,273.051,161.733,273.109,161.162,273.124z"/>
				<path style="fill:#E91E63;" d="M195.295,273.124c-0.573-0.015-1.144-0.072-1.708-0.171c-0.535-0.095-1.053-0.268-1.538-0.513
					c-0.543-0.188-1.058-0.448-1.533-0.771c-0.429-0.337-0.854-0.679-1.279-1.021c-0.772-0.816-1.382-1.772-1.796-2.817
					c-0.436-1.026-0.667-2.127-0.679-3.242c0.031-2.259,0.915-4.423,2.475-6.059c2.476-2.377,6.117-3.08,9.3-1.796
					c1.045,0.414,2.001,1.023,2.817,1.796c0.341,0.425,0.683,0.85,1.021,1.279c0.323,0.475,0.582,0.991,0.771,1.533
					c0.245,0.485,0.418,1.003,0.513,1.538c0.098,0.565,0.155,1.136,0.17,1.709c0.029,1.119-0.205,2.229-0.683,3.242
					c-0.777,2.143-2.465,3.831-4.608,4.608C197.525,272.919,196.415,273.153,195.295,273.124z"/>
				<path style="fill:#E91E63;" d="M178.229,290.191c-3.45-0.014-6.556-2.096-7.879-5.282c-1.323-3.187-0.606-6.856,1.82-9.31
					c0.425-0.341,0.85-0.683,1.279-1.025c0.475-0.323,0.991-0.582,1.533-0.771c0.484-0.246,1.003-0.417,1.538-0.508
					c1.663-0.348,3.393-0.171,4.95,0.508c1.045,0.414,2.001,1.023,2.817,1.796c2.072,1.994,2.981,4.909,2.41,7.727
					c-0.571,2.818-2.542,5.15-5.227,6.181C180.445,289.945,179.344,290.177,178.229,290.191z"/>
				<path style="fill:#E91E63;" d="M178.229,256.058c-2.259-0.033-4.422-0.917-6.059-2.475c-0.772-0.816-1.382-1.772-1.796-2.817
					c-0.436-1.026-0.667-2.127-0.679-3.242c0.031-2.259,0.915-4.423,2.475-6.059c0.814-0.773,1.769-1.383,2.813-1.796
					c2.079-0.85,4.408-0.85,6.487,0c1.045,0.414,2.001,1.024,2.817,1.796c1.558,1.636,2.441,3.8,2.475,6.059
					c0.029,1.119-0.205,2.229-0.683,3.242c-0.434,1.033-1.04,1.986-1.792,2.817C182.65,255.139,180.487,256.023,178.229,256.058z"/>
				<path style="fill:#E91E63;" d="M212.362,256.058c-1.121,0.03-2.232-0.205-3.246-0.683c-1.032-0.434-1.983-1.04-2.813-1.792
					c-0.772-0.816-1.382-1.772-1.796-2.817c-0.436-1.026-0.667-2.127-0.679-3.241c0.031-2.259,0.915-4.423,2.475-6.059
					c3.397-3.221,8.72-3.221,12.117,0c1.558,1.636,2.442,3.8,2.475,6.059c-0.014,1.115-0.246,2.216-0.683,3.242
					c-0.414,1.044-1.022,1.999-1.792,2.817c-0.429,0.341-0.854,0.683-1.279,1.021c-0.476,0.324-0.993,0.583-1.538,0.771
					c-0.485,0.245-1.003,0.418-1.538,0.513C213.503,255.985,212.933,256.042,212.362,256.058z"/>
				<path style="fill:#E91E63;" d="M314.762,238.991c-1.116-0.013-2.219-0.245-3.246-0.683c-1.032-0.434-1.983-1.04-2.813-1.792
					c-0.341-0.429-0.683-0.854-1.025-1.279c-0.324-0.476-0.583-0.993-0.771-1.538c-0.246-0.484-0.417-1.002-0.508-1.538
					c-0.1-0.563-0.157-1.132-0.171-1.704c0.012-1.116,0.243-2.219,0.679-3.246c0.434-1.033,1.041-1.984,1.796-2.813
					c2.07-1.966,4.955-2.823,7.763-2.304c0.535,0.091,1.053,0.263,1.538,0.508c0.544,0.187,1.062,0.447,1.538,0.771
					c0.425,0.341,0.85,0.683,1.279,1.025c0.752,0.83,1.358,1.781,1.792,2.813c0.479,1.014,0.713,2.125,0.683,3.246
					c-0.016,0.571-0.073,1.141-0.171,1.704c-0.095,0.535-0.268,1.053-0.512,1.538c-0.187,0.544-0.447,1.062-0.771,1.538
					c-0.314,0.447-0.655,0.874-1.021,1.279C319.184,238.073,317.021,238.957,314.762,238.991z"/>
				<path style="fill:#E91E63;" d="M297.695,221.924c-0.573-0.02-1.143-0.077-1.708-0.171c-0.535-0.095-1.053-0.268-1.538-0.512
					c-0.543-0.188-1.058-0.448-1.533-0.771c-0.448-0.312-0.876-0.653-1.279-1.021c-1.559-1.636-2.442-3.799-2.475-6.059
					c0.012-1.116,0.243-2.219,0.679-3.246c0.434-1.033,1.041-1.984,1.796-2.813c0.425-0.341,0.85-0.683,1.279-1.025
					c0.475-0.323,0.991-0.582,1.533-0.771c0.484-0.246,1.003-0.417,1.538-0.508c2.808-0.518,5.695,0.338,7.767,2.304
					c0.752,0.83,1.358,1.781,1.792,2.813c0.438,1.027,0.67,2.13,0.683,3.246c-0.016,0.571-0.073,1.141-0.171,1.704
					c-0.095,0.535-0.268,1.053-0.513,1.538c-0.187,0.544-0.447,1.062-0.771,1.538c-0.338,0.425-0.679,0.85-1.021,1.279
					C302.117,221.006,299.954,221.89,297.695,221.924z"/>
				<path style="fill:#E91E63;" d="M365.962,221.924c-1.121,0.03-2.232-0.204-3.246-0.683c-1.032-0.434-1.983-1.04-2.813-1.792
					c-0.341-0.429-0.683-0.854-1.025-1.279c-0.324-0.476-0.583-0.993-0.771-1.538c-0.246-0.484-0.417-1.002-0.508-1.538
					c-0.1-0.563-0.157-1.132-0.171-1.704c0.031-2.259,0.915-4.423,2.475-6.059c0.828-0.754,1.78-1.362,2.813-1.796
					c2.061-0.938,4.427-0.938,6.487,0c2.141,0.78,3.828,2.467,4.608,4.608c0.438,1.027,0.671,2.13,0.684,3.247
					c-0.016,0.571-0.073,1.141-0.171,1.704c-0.095,0.535-0.268,1.053-0.513,1.538c-0.187,0.544-0.447,1.062-0.771,1.538
					c-0.337,0.425-0.679,0.85-1.021,1.279c-0.831,0.752-1.783,1.358-2.817,1.792C368.192,221.72,367.081,221.953,365.962,221.924z"
					/>
				<path style="fill:#E91E63;" d="M280.629,238.991c-2.259-0.033-4.422-0.917-6.059-2.475c-0.367-0.405-0.709-0.833-1.025-1.279
					c-0.324-0.476-0.583-0.993-0.771-1.538c-0.246-0.484-0.417-1.002-0.508-1.538c-0.1-0.563-0.157-1.133-0.171-1.704
					c0.012-1.116,0.243-2.219,0.679-3.246c0.434-1.033,1.041-1.984,1.796-2.813c2.441-2.462,6.129-3.201,9.331-1.872
					c3.202,1.329,5.281,4.464,5.261,7.931c-0.016,0.571-0.073,1.141-0.171,1.704c-0.095,0.535-0.268,1.053-0.512,1.538
					c-0.187,0.544-0.447,1.062-0.771,1.538c-0.337,0.425-0.679,0.85-1.021,1.279C285.051,238.073,282.888,238.957,280.629,238.991z"
					/>
				<path style="fill:#E91E63;" d="M348.896,238.991c-2.259-0.033-4.422-0.917-6.059-2.475c-0.341-0.429-0.683-0.854-1.025-1.279
					c-0.324-0.476-0.583-0.993-0.771-1.538c-0.246-0.484-0.417-1.002-0.508-1.538c-0.1-0.563-0.157-1.133-0.171-1.704
					c0.012-1.116,0.243-2.219,0.679-3.246c0.434-1.033,1.041-1.984,1.796-2.813c0.425-0.341,0.85-0.683,1.279-1.025
					c0.475-0.323,0.991-0.582,1.533-0.771c0.484-0.246,1.003-0.417,1.538-0.508c1.663-0.348,3.393-0.171,4.95,0.508
					c1.034,0.434,1.987,1.041,2.817,1.796c1.558,1.636,2.441,3.8,2.475,6.059c-0.016,0.571-0.073,1.141-0.171,1.704
					c-0.095,0.535-0.268,1.053-0.512,1.538c-0.187,0.544-0.447,1.062-0.771,1.538c-0.337,0.425-0.679,0.85-1.021,1.279
					c-0.817,0.77-1.773,1.378-2.817,1.792C351.112,238.745,350.01,238.977,348.896,238.991z"/>
				<path style="fill:#E91E63;" d="M383.029,238.991c-1.116-0.013-2.219-0.245-3.246-0.683c-1.032-0.434-1.983-1.04-2.813-1.792
					c-0.367-0.405-0.709-0.833-1.025-1.279c-0.324-0.476-0.583-0.993-0.771-1.538c-0.246-0.484-0.417-1.002-0.508-1.538
					c-0.1-0.563-0.157-1.132-0.171-1.704c0.012-1.116,0.243-2.219,0.679-3.246c0.784-2.139,2.469-3.824,4.608-4.608
					c1.557-0.679,3.287-0.857,4.95-0.508c0.535,0.091,1.053,0.263,1.538,0.508c0.544,0.187,1.062,0.447,1.538,0.771
					c0.425,0.341,0.85,0.683,1.279,1.025c0.752,0.83,1.358,1.781,1.792,2.813c0.438,1.027,0.67,2.129,0.683,3.245
					c-0.016,0.571-0.073,1.141-0.171,1.704c-0.095,0.535-0.268,1.053-0.513,1.538c-0.187,0.544-0.447,1.062-0.771,1.538
					c-0.314,0.447-0.655,0.874-1.021,1.279C387.451,238.073,385.288,238.957,383.029,238.991z"/>
				<path style="fill:#E91E63;" d="M297.695,256.058c-2.259-0.033-4.422-0.917-6.059-2.475c-0.772-0.816-1.382-1.772-1.796-2.817
					c-0.436-1.026-0.667-2.127-0.679-3.242c0.031-2.259,0.915-4.423,2.475-6.059c0.814-0.773,1.769-1.383,2.813-1.796
					c2.079-0.85,4.408-0.85,6.487,0c1.045,0.414,2.001,1.024,2.817,1.796c1.558,1.636,2.441,3.8,2.475,6.059
					c0.029,1.119-0.205,2.229-0.683,3.242c-0.434,1.033-1.04,1.986-1.792,2.817C302.117,255.139,299.954,256.023,297.695,256.058z"
					/>
				<path style="fill:#E91E63;" d="M314.762,273.124c-0.573-0.015-1.144-0.072-1.708-0.171c-0.535-0.095-1.053-0.268-1.538-0.513
					c-0.543-0.188-1.058-0.448-1.533-0.771c-0.429-0.337-0.854-0.679-1.279-1.021c-0.772-0.816-1.382-1.772-1.796-2.817
					c-0.436-1.026-0.667-2.127-0.679-3.242c0.013-0.573,0.07-1.144,0.171-1.708c0.091-0.535,0.263-1.053,0.508-1.538
					c0.188-0.543,0.448-1.058,0.771-1.533c0.314-0.448,0.656-0.876,1.025-1.279c2.476-2.377,6.117-3.08,9.3-1.796
					c1.045,0.414,2.001,1.023,2.817,1.796c0.341,0.425,0.683,0.85,1.021,1.279c0.323,0.475,0.582,0.991,0.771,1.533
					c0.245,0.485,0.418,1.003,0.513,1.538c0.098,0.565,0.155,1.136,0.171,1.709c-0.014,1.115-0.246,2.216-0.683,3.242
					c-0.434,1.033-1.04,1.986-1.792,2.817C319.184,272.206,317.021,273.09,314.762,273.124z"/>
				<path style="fill:#E91E63;" d="M348.896,273.124c-2.259-0.033-4.422-0.917-6.059-2.475c-0.754-0.83-1.362-1.782-1.796-2.817
					c-0.436-1.026-0.667-2.127-0.679-3.242c0.013-0.573,0.07-1.144,0.171-1.708c0.091-0.535,0.263-1.053,0.508-1.538
					c0.188-0.543,0.448-1.058,0.771-1.533c0.341-0.429,0.683-0.854,1.025-1.279c3.397-3.221,8.72-3.221,12.117,0
					c0.368,0.404,0.709,0.831,1.021,1.279c0.323,0.475,0.582,0.991,0.771,1.533c0.245,0.485,0.418,1.003,0.513,1.538
					c0.098,0.565,0.156,1.136,0.171,1.708c-0.014,1.115-0.246,2.216-0.683,3.242c-0.414,1.044-1.022,1.999-1.792,2.817
					c-0.429,0.341-0.854,0.683-1.279,1.021c-0.476,0.324-0.993,0.583-1.538,0.771c-0.485,0.245-1.003,0.418-1.538,0.513
					C350.036,273.051,349.467,273.109,348.896,273.124z"/>
				<path style="fill:#E91E63;" d="M331.829,290.191c-2.259-0.033-4.422-0.917-6.059-2.475c-0.341-0.429-0.683-0.854-1.025-1.279
					c-0.324-0.476-0.583-0.993-0.771-1.538c-0.246-0.484-0.417-1.002-0.508-1.538c-0.228-1.126-0.228-2.286,0-3.412
					c0.091-0.535,0.263-1.053,0.508-1.538c0.188-0.543,0.448-1.058,0.771-1.533c0.341-0.429,0.683-0.854,1.025-1.279
					c2.471-2.387,6.118-3.091,9.3-1.796c1.045,0.414,2.001,1.023,2.817,1.795c0.341,0.425,0.683,0.85,1.021,1.279
					c0.323,0.475,0.582,0.991,0.771,1.533c0.245,0.485,0.418,1.003,0.512,1.538c0.228,1.126,0.228,2.286,0,3.412
					c-0.095,0.535-0.268,1.053-0.512,1.538c-0.187,0.544-0.447,1.062-0.771,1.538c-0.337,0.425-0.679,0.85-1.021,1.279
					c-0.817,0.77-1.773,1.378-2.817,1.792C334.045,289.945,332.944,290.177,331.829,290.191z"/>
				<path style="fill:#E91E63;" d="M331.829,256.058c-1.121,0.03-2.232-0.205-3.246-0.683c-1.032-0.434-1.983-1.04-2.813-1.792
					c-0.772-0.816-1.382-1.772-1.796-2.817c-0.436-1.026-0.667-2.127-0.679-3.241c0.031-2.259,0.915-4.423,2.475-6.059
					c3.397-3.221,8.72-3.221,12.117,0c1.558,1.636,2.442,3.8,2.475,6.059c-0.014,1.115-0.246,2.216-0.683,3.242
					c-0.414,1.044-1.022,1.999-1.792,2.817c-0.429,0.341-0.854,0.683-1.279,1.021c-0.476,0.324-0.993,0.583-1.538,0.771
					c-0.485,0.245-1.003,0.418-1.538,0.513C332.97,255.985,332.4,256.042,331.829,256.058z"/>
				<path style="fill:#E91E63;" d="M365.962,256.058c-2.27,0.022-4.453-0.87-6.058-2.475c-1.605-1.605-2.497-3.788-2.475-6.058
					c0.018-0.573,0.075-1.144,0.171-1.708c0.091-0.535,0.263-1.053,0.508-1.538c0.188-0.543,0.448-1.058,0.771-1.533
					c0.341-0.429,0.683-0.854,1.025-1.279c3.397-3.221,8.72-3.221,12.117,0c1.558,1.636,2.442,3.799,2.475,6.058
					c-0.014,1.115-0.246,2.216-0.683,3.242c-0.414,1.044-1.022,1.999-1.792,2.817c-0.429,0.341-0.854,0.683-1.279,1.021
					c-0.476,0.324-0.993,0.583-1.538,0.771c-0.485,0.245-1.003,0.418-1.538,0.513C367.103,255.985,366.533,256.042,365.962,256.058z
					"/>
				<path style="fill:#E91E63;" d="M169.695,409.658c-2.259-0.033-4.422-0.917-6.059-2.475c-0.341-0.429-0.683-0.854-1.025-1.279
					c-0.324-0.476-0.583-0.993-0.771-1.538c-0.246-0.484-0.417-1.002-0.508-1.538c-0.096-0.564-0.153-1.133-0.17-1.704
					c0-4.713,3.821-8.533,8.533-8.533c4.713,0,8.533,3.821,8.533,8.533c-0.02,0.571-0.077,1.14-0.171,1.704
					c-0.095,0.535-0.268,1.053-0.512,1.538c-0.187,0.544-0.447,1.062-0.771,1.538c-0.338,0.425-0.679,0.85-1.021,1.279
					C174.117,408.74,171.954,409.623,169.695,409.658z"/>
				<path style="fill:#E91E63;" d="M186.762,426.724c-4.024-0.039-7.462-2.911-8.218-6.863c-0.756-3.953,1.38-7.89,5.105-9.412
					c3.726-1.522,8.007-0.205,10.235,3.146c2.227,3.352,1.783,7.809-1.063,10.654C191.184,425.807,189.021,426.691,186.762,426.724z
					"/>
				<path style="fill:#E91E63;" d="M203.829,409.658c-2.259-0.033-4.422-0.917-6.059-2.475c-0.367-0.405-0.709-0.833-1.025-1.279
					c-0.324-0.476-0.583-0.993-0.771-1.538c-0.246-0.484-0.417-1.002-0.508-1.538c-0.096-0.564-0.153-1.133-0.171-1.704
					c0.031-2.259,0.915-4.423,2.475-6.059c2.048-2.003,4.953-2.866,7.763-2.304c0.535,0.091,1.053,0.263,1.538,0.508
					c0.544,0.187,1.062,0.447,1.538,0.771c0.447,0.316,0.874,0.658,1.28,1.025c1.558,1.636,2.441,3.8,2.475,6.059
					c-0.02,0.571-0.077,1.14-0.171,1.704c-0.095,0.535-0.268,1.053-0.512,1.538c-0.187,0.544-0.447,1.062-0.771,1.538
					c-0.338,0.425-0.679,0.85-1.021,1.279c-0.429,0.341-0.854,0.683-1.279,1.021c-0.476,0.324-0.993,0.583-1.538,0.771
					c-0.485,0.245-1.003,0.418-1.538,0.512C204.969,409.581,204.4,409.638,203.829,409.658z"/>
				<path style="fill:#E91E63;" d="M237.962,409.658c-2.259-0.033-4.422-0.917-6.059-2.475c-0.367-0.405-0.709-0.833-1.025-1.279
					c-0.324-0.476-0.583-0.993-0.771-1.538c-0.246-0.484-0.417-1.002-0.508-1.538c-0.096-0.564-0.153-1.133-0.17-1.704
					c0-4.713,3.82-8.533,8.533-8.533s8.533,3.821,8.533,8.533c-0.02,0.571-0.077,1.14-0.171,1.704
					c-0.095,0.535-0.268,1.053-0.513,1.538c-0.187,0.544-0.447,1.062-0.771,1.538c-0.314,0.447-0.655,0.874-1.021,1.279
					C242.384,408.74,240.221,409.623,237.962,409.658z"/>
				<path style="fill:#E91E63;" d="M272.095,409.658c-1.121,0.03-2.232-0.205-3.246-0.683c-1.043-0.413-1.997-1.022-2.813-1.792
					c-0.367-0.405-0.709-0.833-1.025-1.279c-0.324-0.476-0.583-0.993-0.771-1.538c-0.246-0.484-0.417-1.002-0.508-1.538
					c-0.096-0.563-0.153-1.133-0.171-1.704c0.031-2.259,0.915-4.423,2.475-6.059c0.814-0.773,1.769-1.383,2.813-1.796
					c3.18-1.33,6.848-0.622,9.305,1.796c1.558,1.636,2.441,3.8,2.475,6.059c-0.02,0.571-0.077,1.14-0.171,1.704
					c-0.095,0.535-0.268,1.053-0.513,1.538c-0.187,0.544-0.447,1.062-0.771,1.538c-0.314,0.447-0.655,0.874-1.021,1.279
					C276.517,408.74,274.354,409.623,272.095,409.658z"/>
				<path style="fill:#E91E63;" d="M306.229,409.658c-2.259-0.033-4.422-0.917-6.059-2.475c-0.341-0.429-0.683-0.854-1.025-1.279
					c-0.324-0.476-0.583-0.993-0.771-1.538c-0.246-0.484-0.417-1.002-0.508-1.538c-0.096-0.564-0.153-1.133-0.171-1.704
					c0-4.713,3.82-8.533,8.533-8.533s8.533,3.821,8.533,8.533c-0.02,0.571-0.077,1.14-0.171,1.704
					c-0.095,0.535-0.268,1.053-0.513,1.538c-0.187,0.544-0.447,1.062-0.771,1.538c-0.314,0.447-0.655,0.874-1.021,1.279
					C310.651,408.74,308.488,409.623,306.229,409.658z"/>
				<path style="fill:#E91E63;" d="M203.829,443.791c-2.27,0.022-4.453-0.87-6.058-2.475c-1.605-1.605-2.497-3.788-2.475-6.058
					c0.012-1.116,0.243-2.219,0.679-3.246c0.413-1.044,1.023-1.999,1.796-2.813c3.421-3.158,8.695-3.158,12.117,0
					c0.77,0.815,1.379,1.77,1.792,2.813c0.438,1.027,0.67,2.13,0.683,3.246c0.022,2.27-0.87,4.453-2.475,6.058
					C208.282,442.921,206.099,443.813,203.829,443.791z"/>
				<path style="fill:#E91E63;" d="M237.962,443.791c-2.27,0.022-4.453-0.87-6.058-2.475c-1.605-1.605-2.497-3.788-2.475-6.058
					c0.012-1.116,0.243-2.219,0.679-3.246c0.413-1.044,1.023-1.999,1.796-2.813c3.421-3.158,8.695-3.158,12.117,0
					c0.77,0.815,1.379,1.77,1.792,2.813c0.438,1.027,0.67,2.13,0.683,3.246c0.022,2.27-0.87,4.453-2.475,6.058
					C242.415,442.921,240.232,443.813,237.962,443.791z"/>
				<path style="fill:#E91E63;" d="M272.095,443.791c-3.873,0-7.263-2.603-8.263-6.345c-1-3.742,0.639-7.689,3.995-9.621
					c3.356-1.933,7.592-1.369,10.327,1.374c0.771,0.815,1.379,1.77,1.792,2.813c0.438,1.027,0.67,2.13,0.683,3.246
					c0.022,2.27-0.87,4.453-2.475,6.058C276.549,442.921,274.365,443.813,272.095,443.791z"/>
				<path style="fill:#E91E63;" d="M306.229,443.791c-3.873,0-7.263-2.603-8.263-6.345c-1-3.742,0.639-7.689,3.995-9.621
					c3.356-1.933,7.593-1.369,10.327,1.374c0.771,0.815,1.379,1.77,1.792,2.813c0.438,1.027,0.67,2.13,0.683,3.246
					c0.022,2.27-0.87,4.453-2.475,6.058C310.682,442.921,308.499,443.813,306.229,443.791z"/>
				<path style="fill:#E91E63;" d="M323.296,426.724c-4.024-0.039-7.462-2.911-8.218-6.863c-0.756-3.953,1.38-7.89,5.105-9.412
					c3.725-1.522,8.007-0.205,10.235,3.146c2.227,3.352,1.783,7.809-1.063,10.654C327.718,425.807,325.554,426.691,323.296,426.724z
					"/>
				<path style="fill:#E91E63;" d="M340.362,409.658c-0.573-0.02-1.143-0.077-1.708-0.171c-0.535-0.095-1.053-0.268-1.538-0.512
					c-0.543-0.188-1.058-0.448-1.533-0.771c-0.429-0.337-0.854-0.679-1.279-1.021c-0.341-0.429-0.683-0.854-1.025-1.279
					c-0.324-0.476-0.583-0.993-0.771-1.538c-0.246-0.484-0.417-1.002-0.508-1.538c-0.096-0.563-0.153-1.133-0.171-1.704
					c0.031-2.259,0.915-4.423,2.475-6.059c0.404-0.369,0.831-0.711,1.279-1.025c0.475-0.323,0.991-0.582,1.533-0.771
					c0.484-0.246,1.003-0.417,1.538-0.508c2.81-0.561,5.717,0.301,7.767,2.304c1.558,1.636,2.441,3.8,2.475,6.059
					c-0.02,0.571-0.077,1.14-0.171,1.704c-0.095,0.535-0.268,1.053-0.512,1.538c-0.187,0.544-0.447,1.062-0.771,1.538
					c-0.314,0.447-0.655,0.874-1.021,1.279C344.784,408.74,342.621,409.623,340.362,409.658z"/>
			</g>
			<path style="fill:#6A1B9A;" d="M237.962,25.658h34.133c9.426,0,17.067,7.641,17.067,17.067v34.133
				c0,9.426-7.641,17.067-17.067,17.067h-34.133c-9.426,0-17.067-7.641-17.067-17.067V42.724
				C220.895,33.299,228.536,25.658,237.962,25.658z"/>
		</g>
		<path style="fill:#9D27B0;" d="M263.562,42.724v34.133c0,9.387-4.8,17.067-10.667,17.067h-21.333
			c-5.867,0-10.667-7.68-10.667-17.067V42.724c0-9.387,4.8-17.067,10.667-17.067h21.333
			C258.762,25.658,263.562,33.338,263.562,42.724z"/>
	</g>
	<g>
		<path d="M53.634,493.351c0.325,0.284,0.671,0.543,1.035,0.775c16.2,12.277,35.967,18.925,56.293,18.932h290.133
			c20.326-0.007,40.093-6.655,56.293-18.932c0.364-0.232,0.711-0.491,1.035-0.775c23.019-17.717,36.516-45.112,36.538-74.16V299.724
			c0.062-58.631-21.535-115.219-60.646-158.899c4.635-8.45,7.775-17.639,9.279-27.159l8.371-41.996
			c0.337-1.183,8.096-29.208-7.592-50.013c-10.313-13.671-27.746-20.6-51.813-20.6c-34.889-0.911-69.204,9.013-98.221,28.405
			c-4.75-7.084-12.717-11.335-21.245-11.339h-34.133c-8.529,0.003-16.495,4.255-21.245,11.339
			C188.699,10.07,154.385,0.147,119.495,1.058c-24.067,0-41.5,6.929-51.813,20.6c-15.688,20.804-7.929,48.829-7.754,49.342
			l8.454,42.2c1.508,9.694,4.685,19.053,9.39,27.661c-39.145,43.648-60.758,100.234-60.678,158.864v119.467
			C17.117,448.239,30.614,475.633,53.634,493.351z M34.162,317.472c29.354,4.254,51.149,29.391,51.2,59.052V491.51
			c-6.021-2.113-11.754-4.971-17.067-8.506v-106.48c-0.022-18.842-15.291-34.112-34.133-34.133V317.472z M477.896,342.391
			c-18.842,0.022-34.112,15.291-34.133,34.133v106.48c-5.312,3.535-11.046,6.392-17.067,8.506V376.524
			c0.051-29.661,21.846-54.798,51.2-59.052V342.391z M477.896,419.191c0.008,17.538-6.018,34.544-17.067,48.164v-90.83
			c0.009-9.422,7.645-17.057,17.067-17.067V419.191z M430.691,31.862c10.592,13.946,4.917,34.933,4.704,35.788l-8.613,43.121
			c-1.037,7.096-6.15,26.65-17.167,31.871c-7.261,2.364-15.223,0.924-21.196-3.833c-28.344-17.822-55.592-37.33-81.596-58.42
			c25.87,4.485,64.565,13.967,79.704,29.103c3.339,3.293,8.709,3.275,12.025-0.041c3.316-3.316,3.334-8.687,0.041-12.025
			c-18.451-18.454-59.253-28.455-84.975-33.144c31.217-6.153,63.208-7.36,94.8-3.577c4.665,0.667,8.987-2.573,9.654-7.238
			c0.667-4.664-2.573-8.987-7.238-9.654c-37.451-4.46-75.392-2.405-112.142,6.075v-2.3c27.034-20.197,60.14-30.588,93.867-29.463
			C410.937,18.124,423.766,22.745,430.691,31.862z M238.962,35.191h34.133c4.71,0.006,8.527,3.823,8.533,8.533v34.133
			c-0.006,4.71-3.823,8.527-8.533,8.533h-34.133c-4.71-0.006-8.527-3.823-8.533-8.533V43.724
			C230.435,39.014,234.252,35.197,238.962,35.191z M81.308,31.937c6.917-9.167,19.763-13.812,38.188-13.812
			c33.727-1.125,66.832,9.266,93.867,29.463v2.299c-36.75-8.48-74.691-10.535-112.142-6.073c-4.665,0.667-7.905,4.99-7.238,9.654
			c0.667,4.665,4.99,7.905,9.654,7.238c31.584-3.782,63.567-2.574,94.776,3.581c-25.723,4.691-66.506,14.691-84.951,33.14
			c-2.18,2.15-3.041,5.304-2.255,8.264c0.786,2.96,3.097,5.271,6.057,6.057c2.96,0.786,6.113-0.075,8.264-2.255
			c15.116-15.116,53.816-24.604,79.696-29.096c-26.001,21.088-53.247,40.594-81.588,58.413c-5.973,4.757-13.935,6.197-21.196,3.833
			c-11.017-5.221-16.129-24.775-17.246-32.325L76.5,66.978C76.441,66.77,70.854,45.799,81.308,31.937z M88.833,154.077
			c1.928,1.551,4.025,2.881,6.25,3.964c4.185,2.003,8.768,3.037,13.408,3.025c8.521-0.323,16.793-2.959,23.929-7.625
			c29.685-18.636,58.195-39.082,85.367-61.222c4.758,7.026,12.69,11.236,21.175,11.239h34.133
			c8.485-0.003,16.417-4.213,21.175-11.239c27.172,22.14,55.681,42.587,85.367,61.222c7.136,4.667,15.408,7.303,23.929,7.625
			c4.64,0.012,9.223-1.022,13.408-3.025c2.24-1.09,4.351-2.43,6.29-3.994c35.279,40.324,54.696,92.099,54.631,145.677v0.503
			c-38.84,4.385-68.21,37.21-68.267,76.297v118.963c-2.833,0.326-5.682,0.494-8.533,0.503H110.962
			c-2.852-0.01-5.7-0.178-8.533-0.503V376.524c-0.056-39.087-29.427-71.912-68.267-76.297v-0.503
			C34.078,246.144,53.513,194.367,88.833,154.077L88.833,154.077z M34.162,359.458c9.422,0.009,17.057,7.645,17.067,17.067v90.83
			c-11.048-13.62-17.075-30.626-17.067-48.164L34.162,359.458z"/>
		<path d="M349.896,359.458H162.162c-18.842,0.022-34.112,15.291-34.133,34.133v51.2c0.022,18.842,15.291,34.112,34.133,34.133
			h187.733c18.842-0.022,34.112-15.291,34.133-34.133v-51.2C384.007,374.749,368.738,359.479,349.896,359.458z M366.962,444.791
			c-0.009,9.422-7.645,17.057-17.067,17.067H162.162c-9.422-0.009-17.057-7.645-17.067-17.067v-51.2
			c0.009-9.422,7.645-17.057,17.067-17.067h187.733c9.422,0.009,17.057,7.645,17.067,17.067V444.791z"/>
		<path d="M119.495,333.858h273.067c18.842-0.022,34.112-15.291,34.133-34.133v-93.867c-0.022-18.842-15.291-34.112-34.133-34.133
			H119.495c-18.842,0.022-34.112,15.291-34.133,34.133v93.867C85.384,318.567,100.653,333.836,119.495,333.858z M102.429,205.858
			c0.009-9.422,7.645-17.057,17.067-17.067h273.067c9.422,0.009,17.057,7.645,17.067,17.067v93.867
			c-0.009,9.422-7.645,17.057-17.067,17.067H119.495c-9.422-0.009-17.057-7.645-17.067-17.067V205.858z"/>
		<path d="M156.104,237.516c0.83,0.752,1.781,1.358,2.813,1.792c1.027,0.438,2.13,0.67,3.246,0.683
			c2.259-0.034,4.422-0.918,6.059-2.475c0.366-0.405,0.707-0.833,1.021-1.279c0.324-0.476,0.583-0.993,0.771-1.538
			c0.245-0.485,0.418-1.003,0.513-1.538c0.098-0.563,0.155-1.133,0.171-1.704c-0.013-1.116-0.245-2.219-0.683-3.246
			c-0.434-1.032-1.04-1.983-1.792-2.813c-0.429-0.341-0.854-0.683-1.279-1.025c-0.476-0.324-0.993-0.583-1.538-0.771
			c-0.484-0.246-1.002-0.417-1.538-0.508c-1.663-0.348-3.393-0.171-4.95,0.508c-2.139,0.784-3.824,2.469-4.608,4.608
			c-0.437,1.027-0.667,2.13-0.679,3.246C153.645,233.72,154.531,235.89,156.104,237.516z"/>
		<path d="M145.095,222.924c0.571-0.016,1.141-0.073,1.704-0.171c0.535-0.095,1.053-0.268,1.538-0.512
			c0.544-0.187,1.062-0.447,1.538-0.771c0.447-0.314,0.874-0.655,1.279-1.021c1.557-1.637,2.44-3.8,2.475-6.059
			c-0.013-1.116-0.245-2.219-0.683-3.246c-0.434-1.032-1.04-1.983-1.792-2.813c-0.429-0.341-0.854-0.683-1.279-1.025
			c-0.476-0.324-0.993-0.583-1.538-0.771c-0.484-0.246-1.002-0.417-1.538-0.508c-2.81-0.574-5.721,0.29-7.763,2.304
			c-0.754,0.828-1.362,1.78-1.796,2.813c-0.436,1.027-0.667,2.13-0.679,3.246c-0.022,2.27,0.87,4.453,2.475,6.058
			S142.826,222.946,145.095,222.924z"/>
		<path d="M208.583,221.47c0.475,0.323,0.991,0.582,1.533,0.771c0.485,0.245,1.003,0.418,1.538,0.513
			c0.565,0.098,1.135,0.155,1.708,0.171c1.119,0.029,2.229-0.205,3.242-0.683c1.033-0.434,1.986-1.04,2.817-1.792
			c1.557-1.637,2.441-3.799,2.475-6.058c-0.013-1.116-0.245-2.219-0.683-3.246c-0.78-2.141-2.467-3.828-4.608-4.608
			c-1.557-0.679-3.287-0.857-4.95-0.509c-0.535,0.091-1.053,0.263-1.538,0.508c-0.543,0.188-1.058,0.448-1.533,0.771
			c-0.429,0.341-0.854,0.683-1.279,1.025c-0.754,0.828-1.362,1.78-1.796,2.813c-0.437,1.027-0.667,2.13-0.679,3.246
			c0.032,2.259,0.916,4.423,2.475,6.059C207.707,220.817,208.135,221.158,208.583,221.47z"/>
		<path d="M120.175,234.699c0.187,0.544,0.447,1.062,0.771,1.538c0.341,0.425,0.683,0.85,1.025,1.279
			c1.636,1.558,3.799,2.441,6.058,2.475c1.115-0.014,2.216-0.246,3.242-0.683c1.033-0.434,1.986-1.04,2.817-1.792
			c0.341-0.429,0.683-0.854,1.021-1.279c0.324-0.476,0.583-0.993,0.771-1.538c0.245-0.485,0.418-1.003,0.513-1.538
			c0.098-0.563,0.155-1.132,0.171-1.704c-0.013-1.116-0.245-2.219-0.683-3.246c-0.434-1.032-1.04-1.983-1.792-2.813
			c-2.065-1.977-4.958-2.835-7.767-2.304c-0.535,0.091-1.053,0.263-1.538,0.508c-0.543,0.188-1.058,0.448-1.533,0.771
			c-0.429,0.341-0.854,0.683-1.279,1.025c-0.754,0.828-1.362,1.78-1.796,2.813c-0.436,1.027-0.667,2.13-0.679,3.246
			c0.013,0.572,0.071,1.141,0.171,1.704C119.758,233.697,119.929,234.215,120.175,234.699z"/>
		<path d="M188.441,234.699c0.187,0.544,0.447,1.062,0.771,1.538c0.341,0.425,0.683,0.85,1.025,1.279
			c0.815,0.77,1.77,1.379,2.813,1.792c2.067,0.911,4.421,0.911,6.487,0c1.044-0.414,1.999-1.022,2.817-1.792
			c0.341-0.429,0.683-0.854,1.021-1.279c0.324-0.476,0.583-0.993,0.771-1.538c0.245-0.485,0.418-1.003,0.513-1.538
			c0.098-0.563,0.155-1.133,0.171-1.704c0.03-1.121-0.205-2.232-0.683-3.246c-0.434-1.032-1.04-1.983-1.792-2.813
			c-2.457-2.417-6.124-3.125-9.304-1.796c-2.139,0.784-3.824,2.469-4.608,4.608c-0.437,1.027-0.667,2.13-0.679,3.246
			c0.013,0.572,0.071,1.141,0.171,1.704C188.024,233.697,188.196,234.215,188.441,234.699z"/>
		<path d="M222.066,233.162c0.091,0.535,0.263,1.053,0.508,1.538c0.187,0.544,0.447,1.062,0.771,1.538
			c0.316,0.447,0.658,0.874,1.025,1.279c1.636,1.558,3.8,2.441,6.059,2.475c1.115-0.014,2.216-0.246,3.242-0.683
			c1.033-0.434,1.986-1.04,2.817-1.792c0.341-0.429,0.683-0.854,1.021-1.279c0.324-0.476,0.583-0.993,0.771-1.538
			c0.245-0.485,0.418-1.003,0.513-1.538c0.098-0.563,0.155-1.132,0.171-1.704c-0.013-1.116-0.245-2.219-0.683-3.246
			c-0.78-2.141-2.467-3.828-4.608-4.608c-3.178-1.338-6.849-0.63-9.301,1.795c-0.754,0.828-1.362,1.78-1.796,2.813
			c-0.436,1.027-0.667,2.13-0.679,3.246C221.909,232.029,221.966,232.599,222.066,233.162z"/>
		<path d="M151.154,242.466c-0.816-0.772-1.772-1.382-2.817-1.796c-3.183-1.294-6.828-0.59-9.301,1.796
			c-1.559,1.635-2.443,3.799-2.475,6.059c0.012,1.115,0.243,2.216,0.679,3.242c0.414,1.045,1.023,2.001,1.796,2.817
			c0.425,0.341,0.85,0.683,1.279,1.021c0.475,0.323,0.991,0.582,1.533,0.771c0.485,0.245,1.003,0.418,1.538,0.513
			c0.565,0.098,1.136,0.155,1.709,0.171c1.119,0.029,2.229-0.205,3.242-0.683c2.143-0.777,3.831-2.465,4.608-4.608
			c0.438-1.026,0.67-2.127,0.684-3.242C153.595,246.265,152.712,244.102,151.154,242.466z"/>
		<path d="M168.221,259.532c-3.397-3.221-8.72-3.221-12.117,0c-0.341,0.425-0.683,0.85-1.025,1.279
			c-0.323,0.475-0.582,0.991-0.771,1.533c-0.246,0.484-0.417,1.002-0.508,1.538c-0.101,0.564-0.158,1.136-0.171,1.709
			c0.012,1.115,0.243,2.216,0.679,3.242c0.414,1.045,1.023,2.001,1.796,2.817c0.83,0.752,1.781,1.358,2.813,1.792
			c1.014,0.479,2.126,0.712,3.246,0.683c0.571-0.016,1.141-0.073,1.704-0.171c0.535-0.095,1.053-0.268,1.538-0.513
			c0.544-0.187,1.062-0.447,1.538-0.771c0.425-0.338,0.85-0.679,1.279-1.021c0.77-0.817,1.378-1.773,1.792-2.817
			c0.437-1.026,0.669-2.127,0.683-3.242C170.662,263.332,169.778,261.169,168.221,259.532z"/>
		<path d="M204.145,262.345c-0.188-0.543-0.448-1.058-0.771-1.533c-0.338-0.429-0.679-0.854-1.021-1.279
			c-0.816-0.772-1.772-1.382-2.817-1.796c-3.183-1.285-6.824-0.582-9.3,1.796c-1.559,1.635-2.443,3.799-2.475,6.059
			c0.012,1.115,0.243,2.216,0.679,3.242c0.414,1.045,1.023,2.001,1.796,2.817c0.425,0.341,0.85,0.683,1.279,1.021
			c0.475,0.323,0.991,0.582,1.533,0.771c0.485,0.245,1.003,0.418,1.538,0.512c0.565,0.098,1.136,0.155,1.709,0.171
			c1.119,0.029,2.229-0.205,3.242-0.683c2.143-0.777,3.831-2.465,4.608-4.608c0.479-1.012,0.713-2.123,0.684-3.242
			c-0.015-0.573-0.072-1.144-0.171-1.708C204.563,263.348,204.39,262.83,204.145,262.345z"/>
		<path d="M182.47,274.803c-1.557-0.679-3.287-0.857-4.95-0.508c-0.535,0.091-1.053,0.263-1.538,0.508
			c-0.543,0.188-1.058,0.448-1.533,0.771c-0.429,0.341-0.854,0.683-1.279,1.025c-2.461,2.441-3.201,6.129-1.872,9.331
			c1.329,3.202,4.464,5.281,7.93,5.261c1.115-0.014,2.216-0.246,3.242-0.683c1.044-0.414,1.999-1.022,2.817-1.792
			c3.3-3.365,3.3-8.752,0-12.117C184.471,275.827,183.515,275.217,182.47,274.803z"/>
		<path d="M171.375,251.766c0.414,1.045,1.023,2.001,1.796,2.817c3.365,3.3,8.752,3.3,12.117,0c0.752-0.831,1.358-1.783,1.792-2.817
			c0.478-1.012,0.713-2.123,0.683-3.242c-0.033-2.259-0.917-4.422-2.475-6.059c-0.816-0.772-1.772-1.382-2.817-1.796
			c-2.079-0.85-4.408-0.85-6.487,0c-1.044,0.413-1.999,1.023-2.813,1.796c-1.559,1.635-2.443,3.799-2.475,6.059
			C170.708,249.639,170.939,250.74,171.375,251.766z"/>
		<path d="M210.116,240.67c-1.044,0.413-1.999,1.023-2.813,1.796c-1.559,1.635-2.443,3.799-2.475,6.059
			c0.012,1.115,0.243,2.216,0.679,3.242c0.414,1.045,1.023,2.001,1.796,2.817c0.83,0.752,1.781,1.358,2.813,1.792
			c1.014,0.479,2.126,0.712,3.246,0.683c0.571-0.016,1.141-0.073,1.704-0.171c0.535-0.095,1.053-0.268,1.538-0.512
			c0.544-0.187,1.062-0.447,1.538-0.771c0.425-0.337,0.85-0.679,1.279-1.021c0.77-0.817,1.378-1.773,1.792-2.817
			c0.437-1.026,0.669-2.127,0.683-3.242c-0.033-2.259-0.917-4.422-2.475-6.059C216.943,240.088,213.301,239.385,210.116,240.67z"/>
		<path d="M307.4,233.162c0.091,0.535,0.263,1.053,0.508,1.538c0.187,0.544,0.447,1.062,0.771,1.538
			c0.341,0.425,0.683,0.85,1.025,1.279c0.83,0.752,1.781,1.358,2.813,1.792c1.027,0.438,2.13,0.67,3.246,0.683
			c2.259-0.034,4.422-0.918,6.059-2.475c0.366-0.405,0.707-0.833,1.021-1.279c0.324-0.476,0.583-0.993,0.771-1.538
			c0.245-0.485,0.418-1.003,0.513-1.538c0.098-0.563,0.155-1.133,0.171-1.704c0.03-1.121-0.205-2.232-0.683-3.246
			c-0.434-1.032-1.04-1.983-1.792-2.813c-0.429-0.341-0.854-0.683-1.279-1.025c-0.476-0.324-0.993-0.583-1.538-0.771
			c-0.484-0.246-1.002-0.417-1.538-0.508c-2.807-0.519-5.693,0.338-7.763,2.304c-0.754,0.828-1.362,1.78-1.796,2.813
			c-0.436,1.027-0.667,2.13-0.679,3.246C307.242,232.029,307.299,232.599,307.4,233.162z"/>
		<path d="M293.916,221.47c0.475,0.323,0.991,0.582,1.533,0.771c0.485,0.245,1.003,0.418,1.538,0.513
			c0.565,0.094,1.136,0.151,1.708,0.171c2.259-0.034,4.422-0.918,6.059-2.475c0.341-0.429,0.683-0.854,1.021-1.279
			c0.324-0.476,0.583-0.993,0.771-1.538c0.245-0.485,0.418-1.003,0.512-1.538c0.098-0.563,0.155-1.133,0.171-1.704
			c-0.013-1.116-0.245-2.219-0.683-3.246c-0.434-1.032-1.04-1.983-1.792-2.813c-2.072-1.966-4.958-2.822-7.767-2.304
			c-0.535,0.091-1.053,0.263-1.538,0.508c-0.543,0.188-1.058,0.448-1.533,0.771c-0.429,0.341-0.854,0.683-1.279,1.025
			c-0.754,0.828-1.362,1.78-1.796,2.813c-0.436,1.027-0.667,2.13-0.679,3.246c0.032,2.259,0.916,4.423,2.475,6.059
			C293.041,220.817,293.468,221.158,293.916,221.47z"/>
		<path d="M359.108,217.633c0.187,0.544,0.447,1.062,0.771,1.538c0.341,0.425,0.683,0.85,1.025,1.279
			c0.83,0.752,1.781,1.358,2.813,1.792c2.067,0.911,4.421,0.911,6.487,0c1.033-0.434,1.986-1.04,2.817-1.792
			c0.341-0.429,0.683-0.854,1.021-1.279c0.324-0.476,0.583-0.993,0.771-1.538c0.245-0.485,0.418-1.003,0.513-1.538
			c0.098-0.563,0.155-1.133,0.171-1.704c-0.013-1.116-0.245-2.219-0.683-3.246c-0.78-2.141-2.467-3.828-4.608-4.608
			c-2.061-0.938-4.427-0.938-6.487,0c-1.033,0.434-1.985,1.041-2.813,1.795c-1.559,1.635-2.443,3.799-2.475,6.059
			c0.013,0.572,0.071,1.141,0.171,1.704C358.691,216.63,358.862,217.148,359.108,217.633z"/>
		<path d="M273.775,234.699c0.187,0.544,0.447,1.062,0.771,1.538c0.316,0.447,0.658,0.874,1.025,1.279c3.365,3.3,8.752,3.3,12.117,0
			c0.341-0.429,0.683-0.854,1.021-1.279c0.324-0.476,0.583-0.993,0.771-1.538c0.245-0.485,0.418-1.003,0.513-1.538
			c0.098-0.563,0.155-1.133,0.171-1.704c0.02-3.467-2.059-6.601-5.261-7.931c-3.202-1.329-6.89-0.59-9.331,1.872
			c-0.754,0.828-1.362,1.78-1.796,2.813c-0.436,1.027-0.667,2.13-0.679,3.246c0.013,0.572,0.071,1.141,0.171,1.704
			C273.358,233.697,273.529,234.215,273.775,234.699z"/>
		<path d="M342.041,234.699c0.187,0.544,0.447,1.062,0.771,1.538c0.341,0.425,0.683,0.85,1.025,1.279
			c1.636,1.558,3.799,2.441,6.058,2.475c1.115-0.014,2.216-0.246,3.242-0.683c1.044-0.414,1.999-1.022,2.817-1.792
			c0.341-0.429,0.683-0.854,1.021-1.279c0.324-0.476,0.583-0.993,0.771-1.538c0.245-0.485,0.418-1.003,0.512-1.538
			c0.098-0.563,0.155-1.132,0.171-1.704c-0.033-2.259-0.917-4.422-2.475-6.059c-0.83-0.754-1.783-1.362-2.817-1.796
			c-1.557-0.679-3.287-0.857-4.95-0.508c-0.535,0.091-1.053,0.263-1.538,0.508c-0.543,0.188-1.058,0.448-1.533,0.771
			c-0.429,0.341-0.854,0.683-1.279,1.025c-0.754,0.828-1.362,1.78-1.796,2.813c-0.437,1.027-0.667,2.13-0.679,3.246
			c0.013,0.572,0.071,1.141,0.171,1.704C341.624,233.697,341.796,234.215,342.041,234.699z"/>
		<path d="M375.666,233.162c0.091,0.535,0.263,1.053,0.508,1.538c0.187,0.544,0.447,1.062,0.771,1.538
			c0.316,0.447,0.658,0.874,1.025,1.279c0.83,0.752,1.781,1.358,2.813,1.792c1.027,0.438,2.13,0.67,3.246,0.683
			c2.259-0.034,4.422-0.918,6.059-2.475c0.366-0.405,0.707-0.833,1.021-1.279c0.324-0.476,0.583-0.993,0.771-1.538
			c0.245-0.485,0.418-1.003,0.513-1.538c0.098-0.563,0.155-1.133,0.171-1.704c-0.013-1.116-0.245-2.219-0.683-3.246
			c-0.434-1.032-1.04-1.983-1.792-2.813c-0.429-0.341-0.854-0.683-1.279-1.025c-0.476-0.324-0.993-0.583-1.538-0.771
			c-0.484-0.246-1.002-0.417-1.538-0.508c-1.663-0.348-3.393-0.171-4.95,0.508c-2.139,0.784-3.824,2.469-4.608,4.608
			c-0.437,1.027-0.667,2.13-0.679,3.246C375.509,232.029,375.566,232.599,375.666,233.162z"/>
		<path d="M304.754,242.466c-0.816-0.772-1.772-1.382-2.817-1.796c-2.079-0.85-4.409-0.85-6.487,0
			c-1.044,0.413-1.999,1.023-2.813,1.796c-1.559,1.635-2.443,3.799-2.475,6.059c0.012,1.115,0.243,2.216,0.679,3.242
			c0.414,1.045,1.023,2.001,1.796,2.817c3.365,3.3,8.752,3.3,12.117,0c0.752-0.831,1.358-1.783,1.792-2.817
			c0.478-1.012,0.712-2.123,0.683-3.242C307.195,246.265,306.312,244.102,304.754,242.466z"/>
		<path d="M324.125,263.883c-0.095-0.535-0.268-1.053-0.512-1.538c-0.188-0.543-0.448-1.058-0.771-1.533
			c-0.337-0.429-0.679-0.854-1.021-1.279c-0.816-0.772-1.772-1.382-2.817-1.796c-3.183-1.285-6.824-0.582-9.301,1.796
			c-0.369,0.404-0.711,0.831-1.025,1.279c-0.323,0.475-0.582,0.991-0.771,1.533c-0.246,0.484-0.417,1.002-0.508,1.538
			c-0.1,0.564-0.157,1.136-0.171,1.709c0.012,1.115,0.243,2.216,0.679,3.242c0.414,1.045,1.023,2.001,1.796,2.817
			c0.425,0.341,0.85,0.683,1.279,1.021c0.475,0.323,0.991,0.582,1.533,0.771c0.485,0.245,1.003,0.418,1.538,0.512
			c0.565,0.098,1.136,0.155,1.709,0.171c2.259-0.034,4.422-0.918,6.059-2.475c0.752-0.831,1.358-1.783,1.792-2.817
			c0.437-1.026,0.669-2.127,0.683-3.242C324.28,265.018,324.223,264.447,324.125,263.883z"/>
		<path d="M357.746,262.345c-0.188-0.543-0.448-1.058-0.771-1.533c-0.312-0.448-0.653-0.876-1.021-1.279
			c-3.397-3.221-8.72-3.221-12.117,0c-0.341,0.425-0.683,0.85-1.025,1.279c-0.323,0.475-0.582,0.991-0.771,1.533
			c-0.246,0.484-0.417,1.002-0.508,1.538c-0.101,0.564-0.158,1.136-0.171,1.709c0.012,1.115,0.243,2.216,0.679,3.242
			c0.434,1.034,1.041,1.987,1.796,2.817c1.636,1.558,3.8,2.441,6.059,2.475c0.571-0.016,1.141-0.073,1.704-0.171
			c0.535-0.095,1.053-0.268,1.538-0.513c0.544-0.187,1.062-0.447,1.538-0.771c0.425-0.338,0.85-0.679,1.279-1.021
			c0.77-0.817,1.378-1.773,1.792-2.817c0.437-1.026,0.669-2.127,0.683-3.242c-0.015-0.573-0.072-1.144-0.171-1.708
			C358.163,263.348,357.991,262.83,357.746,262.345z"/>
		<path d="M340.679,279.412c-0.188-0.543-0.448-1.058-0.771-1.533c-0.337-0.429-0.679-0.854-1.021-1.279
			c-0.816-0.772-1.772-1.382-2.817-1.796c-3.182-1.296-6.829-0.592-9.3,1.796c-0.341,0.425-0.683,0.85-1.025,1.279
			c-0.323,0.475-0.582,0.991-0.771,1.533c-0.246,0.484-0.417,1.002-0.508,1.538c-0.228,1.126-0.228,2.286,0,3.412
			c0.091,0.535,0.263,1.053,0.508,1.538c0.187,0.544,0.447,1.062,0.771,1.538c0.341,0.425,0.683,0.85,1.025,1.279
			c1.636,1.558,3.8,2.442,6.059,2.475c1.115-0.014,2.216-0.246,3.242-0.683c1.044-0.414,1.999-1.022,2.817-1.792
			c0.341-0.429,0.683-0.854,1.021-1.279c0.324-0.476,0.583-0.993,0.771-1.538c0.245-0.485,0.418-1.003,0.513-1.538
			c0.228-1.126,0.228-2.286,0-3.413C341.096,280.414,340.924,279.896,340.679,279.412z"/>
		<path d="M324.975,251.766c0.414,1.045,1.023,2.001,1.796,2.817c0.83,0.752,1.781,1.358,2.813,1.792
			c1.014,0.479,2.126,0.712,3.246,0.683c0.571-0.016,1.141-0.073,1.704-0.171c0.535-0.095,1.053-0.268,1.538-0.512
			c0.544-0.187,1.062-0.447,1.538-0.771c0.425-0.337,0.85-0.679,1.279-1.021c0.77-0.817,1.378-1.773,1.792-2.817
			c0.437-1.026,0.669-2.127,0.683-3.242c-0.033-2.259-0.917-4.422-2.475-6.059c-3.397-3.221-8.72-3.221-12.117,0
			c-1.56,1.635-2.444,3.799-2.475,6.059C324.308,249.639,324.539,250.74,324.975,251.766z"/>
		<path d="M363.716,240.67c-1.044,0.413-1.999,1.023-2.813,1.796c-0.341,0.425-0.683,0.85-1.025,1.279
			c-0.323,0.475-0.582,0.991-0.771,1.533c-0.246,0.484-0.417,1.002-0.508,1.538c-0.096,0.565-0.153,1.136-0.171,1.709
			c-0.022,2.27,0.87,4.453,2.475,6.058c1.605,1.605,3.788,2.497,6.058,2.475c0.571-0.016,1.141-0.073,1.704-0.171
			c0.535-0.095,1.053-0.268,1.538-0.512c0.544-0.187,1.062-0.447,1.538-0.771c0.425-0.337,0.85-0.679,1.279-1.021
			c0.77-0.817,1.378-1.773,1.792-2.817c0.437-1.026,0.669-2.127,0.683-3.242c-0.033-2.259-0.917-4.422-2.475-6.059
			C370.527,240.119,366.904,239.419,363.716,240.67z"/>
		<path d="M176.754,396.066c-2.441-2.462-6.129-3.201-9.331-1.872c-3.202,1.329-5.281,4.464-5.261,7.931
			c0.018,0.571,0.075,1.141,0.171,1.704c0.091,0.535,0.263,1.053,0.508,1.538c0.187,0.544,0.447,1.062,0.771,1.538
			c0.341,0.425,0.683,0.85,1.025,1.279c3.365,3.3,8.752,3.3,12.117,0c0.341-0.429,0.683-0.854,1.021-1.279
			c0.324-0.476,0.583-0.993,0.771-1.538c0.245-0.485,0.418-1.003,0.512-1.538c0.094-0.564,0.151-1.133,0.171-1.704
			C179.195,399.865,178.312,397.702,176.754,396.066z"/>
		<path d="M193.821,413.132c-2.896-2.953-7.476-3.444-10.932-1.171c-3.455,2.272-4.82,6.672-3.256,10.501
			c1.564,3.829,5.618,6.015,9.677,5.219c4.058-0.797,6.985-4.354,6.986-8.49C196.267,416.931,195.383,414.766,193.821,413.132z"/>
		<path d="M209.608,395.041c-0.476-0.324-0.993-0.583-1.538-0.771c-0.484-0.246-1.002-0.417-1.538-0.508
			c-2.809-0.562-5.715,0.301-7.763,2.304c-1.559,1.635-2.443,3.799-2.475,6.059c0.018,0.571,0.075,1.141,0.171,1.704
			c0.091,0.535,0.263,1.053,0.508,1.538c0.187,0.544,0.447,1.062,0.771,1.538c0.316,0.447,0.658,0.874,1.025,1.279
			c1.636,1.558,3.8,2.441,6.059,2.475c0.571-0.02,1.14-0.077,1.704-0.171c0.535-0.095,1.053-0.268,1.538-0.512
			c0.544-0.187,1.062-0.447,1.538-0.771c0.425-0.337,0.85-0.679,1.279-1.021c0.341-0.429,0.683-0.854,1.021-1.279
			c0.324-0.476,0.583-0.993,0.771-1.538c0.245-0.485,0.418-1.003,0.513-1.538c0.094-0.564,0.151-1.133,0.171-1.704
			c-0.033-2.259-0.917-4.422-2.475-6.059C210.482,395.699,210.055,395.356,209.608,395.041z"/>
		<path d="M232.904,396.066c-1.559,1.635-2.443,3.799-2.475,6.059c0.018,0.571,0.075,1.141,0.171,1.704
			c0.091,0.535,0.263,1.053,0.508,1.538c0.187,0.544,0.447,1.062,0.771,1.538c0.316,0.447,0.658,0.874,1.025,1.279
			c3.365,3.3,8.752,3.3,12.117,0c0.366-0.405,0.707-0.833,1.021-1.279c0.324-0.476,0.583-0.993,0.771-1.538
			c0.245-0.485,0.418-1.003,0.513-1.538c0.094-0.564,0.151-1.133,0.171-1.704c0.02-3.467-2.059-6.601-5.261-7.931
			C239.033,392.864,235.345,393.604,232.904,396.066z"/>
		<path d="M269.85,394.27c-1.044,0.413-1.999,1.023-2.813,1.796c-1.559,1.635-2.443,3.799-2.475,6.059
			c0.018,0.571,0.075,1.141,0.171,1.704c0.091,0.535,0.263,1.053,0.508,1.538c0.187,0.544,0.447,1.062,0.771,1.538
			c0.316,0.447,0.658,0.874,1.025,1.279c0.815,0.771,1.77,1.379,2.813,1.792c1.014,0.479,2.126,0.712,3.246,0.683
			c2.259-0.034,4.422-0.918,6.059-2.475c0.366-0.405,0.707-0.833,1.021-1.279c0.324-0.476,0.583-0.993,0.771-1.538
			c0.245-0.485,0.418-1.003,0.513-1.538c0.094-0.564,0.151-1.133,0.17-1.704c-0.033-2.259-0.917-4.422-2.475-6.059
			C276.697,393.648,273.03,392.941,269.85,394.27z"/>
		<path d="M299.375,405.366c0.187,0.545,0.447,1.062,0.771,1.538c0.341,0.425,0.683,0.85,1.025,1.279c3.365,3.3,8.752,3.3,12.117,0
			c0.366-0.405,0.707-0.833,1.021-1.279c0.324-0.476,0.583-0.993,0.771-1.538c0.245-0.485,0.418-1.003,0.513-1.538
			c0.094-0.564,0.151-1.133,0.171-1.704c0-4.713-3.821-8.533-8.533-8.533s-8.533,3.821-8.533,8.533
			c0.018,0.571,0.075,1.141,0.171,1.704C298.958,404.363,299.129,404.882,299.375,405.366z"/>
		<path d="M210.887,430.199c-3.421-3.158-8.695-3.158-12.117,0c-0.773,0.814-1.383,1.769-1.796,2.813
			c-0.437,1.027-0.668,2.13-0.68,3.246c0,4.713,3.821,8.533,8.533,8.533s8.533-3.82,8.533-8.533
			c-0.013-1.116-0.245-2.219-0.683-3.246C212.266,431.969,211.658,431.014,210.887,430.199z"/>
		<path d="M245.021,430.199c-3.421-3.158-8.695-3.158-12.117,0c-0.773,0.814-1.383,1.769-1.796,2.813
			c-0.437,1.027-0.668,2.13-0.68,3.246c0,4.713,3.82,8.533,8.533,8.533s8.533-3.82,8.533-8.533
			c-0.013-1.116-0.245-2.219-0.683-3.246C246.399,431.969,245.791,431.014,245.021,430.199z"/>
		<path d="M279.154,430.199c-2.896-2.953-7.476-3.444-10.932-1.171c-3.456,2.272-4.82,6.672-3.256,10.501
			c1.564,3.829,5.618,6.015,9.677,5.219c4.058-0.797,6.985-4.354,6.986-8.49c-0.013-1.116-0.245-2.219-0.683-3.246
			C280.532,431.969,279.924,431.014,279.154,430.199z"/>
		<path d="M313.287,430.199c-2.896-2.953-7.476-3.444-10.932-1.171c-3.455,2.272-4.82,6.672-3.256,10.501
			c1.564,3.829,5.618,6.015,9.677,5.219c4.058-0.797,6.985-4.354,6.986-8.49c-0.013-1.116-0.245-2.219-0.683-3.246
			C314.666,431.969,314.058,431.014,313.287,430.199z"/>
		<path d="M318.237,413.132c-3.313,3.34-3.298,8.73,0.032,12.052s8.721,3.322,12.052,0s3.345-8.712,0.033-12.052
			C326.927,409.988,321.664,409.988,318.237,413.132z"/>
		<path d="M339.654,393.762c-0.535,0.091-1.053,0.263-1.538,0.508c-0.543,0.188-1.058,0.448-1.533,0.771
			c-0.448,0.314-0.876,0.656-1.279,1.025c-1.559,1.635-2.443,3.799-2.475,6.059c0.018,0.571,0.075,1.141,0.171,1.704
			c0.091,0.535,0.263,1.053,0.508,1.538c0.187,0.544,0.447,1.062,0.771,1.538c0.341,0.425,0.683,0.85,1.025,1.279
			c0.425,0.341,0.85,0.683,1.279,1.021c0.475,0.323,0.991,0.582,1.533,0.771c0.485,0.245,1.003,0.418,1.538,0.512
			c0.565,0.094,1.136,0.151,1.708,0.171c2.259-0.034,4.422-0.918,6.059-2.475c0.366-0.405,0.707-0.833,1.021-1.279
			c0.324-0.476,0.583-0.993,0.771-1.538c0.245-0.485,0.418-1.003,0.513-1.538c0.094-0.564,0.151-1.133,0.171-1.704
			c-0.033-2.259-0.917-4.422-2.475-6.059C345.371,394.062,342.464,393.2,339.654,393.762z"/>
	</g>
</g>
<g>
</g>
<g>
</g>
<g>
</g>
<g>
</g>
<g>
</g>
<g>
</g>
<g>
</g>
<g>
</g>
<g>
</g>
<g>
</g>
<g>
</g>
<g>
</g>
<g>
</g>
<g>
</g>
<g>
</g>
</svg>
